<?xml version="1.0" encoding="utf-8"?>
<!DOCTYPE svg PUBLIC "-//W3C//DTD SVG 1.1//EN" "http://www.w3.org/Graphics/SVG/1.1/DTD/svg11.dtd">
<svg version="1.1" xmlns="http://www.w3.org/2000/svg" width="500px" height="500px" viewBox="0 0 500 500" preserveAspectRatio="xMidYMid meet">
 <g fill="#4f3a28">
  <path d="M169.5 469.5 c-12.4 -3.7 -23.4 -7.9 -38.5 -14.9 -7.7 -3.6 -20.4 -8.6 -28.2 -11.2 -23.5 -7.6 -27.9 -11 -35.7 -27 -2.3 -4.9 -6.2 -12.3 -8.7 -16.4 -5.9 -10.2 -7.5 -15.3 -7.5 -23 0 -6.7 0.9 -10.1 8.9 -31 2.2 -5.8 4.3 -12.6 4.7 -15.1 l0.7 -4.5 -5 0 c-6.1 0.1 -9.6 -1.7 -11.7 -5.9 -4.3 -9.1 0.3 -21.4 13.5 -35.8 3.6 -4 6.8 -6.2 11.4 -8.2 l6.3 -2.7 7.3 -15.1 c4 -8.4 9.6 -21.7 12.5 -29.7 2.9 -8 6.1 -16.2 7.1 -18.3 1.6 -3.3 1.6 -3.9 0.4 -4.8 -2.6 -1.6 0.9 -2.9 8.3 -2.9 l6.7 0 0 3.3 c0 1.8 -1.3 5.8 -2.9 8.8 -1.7 3 -5.1 11.5 -7.7 18.9 -2.5 7.4 -6.6 17.4 -9 22.3 -5.1 10.1 -5.8 9.6 9.1 7.2 5 -0.8 15.5 -2.3 23.5 -3.4 8 -1.2 18.1 -2.6 22.5 -3.2 4.4 -0.7 11.6 -2.5 16 -4.1 28.2 -10.4 56.5 -17 89.5 -20.8 21.5 -2.5 28.5 -2.3 36.5 1.4 9.5 4.3 16.5 3.2 24.3 -3.8 2.1 -2 5.6 -4.3 7.6 -5.1 3.5 -1.5 37 -7.5 41.8 -7.5 4.6 0 5.1 -1.2 2.9 -7.1 -1.3 -3.5 -3.8 -7.1 -6.8 -10.1 l-4.8 -4.7 0.3 4.9 0.4 5 -5 0 c-5.6 0 -6.2 -0.7 -6.2 -7 0 -4 1.1 -5 5.6 -5 2.4 0 2.4 -0.1 1 -2.2 -0.9 -1.2 -1.6 -3.8 -1.6 -5.6 l0 -3.4 9.3 0.7 c9.9 0.8 11 1.1 8.7 2.5 -1.7 1.1 -1.7 1 4.7 8.9 3.2 4 5 7.6 7.3 15.1 l3 9.9 9.3 -0.5 c5 -0.2 12.2 -0.6 15.8 -0.8 7.3 -0.5 13.5 0.5 15.5 2.6 2 1.9 5.5 16.4 5.6 22.8 0 4.1 -0.5 6.5 -2.3 9.4 -2 3.5 -2.3 5.6 -3 21.5 -0.8 19 -2 24.9 -7 33.8 -3.5 6.3 -3.7 5.6 7.3 28.5 6.8 14.2 8.1 17.8 8.9 24.5 0.6 4.3 1.7 12.8 2.5 18.8 2.6 20.1 1.6 25.8 -6.2 34.5 -5 5.5 -25.2 18.9 -37.9 25.1 -12.9 6.3 -19 7.8 -35.5 8.9 -7.4 0.5 -17.8 1.6 -23 2.4 -5.2 0.8 -16 2.2 -24 3.1 -8 0.9 -24.6 3.6 -37 6 -23.9 4.7 -33.5 6 -49.5 7 -5.5 0.4 -15.9 1.7 -23.2 3.1 -17.1 3.1 -28.1 3.1 -38.8 -0.1z m35.8 -11.9 c6.7 -1.4 19 -2.9 27.2 -3.5 15 -1.1 32.6 -3.8 55 -8.5 6.6 -1.4 17.6 -3 24.5 -3.6 6.9 -0.6 20.1 -2.2 29.3 -3.5 9.3 -1.4 19.4 -2.5 22.6 -2.5 9.9 0 17.2 -1.9 28.6 -7.5 19.3 -9.4 36.4 -21.6 40.2 -28.9 1.5 -3 1.3 -6.3 -2.3 -37.3 -0.3 -2.4 -3.6 -10.4 -7.6 -18.5 -3.9 -7.9 -7.4 -15.4 -7.9 -16.7 -0.7 -1.7 -1.4 -2.1 -2.7 -1.5 -16.3 7.2 -41.2 9.3 -56.4 4.8 -6.2 -1.9 -12.8 -6.2 -16.2 -10.7 -4.7 -6.1 -10.5 -17.1 -14.1 -26.3 -2 -5.2 -4.4 -10.3 -5.4 -11.6 l-1.8 -2.2 -1.6 2.5 c-0.9 1.3 -2.1 6.5 -2.7 11.4 -5.4 42.3 -18.5 56 -59.1 62 -12.5 1.8 -21.8 1.9 -32.5 0.4 -12.9 -1.8 -17.9 -4.2 -26.4 -12.8 l-7.5 -7.6 -5.9 -15.8 c-5.1 -13.5 -6.3 -16 -8.8 -17.3 -2.9 -1.5 -3.4 -1.5 -40.3 4.1 -13.8 2.1 -18.9 1.9 -27 -1.1 -19.7 -7 -22.2 -6.7 -25.4 2.9 -1.2 3.4 -2.8 11.6 -3.7 18.2 -1 8.2 -2.8 15.6 -5.5 23.5 -2.2 6.3 -5.2 15 -6.7 19.2 l-2.6 7.8 1.8 5.2 c1.1 2.9 3.3 7.6 4.9 10.4 l3 5.2 6.9 0.7 c5.7 0.5 7.4 0.3 9.6 -1.1 4.5 -2.9 5.1 -4.3 3.4 -7.7 -1.6 -3.2 -2.9 -19 -1.8 -23.1 0.6 -2.4 1.1 -2.6 5.8 -2.6 l5.1 0 -0.6 5.8 c-0.4 3.2 -0.4 6.7 -0.1 7.9 0.5 2 0.8 1.9 4.4 -1.7 2.2 -2.2 6.1 -4.7 8.8 -5.6 l5 -1.8 0.4 -8.1 c0.3 -7.2 0.8 -9.1 5 -17.8 2.9 -5.9 5.2 -12.4 5.9 -16.5 0.6 -3.7 1.6 -7.3 2.1 -7.9 0.6 -0.7 2.7 -1.3 4.8 -1.3 4.3 0 5 1.2 5 9.6 0 8.4 -1.8 15.3 -6.6 25.7 -6.2 13.2 -5.6 16.3 4.9 28.9 7.9 9.3 8.7 10.8 8.7 15.5 l0 4.3 -4.8 0 c-4.7 0 -5.1 -0.2 -11.8 -7.2 -3.8 -4 -7.9 -8.6 -9 -10.1 l-2 -2.8 -4.9 3.3 c-3.5 2.4 -5.6 4.7 -7.2 8.3 -4.9 10.5 -5.9 12 -10.1 14.9 -3.7 2.6 -5.4 3.1 -11.8 3.4 -4.1 0.2 -7.4 0.8 -7.4 1.4 0 1.9 2.9 6.4 6.2 9.5 4 3.8 8.2 5.7 25.3 11.2 7.2 2.3 18.6 6.9 25.4 10.2 6.8 3.2 12.5 5.9 12.6 5.9 1.1 0 -5.2 -16.6 -8 -21.2 -2.3 -3.6 -3.5 -6.9 -3.5 -9.2 l0 -3.6 4.6 0 c4.1 0 5.1 0.5 8.1 3.8 4.2 4.5 6.3 8.5 9.3 17.5 1.8 5.5 3.5 8.2 8.4 13.4 10.2 11 15.4 12.1 36.9 7.9z m46 -115.2 c27.9 -4.4 40.8 -14.2 46.2 -35.1 0.8 -3.1 2.2 -10.8 3 -17.2 2.7 -19.5 6.8 -24.7 19.1 -23.8 6.5 0.5 10.7 2.6 12.7 6.3 1 1.9 1.2 0.2 1.2 -10.1 0 -14.3 0.9 -16.4 8.7 -20.2 8.2 -4 45 -10.3 59.9 -10.3 12.6 0 17.2 3.8 18.9 15.6 1.5 10.6 1.3 38 -0.4 44.4 -1.8 7 -1.2 7.8 0.8 1.1 2.2 -7.5 2.7 -12.2 2.9 -27.6 0.2 -12.8 0.4 -14.3 2.6 -17.8 2.4 -3.9 2.4 -5.7 0 -14.9 -1.7 -6.4 -2.9 -7 -13.3 -6.3 -12.9 0.9 -51.4 5.3 -62 7.1 -10.8 1.8 -14.2 3.2 -18 7.3 -4.4 4.6 -12.4 7.3 -23.6 7.8 -9.2 0.5 -9.9 0.4 -17 -2.7 -8.4 -3.7 -6.6 -3.7 -37 0.6 -24.7 3.5 -63.9 13.2 -67.8 16.9 -1.1 1 -1.2 2.9 -0.3 10.1 0.6 4.9 1.1 9.5 1.1 10.2 0 0.7 1.7 2 3.8 2.9 2 0.8 4 2 4.5 2.7 0.4 0.6 2.5 6.8 4.7 13.8 8.7 27.3 16.2 36.6 32.3 39.7 6.1 1.2 6 1.3 17 -0.5z m135.7 -23.8 c4.1 -0.8 9.1 -2.1 11 -3 4.4 -1.9 4.1 -1.9 -4.5 -0.1 -3.9 0.8 -11.4 1.5 -16.7 1.5 -12.6 0 -19.4 -2.3 -25.8 -8.9 -2.4 -2.5 -3.8 -3.7 -3 -2.6 9.2 13 19.9 16.5 39 13.1z m-321.6 -13.5 c6.5 -15.3 10.2 -18.1 23.3 -18.1 8.5 0 14.6 1.4 23.8 5.2 l6 2.6 22.2 -3.2 c12.2 -1.7 22.4 -3.4 22.7 -3.7 0.6 -0.5 -1.2 -17 -1.8 -17.7 -1.3 -1.2 -68.2 9.8 -78.1 12.8 -6.2 1.9 -7.8 2.9 -14 9.4 -6.5 6.6 -13.5 17.5 -13.5 20.8 0 0.8 0.5 1.9 1.2 2.6 1.9 1.9 4 -1 8.2 -10.7z m324 -31 c6.4 -16.7 11.5 -30.5 11.3 -30.7 -0.1 -0.1 -3.7 0 -8 0.3 -6.6 0.5 -7.7 0.8 -7.7 2.5 0 2 -7.6 21.2 -16.6 41.6 -5.6 12.8 -5.7 13.3 -3.8 14.7 3.2 2.5 10.7 4.5 12 3.1 0.6 -0.6 6.3 -14.8 12.8 -31.5z m12.6 24.9 c3.8 -2.7 7.8 -11.3 8.9 -19.5 1 -7.2 0.3 -25.1 -1 -23.8 -0.7 0.7 -12.6 30.9 -16.9 43 l-1.8 5.2 3.9 -1.5 c2.2 -0.7 5.3 -2.3 6.9 -3.4z m-37.8 -30.3 c4.7 -11.6 8.6 -21.3 8.5 -21.3 -0.7 -0.7 -18 3.1 -21.4 4.6 -9.1 4 -9.5 11.3 -1.7 27.9 2.6 5.6 5 10.1 5.3 10.1 0.3 0 4.5 -9.6 9.3 -21.3z m-187 7.5 c-0.3 -6.4 -0.8 -9.2 -1.6 -8.9 -1.3 0.5 -1.1 7.3 0.5 14 0.6 2.6 1.2 4.7 1.3 4.5 0.1 -0.2 0 -4.5 -0.2 -9.6z"/>
  <path d="M218.3 437.3 l-9.3 -3.6 0 -4.4 0 -4.3 6.3 0 c3.4 0.1 7.8 0.7 9.7 1.5 15.6 6.1 15 5.6 15 10.3 l0 4.2 -6.2 0 c-4.8 -0.1 -8.5 -1 -15.5 -3.7z"/>
  <path d="M180.5 430.1 c-5.1 -2.4 -7.7 -4.9 -11.2 -10.8 -1.5 -2.7 -3.8 -6.3 -5.1 -8.1 -1.4 -1.8 -2.7 -5.2 -3 -7.7 l-0.5 -4.5 3.9 0 c5.3 0 9.9 3 13.3 8.7 5 8.3 7.9 11.1 13.1 12.8 5.2 1.7 6 2.8 6 8.1 l0 3.4 -6.2 0 c-4 0 -7.8 -0.7 -10.3 -1.9z"/>
  <path d="M358.7 422.3 c-0.4 -0.3 -0.7 -2.3 -0.7 -4.3 0 -2.8 0.6 -4.1 2.8 -5.7 5.5 -4 11.7 -6.5 20.9 -8.4 5.1 -1 11 -2.7 13.1 -3.8 6.6 -3.4 12.8 -9.8 16.3 -16.6 l3.3 -6.6 4 0.3 c4.1 0.3 4.1 0.3 4.4 4.7 0.4 6.1 -2.1 12.1 -8 19.2 -6.1 7.4 -13 11.4 -22.2 13 -3.9 0.7 -11.2 2.9 -16.3 5 -8.5 3.6 -15.9 4.9 -17.6 3.2z"/>
  <path d="M184.2 403.3 c-1.8 -0.8 -4.6 -3.1 -6.2 -5 -2.5 -2.8 -3 -4.2 -3 -8.3 l0 -5 3.8 0 c3 0 5.1 1 9.8 4.6 7.2 5.6 7.4 5.9 7.4 11.2 l0 4.2 -4.2 0 c-2.4 0 -5.8 -0.8 -7.6 -1.7z"/>
  <path d="M228.3 337.2 c-13 -4.7 -19.4 -14.5 -25.8 -39.6 -2.9 -11.5 -3.4 -24 -1 -28.6 3.4 -6.5 13.7 -10.9 36.6 -15.6 12.6 -2.6 42.5 -4.5 48.3 -3 4 1 9.3 6.3 11.2 11.1 2.2 5.9 1.5 33.6 -1.1 43.5 -6.4 23.8 -19.4 32.5 -50 33.6 -10.9 0.4 -13.8 0.2 -18.2 -1.4z m16 -12.7 c1 -3.2 12 -29.8 20.7 -50.3 2.9 -6.8 4.9 -12.6 4.6 -12.9 -1.1 -1.1 -18.8 1.5 -20.2 2.9 -0.6 0.7 -2.1 4 -3.3 7.3 -1.2 3.3 -6.3 15.6 -11.3 27.3 l-9.1 21.3 2.5 2.5 c2.9 2.9 9.2 5.5 12.7 5.1 1.7 -0.1 2.7 -1.1 3.4 -3.2z m23.2 -1.9 c2.8 -1.3 6.5 -3.9 8.4 -5.7 11 -10.9 16.1 -43.1 8.3 -52.2 -1.9 -2.2 -1.8 -2.4 -7 11.3 -3.1 8.1 -14.4 35.8 -19.9 48.9 -0.8 1.8 3.2 0.9 10.2 -2.3z m-39.6 -38.3 c7.7 -17.9 7.8 -18.3 5.2 -17.7 -12.5 2.8 -22.1 8.4 -22.1 12.9 0 2.6 4.3 19.7 6 24 1.1 2.8 1.3 2.9 2.1 1 0.5 -1.1 4.5 -10.2 8.8 -20.2z"/>
  <path d="M147.7 249.3 c-1.9 -1.8 -0.6 -11.4 2.3 -17.5 1.6 -3.4 3 -7.4 3 -8.8 0 -1.4 0.6 -5.3 1.4 -8.7 l1.3 -6.3 -6.4 0 c-8.2 0 -10.3 -1.1 -10.3 -5.4 0 -3.1 0.3 -3.4 4.4 -4.5 7.2 -1.8 12.3 -1.4 14 1 1.4 2 1.5 2 2.5 0.2 2.7 -4.6 4.3 -5.5 13.5 -7.9 13.5 -3.4 14.6 -3.3 14.6 1.1 0 2.8 -0.5 3.7 -2.5 4.5 -11.8 4.5 -18.1 14 -20.5 31.2 -1.3 8.9 -3.5 15.9 -6.1 19.2 -1.6 2.1 -2.9 2.6 -6.3 2.6 -2.3 0 -4.6 -0.3 -4.9 -0.7z"/>
  <path d="M338 195.5 c-1.3 -2 -2.5 -5.7 -2.8 -8.1 l-0.5 -4.4 5.1 0 c4.4 0 5.3 0.4 7.7 3.1 2.1 2.6 2.5 4 2.3 7.8 l-0.3 4.6 -4.6 0.3 c-4.4 0.3 -4.8 0.1 -6.9 -3.3z"/>
  <path d="M112 197.1 c0 -0.6 0.4 -1.1 0.9 -1.1 0.6 0 2.5 -2.1 4.3 -4.6 4.4 -6.1 14.1 -12.4 28.7 -18.5 7.2 -3.1 12.1 -5.7 12.1 -6.5 0 -1.7 3.2 -1.8 4.8 -0.2 0.9 0.9 1.2 0.9 1.2 -0.2 0 -0.8 3.1 -3 6.9 -4.9 3.8 -1.9 8 -4.3 9.3 -5.3 2 -1.5 2.1 -1.9 0.8 -2.8 -2.2 -1.4 4.5 -1.3 10.9 0.2 4.8 1.1 5.1 1.3 5.1 4.3 0 3.5 -1.8 5.2 -10.7 9.9 -4.5 2.5 -6 2.8 -11.9 2.4 -3.7 -0.2 -6.2 -0.2 -5.6 0 0.7 0.2 1.2 1.8 1.2 3.6 0 3.7 0.2 3.6 -15.7 9.7 -8.3 3.2 -8.3 3.2 -8.3 6.8 l0 3.6 -9.7 1.8 c-13.3 2.5 -24.3 3.3 -24.3 1.8z"/>
  <path d="M166 184.5 c0 -3.4 0.1 -3.5 4 -3.5 2.2 0 4 -0.4 4 -1 0 -0.5 -0.7 -1 -1.5 -1 -1 0 -1.5 -1.1 -1.5 -3.5 0 -3.5 0 -3.5 4.5 -3.5 4.3 0 4.5 0.1 4.5 3 0 2.5 0.4 3 2.5 3 2.2 0 2.5 0.4 2.5 3.4 0 3.7 -1.5 4.6 -7.7 4.6 -1.8 0 -3.3 0.5 -3.3 1 0 0.6 -1.8 1 -4 1 -3.9 0 -4 -0.1 -4 -3.5z"/>
  <path d="M197.1 176.8 c0 -2.8 0.9 -4 5.4 -7.5 4 -3.2 6.3 -4.3 8.9 -4.3 3.3 0 3.6 0.3 3.6 2.9 0 1.5 -0.5 4.2 -1.1 5.9 -0.9 2.6 -2 3.4 -6.2 4.7 -2.8 0.8 -6.3 1.5 -7.9 1.5 -2.5 0 -2.8 -0.3 -2.7 -3.2z"/>
  <path d="M354.9 176.1 c-2.8 -0.5 -4.6 -1.8 -8 -6 -4.7 -5.8 -9 -8.5 -20.9 -12.7 -16.1 -5.8 -17 -6.3 -17 -9.8 0 -2.9 0.5 -3.4 6.3 -5.9 6.4 -2.8 10.7 -3.5 10.7 -1.7 0 0.6 -0.5 1 -1.2 1 -2.5 0 1.7 2.7 7.7 5 16.5 6.3 21.6 10.3 29.8 23.3 2 3.1 4.1 5.7 4.7 5.7 0.5 0 1 0.5 1 1 0 1.1 -7.1 1.1 -13.1 0.1z"/>
  <path d="M217 151.4 l0 -3.5 -3.1 2.2 c-2.6 1.8 -3.9 2.1 -8.2 1.5 -6.6 -0.8 -12.7 -2.5 -12.7 -3.5 0 -1 14.3 -10.1 25.9 -16.5 13 -7.2 21.1 -9.8 32.1 -10.3 10.6 -0.5 10.8 -0.5 39.9 10.1 8.4 3.1 16.4 5.7 17.7 5.8 4.5 0.4 2.8 3.4 -3.2 5.7 -9.6 3.7 -14.9 2.9 -35.4 -5.5 l-11.2 -4.5 -5.7 1.6 c-7.7 2.2 -15.1 7.3 -20.8 14.4 -4.7 5.9 -4.9 6 -10 6 l-5.3 0.1 0 -3.6z"/>
 </g>
 <g fill="#7f6547">
  <path d="M175.5 461.1 c-2.2 -1 -6.8 -4.7 -10.1 -8.4 -4.9 -5.2 -6.6 -7.9 -8.4 -13.4 -3 -9 -5.1 -13 -9.3 -17.5 -3 -3.3 -6.7 -5 -6.7 -3.2 0 0.3 1.6 3.1 3.5 6.2 1.9 3.2 4.6 9.3 6 13.7 1.4 4.4 4.1 10.2 6 13 1.8 2.7 3.3 5.1 3.1 5.2 -0.5 0.5 -11.7 -4.1 -24.6 -10.2 -7.4 -3.5 -19.3 -8.2 -26.5 -10.6 -17 -5.5 -22.3 -7.9 -26.2 -12.1 -2.8 -2.9 -8.3 -14 -8.3 -16.7 0 -0.6 1.5 -0.5 3.7 0.1 6.2 1.7 13.8 0.5 18.6 -2.8 4.1 -2.9 5.1 -4.4 10 -14.9 1.8 -4 3.6 -5.9 8.7 -9.2 3.5 -2.4 7 -4.3 7.7 -4.3 0.7 0 2 1.4 2.8 3.1 2.4 4.6 16.5 18.9 18.6 18.9 3.8 0 2.3 -3 -6.8 -13.8 -7 -8.3 -8.5 -11.4 -9.1 -18.8 -0.4 -5.8 -0.1 -6.9 4.2 -16.1 3.6 -7.8 6.6 -17.3 6.6 -20.9 0 -0.2 0.7 -0.4 1.6 -0.4 1.4 0 1.6 0.9 1.1 6.6 -0.4 5 -1.5 8.7 -5.1 16 -2.7 5.6 -4.6 11 -4.6 13 0 4.3 2.8 11.5 5.2 13.2 1 0.7 1.8 2.1 1.8 3 0 1 1 2.2 2.2 2.7 1.2 0.6 2.6 1.8 3.2 2.9 2.6 4.5 6.6 7.5 13.8 10.5 4.2 1.7 8.5 3.1 9.5 3.1 2.7 0 8.3 3.7 8.3 5.5 0 0.8 0.5 1.5 1 1.5 0.6 0 1 0.7 1 1.5 0 0.8 0.4 1.5 0.8 1.5 0.5 0 1.7 1.7 2.8 3.9 1.3 2.8 3.1 4.4 6.5 6 2.6 1.1 5.1 2.1 5.6 2.1 0.4 0 1.7 1.1 2.7 2.5 1.7 2.2 2.6 2.5 8.2 2.5 4.1 0 6.4 -0.4 6.4 -1.1 0 -2.2 11.6 -0.3 18.6 3 3.6 1.7 7.2 3.1 8 3.1 0.8 0 1.4 0.4 1.4 0.9 0 1.8 3.3 1.9 18.2 0.5 30.5 -2.8 56.7 -7.2 65.5 -10.9 4.9 -2.1 14.1 -4 27 -5.5 8.4 -1.1 10.2 -1.6 10.6 -3.2 0.3 -1 1.2 -1.8 2.1 -1.8 0.9 0 1.6 -0.4 1.6 -0.9 0 -1.5 9.6 -5.1 18.8 -7 8.5 -1.7 16.8 -5.3 18.5 -7.8 0.4 -0.7 1.5 -1.3 2.2 -1.3 0.8 0 1.5 -0.6 1.5 -1.4 0 -0.8 0.8 -2.1 1.8 -2.8 1 -0.7 2.4 -2.8 3.1 -4.5 0.7 -1.8 1.7 -3.3 2.2 -3.3 0.5 0 0.9 -0.7 0.9 -1.6 0 -0.9 2.4 -4.1 5.4 -7.2 11.2 -11.7 11.9 -13.6 8.2 -21 -1.4 -2.8 -2.6 -5.8 -2.6 -6.7 0 -0.8 -0.4 -1.5 -0.8 -1.5 -1.1 0 -5.2 -8.6 -5.2 -11 0 -2.5 -0.5 -2.5 -3.8 -0.1 -3.4 2.3 -16.4 8.5 -22.1 10.6 -5.9 2.1 -26.9 2 -36.1 -0.1 -12.1 -2.7 -21.6 -10.7 -29.8 -25 -8.6 -15.1 -12.3 -17.7 -14.2 -10.1 -3.4 14.1 -5.2 18.4 -12.7 30 -9.2 14.2 -18.5 21 -38.4 27.9 -9.1 3.2 -9.9 3.3 -25.4 3.3 -13.6 0 -17.3 -0.3 -24.4 -2.3 -10.1 -2.7 -14.9 -5.1 -20.2 -9.9 -6.2 -5.6 -9.5 -11.1 -15.8 -26.1 l-5.8 -13.7 -6.4 -1.1 c-8.2 -1.5 -15.1 -1.7 -18.3 -0.4 -2.3 0.8 -2.6 1.5 -2.6 5.5 0 5.3 -2.4 6.4 -3.5 1.5 -1.3 -5.9 -3.8 -3.1 -5.4 6.2 -0.7 4.1 -3 10.6 -5.9 16.5 -4.4 9.2 -4.7 10.2 -4.7 18 0 6.8 -0.3 8.3 -1.6 8.3 -3.8 0 -12.2 5.4 -15.7 10.1 l-3.7 4.9 -1.6 -2.2 c-2.3 -2.9 -4.1 -9.4 -3.5 -11.8 0.4 -1.1 0.9 -2.9 1.2 -4 0.4 -1.5 0.1 -2 -1.5 -2 -4.7 0 -3.9 16.2 1.1 23.2 1.8 2.5 -1.3 7.9 -6.2 10.7 -3.6 2 -4.3 2.1 -12.8 0.9 l-9 -1.2 -2.6 -4.4 c-4.1 -6.7 -6.6 -14.2 -6.6 -19.5 0 -3.1 1.5 -9 4.6 -17.5 7 -19 8.2 -23.6 9.9 -36.2 0.8 -6.3 2.4 -14.3 3.6 -17.7 1.7 -5.2 2.5 -6.3 5.1 -7.2 5.9 -2.1 10.4 -1.3 26.8 4.5 8.5 3 6.9 3 41 -2.2 28 -4.3 26.6 -5 34.6 16.3 l5.9 15.8 7.5 7.6 c9 9.1 14.2 11.4 29.4 13.1 8.5 1 12 0.9 22.1 -0.6 29.1 -4.1 42.9 -11.5 51.2 -27.1 3.5 -6.8 7.7 -22.7 9.4 -35.7 1.2 -9.7 3.4 -13.8 7.4 -13.8 3.3 0 5.8 3.6 10 14.4 3.6 9.2 9.5 20.2 14.1 26.3 6.6 8.6 17.5 12.8 33.4 12.6 12.4 -0.1 22 -2 32 -6.2 3.9 -1.7 7.6 -3.1 8 -3.1 0.4 0 1.1 1.1 1.4 2.5 0.4 1.4 4 9.4 8.2 17.8 7.5 15.2 7.5 15.5 8.5 26.3 0.6 6 1.6 15 2.4 20 1.8 11.2 0.9 14.9 -4.8 21.2 -9.1 9.9 -41 28 -53.1 30.1 -3.3 0.6 -8.5 1.1 -11.7 1.1 -3.2 0 -13.3 1.1 -22.6 2.5 -9.2 1.3 -22.4 2.9 -29.3 3.5 -6.9 0.6 -17.9 2.2 -24.5 3.6 -22.4 4.7 -40 7.4 -55 8.5 -8.2 0.6 -20.5 2.1 -27.2 3.5 -15 2.9 -27.1 3.2 -32.8 0.5z m61.5 -24.6 c0 -0.8 -0.6 -1.5 -1.2 -1.5 -0.7 0 -4.2 -1.4 -7.8 -3.1 -7.6 -3.6 -16 -5 -16 -2.7 0 0.9 3.4 2.8 9.3 5.1 9.9 3.9 15.7 4.7 15.7 2.2z m-43 -7.9 c0 -2.1 -1.9 -3.8 -6 -5.1 -5.2 -1.7 -8.1 -4.5 -13.1 -12.8 -2.5 -4.1 -7.8 -8.7 -10.1 -8.7 -1.1 0 0.2 3.1 2.7 6.5 1.1 1.7 3.3 5.1 4.8 7.8 3.5 5.9 6.1 8.4 11.2 10.8 3.5 1.6 10.5 2.6 10.5 1.5z m179.3 -12.5 c5.1 -2.1 12.4 -4.3 16.3 -5 9.2 -1.6 16.1 -5.6 22.2 -13 5.2 -6.2 8.9 -13.9 7.9 -16.6 -1.1 -2.7 -2.3 -1.6 -5.6 5 -3.5 6.8 -9.8 13.3 -16.3 16.6 -2.1 1.1 -8 2.8 -13.1 3.8 -12.2 2.5 -25.1 9.1 -23.3 12 1.1 1.6 1.8 1.5 11.9 -2.8z"/>
  <path d="M233.5 420.2 c-7.5 -3.6 -8.7 -5.1 -8.3 -9.9 0.3 -3.7 0.4 -3.8 4.7 -4.1 3.3 -0.2 6.4 0.5 12 2.9 10.1 4.3 10.3 4.5 9.9 9.3 l-0.3 4.1 -6 0.3 c-4.9 0.2 -7.1 -0.3 -12 -2.6z"/>
  <path d="M186.8 405.3 c-1 -0.2 -1.8 -0.9 -1.8 -1.4 0 -0.5 -0.7 -0.9 -1.5 -0.9 -1 0 -1.5 -1 -1.5 -3.1 l0 -3 2.8 2 c3.8 2.7 8.2 3.7 8.2 2 0 -0.8 -0.4 -1.9 -0.8 -2.6 -1 -1.5 -12.3 -10.3 -13.4 -10.3 -1.3 0 -0.9 3.4 0.8 5.8 1.5 2.1 1.4 2.2 -1.5 2.2 -3.4 0 -4.5 -2.2 -3.9 -8.1 0.3 -3.1 0.6 -3.4 3.9 -3.7 2.3 -0.2 4.2 0.3 5.2 1.2 0.9 0.9 2 1.6 2.6 1.6 0.5 0 1.6 0.8 2.3 1.8 0.7 1 2.1 2.1 3.1 2.5 0.9 0.3 1.7 1.3 1.7 2.2 0 0.8 0.7 1.5 1.5 1.5 1.5 0 3 5.4 2.3 8.7 -0.2 1.3 -1.3 1.8 -4.3 2 -2.2 0 -4.8 -0.1 -5.7 -0.4z"/>
  <path d="M234.5 346.5 c-0.5 -0.2 -2.7 -0.6 -4.7 -1 -2.4 -0.4 -3.8 -1.1 -3.8 -2 0 -1.7 1.1 -1.8 8.8 -0.9 4.2 0.6 5.2 1 5.2 2.5 0 1.8 -2.5 2.4 -5.5 1.4z"/>
  <path d="M241 345.1 c0 -1.5 1.1 -1.9 6.5 -2.4 7.4 -0.7 24.8 -4.8 25.3 -5.9 0.2 -0.5 1.2 -0.8 2.3 -0.8 1 0 1.9 -0.4 1.9 -1 0 -0.5 1.4 -1 3 -1 2.3 0 3 -0.4 3 -2 0 -1.6 0.7 -2 3 -2 2.7 0 3 -0.3 3 -3 0 -2.3 0.4 -3 2 -3 1.6 0 2 -0.7 2 -3 0 -1.6 0.5 -3 1 -3 0.6 0 1 -1.1 1 -2.4 0 -1.3 0.4 -2.6 0.8 -2.8 0.8 -0.3 4.2 -16.9 4.2 -20.6 0 -1.5 0.6 -2.2 2 -2.2 2.4 0 2.4 -0.5 0.5 10.6 -4.9 28.8 -16.8 39.8 -48.5 44.9 -12.2 1.9 -13 1.9 -13 -0.4z"/>
  <path d="M205.7 338 c-6.7 -6.1 -10.2 -12 -15.2 -26 -3.5 -9.6 -4.3 -11 -9.7 -16.2 -6.8 -6.5 -8.5 -10.6 -9.5 -23 l-0.6 -7.8 3.6 -1.5 c2 -0.8 4.1 -1.5 4.7 -1.5 0.6 0 1 2.9 1 7 0 6.3 -0.2 7 -1.9 7 -1.6 0 -2.1 -0.8 -2.4 -4.2 l-0.4 -4.3 0 4.5 c-0.1 4.9 1.4 11.6 1.6 7.3 0.2 -3.5 2.9 -2.7 3.6 1 1.6 7.8 2.6 9.7 6.5 11.7 3.7 1.9 4 2.4 7.5 13.7 4.3 13.8 10.1 26.8 14.6 32.4 1.7 2.2 2.9 4.2 2.7 4.4 -0.2 0.3 -3 -1.8 -6.1 -4.5z"/>
  <path d="M216.9 339.8 l-4.4 -3.3 3.5 -0.3 c1.9 -0.2 3.6 0.1 3.8 0.7 0.2 0.6 1 1.1 1.8 1.1 0.8 0 1.4 1 1.4 2.5 0 3.3 -0.8 3.2 -6.1 -0.7z"/>
  <path d="M230.3 338.3 c-1.6 -0.3 -2.3 -1.1 -2.3 -2.7 l0 -2.3 5.5 1.5 c8.9 2.5 6.2 5.3 -3.2 3.5z"/>
  <path d="M248 337.6 c0 -1.4 1.4 -1.9 9.8 -3.1 3.7 -0.6 4.2 -0.5 4.2 1.3 0 1.5 -0.9 2.1 -4.6 2.6 -7.2 0.9 -9.4 0.8 -9.4 -0.8z"/>
  <path d="M263 334.7 c0 -0.7 2.4 -2.1 5.3 -3.1 16.3 -5.7 23 -15.5 27.2 -39.8 0.7 -4.7 3.5 -5.3 3.5 -0.9 0 4.5 -2.9 17.6 -4 17.9 -0.6 0.2 -1 1.7 -1 3.3 0 1.9 -0.5 2.9 -1.5 2.9 -1 0 -1.5 1 -1.5 3 0 1.7 -0.4 3 -1 3 -0.5 0 -1 0.7 -1 1.5 0 0.9 -0.9 1.5 -2.5 1.5 -2 0 -2.5 0.5 -2.5 2.5 0 1.6 -0.6 2.5 -1.5 2.5 -0.8 0 -1.5 0.5 -1.5 1 0 0.6 -1.3 1 -3 1 -1.9 0 -3 0.5 -3 1.4 0 1.6 -5 3.6 -9.1 3.6 -1.7 0 -2.9 -0.5 -2.9 -1.3z"/>
  <path d="M220 331 l0 -3 3.5 2.2 c4.4 2.9 4.4 3.8 0 3.8 -3.2 0 -3.5 -0.2 -3.5 -3z"/>
  <path d="M231.6 329.5 c-2.2 -0.7 -4.9 -2.3 -6 -3.5 l-2.1 -2.2 4 0.5 c6.5 0.8 11.5 3 11.5 4.9 0 2.1 -2.1 2.2 -7.4 0.3z"/>
  <path d="M243 329.4 c0 -2.7 2.2 -9.4 3.2 -9.4 0.4 0 0.8 -0.8 0.8 -1.7 0 -2.5 3.1 -10.3 4.1 -10.3 0.5 0 0.9 -1.1 0.9 -2.4 0 -1.4 0.7 -3.1 1.5 -4 0.8 -0.8 1.5 -2.4 1.5 -3.5 0 -1.2 0.5 -2.1 1 -2.1 0.6 0 1 -1.1 1 -2.5 0 -1.6 0.6 -2.5 1.5 -2.5 1 0 1.5 -1 1.5 -2.7 0 -3.3 2.9 -11.3 4.1 -11.3 0.5 0 0.9 -1.1 0.9 -2.4 0 -1.4 0.7 -3.1 1.5 -4 0.8 -0.8 1.5 -2.1 1.5 -2.9 0 -2.6 1.2 -4.7 2.6 -4.7 0.8 0 1.4 -1 1.4 -2.5 0 -1.9 0.5 -2.5 2.1 -2.5 1.3 0 1.9 0.5 1.6 1.3 -0.3 0.6 -3.9 9.1 -8 18.7 -9.7 22.8 -19.2 45.7 -20.4 49.5 -1.1 3.3 -4.3 4.8 -4.3 1.9z"/>
  <path d="M253 325.3 c1 -2.7 5.3 -13.1 9.5 -23.3 4.2 -10.2 9.8 -24.1 12.4 -31 2.9 -7.5 5.4 -12.6 6.3 -12.8 2.5 -0.5 7.4 4.4 8.6 8.6 1.7 5.5 1.5 7.2 -0.6 7.2 -1.4 0 -2.2 -1.3 -3.2 -5.5 -0.7 -3.1 -1.8 -5.4 -2.4 -5.2 -0.6 0.2 -1.9 2.4 -2.8 4.8 -3.9 10 -17.3 42.9 -20.4 50.2 -3.8 9 -3.9 9 7.2 3.6 3.4 -1.6 6.7 -2.9 7.3 -2.9 0.6 0 1.1 -0.7 1.1 -1.5 0 -0.8 0.7 -1.5 1.5 -1.5 0.8 0 1.5 -0.9 1.5 -2 0 -1.1 0.7 -2 1.5 -2 0.9 0 1.5 -0.9 1.5 -2.3 0 -1.3 0.9 -5 2.1 -8.3 1.1 -3.2 2.3 -8.9 2.6 -12.6 0.5 -5.7 0.9 -6.8 2.4 -6.8 2.4 0 2.5 4.1 0.3 14.8 -2.8 14.1 -8.8 23.8 -17.4 28.2 -4.9 2.5 -13.7 5 -17.7 5 l-3.3 0 2 -4.7z"/>
  <path d="M213 324.5 c0 -1.6 -0.6 -2.5 -1.5 -2.5 -1 0 -1.5 -1.1 -1.5 -3.5 0 -2.3 -0.5 -3.5 -1.4 -3.5 -1.4 0 -2.6 -2.9 -2.6 -6.7 0 -1.3 -0.4 -2.3 -1 -2.3 -0.5 0 -1 -1.6 -1 -3.5 0 -1.9 -0.4 -3.5 -0.9 -3.5 -0.9 0 -3.1 -9.7 -3.1 -13.7 0 -1.3 0.6 -2.3 1.3 -2.3 0.9 0 2.3 3.9 4.1 11 3 12.3 7.2 23.2 11 29.1 l2.6 3.9 -3 0 c-2.5 0 -3 -0.4 -3 -2.5z"/>
  <path d="M221.5 322 c-0.4 -0.6 2.8 -9 7.1 -18.8 4.3 -9.7 9.6 -22.4 11.9 -28.1 4.6 -11.8 7.1 -14.4 6.2 -6.5 -0.3 2.7 -1 5 -1.6 5.2 -0.6 0.2 -1.1 1.5 -1.1 2.8 0 1.3 -0.4 2.4 -1 2.4 -0.5 0 -1 1.1 -1 2.5 0 1.4 -0.4 2.5 -1 2.5 -0.5 0 -1 1.1 -1 2.4 0 1.4 -0.7 3.1 -1.5 4 -0.8 0.8 -1.5 2.4 -1.5 3.5 0 1.1 -0.7 2.6 -1.5 3.5 -0.8 0.8 -1.5 2.1 -1.5 2.9 0 2.6 -1.2 4.7 -2.6 4.7 -0.9 0 -1.4 1.1 -1.4 2.9 0 3.9 -0.9 6.1 -2.6 6.1 -0.9 0 -1.4 1.1 -1.4 2.9 0 1.6 -0.3 3.6 -0.6 4.5 -0.7 1.8 -3 2.1 -3.9 0.6z"/>
  <path d="M362.1 321.7 c-4.2 -1.5 -5.3 -3.7 -1.8 -3.7 5.3 0 8.7 1.2 8.7 3.1 0 2.2 -1.9 2.3 -6.9 0.6z"/>
  <path d="M379 321 c0 -1.5 0.7 -2 2.8 -2 3.9 0 18.2 -3.3 18.2 -4.2 0 -0.4 1.6 -0.8 3.5 -0.8 8.6 0 -0.8 5.2 -13.5 7.6 -10.2 1.8 -11 1.8 -11 -0.6z"/>
  <path d="M55.2 319.4 c-2.8 -1.9 -3 -5.4 -0.2 -5.4 1.1 0 2 0.7 2 1.5 0 0.8 0.8 1.5 1.9 1.5 1.3 0 2 -0.9 2.5 -3 0.3 -1.8 1.2 -3 2.1 -3 1.1 0 1.5 -1 1.5 -3.5 0 -3.1 0.3 -3.5 2.5 -3.5 2.7 0 2.7 -0.2 -1.3 9.1 -1.9 4.4 -5.3 7.9 -7.7 7.9 -0.6 0 -2.1 -0.7 -3.3 -1.6z"/>
  <path d="M203.2 318.3 c-0.6 -1 -2.6 -7 -4.6 -13.3 -2 -6.3 -3.9 -12 -4.3 -12.6 -0.5 -0.7 -2.5 -1.9 -4.5 -2.7 -4.8 -2 -4.9 -3.7 -0.3 -3.7 2.4 0 3.5 0.5 3.5 1.5 0 0.9 0.9 1.5 2.4 1.5 2 0 2.7 0.8 4 4.7 0.9 2.6 1.6 5.9 1.6 7.5 0 1.5 0.4 2.8 0.8 2.8 1.1 0 4.2 9.9 4.2 13.3 0 3.1 -1.5 3.5 -2.8 1z"/>
  <path d="M351.1 315.4 c-5.6 -5 -9.3 -11.2 -16.1 -27 -6.3 -14.8 -8.6 -17.7 -14.8 -18.9 -2.4 -0.4 -4.5 0 -7.3 1.3 l-3.9 1.9 0 -2.7 c0 -2 0.6 -2.9 2.3 -3.4 3.6 -0.9 12.7 -0.7 12.7 0.4 0 0.6 1.1 1 2.5 1 2.1 0 2.5 0.5 2.5 3 0 2.5 0.4 3 2.4 3 1.3 0 2.7 0.6 2.9 1.3 0.3 0.7 0.6 0.5 0.6 -0.5 0.1 -1 -0.3 -1.8 -0.9 -1.8 -0.5 0 -1 -1.6 -1 -3.5 0 -5.9 2.4 -4.1 4.7 3.5 l2 7 -2.6 0.1 c-1.4 0 -2 0.3 -1.3 0.6 0.6 0.2 1.2 1.6 1.2 2.9 0 1.3 0.5 2.4 1 2.4 0.6 0 1 -0.7 1 -1.5 0 -3.5 2.2 -1 6.5 7.4 5.9 11.4 11.3 17.3 18.3 19.7 2.8 1 5.2 2.4 5.2 3.1 0 1.8 -5.1 1.6 -10 -0.3 -3.4 -1.4 -4 -2.1 -4 -4.5 0 -2.4 -0.4 -2.9 -2.5 -2.9 -2.2 0 -2.5 0.4 -2.5 3.5 0 3.3 0.2 3.5 3.5 3.5 3.1 0 3.5 0.3 3.5 2.5 0 3.4 -1.3 3.2 -5.9 -1.1z m-2.1 -10.4 c0 -1.1 -0.7 -2 -1.5 -2 -0.8 0 -1.5 0.9 -1.5 2 0 1.1 0.7 2 1.5 2 0.8 0 1.5 -0.9 1.5 -2z"/>
  <path d="M374 316 c0 -1.6 0.7 -2 3.5 -2 2.8 0 3.5 0.4 3.5 2 0 1.6 -0.7 2 -3.5 2 -2.8 0 -3.5 -0.4 -3.5 -2z"/>
  <path d="M382 315.5 c0 -0.9 1.4 -1.7 3.8 -2 2 -0.4 5.3 -1.1 7.2 -1.6 5 -1.3 6 -1.1 6 1 0 1.4 -1.2 2.1 -5.7 3 -7.8 1.5 -11.3 1.4 -11.3 -0.4z"/>
  <path d="M215 309.3 c-3.2 -8.4 -7 -24.1 -7.3 -29.5 -0.3 -5.8 2 -8.5 10.2 -12.2 5.2 -2.3 17.9 -5.6 21.7 -5.6 2 0 1.9 0.5 -9.1 26 -11.4 26.6 -11.6 27 -12.6 27 -0.4 0 -1.7 -2.6 -2.9 -5.7z m11 -21.8 c4 -9.3 7.7 -17.8 8.2 -18.9 0.9 -1.7 0.7 -1.8 -2.8 -1.2 -2.2 0.4 -6.8 2 -10.3 3.7 -3.5 1.6 -7.2 2.9 -8.3 2.9 -1.9 0 -2 0.4 -1.5 5.3 1 8.4 6.1 26.7 7.1 25.6 0.2 -0.2 3.6 -8 7.6 -17.4z"/>
  <path d="M408 312.5 c0 -1.8 -0.5 -2.5 -2 -2.5 -2.9 0 -2.4 -1.2 1.5 -3.8 3.4 -2.2 3.5 -2.2 3.5 -0.2 0 1.5 0.7 2 2.5 2 2 0 2.5 -0.5 2.5 -2.5 0 -2 -0.5 -2.5 -2.5 -2.5 l-2.5 0 2.5 -3.8 c1.3 -2.1 3.2 -6.8 4.1 -10.5 1.1 -4.2 2.2 -6.7 3 -6.7 1.6 0 1.8 3.7 0.5 9.3 -0.8 3.5 -0.8 3.7 1.5 3.7 2.3 0 2.4 0.1 1.1 3.2 -1.7 4 -3.7 4.8 -3.7 1.4 0 -1.6 -0.6 -2.6 -1.5 -2.6 -1 0 -1.5 1 -1.5 3 0 2.3 0.4 3 2 3 2.4 0 2.5 0.8 0.4 3.8 -1.7 2.5 -9.1 8.2 -10.6 8.2 -0.4 0 -0.8 -1.1 -0.8 -2.5z"/>
  <path d="M53 310.4 c0 -2.1 1.8 -5.4 3 -5.4 0.6 0 1 1.6 1 3.5 0 2.8 -0.4 3.5 -2 3.5 -1.1 0 -2 -0.7 -2 -1.6z"/>
  <path d="M368.3 308.6 c-2.2 -0.8 -5.5 -2.3 -7.2 -3.5 -2.9 -2.1 -3 -2.2 -1.7 -5.9 3.3 -9.2 7.9 -19.1 8.7 -18.6 1.6 1 1.1 7.4 -0.6 7.4 -1 0 -1.5 1.1 -1.5 3.5 0 1.9 -0.4 3.5 -1 3.5 -0.5 0 -1 1.1 -1 2.5 0 1.4 -0.4 2.5 -1 2.5 -0.5 0 -1 0.7 -1 1.5 0 0.8 0.8 1.5 1.9 1.5 1 0 3.5 0.7 5.4 1.5 6.1 2.5 7.3 2.1 9.2 -3.5 0.9 -2.7 2.1 -5 2.6 -5 0.5 0 0.9 -0.8 0.9 -1.7 0 -2.6 3.2 -11.3 4.2 -11.3 0.4 0 0.8 -0.8 0.8 -1.7 0 -2.6 3.2 -11.3 4.2 -11.3 0.4 0 0.8 -1.1 0.8 -2.5 0 -1.4 0.4 -2.5 0.9 -2.5 0.5 0 1.1 -1.8 1.5 -4 0.3 -2.2 1.1 -4 1.6 -4 0.6 0 1 -1.1 1 -2.4 0 -1.3 0.4 -2.6 0.9 -2.8 0.4 -0.1 1.1 -2 1.5 -4 l0.7 -3.8 -5.1 0 c-3.6 0 -5 -0.4 -5 -1.4 0 -0.7 1 -1.6 2.3 -2 3.3 -0.9 12.5 -0.7 13.1 0.3 0.5 0.7 -23.8 64.9 -25.7 67.9 -1 1.5 -6 1.4 -11.4 -0.2z"/>
  <path d="M386 307.3 c0.1 -2 22.8 -61.4 24 -62.7 1.2 -1.3 2.8 2.4 3.6 8.4 0.7 5.3 0.7 5.3 -1.9 4.8 -2.4 -0.5 -2.7 0 -6.7 10.6 -2.4 6.1 -6.3 16.2 -8.7 22.5 -2.4 6.2 -4.2 11.5 -4 11.8 0.9 0.8 9 -3.1 11.3 -5.4 4.1 -4.1 7.4 -15.7 7.4 -26.2 0 -7.3 0.3 -9.1 1.5 -9.1 2.2 0 2.9 6.5 1.8 17.1 -1.3 11.1 -4.7 19.7 -9.5 23 -4.9 3.5 -18.8 7.3 -18.8 5.2z"/>
  <path d="M60.1 296.5 c5 -6.9 5.9 -7.4 5.9 -3.1 0 2.5 -0.4 3.6 -1.5 3.6 -0.8 0 -1.5 0.9 -1.5 2 0 1.6 -0.7 2 -3.1 2 l-3 0 3.2 -4.5z"/>
  <path d="M70 297.5 c0 -3.2 0.2 -3.5 3 -3.5 l3 0 -2.2 3.5 c-2.9 4.4 -3.8 4.4 -3.8 0z"/>
  <path d="M352.1 294.1 c-1.7 -3.2 -3.1 -6.2 -3.1 -6.5 0 -1.2 4.8 -0.6 5.3 0.7 0.2 0.6 0.6 1 0.9 0.7 1 -1.1 16.8 -40.3 16.4 -40.8 -0.9 -0.8 -15.1 2 -19.5 3.9 -2.4 1 -5 1.9 -5.7 1.9 -0.8 0 -1.4 1 -1.4 2.5 0 1.8 -0.5 2.5 -2 2.5 -4.9 0 -0.6 -7.8 5.8 -10.3 4.7 -1.9 28.1 -6.1 28.9 -5.3 0.4 0.3 -3.1 9.7 -7.6 20.9 -4.6 11.1 -9.5 23.7 -11 27.9 -1.4 4.3 -2.9 7.8 -3.2 7.8 -0.3 0 -2 -2.7 -3.8 -5.9z"/>
  <path d="M109 295.1 c-3.6 -1.5 -8.9 -3.4 -11.7 -4 -3.6 -0.9 -5.3 -1.8 -5.3 -2.8 0 -1.3 0.9 -1.5 5.2 -1 2.9 0.4 5.4 1.1 5.6 1.7 0.2 0.5 1.7 1 3.3 1 1.9 0 2.9 0.5 2.9 1.5 0 1 1 1.5 2.8 1.5 4.7 0 7.2 1.1 7.2 3.1 0 2.6 -2.3 2.4 -10 -1z"/>
  <path d="M120 296.2 c0 -1.6 1.9 -2.1 15.3 -4 8.3 -1.2 16 -2.2 17 -2.2 3.1 0 1.9 2.9 -1.5 3.5 -3.9 0.6 -29.9 4.5 -30.4 4.5 -0.2 0 -0.4 -0.8 -0.4 -1.8z"/>
  <path d="M155 291.1 c0 -1.4 0.6 -2.1 1.9 -2.1 1 0 3.9 -0.3 6.5 -0.6 3.8 -0.6 4.6 -0.4 4.6 0.9 0 1.7 -1.3 2.2 -8.2 3.2 -4.4 0.6 -4.8 0.4 -4.8 -1.4z"/>
  <path d="M423 286.5 c0 -2.8 0.4 -3.5 2 -3.5 2.1 0 2.4 1 1.4 4.8 -1 3.6 -3.4 2.7 -3.4 -1.3z"/>
  <path d="M301 285.5 c0 -2.8 0.4 -3.5 2 -3.5 2.1 0 2.4 1 1.4 4.8 -1 3.6 -3.4 2.7 -3.4 -1.3z"/>
  <path d="M70.5 285 c1.8 -1.9 11.2 -6 14 -6 0.8 0 1.5 0.8 1.5 1.8 0 2 -9.9 6.2 -14.5 6.2 -2.7 0 -2.8 -0.1 -1 -2z"/>
  <path d="M345 279.6 c-1.6 -3.6 -3.2 -8.3 -3.6 -10.5 -0.6 -3.6 -0.4 -4.1 1.2 -4.1 1.4 0 2.5 1.7 4.2 6.8 4.9 14 3.5 19.6 -1.8 7.8z"/>
  <path d="M163 281.5 c0 -4 2.4 -4.9 3.4 -1.2 1 3.7 0.7 4.7 -1.4 4.7 -1.6 0 -2 -0.7 -2 -3.5z"/>
  <path d="M185.6 282.8 c-1.1 -4.2 -0.7 -5.8 1.4 -5.8 1.7 0 2 0.7 2 4 0 4.5 -2.3 5.7 -3.4 1.8z"/>
  <path d="M87 279.6 c0 -1.6 2.8 -2.3 22.5 -5.5 15.3 -2.6 54.8 -8.2 55 -7.9 0.1 0.2 0.6 2.4 0.9 5.1 0.7 4.3 0.6 4.7 -1.3 4.7 -1.7 0 -2.1 -0.6 -2.1 -3 0 -2.9 -0.2 -3.1 -3.2 -2.6 -1.8 0.3 -8.5 1.3 -14.8 2.1 -6.3 0.9 -21 3.1 -32.6 5 -24 4 -24.4 4 -24.4 2.1z"/>
  <path d="M424 273.5 c0 -5.7 0.3 -7.5 1.4 -7.5 1.5 0 2.6 3 2.6 7.5 0 4.5 -1.1 7.5 -2.6 7.5 -1.1 0 -1.4 -1.8 -1.4 -7.5z"/>
  <path d="M369.6 275.3 c5.6 -12.9 12.4 -30.6 12.4 -32.3 0 -1.5 0.7 -2 2.5 -2 1.8 0 2.5 0.5 2.5 2 0 1.1 -0.4 2 -1 2 -0.5 0 -1 0.9 -1 1.9 0 3.4 -8.3 23.1 -9.7 23.1 -0.8 0 -1.3 1.2 -1.3 2.9 0 4.5 -1 6.1 -3.6 6.1 -2.4 0 -2.4 0 -0.8 -3.7z"/>
  <path d="M419 271 c0 -6.3 0.2 -7 2 -7 1.8 0 2 0.7 2 7 0 6.3 -0.2 7 -2 7 -1.8 0 -2 -0.7 -2 -7z"/>
  <path d="M184.5 272.3 c-0.4 -2.1 -0.8 -5 -1.1 -6.4 -0.7 -3.5 2 -6.3 7.9 -8.2 l4.7 -1.6 0 2.5 c0 2 -0.5 2.4 -3 2.4 -1.6 0 -3 0.5 -3 1 0 0.6 -0.7 1 -1.6 1 -1.3 0 -1.5 0.9 -0.9 6.5 0.6 5.5 0.5 6.5 -0.8 6.5 -1.1 0 -1.8 -1.3 -2.2 -3.7z"/>
  <path d="M201 271.5 c0 -1.9 0.4 -3.5 0.9 -3.5 0.5 0 1.1 -0.9 1.4 -2 0.3 -1.1 1.2 -2 2.1 -2 0.9 0 1.6 -0.4 1.6 -1 0 -0.5 1.6 -1 3.5 -1 2.3 0 3.5 -0.5 3.5 -1.3 0 -1.5 6.2 -3.7 10.4 -3.7 1.4 0 2.6 -0.4 2.6 -0.8 0 -0.9 19.1 -4.7 29.3 -5.8 4.8 -0.6 5.7 -0.4 5.7 0.9 0 1.1 -1.2 1.8 -3.7 2.2 -26.7 4.4 -43.3 8.9 -49.1 13.2 -1.7 1.3 -3.9 3.7 -4.7 5.4 -2.1 3.9 -3.5 3.7 -3.5 -0.6z"/>
  <path d="M97.3 257.4 c3.5 -7.1 8.5 -18.8 11 -26.1 2.5 -7.2 5.9 -15.6 7.4 -18.5 1.5 -2.9 2.9 -5.6 3.1 -6 0.2 -0.5 -0.6 -0.8 -1.7 -0.8 -1.4 0 -2.1 -0.6 -2.1 -1.9 0 -1.5 1 -1.9 6.3 -2.4 8.7 -0.9 34.6 -6.1 50.8 -10.2 7.5 -1.9 14.8 -3.5 16.3 -3.5 2.5 0 2.7 0.3 2.4 3.8 -0.3 3.2 -0.7 3.7 -3 4 -1.6 0.2 -2.8 0.7 -2.8 1.2 0 0.5 -1 1.2 -2.2 1.5 -1.3 0.4 -4.6 3.1 -7.4 6 -5.8 5.9 -7.8 10.6 -9.9 24.1 -1.5 9.2 -4.2 17.4 -5.6 17.4 -0.5 0 -0.9 0.7 -0.9 1.6 0 0.9 -0.9 1.8 -1.9 2.1 -1.8 0.5 -4 5.8 -2.9 6.9 1 0.9 15 -2.6 27.3 -7 17.4 -6.1 45.4 -13.1 62.2 -15.5 32.4 -4.6 38.3 -5 38.3 -2.6 0 1.7 -1.5 2 -20.5 4.1 -27.7 3.1 -58 10.3 -85 20.2 -4.4 1.6 -11.6 3.4 -16 4.1 -4.4 0.6 -14.5 2 -22.4 3.2 -13.4 1.8 -32.7 4.8 -42.9 6.5 l-4.4 0.7 6.5 -12.9z m58.6 -13 c2.6 -3.3 4.8 -10.3 6.1 -19.2 1.3 -9.1 4.1 -17.4 7.6 -21.9 2.6 -3.4 10.8 -9.2 13.1 -9.3 0.6 0 1.4 -0.4 1.7 -0.9 0.3 -0.4 -3.5 0.2 -8.5 1.5 -9.7 2.4 -11.2 3.6 -15 11.3 -2.1 4.6 -4.9 15.6 -4.9 20.1 0 1.4 -1.4 5.4 -3 8.8 -2.9 6.2 -3.7 10.2 -2.3 11.5 1.3 1.3 3.2 0.7 5.2 -1.9z m-1.3 -40.5 c0.3 -0.6 -0.1 -1.8 -0.9 -2.6 -1.3 -1.3 -2.2 -1.4 -6.8 -0.3 -4.8 1.2 -5.1 1.4 -3.4 2.6 2.2 1.7 10.1 1.9 11.1 0.3z"/>
  <path d="M295.3 266.5 c-1.1 -3.3 -1 -3.5 1.3 -3.5 2.1 0 2.4 0.5 2.4 3.5 0 2.2 -0.5 3.5 -1.3 3.5 -0.8 0 -1.8 -1.6 -2.4 -3.5z"/>
  <path d="M248 261.6 c0 -1.5 1.8 -2 10.3 -3.2 4.2 -0.6 4.7 -0.4 4.7 1.3 0 1.7 -0.9 2.1 -5.2 2.7 -7.9 0.9 -9.8 0.8 -9.8 -0.8z"/>
  <path d="M290.9 258.4 c-1.3 -1.4 -3.6 -3.2 -5.1 -4 -3.8 -2 -3.5 -3.4 0.7 -3.4 1.9 0 3.5 0.4 3.5 0.9 0 0.5 0.9 1.1 2 1.4 1.5 0.4 2 1.4 2 4.1 0 2 -0.1 3.6 -0.3 3.6 -0.2 0 -1.4 -1.2 -2.8 -2.6z"/>
  <path d="M424 257 c0 -2.9 0.4 -4 1.5 -4 1 0 1.5 -1 1.5 -3.4 0 -1.9 0.5 -3.6 1.1 -3.8 1.5 -0.5 -1.7 -16.9 -3.4 -18 -0.7 -0.4 -4.5 -0.8 -8.4 -0.8 -5.5 0 -7.3 -0.3 -7.3 -1.4 0 -0.7 1 -1.6 2.3 -2 3.1 -0.8 14 -0.7 15.3 0.2 2 1.3 3.2 4.7 4.9 13.5 l1.6 8.6 -2.4 3.8 c-1.4 2.1 -2.8 5.5 -3.1 7.6 -1 5.2 -3.6 5 -3.6 -0.3z"/>
  <path d="M198 256.6 c0 -1.3 2.8 -2.6 5.8 -2.6 0.6 0 1.2 0.9 1.2 2 0 1.6 -0.7 2 -3.5 2 -2.3 0 -3.5 -0.5 -3.5 -1.4z"/>
  <path d="M333 254.5 c0 -3 0.3 -3.5 2.4 -3.5 2.3 0 2.4 0.2 1.3 3.5 -0.6 1.9 -1.6 3.5 -2.4 3.5 -0.8 0 -1.3 -1.3 -1.3 -3.5z"/>
  <path d="M418.6 254.8 c-0.3 -1.8 -0.8 -5.1 -1.1 -7.3 -0.4 -2.1 -1.6 -5.2 -2.7 -6.7 l-1.9 -2.8 3 0 c2.6 0 3.1 0.4 3.1 2.4 0 1.3 0.4 2.6 0.9 2.8 0.5 0.2 1.3 3.6 1.7 7.6 0.6 6.2 0.4 7.2 -0.9 7.2 -1 0 -1.8 -1.2 -2.1 -3.2z"/>
  <path d="M210 253.6 c0 -1.7 15.6 -5.7 33.2 -8.6 14.8 -2.4 13.8 -2.4 13.8 -0.2 0 1.5 -1.5 2 -9.2 3.1 -5.1 0.7 -14.6 2.6 -21.1 4.2 -13.2 3.2 -16.7 3.6 -16.7 1.5z"/>
  <path d="M269 251 c0 -1.8 0.7 -2 5.5 -2 4.8 0 5.5 0.2 5.5 2 0 1.8 -0.7 2 -5.5 2 -4.8 0 -5.5 -0.2 -5.5 -2z"/>
  <path d="M298 248 c0 -0.5 -0.8 -1 -1.7 -1 -3.5 0 -10.3 -3.5 -10.3 -5.2 0 -2.5 2.2 -2.2 10 1.2 3.8 1.7 7.3 3 7.9 3 0.6 0 1.1 0.7 1.1 1.5 0 1 -1.1 1.5 -3.5 1.5 -1.9 0 -3.5 -0.4 -3.5 -1z"/>
  <path d="M310 247.6 c0 -0.9 1.9 -1.8 5 -2.5 2.8 -0.6 6.7 -1.8 8.6 -2.6 4.6 -1.9 4.4 -1.9 4.4 0.9 0 2 -0.8 2.6 -5.8 4 -7.3 2 -12.2 2.1 -12.2 0.2z"/>
  <path d="M258 244.5 c0 -1.5 1.3 -1.8 13.5 -3.5 9.7 -1.3 10.5 -1.3 10.5 0.8 0 1.5 -1.5 1.9 -10.2 3 -13 1.5 -13.8 1.5 -13.8 -0.3z"/>
  <path d="M343 243.4 c0 -2 0.5 -2.4 2.9 -2.4 1.6 0 3.1 -0.4 3.3 -0.9 0.3 -1 22.7 -5.4 33.6 -6.7 5.3 -0.6 6.2 -0.4 6.2 0.9 0 1 -1.2 1.8 -3.2 2.1 -16.7 2.7 -33.1 6 -37.5 7.6 l-5.3 1.8 0 -2.4z"/>
  <path d="M301.5 238.4 c-2.2 -0.9 -6.8 -2.6 -10.2 -3.8 -3.7 -1.2 -6.3 -2.6 -6.3 -3.5 0 -2.2 9.8 -0.7 16 2.4 4.4 2.2 6.1 2.6 9.8 2 6 -0.9 9.2 -2.4 12.1 -5.8 4.3 -5.1 9.3 -6.7 32.5 -10.5 l22.2 -3.7 -1.5 -5 c-0.9 -2.8 -1.9 -5.1 -2.3 -5.3 -0.5 -0.2 -0.8 -2 -0.8 -4 l0.1 -3.7 2.3 2.7 c1.3 1.5 3.4 5.7 4.6 9.5 1.3 3.7 2.5 7.3 2.7 8 0.3 0.7 -1.3 1.4 -4.4 1.8 -16.8 2.3 -40.8 6.7 -43.9 8 -2 0.8 -5.5 3.1 -7.6 5.1 -4.9 4.4 -8.7 6 -15.8 6.8 -3.9 0.4 -6.6 0.1 -9.5 -1z"/>
  <path d="M332.5 236 c2.9 -3.3 11.1 -5.1 38.3 -8.5 4.7 -0.6 5.2 -0.5 5.2 1.3 0 1.7 -1 2 -7.2 2.7 -10.1 0.9 -27.1 4.1 -29.6 5.4 -1.1 0.6 -3.5 1.1 -5.3 1.1 -3.2 0 -3.2 0 -1.4 -2z"/>
  <path d="M172 234.3 c0 -4.2 3.8 -18.3 5.6 -21.3 3.9 -6 6.6 -8 11.1 -8 l4.3 0 0 4.4 c0 3.2 -0.7 5.2 -2.4 7.3 -3.1 3.8 -5 7.7 -7 14.6 l-1.7 5.7 -4.9 0 c-4.8 0 -5 -0.1 -5 -2.7z"/>
  <path d="M407.3 235.8 c-4.5 -1.5 -4.3 -3.8 0.2 -3.8 3.1 0 3.5 0.3 3.5 2.5 0 1.4 -0.1 2.5 -0.2 2.4 -0.2 -0.1 -1.8 -0.6 -3.5 -1.1z"/>
  <path d="M390 234 c0 -1.7 0.7 -2 4 -2 4.5 0 5.7 2.3 1.8 3.4 -4.2 1.1 -5.8 0.7 -5.8 -1.4z"/>
  <path d="M377 228.6 c0 -0.7 1 -1.6 2.3 -2 4.1 -1.1 5.7 -0.7 5.7 1.4 0 1.7 -0.7 2 -4 2 -2.7 0 -4 -0.4 -4 -1.4z"/>
  <path d="M386 227.7 c0 -1.6 1.9 -2.2 11.3 -3.3 5.3 -0.6 5.7 -0.5 5.7 1.5 0 1.5 -0.6 2.1 -2.4 2.1 -1.2 0 -5.1 0.3 -8.5 0.6 -5.1 0.6 -6.1 0.4 -6.1 -0.9z"/>
  <path d="M106.8 206.3 c-1 -0.2 -1.8 -1.1 -1.8 -1.9 0 -1 1.3 -1.4 4.5 -1.4 3.2 0 4.5 0.4 4.5 1.4 0 1.1 -3.3 2.8 -5 2.5 -0.3 -0.1 -1.3 -0.3 -2.2 -0.6z"/>
  <path d="M354 201.6 c0 -1.3 0.3 -3.8 0.6 -5.5 0.6 -2.7 1 -3.1 4 -3.1 1.9 0 3.4 0.5 3.4 1 0 0.6 0.6 1 1.4 1 1.7 0 2.6 2.2 2.6 6.1 0 2.9 0 2.9 -6 2.9 -5.6 0 -6 -0.1 -6 -2.4z m8 -0.9 c0 -0.7 -0.6 -2.1 -1.2 -3 -1.8 -2.3 -4.2 -0.7 -3.3 2.2 0.7 2.3 4.5 3 4.5 0.8z"/>
  <path d="M341 198.6 c0 -0.9 -0.7 -1.6 -1.5 -1.6 -2.2 0 -4.5 -5.3 -4.5 -10.5 l0 -4.5 4 0 c2.2 0 4 0.5 4 1 0 0.6 0.9 1 2.1 1 1.2 0 2.3 0.8 2.6 2 0.3 1.1 1 2 1.5 2 0.5 0 0.8 2.6 0.6 5.8 l-0.3 5.7 -4.2 0.3 c-3.4 0.2 -4.3 0 -4.3 -1.2z m5.8 -4.7 c0.4 -2.4 -4.6 -7.9 -7.1 -7.8 -2.1 0.1 -2.1 0.2 -0.2 0.6 1.1 0.3 2.5 1 3 1.5 0.7 0.7 0.3 0.9 -1.2 0.5 -2.8 -0.6 -2.8 -0.3 -0.2 4 2.2 3.5 5.1 4.1 5.7 1.2z"/>
  <path d="M111 198 c0 -0.6 1 -1.5 2.3 -2 1.8 -0.8 13.4 -2.9 17.4 -3.2 0.7 -0.1 1 -0.5 0.7 -0.9 -0.8 -1.4 9.8 -7.7 19.1 -11.5 17.6 -6.9 17 -6.6 14.3 -8 -4.3 -2.3 1.3 -3.1 9.2 -1.2 0.9 0.2 1.6 -0.6 1.8 -1.9 0.2 -1.3 0.9 -2.3 1.6 -2.3 1.5 0 11.2 -5.3 14.6 -8 l2.5 -2 -2.2 0 c-1.3 0 -2.3 -0.4 -2.3 -1 0 -1.7 8 -1.2 18.3 1.2 l9.7 2.2 0 3.6 c0 2 -0.7 4.5 -1.5 5.6 -0.8 1 -1.5 2.6 -1.5 3.5 0 2.8 -3.6 5.9 -6.8 5.9 -1.7 0 -3.2 0.4 -3.4 0.8 -0.6 1.6 -43.8 12.5 -62.3 15.8 -11.1 2 -27.5 4.4 -29.7 4.4 -1 0 -1.8 -0.5 -1.8 -1z m95.8 -23.1 c2 -0.7 3.4 -2.1 4.1 -4 1.3 -3.8 0.5 -3.6 -4.9 1.1 -4.7 4.1 -4.5 4.8 0.8 2.9z"/>
  <path d="M359 186.6 c0 -3.7 1.5 -4.6 8.3 -4.6 3.1 0 3.7 0.3 3.7 2.1 0 2 -0.4 2.1 -4.6 1.5 l-4.6 -0.6 1.6 2.5 c1.6 2.5 1.6 2.5 -1.4 2.5 -2.7 0 -3 -0.3 -3 -3.4z"/>
  <path d="M349 172.1 c0 -1 -0.9 -2.1 -2 -2.4 -1.2 -0.3 -2 -1.4 -2 -2.6 0 -1.4 -0.6 -2.1 -2 -2.1 -1.1 0 -2 -0.4 -2 -1 0 -0.5 -0.7 -1 -1.5 -1 -0.8 0 -1.5 -0.4 -1.5 -1 0 -0.5 -1.1 -1 -2.4 -1 -1.4 0 -3.1 -0.7 -4 -1.5 -0.8 -0.8 -2.1 -1.5 -2.9 -1.5 -1.5 0 -13.8 -4.1 -17.9 -6 -2.2 -1 -2.8 -2 -2.8 -4.5 0 -2.9 0.5 -3.4 4.3 -4.9 2.3 -0.9 5.3 -1.6 6.5 -1.6 1.2 0 2.2 -0.4 2.2 -1 0 -0.5 1.1 -1 2.5 -1 1.4 0 2.5 0.5 2.5 1 0 0.6 -0.5 1 -1.1 1 -0.5 0 -0.7 0.5 -0.4 1 0.4 0.6 0.3 0.9 -0.2 0.8 -0.4 -0.1 -3.4 0.8 -6.6 2.2 -5.7 2.4 -5.8 2.4 -3.3 3.7 1.4 0.7 6.4 2.7 11.2 4.4 14 4.9 19.2 7.8 23.2 12.7 2 2.5 4.5 5.3 5.5 6.4 1.6 1.7 1.6 1.8 -1.8 1.8 -2.8 0 -3.5 -0.4 -3.5 -1.9z"/>
  <path d="M165.3 168.3 c-1.6 -0.6 -1.7 -4.3 -0.1 -4.3 2.6 0 7.8 2.5 7.8 3.7 0 1.3 -5.1 1.7 -7.7 0.6z"/>
  <path d="M209.3 152.9 c-2.3 -0.7 -3.3 -1.6 -3.3 -3 0 -1.1 0.4 -1.7 1 -1.4 0.6 0.4 2.5 -0.4 4.3 -1.8 3.3 -2.4 19.2 -11.7 20.2 -11.7 0.3 0 -2.2 3.4 -5.5 7.6 -3.3 4.1 -6 8 -6 8.5 0 0.5 1 0.9 2.3 0.8 1.4 0 3.8 -2 6.9 -5.9 5.8 -7.2 12.2 -11.7 20 -14.2 8.7 -2.7 11.4 -2.3 25 3.1 16 6.4 20.8 7.6 24.8 6.3 2.8 -1 3 -0.9 3 1.2 0 2.7 -1.7 3.6 -6.2 3.6 -3.8 0 -13.8 -3 -13.8 -4.2 0 -0.4 -1 -0.8 -2.2 -0.8 -1.3 0 -6.1 -1.6 -10.8 -3.5 -9.7 -4 -12.1 -4.2 -19.2 -1.5 -2.9 1.1 -6.3 2 -7.5 2 -1.5 0 -2.3 0.6 -2.3 1.8 0 2.3 -7 9.2 -9.3 9.2 -1.1 0 -1.7 0.8 -1.7 2.5 0 2.5 -0.1 2.5 -8.2 2.4 -4.6 0 -9.8 -0.5 -11.5 -1z"/>
 </g>
 <g fill="#9a8466">
  <path d="M237 435.5 c-0.7 -0.8 -1.8 -1.5 -2.5 -1.5 -0.7 0 -4.2 -1.4 -7.8 -3.1 -6.8 -3.2 -7.4 -3.2 -22.3 -2.3 -8.9 0.5 -9.1 0.5 -10.8 -2 -0.9 -1.4 -2.2 -2.6 -2.8 -2.6 -0.6 0 -3.1 -0.9 -5.4 -2.1 -3.3 -1.6 -5.3 -3.7 -8.9 -9.5 -4.4 -7.1 -8.3 -10.4 -12 -10.4 -3 0 -17 -6.2 -18.8 -8.4 -15.5 -18.3 -17 -20.9 -17 -29.9 0 -4.8 0.7 -7.3 4.8 -15.8 4.1 -8.5 4.9 -11.2 5.3 -17.5 0.3 -4.9 0 -8.3 -0.8 -9.8 -1.5 -3 0 -6.3 3.6 -7.6 3.3 -1.3 16.2 -1.1 24.3 0.4 l6.4 1.1 5.8 13.7 c3.1 7.5 7.1 15.7 8.7 18.1 9.7 14 24.6 20.2 48.7 20.2 12.1 0 13.7 -0.3 22.4 -3.3 19.9 -6.9 29.1 -13.7 38.6 -28.2 6.3 -9.8 9 -15.9 11.4 -25.5 2.1 -8.3 3 -9.5 7.3 -9.5 3.7 0 7.7 4.3 13.9 15.3 8.3 14.4 17.8 22.4 29.9 25.1 8.9 2.1 24.4 2.1 30.1 0.1 7.1 -2.6 19.1 -8.5 24.1 -12.1 l4.7 -3.4 5.7 11.8 c10.2 21.2 9.7 19.9 8.4 24.7 -0.7 2.4 -3.1 6.4 -5.6 9.1 l-4.3 4.9 -0.1 -3.7 c0 -2.4 0.6 -4.1 1.8 -5 3.7 -2.8 6 -12 3.4 -13.7 -0.5 -0.3 -1.8 -2.4 -2.9 -4.5 l-2 -4 -0.5 9 c-0.4 7.2 -1 10.3 -3.6 16.1 -3.6 8 -3.8 9.3 -1.8 9.3 1 0 0.4 1.9 -2 6.3 -6.4 12.2 -14.3 17.9 -28.6 20.8 -10.3 2.2 -16.8 4.8 -21.9 8.9 -3.1 2.5 -5.3 3.1 -14.8 4.4 -13.3 1.9 -18.4 3 -23.4 5.1 -8.9 3.7 -35 8.1 -66.1 11 -19.7 1.9 -21.1 1.9 -22.6 0z m11.6 -16.6 c1 -1.6 -0.8 -2.9 -9.2 -6.5 -8.3 -3.6 -9.9 -4 -10.9 -2.4 -1.1 1.7 1.6 4.1 8 7.2 6.2 2.9 10.9 3.6 12.1 1.7z m-55.4 -18.5 c-0.5 -2.6 -1.6 -3.8 -8.4 -8.9 -5.9 -4.4 -7.8 -4.9 -7.8 -1.9 0 2.1 7.5 9.9 11.3 11.8 3.8 1.9 5.3 1.6 4.9 -1z"/>
  <path d="M208.9 340.1 c-1.3 -1.1 -2.1 -2.2 -1.8 -2.5 0.3 -0.3 1.6 0.5 2.9 1.9 2.8 3 2.2 3.3 -1.1 0.6z"/>
  <path d="M233.1 329.7 c-4.2 -1.5 -5.3 -3.7 -1.8 -3.7 5.3 0 8.7 1.2 8.7 3.1 0 2.2 -1.9 2.3 -6.9 0.6z"/>
  <path d="M242 329.6 c0 -2.9 1.3 -4.6 3.6 -4.6 2.1 0 2.2 0.2 1.3 3 -1.1 3.1 -4.9 4.3 -4.9 1.6z"/>
  <path d="M222.7 323.2 c-1.7 -1.9 -1.6 -2.2 2.1 -10.8 4.3 -9.7 6.2 -11.6 6.2 -6 0 2.5 -0.4 3.6 -1.5 3.6 -1 0 -1.5 1 -1.5 3.4 0 1.9 -0.6 4.1 -1.4 4.9 -0.8 0.8 -1.6 2.6 -1.8 4.2 -0.3 2.7 -0.3 2.7 -2.1 0.7z"/>
  <path d="M246 320.6 c0 -2 0.5 -3.6 1 -3.6 0.6 0 1 -1.1 1 -2.5 0 -1.6 0.6 -2.5 1.5 -2.5 1 0 1.5 -1.1 1.5 -3.5 0 -2.4 0.5 -3.5 1.5 -3.5 1 0 1.5 -1.1 1.5 -3.5 0 -1.9 0.5 -3.5 1 -3.5 0.6 0 1 -1.1 1 -2.5 0 -1.6 0.6 -2.5 1.5 -2.5 1 0 1.5 -1.1 1.5 -3.5 0 -3.1 0.3 -3.5 2.5 -3.5 1.9 0 2.3 0.4 1.8 1.7 -4.6 12 -15.3 35.8 -16.1 36.1 -0.8 0.2 -1.2 -0.9 -1.2 -3.2z"/>
  <path d="M373 316.1 c0 -1.6 0.7 -1.9 4.5 -1.9 3.8 0 4.5 0.3 4.5 1.9 0 1.6 -0.7 1.9 -4.5 1.9 -3.8 0 -4.5 -0.3 -4.5 -1.9z"/>
  <path d="M377 306 c0 -2.5 0.4 -3 2.4 -3 2.3 0 2.4 0.2 1.5 3 -0.6 1.7 -1.7 3 -2.5 3 -0.9 0 -1.4 -1.1 -1.4 -3z"/>
  <path d="M360.8 304.9 c-2.6 -1.5 -2.1 -4.3 2.6 -15.3 4.5 -10.8 6.6 -13 6.6 -7.2 0 2.5 -0.4 3.6 -1.5 3.6 -1 0 -1.5 1.1 -1.5 3.5 0 1.9 -0.4 3.5 -1 3.5 -0.5 0 -1 1.1 -1 2.5 0 1.4 -0.5 2.5 -1 2.5 -0.6 0 -0.8 1.5 -0.4 4 0.7 4.1 0.1 4.7 -2.8 2.9z"/>
  <path d="M231 298.8 c6.5 -16.4 11.9 -28.3 12.8 -28.6 0.8 -0.2 1.2 0.9 1.2 3.2 0 2 -0.4 3.6 -1 3.6 -0.5 0 -1 1.1 -1 2.5 0 1.4 -0.4 2.5 -1 2.5 -0.5 0 -1 1.1 -1 2.5 0 1.6 -0.6 2.5 -1.5 2.5 -1 0 -1.5 1.1 -1.5 3.5 0 2.4 -0.5 3.5 -1.5 3.5 -1 0 -1.5 1.1 -1.5 3.5 0 3.1 -0.3 3.5 -2.5 3.5 -2.1 0 -2.3 -0.3 -1.5 -2.2z"/>
  <path d="M381 296.6 c0 -3.2 0.3 -3.6 2.5 -3.6 2.4 0 2.5 0.1 1.2 3.2 -1.9 4.6 -3.7 4.8 -3.7 0.4z"/>
  <path d="M386 283.6 c0 -3.2 0.3 -3.6 2.5 -3.6 2.4 0 2.5 0.1 1.2 3.2 -1.9 4.6 -3.7 4.8 -3.7 0.4z"/>
  <path d="M264 277.5 c0 -2.4 0.5 -3.5 1.5 -3.5 1 0 1.5 -1.1 1.5 -3.5 0 -3.1 0.3 -3.5 2.5 -3.5 2.1 0 2.3 0.3 1.6 2.3 -4.7 11.9 -7.1 14.7 -7.1 8.2z"/>
  <path d="M370.9 272.8 c2.9 -7.4 6.2 -13.8 7.1 -13.8 0.5 0 1 1.6 1 3.5 0 2.4 -0.5 3.5 -1.5 3.5 -1 0 -1.5 1 -1.5 2.9 0 4.4 -1 6.1 -3.6 6.1 -2 0 -2.2 -0.3 -1.5 -2.2z"/>
  <path d="M391 270.5 c0 -1.9 0.5 -3.5 1 -3.5 0.6 0 1 -1.1 1 -2.5 0 -2 0.5 -2.5 2.5 -2.5 l2.5 0 -2.1 5.2 c-2.5 6.3 -2.8 6.8 -4 6.8 -0.5 0 -0.9 -1.6 -0.9 -3.5z"/>
  <path d="M244.2 265.8 c1.6 -4.9 2.4 -5.5 8.1 -6.2 2.8 -0.4 6.7 -0.9 8.5 -1.2 2.7 -0.5 3.2 -0.3 3.2 1.4 0 1.7 -0.9 2.1 -6.5 2.7 -6.4 0.7 -9.5 2.3 -9.5 5.1 0 0.8 -1 1.4 -2.4 1.4 -2.4 0 -2.4 -0.2 -1.4 -3.2z"/>
  <path d="M271 261.6 c0 -3.2 0.3 -3.6 2.5 -3.6 2.4 0 2.5 0.1 1.2 3.2 -1.9 4.6 -3.7 4.8 -3.7 0.4z"/>
  <path d="M150.6 257.3 c1.2 -9.2 1.5 -10.1 3.3 -10.6 2.9 -0.7 6.8 -10.4 8.5 -20.8 0.9 -5.2 2.3 -11.5 3.1 -14.1 2.3 -6.7 8.4 -13.2 16.1 -16.9 3.5 -1.7 6.4 -3.3 6.4 -3.4 0 -0.2 -3.1 0.5 -7 1.5 -3.8 1 -7 1.6 -7 1.4 0 -1.1 13.4 -6.7 20 -8.4 4.1 -1.1 19.2 -5.8 33.5 -10.5 18.2 -6 26.9 -8.4 29 -8.1 1.7 0.3 5.3 0.9 8 1.4 11.5 2.1 23.5 4.1 31 5.2 4.4 0.6 11.6 1.8 16 2.5 4.4 0.8 10.9 1.7 14.5 2 3.6 0.4 10.1 1.3 14.4 2 8.4 1.4 10.9 3.2 13.7 9.8 0.9 2 1.8 2.7 4 2.7 2.2 0 2.9 -0.5 2.9 -2 0 -1.1 -0.7 -2 -1.5 -2 -1 0 -1.5 -1.1 -1.5 -3.5 0 -3.3 0.2 -3.5 3.5 -3.5 2.4 0 3.5 0.5 3.5 1.5 0 0.8 -0.7 1.5 -1.5 1.5 -0.8 0 -1.5 0.3 -1.5 0.6 0 0.4 3.5 4.3 7.8 8.8 6.7 7.1 8 9 10 15.2 2.8 8.8 2.8 9.4 -0.2 9.4 -1.4 0 -11.7 1.5 -23 3.4 -21.1 3.6 -26.1 5.2 -30.6 10.1 -3.8 4.1 -7.6 5.6 -15.4 6.2 -6.4 0.5 -7.7 0.3 -12.6 -2.2 -9.1 -4.6 -15.9 -4.5 -51.3 0.6 -16.9 2.5 -44.9 9.4 -62.2 15.5 -10.7 3.8 -28.1 8.2 -33.2 8.4 -0.8 0 -1 -1.2 -0.7 -3.7z m30 -29 c2 -6.9 3.9 -10.8 7 -14.6 5.1 -6 1.6 -7.9 -3.6 -2 -3.8 4.3 -5.4 7.7 -7.3 16.1 -1.4 5.9 -1.3 6.2 0.4 6.2 1.4 0 2.3 -1.4 3.5 -5.7z m196.4 -13 c0 -0.3 -0.7 -2.9 -1.7 -5.7 -1.1 -3.4 -2.9 -6.2 -5.5 -8.5 l-3.8 -3.3 0 3.5 c0 2.7 -0.5 3.7 -2 4.2 -1.8 0.6 -1.4 1.2 3.3 5.5 2.9 2.8 6.2 4.9 7.5 5 1.2 0 2.2 -0.3 2.2 -0.7z m-14.6 -14.2 c0.9 -1.4 -2.9 -5.5 -4.2 -4.7 -1.3 0.8 -1.6 3.9 -0.5 4.9 0.9 1 4.1 0.9 4.7 -0.2z m-96.9 -3.6 c2.9 -1.3 2.8 -1.3 -3.7 -1.4 -4.8 -0.1 -8.1 -0.7 -11.2 -2.3 -3.6 -1.7 -4.9 -1.9 -6.8 -1 -2.1 1 -2 1.1 1.5 1.1 2.1 0.1 5.2 0.8 7 1.8 6.6 3.4 9.1 3.7 13.2 1.8z m81.3 -3 c0.6 -2.6 -1.8 -6.5 -5.1 -8.2 -1.6 -0.8 -3.1 -1.2 -3.4 -0.9 -1 1 0.7 5.5 3.3 8.6 2.8 3.3 4.7 3.5 5.2 0.5z"/>
  <path d="M396 257.5 c0 -1.9 0.5 -3.5 1 -3.5 0.6 0 1 -1.1 1 -2.5 0 -2 0.5 -2.5 2.5 -2.5 l2.5 0 -2.1 5.2 c-2.5 6.3 -2.8 6.8 -4 6.8 -0.5 0 -0.9 -1.6 -0.9 -3.5z"/>
  <path d="M424 256.1 c0 -1.5 0.5 -4.2 1.1 -6 0.9 -2.5 1.7 -3.1 3.9 -3.1 l2.7 0 -2.3 4.7 c-1.3 2.5 -2.4 5.2 -2.4 6 0 0.7 -0.7 1.3 -1.5 1.3 -1 0 -1.5 -1 -1.5 -2.9z"/>
  <path d="M303 248 c0 -1.7 0.7 -2 4.5 -2 3.8 0 4.5 0.3 4.5 2 0 1.7 -0.7 2 -4.5 2 -3.8 0 -4.5 -0.3 -4.5 -2z"/>
  <path d="M295 245.5 c0 -2.4 0.1 -2.5 3.2 -1.2 4.6 1.9 4.8 3.7 0.4 3.7 -3.2 0 -3.6 -0.3 -3.6 -2.5z"/>
  <path d="M401 244.5 c0 -2.8 0.4 -3.5 2 -3.5 2.2 0 2.6 2 1 5.1 -1.6 3 -3 2.3 -3 -1.6z"/>
  <path d="M319 245.6 c0 -0.8 1.2 -1.7 2.7 -2.1 1.5 -0.3 3.9 -1.5 5.5 -2.6 l2.8 -2 0 3 c0 2.4 -0.4 3.1 -2 3.1 -1.1 0 -2 0.5 -2 1 0 0.6 -1.6 1 -3.5 1 -2.3 0 -3.5 -0.5 -3.5 -1.4z"/>
  <path d="M382 243.6 c0 -1.5 2.1 -2.6 5.1 -2.6 1.2 0 1.9 0.7 1.9 2 0 1.6 -0.7 2 -3.5 2 -2.3 0 -3.5 -0.5 -3.5 -1.4z"/>
  <path d="M276 242.6 c0 -0.7 1 -1.6 2.3 -2 4.1 -1.1 5.7 -0.7 5.7 1.4 0 1.7 -0.7 2 -4 2 -2.7 0 -4 -0.4 -4 -1.4z"/>
  <path d="M285 242 c0 -2.1 1 -2.4 4.8 -1.4 3.6 1 2.7 3.4 -1.3 3.4 -2.8 0 -3.5 -0.4 -3.5 -2z"/>
  <path d="M427.6 238.4 c-0.9 -6.9 -0.8 -8.4 0.8 -8.4 1.4 0 1.8 1.1 3.2 9.3 0.5 3.2 0.4 3.7 -1.4 3.7 -1.5 0 -2.1 -0.9 -2.6 -4.6z"/>
  <path d="M342 233.6 c0 -1.3 2.8 -2.6 5.8 -2.6 0.6 0 1.2 0.9 1.2 2 0 1.6 -0.7 2 -3.5 2 -2.3 0 -3.5 -0.5 -3.5 -1.4z"/>
  <path d="M354 231.6 c0 -1.3 2.8 -2.6 5.8 -2.6 0.6 0 1.2 0.9 1.2 2 0 1.6 -0.7 2 -3.5 2 -2.3 0 -3.5 -0.5 -3.5 -1.4z"/>
  <path d="M362 230.6 c0 -1.3 2.8 -2.6 5.8 -2.6 0.6 0 1.2 0.9 1.2 2 0 1.6 -0.7 2 -3.5 2 -2.3 0 -3.5 -0.5 -3.5 -1.4z"/>
  <path d="M370 229.6 c0 -0.7 1 -1.6 2.3 -2 4.1 -1.1 5.7 -0.7 5.7 1.4 0 1.7 -0.7 2 -4 2 -2.7 0 -4 -0.4 -4 -1.4z"/>
  <path d="M379 228.6 c0 -0.7 1 -1.6 2.3 -2 4.1 -1.1 5.7 -0.7 5.7 1.4 0 1.7 -0.7 2 -4 2 -2.7 0 -4 -0.4 -4 -1.4z"/>
  <path d="M388 227.6 c0 -1.3 2.8 -2.6 5.8 -2.6 0.6 0 1.2 0.9 1.2 2 0 1.6 -0.7 2 -3.5 2 -2.3 0 -3.5 -0.5 -3.5 -1.4z"/>
  <path d="M397 226.6 c0 -0.7 1 -1.6 2.3 -2 4.1 -1.1 5.7 -0.7 5.7 1.4 0 1.7 -0.7 2 -4 2 -2.7 0 -4 -0.4 -4 -1.4z"/>
  <path d="M417 225.5 c0 -0.8 0.7 -1.6 1.5 -1.6 0.8 -0.1 2.5 -0.2 3.8 -0.3 1.2 -0.1 3 0.2 4 0.6 3.3 1.6 1.7 2.8 -3.8 2.8 -4.2 0 -5.5 -0.3 -5.5 -1.5z"/>
  <path d="M116 204 c0 -1.6 0.7 -2 3.5 -2 2.4 0 3.5 0.5 3.5 1.5 0 0.8 -0.6 1.5 -1.2 1.6 -0.7 0 -2.3 0.2 -3.5 0.5 -1.8 0.3 -2.3 -0.1 -2.3 -1.6z"/>
  <path d="M118 196.6 c0 -1.3 2.8 -2.6 5.8 -2.6 0.6 0 1.2 0.9 1.2 2 0 1.6 -0.7 2 -3.5 2 -2.3 0 -3.5 -0.5 -3.5 -1.4z"/>
  <path d="M160 196 c0 -1.6 0.7 -2 3.5 -2 4 0 4.9 2.4 1.3 3.4 -3.8 1 -4.8 0.7 -4.8 -1.4z"/>
  <path d="M131 194.6 c0 -1.4 1.1 -1.8 9.3 -3.2 3.2 -0.5 3.7 -0.4 3.7 1.4 0 1.5 -0.9 2.1 -4.6 2.6 -6.9 0.9 -8.4 0.8 -8.4 -0.8z"/>
  <path d="M191 180.6 c0 -1.3 2.8 -2.6 5.8 -2.6 0.6 0 1.2 0.9 1.2 2 0 1.6 -0.7 2 -3.5 2 -2.3 0 -3.5 -0.5 -3.5 -1.4z"/>
  <path d="M202 177.6 c0 -0.8 1.6 -1.8 3.7 -2.3 2.7 -0.6 4.2 -1.7 5.2 -3.8 0.8 -1.7 2 -4.2 2.8 -5.7 1.7 -3.4 1.7 -3.8 -0.7 -3.8 -1.4 0 -1.8 -0.5 -1.3 -1.6 0.7 -1.8 3.4 -1.6 16.1 1.2 8.1 1.8 8.2 1.9 8.2 4.9 0 3.1 -0.1 3.2 -11.7 6.9 -6.5 2 -12.6 3.6 -13.5 3.6 -1 0 -1.8 0.5 -1.8 1 0 0.6 -1.6 1 -3.5 1 -2.3 0 -3.5 -0.5 -3.5 -1.4z"/>
  <path d="M350 174.5 c0 -0.8 -0.4 -1.5 -1 -1.5 -0.5 0 -1 -1.1 -1 -2.5 0 -1.8 -0.5 -2.5 -1.9 -2.5 -1.1 0 -2.6 -0.8 -3.3 -1.8 -0.7 -1 -2.8 -2.4 -4.5 -3.1 -1.8 -0.7 -3.3 -1.7 -3.3 -2.2 0 -0.5 -0.7 -0.9 -1.6 -0.9 -2.4 0 -11.4 -3.3 -11.4 -4.2 0 -0.5 -1 -0.8 -2.2 -0.8 -1.3 0 -4.4 -0.8 -7 -1.7 -4.4 -1.6 -4.8 -2 -4.8 -5 0 -3.2 0.1 -3.3 4.3 -3.3 l4.2 0.1 -2.9 1.2 -3 1.3 5 2.1 c2.7 1.1 7.4 2.8 10.4 3.8 12.2 3.9 19.5 8.2 24 14 2.3 3 4.9 5.5 5.6 5.5 0.8 0 1.4 0.7 1.4 1.5 0 1 -1.1 1.5 -3.5 1.5 -2.4 0 -3.5 -0.5 -3.5 -1.5z"/>
  <path d="M282.3 166.7 l-7.3 -1 0 -3.7 c0 -3.6 0.2 -3.9 4.7 -5.4 7.4 -2.5 12.7 -2.1 15.3 1.1 1.4 1.9 2 3.8 1.8 6.2 -0.3 3.4 -0.5 3.6 -3.8 3.7 -1.9 0.1 -6.8 -0.3 -10.7 -0.9z"/>
  <path d="M250 160.4 c-12.8 -1.9 -27 -5.1 -27 -6.1 0 -0.7 1.7 -3 3.8 -5.2 7.4 -7.8 24.8 -9.6 40.9 -4.1 4.8 1.7 8.9 3 9 3 0.2 0 0.3 1.5 0.3 3.4 0 3.3 -0.1 3.4 -8.6 6.5 -8 2.9 -11.9 3.4 -18.4 2.5z"/>
  <path d="M281.8 142.7 c-4.9 -1.7 -8.8 -3.7 -8.8 -4.4 0 -0.8 -1.3 -1.3 -3.5 -1.3 -1.9 0 -3.5 -0.4 -3.5 -0.9 0 -0.5 -2 -1.2 -4.5 -1.5 -4.7 -0.8 -14.7 1.7 -17.3 4.1 -0.7 0.7 -3 1.3 -5 1.3 l-3.7 -0.1 2.7 -2.3 c3.8 -3.4 13.4 -6.9 19.3 -7 3.6 -0.1 7.5 0.9 14 3.6 5 2 12.7 4.9 17.2 6.5 8.6 2.9 10.9 5.4 5.1 5.2 -1.8 0 -7.2 -1.5 -12 -3.2z"/>
  <path d="M300.2 141.8 c0.3 -0.7 1.9 -1.8 3.6 -2.5 3.1 -1.3 3.2 -1.2 3.2 1.2 0 2.2 -0.4 2.5 -3.6 2.5 -2.3 0 -3.4 -0.4 -3.2 -1.2z"/>
 </g>
 <g fill="#ed6d3b">
  <path d="M204.8 336.8 c-5.8 -5.5 -8.8 -10.8 -13.7 -24.1 -4.6 -12.2 -6.7 -15.7 -11.5 -18.6 -3.4 -2.2 -4.7 -4.5 -6.5 -11.6 -0.9 -3.6 -1.6 -12.8 -1.2 -16.3 0.1 -1 5.7 -4.2 7.4 -4.2 0.3 0 0.5 4.2 0.5 9.3 0 5.1 0.6 11.2 1.3 13.6 1.2 4.1 4.9 8.1 7.5 8.1 1.3 0 2.5 3 7 17 3.3 10.5 8.6 22.2 12 26.7 3.8 5 2.4 5 -2.8 0.1z"/>
  <path d="M252.5 327.8 c0.4 -1.3 2.4 -6.3 4.5 -11.3 5.8 -14 18.5 -45.5 20.4 -50.6 0.9 -2.5 2.2 -5.3 2.9 -6.2 1.1 -1.6 1.4 -1.6 4.4 0.3 7.5 4.5 8.3 26.5 1.8 46 -4.1 12.4 -11.4 18.9 -25 22.5 -8.4 2.1 -9.8 2 -9 -0.7z"/>
  <path d="M214.2 305.8 c-3.6 -10.6 -6.2 -22.1 -6.2 -27.7 0 -4.4 1.3 -5.7 8.8 -9.6 4.7 -2.3 22.9 -7.1 23.8 -6.3 0.3 0.3 -7.3 18.5 -17.7 42.5 -2.4 5.7 -4.7 10.3 -5 10.3 -0.3 0 -2 -4.2 -3.7 -9.2z"/>
  <path d="M386.7 307.3 c-0.5 -0.5 3.3 -11 14.2 -39.2 5 -12.9 9.1 -23.7 9.1 -24 0.1 -0.3 0.8 0.8 1.7 2.4 1.3 2.3 1.8 6.7 2.1 19.2 0.4 14.4 0.2 16.9 -1.7 23.1 -2.5 8.3 -5.9 12.8 -11.8 15.4 -4.2 1.8 -12.9 3.9 -13.6 3.1z"/>
  <path d="M351.3 291.8 c-6.2 -11.3 -9.5 -20.6 -10 -27.8 -0.6 -8.4 0.6 -11.4 5.8 -14.1 3.7 -1.8 29.7 -7.4 30.6 -6.5 0.2 0.2 -3.1 8.8 -7.3 19.2 -4.3 10.4 -9.2 22.6 -10.9 27.2 -1.7 4.5 -3.4 8.5 -3.7 8.8 -0.3 0.3 -2.4 -2.8 -4.5 -6.8z"/>
  <path d="M201.2 213.8 c-3.1 -3.1 0.1 -7.9 3.7 -5.6 2.5 1.5 2.7 2.8 0.6 2.8 -0.8 0 -1.5 0.9 -1.5 2 0 2.3 -1 2.6 -2.8 0.8z"/>
  <path d="M227 208.6 c0 -2.3 -0.4 -2.6 -3.2 -2.6 l-3.3 -0.1 3.5 -3 3.5 -3 0.3 2.6 c0.3 1.9 0.9 2.5 2.8 2.5 1.9 0 2.4 -0.5 2.4 -2.5 0 -1.4 0.5 -2.5 1 -2.5 0.6 0 1 -0.4 1 -1 0 -0.5 -1.2 -1 -2.7 -1 l-2.8 -0.1 3.5 -3 3.5 -3 0.3 3.1 c0.3 2.5 0.8 3 3 3 2.6 0.1 2.5 0.3 -2.3 4.6 -2.7 2.5 -6.2 5.4 -7.7 6.5 l-2.8 2 0 -2.5z"/>
  <path d="M254 200.6 c-8.5 -3.3 -10 -4.1 -10 -5.3 0 -0.8 1.3 -1.3 3.5 -1.3 1.9 0 3.5 0.4 3.5 0.8 0 0.5 2.3 1.5 5 2.2 3.7 1 5 1.8 5 3.2 0 2.1 -2.1 2.3 -7 0.4z"/>
  <path d="M262 200 c0 -1.6 0.7 -2 3.5 -2 4 0 4.9 2.4 1.3 3.4 -3.8 1 -4.8 0.7 -4.8 -1.4z"/>
 </g>
 <g fill="#67a38c">
  <path d="M232 345.9 c-16.7 -2.9 -23.6 -11.2 -32.5 -39.3 l-4.7 -14.8 -4.2 -1.9 -4.2 -1.8 -1.2 -10.3 c-1.7 -14.4 -1.6 -16.5 0.8 -17.8 6.1 -3.2 37.2 -11.4 54.7 -14.4 8.3 -1.4 26.4 -3.7 39.8 -5.1 5.7 -0.6 6.5 -0.4 15.5 4 14.7 7 22.1 6.4 32.8 -3 4.4 -3.8 7.9 -5.9 11.5 -6.9 9.4 -2.7 46.4 -6.8 66.4 -7.3 l19.2 -0.6 1.3 2.9 c1.3 3.3 1.4 13.1 0 41.4 -0.9 20.5 -1.9 25.2 -6.9 33.8 -4.6 8.1 -18.9 15.1 -34.9 17.3 -17.7 2.3 -29.4 -0.6 -37 -9.4 -4 -4.7 -9.8 -15.7 -14.5 -27.4 -3.8 -9.7 -6.9 -13.8 -11.5 -15.3 -10.1 -3.4 -16.3 3.2 -18.4 19.7 -3.6 27 -8.4 37.7 -20.3 45.6 -11.7 7.8 -37.5 13 -51.7 10.6z m26.8 -11.5 c9.2 -1.8 18.4 -5.9 23.5 -10.3 4.1 -3.7 8.8 -12.7 11.3 -21.6 1 -3.7 1.8 -11.5 2.1 -20.7 0.5 -14.5 0.5 -14.7 -2.2 -19.7 -3.4 -6.1 -6 -8 -12.8 -9.1 -15 -2.4 -59.5 5.7 -71.3 13.1 -7.5 4.6 -8.2 15.6 -2.4 34.8 6.4 21.5 13.1 30.2 26 34.2 4.3 1.3 17.8 1 25.8 -0.7z m133 -22 c13.7 -3 19.6 -7.4 24.2 -17.7 3 -6.6 4.1 -20.9 2.9 -35.7 -1.9 -24.1 -6 -26.6 -36.4 -22.1 -39.9 5.9 -46.5 9.4 -46.5 24.6 0 17.5 14.8 45.6 26.3 50 9.1 3.5 16.8 3.7 29.5 0.9z"/>
  <path d="M57 320.3 c-6.3 -2.3 -4.9 -13.1 3.2 -23.7 8.1 -10.6 11.5 -13.2 21.6 -16.7 5.8 -2 38 -7.6 63 -10.9 8.1 -1.1 15.9 -2.2 17.3 -2.5 l2.6 -0.6 1.2 9.8 c0.6 5.4 1.4 11 1.7 12.4 0.7 3.2 2.9 2.7 -27.6 6.9 l-22.6 3.2 -9.4 -3.7 c-9.8 -3.9 -18.2 -5.3 -24.4 -4.1 -6 1.1 -9.5 5.1 -15.2 17.3 -4.4 9.3 -7.6 13.7 -9.6 13.2 -0.2 0 -1 -0.3 -1.8 -0.6z"/>
  <path d="M345.7 185.8 c-1.4 -1.4 -2.6 -1.8 -4.4 -1.3 -1.4 0.3 -3 0.1 -3.7 -0.4 -0.7 -0.6 -7.3 -1.7 -14.7 -2.6 -7.4 -0.9 -14.1 -1.8 -14.9 -2 -0.8 -0.3 -3.3 -0.7 -5.5 -1 -7.1 -1 -27.7 -4.3 -41 -6.7 -2.7 -0.4 -5.8 -0.9 -6.7 -0.9 -1.2 0 -1.8 -0.8 -1.8 -2.6 0 -2.9 -0.3 -2.9 18.5 0.6 10.2 2 38.4 6.2 63.5 9.6 9.3 1.3 35.7 3.5 41.8 3.5 3.1 0 2.8 2.6 -0.5 3.5 -1.4 0.3 -5.6 0.3 -9.2 -0.1 -6 -0.6 -6.5 -0.5 -5.2 1 1.2 1.5 0.7 1.6 -6.5 1.5 -6.6 -0.1 -8.2 -0.4 -9.7 -2.1z"/>
  <path d="M351.5 176.4 c-1.6 -0.2 -7.3 -0.9 -12.5 -1.4 -15.7 -1.7 -41.2 -5 -46 -6 -2.5 -0.5 -8.4 -1.5 -13.2 -2.2 l-8.8 -1.2 0 -3.3 0 -3.3 5.3 0 c4.5 0.1 5 0.2 3.5 1.4 -1.8 1.3 -2.4 2.7 -1 2.4 0.4 0 3.4 0.2 6.7 0.6 6.8 0.9 8.1 0.7 7.7 -1.2 -0.2 -0.9 0.3 -1.2 1.5 -0.8 2.5 0.8 26.9 4.2 42.8 6.1 10.7 1.2 13.3 1.8 14.7 3.5 0.9 1.1 2.8 2 4.5 2 4.3 0 7.3 1.1 7.3 2.6 0 1.4 -4.7 1.7 -12.5 0.8z"/>
  <path d="M167.7 173.5 c-5.2 -1.9 -9.3 -5.1 -10 -7.5 -0.7 -2.5 2.8 -2.8 5.5 -0.3 1.7 1.5 1.8 1.5 1.8 -0.2 0 -1.3 0.5 -1.5 1.8 -1 0.9 0.5 4.1 1.3 7.1 2 6.5 1.4 8.4 3.5 5.7 6.4 -2.2 2.4 -6.3 2.6 -11.9 0.6z"/>
  <path d="M228.5 169.2 c-1.7 -0.4 -1.4 -0.7 1.5 -1.8 1.9 -0.7 2.7 -1.3 1.7 -1.3 -1.7 -0.1 -9.9 -2 -36.2 -8.3 -11.5 -2.8 -15.5 -4.4 -15.5 -6.2 0 -1.2 8.1 -0.5 12.6 1 2.5 0.8 7.6 2.2 11.2 3 3.7 0.8 8.7 1.9 11.2 2.4 2.5 0.6 8.3 1.8 13 2.8 l8.5 1.7 0.3 3.8 c0.3 3.6 0.2 3.7 -3 3.6 -1.8 -0.1 -4.2 -0.4 -5.3 -0.7z"/>
  <path d="M251 160.9 c0 -0.5 -0.5 -0.7 -1 -0.4 -1.2 0.7 -16.7 -2.1 -42 -7.6 -5.2 -1.1 -11 -2.3 -12.7 -2.6 -3.5 -0.6 -4.4 -2.7 -1.6 -3.7 0.9 -0.4 8.1 0.8 15.9 2.6 14 3.1 14.4 3.1 16.4 1.3 1.1 -1 2.2 -1.6 2.5 -1.3 0.3 0.3 -0.2 1.1 -1.1 1.9 -1.4 1.1 -0.4 1.5 7.2 3.1 9.4 1.8 18.4 3.2 22.2 3.2 1.6 0.1 2.2 0.7 2.2 2.4 0 1.9 -0.5 2.2 -4 2.2 -2.2 0 -4 -0.5 -4 -1.1z"/>
  <path d="M389.2 129.8 c-0.7 -0.7 -1.2 -1.8 -1.2 -2.4 0 -0.7 -1 -1.4 -2.2 -1.6 -1.8 -0.2 -2.4 -1.1 -2.6 -3.6 -0.3 -3.1 -0.2 -3.2 2.2 -2.1 1.4 0.7 2.3 1.7 1.9 2.3 -0.3 0.6 0 0.5 0.8 -0.1 1.8 -1.7 2.9 -1.6 2.9 0.2 0 0.8 0.9 1.5 2 1.5 1.6 0 2 0.7 2 3.5 0 3 -0.3 3.5 -2.3 3.5 -1.3 0 -2.8 -0.5 -3.5 -1.2z"/>
  <path d="M360 111.5 c0 -2.2 0.3 -2.3 2.4 -1.5 1.5 0.5 2.7 0.5 3.5 -0.3 0.8 -0.8 1.1 -0.4 1.1 1.6 0 2.4 -0.4 2.7 -3.5 2.7 -3.1 0 -3.5 -0.3 -3.5 -2.5z"/>
 </g>
 <g fill="#12e8c1">
  <path d="M54.3 250.5 c-0.7 -2 1.3 -4.2 10.4 -11.7 12.1 -9.9 11.7 -4.1 -0.5 7.3 -6.4 6 -8.8 7.1 -9.9 4.4z"/>
  <path d="M165.3 171.6 c-2.8 -1.4 -5.9 -3.5 -6.7 -4.9 -0.9 -1.3 -3.1 -3.2 -4.9 -4.2 -3.1 -1.7 -3.5 -1.6 -10.1 0.4 -8.2 2.5 -11.3 2.6 -16.6 0.5 -4.4 -1.8 -6 -3.9 -6 -7.8 0 -3.8 1.8 -4.1 3.8 -0.7 2.7 4.8 6.8 5.7 15.1 3.2 10.3 -3.1 16.1 -2.4 20.1 2.4 1.8 2.2 10.4 6 15.3 6.9 4.2 0.8 5.6 2.8 3.7 5.1 -1.8 2.2 -7.8 1.8 -13.7 -0.9z"/>
  <path d="M258.6 170.9 c0.5 -0.8 -0.9 -1.3 -2.8 -1 -0.5 0 -0.8 -1 -0.8 -2.3 0 -2 1 -2.7 7.1 -5 3.8 -1.4 8.3 -2.6 9.8 -2.6 2.4 0 2.8 0.4 2.9 3.3 0.1 3.1 -0.2 3.4 -5.1 5.1 -7 2.5 -11.8 3.6 -11.1 2.5z"/>
  <path d="M233.2 165.7 c-0.1 -3.3 0 -3.4 6.9 -5.6 6.9 -2.2 14.9 -3.4 14.7 -2.2 -0.2 1.9 0.4 2.4 1.2 1.1 0.8 -1.2 1 -0.9 1 1.2 0 2.4 -0.7 2.9 -8.6 5.7 -4.7 1.7 -10 3.1 -11.8 3.1 -3 0 -3.3 -0.3 -3.4 -3.3z"/>
  <path d="M120.5 139.8 c-4.1 -1.4 -4.1 -1.6 -1.9 -3.4 1.3 -1.1 1.5 -1.7 0.7 -2 -2.5 -1.1 -1.3 -2.4 2.1 -2.4 4.8 0 9.6 1.9 9.6 3.8 0 1 -1.4 2.5 -3.1 3.5 -3.5 1.9 -3.3 1.9 -7.4 0.5z"/>
  <path d="M133.8 133.8 c-4.1 -1.5 -3.5 -4.1 1.2 -5.6 2.2 -0.7 5.1 -0.9 6.5 -0.6 2 0.5 2.4 1.2 2.3 4 -0.1 3.2 -0.3 3.4 -3.7 3.3 -2 0 -4.8 -0.5 -6.3 -1.1z"/>
  <path d="M390.2 126.3 c0.3 -3.6 0.5 -3.8 4.1 -4.1 2.1 -0.2 3.7 0.1 3.7 0.7 0 0.6 -0.5 1.1 -1.1 1.1 -0.8 0 -0.8 0.5 0.1 1.5 2 2.5 0.4 4.5 -3.5 4.5 -3.6 0 -3.6 -0.1 -3.3 -3.7z"/>
  <path d="M380.6 127.6 c0.3 -0.8 0.1 -1.7 -0.5 -2.1 -2.5 -1.5 -1.1 -3.5 2.4 -3.5 3.3 0 3.5 0.2 3.5 3.5 0 3.2 -0.2 3.5 -3 3.5 -2.1 0 -2.8 -0.4 -2.4 -1.4z"/>
  <path d="M194.4 122.8 c-1 -1.6 2.9 -4.5 12.2 -9 9 -4.2 12.7 -4.8 12.2 -2.1 -0.2 1 -2.8 2.8 -6.3 4.3 -3.3 1.4 -8.1 3.7 -10.7 5.3 -5.2 3 -6.3 3.2 -7.4 1.5z"/>
  <path d="M368.3 120.8 c-2 -0.7 -3.3 -1.8 -3.3 -2.8 0 -2 6.8 -6 10.4 -6 2.4 0 2.5 0.2 1.4 2 -1.1 1.7 -1 2.2 0.2 3 1.3 0.9 1.1 1.3 -1 3 -2.8 2.2 -3.2 2.2 -7.7 0.8z"/>
  <path d="M82.9 118 c0 -1 -0.2 -1.1 -0.6 -0.2 -0.2 0.6 -1.3 1.2 -2.4 1.2 -1.7 0 -1.8 -0.3 -0.8 -2.1 0.6 -1.2 0.7 -1.9 0.1 -1.6 -1.6 1.1 -4.4 -1.7 -3.6 -3.6 0.3 -0.9 1 -1.7 1.5 -1.7 0.5 0 0.9 -0.7 0.9 -1.5 0 -1.9 1.4 -1.9 3.3 0 1.2 1.1 1.7 1.2 2.1 0.2 0.5 -0.9 0.7 -0.9 1.2 0.1 0.3 0.6 1.4 1.2 2.5 1.2 2.1 0 2.4 1.1 0.8 2.7 -0.9 0.9 -0.7 1 0.9 0.6 1.5 -0.4 2.4 0 2.9 1.3 0.4 1 0.2 1.9 -0.5 2.2 -0.7 0.2 -1.2 1 -1.2 1.8 0 2 -7 1.4 -7.1 -0.6z"/>
  <path d="M354.1 116.3 c1.1 -1.3 1.1 -1.7 0.2 -2 -2.3 -0.8 -1.4 -3 1.7 -4.3 3.8 -1.6 9 0.2 9 3.1 0 2.3 -4.8 4.9 -9.1 4.9 -2.8 0 -3 -0.2 -1.8 -1.7z"/>
  <path d="M333 87.6 c-10.8 -3.4 -13 -4.4 -13 -6.1 0 -2.7 2.6 -2.7 12.2 0 10.3 2.9 13.4 4.6 12.5 7 -0.8 2 -2.7 1.8 -11.7 -0.9z"/>
  <path d="M434 53.1 c0 -1.3 13.6 -13.8 17 -15.6 2.8 -1.4 3.1 -1.4 3.7 0 1.1 3.1 -14.2 16.5 -18.9 16.5 -1 0 -1.8 -0.4 -1.8 -0.9z"/>
 </g>
 <g fill="#02cef8">
  <path d="M353.6 187.3 c-3.3 -0.2 -6.9 -1.1 -8 -1.9 -1.9 -1.3 -1.3 -1.4 6.4 -0.8 5 0.4 9.1 1.2 10 2 1.2 1.2 1.2 1.4 -0.5 1.2 -1.1 -0.1 -4.7 -0.3 -7.9 -0.5z"/>
  <path d="M384 185.8 c-0.3 -0.3 -6.8 -0.8 -14.5 -1.2 -7.7 -0.3 -17.6 -0.9 -21.9 -1.2 -5.9 -0.5 -7.7 -0.4 -7.2 0.4 0.4 0.7 0.1 1.2 -0.8 1.2 -1.9 0 -3 -1.7 -1.4 -2.3 0.7 -0.2 -1.7 -0.7 -5.4 -1.1 -3.7 -0.4 -7.3 -0.4 -7.9 0 -0.6 0.3 -1.4 0.2 -1.8 -0.4 -0.8 -1.3 -36.6 -6.5 -39.2 -5.7 -1.1 0.4 -1.9 0.2 -1.9 -0.5 0 -0.8 -1.1 -1.1 -2.9 -0.8 -1.7 0.3 -2.7 0 -2.4 -0.5 0.3 -0.6 -0.9 -0.8 -3 -0.5 -2 0.2 -3.4 0.1 -3.1 -0.3 0.6 -1 -10.3 -2.2 -11.7 -1.3 -0.7 0.4 -0.9 0.3 -0.6 -0.3 1 -1.5 -1.8 -2.4 -3.2 -1 -0.8 0.8 -1.1 0.4 -1.1 -1.5 0 -2.4 0.8 -3 8.1 -5.8 6.1 -2.3 9.3 -3 13.2 -2.8 l5.2 0.3 -3.5 1.2 -3.5 1.2 3 -0.1 c1.7 0 3.8 0.3 4.8 0.7 3.1 1.3 12.2 1.1 12 -0.2 -0.4 -1.6 0.4 -1.6 5.9 -0.3 2.4 0.5 11.7 1.9 20.8 3 9.1 1.1 19.8 2.4 23.9 3 8.5 1 11.8 2.9 5.6 3.1 -4.8 0.2 13.5 2.5 29.5 3.8 31.8 2.6 58.3 -0.2 60.7 -6.5 2.7 -7.1 -13.1 -20.5 -41.2 -34.8 -7.3 -3.7 -10.7 -5 -11.5 -4.2 -0.7 0.7 -1 0.5 -1 -0.7 0 -1.3 -0.6 -1.5 -2.9 -1.1 -2.4 0.5 -2.9 0.3 -2.8 -1.1 0.2 -1.3 -1.6 -2.5 -6.1 -4.5 -3.4 -1.4 -6 -2.9 -5.6 -3.2 0.3 -0.4 -0.3 -0.4 -1.5 -0.1 -3.4 0.9 -2.5 -2.3 1.3 -4.6 4 -2.5 9.6 -3 7.6 -0.6 -1 1.2 -0.8 1.6 1.1 2.4 7.4 2.8 10 4.2 9.4 5.1 -0.9 1.4 0.8 1.3 2.3 -0.2 0.9 -0.9 1.2 -0.8 1.2 0.5 0 0.9 0.5 1.7 1 1.7 0.6 0 1 -0.4 1 -1 0 -1.3 5.7 -1.3 6.5 -0.1 0.3 0.5 -0.3 1.1 -1.2 1.3 -1.1 0.2 3.3 3 10.7 6.9 22.8 11.9 34.1 20.5 38.4 29.1 3.2 6.4 3.3 9.5 0.4 13.8 -3 4.4 -9.4 7.6 -18.8 9.5 -7.1 1.5 -43 3.3 -44 2.3z m-41.2 -14.5 c-1 -0.2 -2.6 -0.2 -3.5 0 -1 0.3 -0.2 0.5 1.7 0.5 1.9 0 2.7 -0.2 1.8 -0.5z m-10 -1 c-1 -0.2 -2.6 -0.2 -3.5 0 -1 0.3 -0.2 0.5 1.7 0.5 1.9 0 2.7 -0.2 1.8 -0.5z m-28.9 -3.7 c-0.2 -0.2 -2.6 -0.6 -5.4 -0.9 -3.2 -0.4 -4.3 -0.3 -3 0.3 1.9 0.8 9.3 1.4 8.4 0.6z"/>
  <path d="M230 168 c0 -0.5 0.9 -1 2.1 -1 4.3 0 0.6 -1.8 -5.8 -2.9 -3.8 -0.7 -8.1 -1.6 -9.8 -2 -1.6 -0.5 -5.7 -1.4 -9 -2.1 -6.8 -1.4 -13.7 -3.2 -21 -5.4 -2.7 -0.8 -10.2 -2.9 -16.5 -4.6 -6.3 -1.7 -17.9 -5.2 -25.8 -7.7 -12.9 -4.1 -14.5 -4.3 -16.5 -3 -1.9 1.2 -2.7 1.2 -6.2 -0.3 -3.2 -1.4 -3.6 -1.9 -2.3 -2.5 1 -0.4 3.2 -0.2 4.9 0.4 1.8 0.6 3.4 1 3.5 0.8 0.2 -0.1 -6.3 -2.9 -14.3 -6 -8 -3.2 -17.7 -7.4 -21.7 -9.2 -3.9 -1.9 -7.3 -3 -7.4 -2.5 -0.6 1.8 -2.2 1.1 -2.2 -1 0 -1.4 -0.5 -1.8 -1.7 -1.3 -1.2 0.5 -1.5 0.2 -1 -1 0.4 -1.2 0.1 -1.7 -1 -1.7 -2.2 0 -13 -7.9 -18.6 -13.6 -5.9 -6 -8.7 -11.7 -8.7 -17.9 0 -15.1 17 -24.2 51.3 -27.6 22 -2.1 63.1 1 93.5 7.2 7.9 1.6 14.8 2.6 15.3 2.3 0.5 -0.3 0.9 0.3 0.9 1.2 0 1.5 0.3 1.5 2 -0.4 2.6 -2.8 6.5 -3.1 5.1 -0.4 -0.8 1.4 -0.5 1.8 1.2 2 3.8 0.3 30.2 7.3 31.1 8.3 0.6 0.6 0.6 1.3 -0.1 2 -0.8 0.8 -5.8 0.1 -19 -2.7 -9.8 -2 -18 -3.9 -18.2 -4.1 -0.2 -0.1 0.2 -1.1 1 -2 1.1 -1.5 1 -1.5 -0.9 0.1 -1.2 1.1 -2.2 1.6 -2.2 1.2 0 -0.4 -1 0 -2.2 0.8 -1.2 0.9 -3.7 1.6 -5.6 1.6 -2.7 0 -3.1 -0.2 -2 -1.4 0.7 -0.8 1.8 -1.1 2.3 -0.8 0.7 0.3 0.7 0.1 0 -0.6 -1.1 -1.2 -24 -4.2 -50.5 -6.8 -23 -2.1 -53.2 -1.5 -66.8 1.4 -14.8 3.3 -19.1 5 -23.9 9.8 -3.7 3.7 -4.3 4.9 -4.3 8.5 0 6.1 4.5 12.4 13.6 19.2 4.2 3.2 8 5.7 8.6 5.7 0.5 0 0.7 1 0.4 2.3 l-0.6 2.2 1.1 -2.2 c1.5 -2.8 2.9 -3 2.9 -0.4 0 1.5 0.5 1.8 2.2 1.3 2.1 -0.5 2.2 -0.4 0.8 1.3 -1.4 1.7 -1.3 1.8 0.3 1.2 1.1 -0.4 4.4 0.5 8.5 2.4 15.4 7 38.2 14.7 38.2 12.9 0 -1.6 2.9 -1.8 7 -0.6 3.7 1.1 4 1.4 2.5 2.6 -0.9 0.7 -1.2 1.6 -0.8 2 1.7 1.6 44.1 13 50.3 13.6 3 0.3 13.1 2.3 26.5 5.4 10.7 2.4 14.2 3.1 15.1 2.9 0.5 -0.1 2.9 0.3 5.3 1 2.3 0.7 4.9 1 5.7 0.7 0.7 -0.3 1.6 0 2 0.5 0.4 0.6 1.9 0.8 3.6 0.5 2.7 -0.5 2.9 -0.4 1.8 1 -1.1 1.2 -1.1 1.5 0.1 1.2 0.8 -0.2 1.8 -0.7 2.2 -1.3 0.4 -0.5 0.7 0.1 0.5 1.4 -0.3 2.2 -1.6 3 -9.3 5.7 -8.8 3.2 -17.5 4.4 -17.5 2.4z"/>
  <path d="M354 116.5 c0.7 -0.9 1.1 -1.7 0.9 -1.8 -1.5 -1.1 -24.3 -9.5 -45.4 -16.7 -21.5 -7.3 -25 -8.8 -25.3 -10.6 -0.2 -1.2 0.4 -2.4 1.2 -2.7 2.9 -1.1 36.9 10 71 23.2 4.4 1.6 8.3 2.8 8.8 2.5 0.4 -0.3 0.8 0.3 0.8 1.4 0 2.3 -6.6 6.2 -10.5 6.2 -2.3 0 -2.6 -0.2 -1.5 -1.5z"/>
 </g>
 <g fill="#aff42d">
  <path d="M76.1 205.9 c-11.8 -1.8 -20.1 -8.3 -20.1 -15.8 0 -11.9 21.9 -31.6 54.4 -49 9.8 -5.3 9.9 -5.3 14.3 -4 l4.5 1.2 -2.9 1.7 c-1.5 0.9 -6.6 3.8 -11.3 6.4 -23.4 13.2 -43.2 28.8 -48.1 38 -2.2 4.3 -2.3 4.8 -0.9 7.4 1 1.6 3.1 3.2 5.5 4.1 5.3 1.7 24.1 2.5 33.5 1.3 18.5 -2.4 40.3 -6.5 60.1 -11.2 11.8 -2.9 22.3 -5.3 23.4 -5.4 1.1 0 2.2 -0.4 2.5 -0.7 0.3 -0.3 4.6 -1.7 9.5 -3.1 12.9 -3.6 34.6 -10.5 44.5 -14 4.7 -1.6 9.1 -3 9.8 -3.1 0.6 0 1.2 -0.4 1.2 -0.7 0 -0.4 4.1 -2.2 9.1 -4 8.3 -3 8.9 -3.4 6.9 -4.5 -2 -1.1 -1.4 -1.5 7.7 -5.2 8 -3.2 10.3 -3.8 12.6 -3 2.2 0.7 4.2 0.3 9.5 -2 3.7 -1.5 6.9 -2.7 7.2 -2.7 1.5 0.5 41.9 -18.5 45 -21.1 0.8 -0.7 5.1 -3.2 9.5 -5.5 11.8 -6.3 28.7 -18.4 38 -27.2 12.9 -12.1 14.5 -18.8 5.9 -23.5 -5.5 -3.1 -17.7 -4.7 -29.4 -3.9 -22.3 1.5 -58.5 7.9 -69.5 12.2 -3.3 1.2 -13.4 4.4 -22.5 6.9 -9.1 2.6 -22.8 6.6 -30.5 9.1 -9.3 2.9 -14.2 4.1 -14.9 3.4 -1.9 -1.9 1.6 -3.7 16.9 -8.9 8.3 -2.8 15.5 -5.7 16 -6.5 1.6 -2.2 6.4 -4.1 19 -7.9 49.1 -14.4 98 -19.8 116.6 -12.8 9.5 3.6 13.6 9.9 11.8 18.1 -2.6 11.4 -11.5 21 -34.2 36.8 -3.4 2.4 -7.7 5.4 -9.5 6.8 -1.9 1.5 -13.6 7.8 -26 14.1 -12.5 6.3 -24.5 12.5 -26.7 13.8 -2.2 1.2 -6.1 3 -8.7 4 -4.7 1.7 -6.3 3.5 -3.3 3.5 3.8 0 0.6 2.1 -9.6 6.3 -8.6 3.5 -11.5 4.3 -12.8 3.5 -2 -1.2 -20 4.3 -30.9 9.4 -10.5 4.9 -53.3 18.5 -76.7 24.4 -24.5 6.2 -47.2 10.8 -59.7 12.3 -12.9 1.5 -39.6 2 -46.7 1z"/>
  <path d="M138.3 130.8 c-1.8 -0.6 -3.3 -1.4 -3.3 -1.8 0 -0.7 10.7 -5.9 30 -14.5 22.8 -10.3 65.5 -26.5 69.7 -26.5 0.2 0 0.3 0.9 0.3 1.9 0 1.8 -6.4 5.1 -19 9.6 -1.9 0.7 -6.6 2.6 -10.5 4.3 -3.8 1.6 -14.2 6 -23 9.7 -8.8 3.7 -21.3 9.4 -27.9 12.6 -6.5 3.3 -12.1 5.9 -12.5 5.8 -0.3 -0.1 -2.1 -0.6 -3.8 -1.1z"/>
  <path d="M385.9 128.8 c-0.1 -1.7 -0.3 -1.8 -0.6 -0.5 -0.3 1.1 -1.4 1.7 -3.4 1.7 -2.6 0 -2.8 -0.2 -1.7 -1.9 0.7 -1.1 1.5 -1.8 1.9 -1.5 0.4 0.2 1.5 -0.5 2.3 -1.7 1.2 -1.8 2.4 -2.2 5.8 -2.1 4 0.2 8.2 2.2 4.6 2.2 -0.9 0 -1.8 0.4 -2 0.8 -0.1 0.4 -1.8 1.8 -3.5 3.1 l-3.3 2.2 -0.1 -2.3z"/>
  <path d="M82 119.5 c0 -0.8 -0.6 -1.5 -1.4 -1.5 -0.9 0 -1.4 -0.9 -1.3 -2 0.1 -1.1 0.6 -2 1.1 -2 0.5 0 0.7 -0.3 0.3 -0.6 -1.5 -1.5 2.1 -3.2 5.4 -2.5 2.2 0.4 2.9 1 2.1 1.5 -0.7 0.4 -1 1.2 -0.7 1.7 0.4 0.5 0.3 0.9 -0.2 0.9 -0.4 0 -1.4 1.4 -2.1 3 -1.4 3.2 -3.2 4 -3.2 1.5z"/>
 </g>
 <g fill="#bca776">
  <path d="M411.1 387.8 c0.5 -1.8 0.9 -5.7 0.9 -8.6 0 -3.9 0.9 -7.3 3.3 -12.5 2.9 -6.6 3.2 -8 3.1 -16.7 0 -6.6 -0.7 -11.3 -2.1 -15.6 -1.9 -5.9 -1.9 -6.1 -0.2 -7.3 1.7 -1 2.5 0.3 9 13.7 6.5 13.4 7 15.1 6.5 19.1 -0.7 4.8 -3.1 8.5 -11.3 17.2 -2.9 3 -5.9 7.2 -6.8 9.1 -2 4.8 -3.7 5.9 -2.4 1.6z"/>
  <path d="M232 329 c-3.1 -1 -6.6 -3.1 -8.2 -4.9 l-2.6 -3 8.2 -18.9 c4.6 -10.4 10.3 -23.9 12.6 -30 2.3 -6.1 4.8 -11.3 5.6 -11.6 0.7 -0.3 5.8 -1 11.4 -1.7 8.7 -1.1 10.3 -1.1 11.1 0.1 0.8 1.1 1.2 1.2 1.6 0.3 0.2 -0.7 1.3 -1.3 2.4 -1.3 1.8 0 1.7 0.3 -0.7 5.8 -1.4 3.1 -7.7 18.1 -14 33.2 -6.3 15.1 -12.1 29 -12.9 30.8 -1.3 2.8 -1.9 3.2 -5.2 3.2 -2.1 -0.1 -6.3 -0.9 -9.3 -2z m12 -6 c0.7 -2.2 1.7 -4 2.2 -4 0.4 0 0.8 -1.1 0.8 -2.5 0 -1.4 0.5 -2.5 1 -2.5 0.6 0 1 -1.1 1 -2.4 0 -1.4 0.7 -3.1 1.5 -4 0.8 -0.8 1.5 -2.4 1.5 -3.5 0 -1.1 0.7 -2.6 1.5 -3.5 0.8 -0.8 1.5 -2.4 1.5 -3.5 0 -1.2 0.5 -2.1 1 -2.1 0.6 0 1 -1.1 1 -2.4 0 -1.4 0.7 -3.1 1.5 -4 0.8 -0.8 1.5 -2 1.5 -2.7 0 -2.8 3.3 -9.9 4.6 -9.9 0.9 0 1.4 -1.2 1.4 -3.5 0 -2.4 0.5 -3.5 1.5 -3.5 1 0 1.5 -1.1 1.5 -3.5 0 -3.4 -0.1 -3.5 -3.7 -3.5 -2 0 -6.4 0.5 -9.7 1.1 l-6.1 1 -3.9 10.5 c-2.1 5.7 -4.2 10.4 -4.7 10.4 -0.5 0 -0.9 1.1 -0.9 2.4 0 1.4 -0.7 3.1 -1.5 4 -0.8 0.8 -1.5 2.4 -1.5 3.5 0 1.1 -0.7 2.6 -1.5 3.5 -0.8 0.8 -1.5 2.1 -1.5 3 0 2.1 -2.1 6.6 -3.2 6.6 -0.4 0 -0.8 0.9 -0.8 1.9 0 3 -1.1 5.1 -2.6 5.1 -2.2 0 -1.6 4.2 0.9 7 2.3 2.7 7.3 4.7 11.8 4.9 2.2 0.1 2.8 -0.6 3.9 -3.9z"/>
  <path d="M364.1 306.4 c-6.5 -3.3 -6.5 -3 1.4 -21 9.1 -20.7 16.5 -39.2 16.5 -41.2 0 -1.4 0.9 -2.1 3.1 -2.6 5.4 -1.1 6.9 -0.8 6.9 1.4 0 1.5 -0.7 2 -2.7 2 -2.6 0 -3 0.7 -6.2 9.5 -1.9 5.2 -3.8 9.5 -4.3 9.5 -0.4 0 -0.8 0.9 -0.8 1.9 0 3 -1.1 5.1 -2.6 5.1 -0.9 0 -1.4 1.1 -1.4 3 0 3.2 -2.9 10 -4.2 10 -0.4 0 -0.8 1.1 -0.8 2.4 0 1.4 -0.7 3.1 -1.5 4 -0.8 0.8 -1.5 2.4 -1.5 3.5 0 1.2 -0.4 2.1 -0.9 2.1 -0.5 0 -1.1 1.2 -1.3 2.8 -0.3 2.3 0.3 3 3.6 4.5 2.1 0.9 4.4 1.7 5.2 1.7 0.8 0 1.4 0.9 1.4 2 0 2.8 -3.4 2.6 -9.9 -0.6z"/>
  <path d="M378 304.1 c0 -3.2 3.9 -14.1 5 -14.1 0.4 0 1 -1.8 1.4 -4 0.3 -2.2 1.1 -4 1.6 -4 0.6 0 1 -0.8 1 -1.7 0 -2.6 3.2 -11.3 4.2 -11.3 0.4 0 0.8 -1.1 0.8 -2.5 0 -1.4 0.4 -2.5 0.9 -2.5 0.5 0 1.1 -1.8 1.5 -4 0.3 -2.2 1.1 -4 1.6 -4 0.6 0 1 -1.1 1 -2.5 0 -1.4 0.5 -2.5 1 -2.5 0.6 0 1 -0.8 1 -1.9 0 -3.8 2.2 -8.1 4.1 -8.1 1 0 1.9 0.5 1.9 1.1 0 1.1 -22.6 60.1 -24.2 63.2 -1.4 2.6 -2.8 2 -2.8 -1.2z"/>
  <path d="M425.5 272.5 c-0.6 -2.7 -0.9 -9.3 -0.8 -14.5 0.2 -5.2 0.4 -12.4 0.4 -16 0.1 -3.6 -0.3 -7.8 -1 -9.4 l-1.2 -2.9 -16.2 0.6 c-17.7 0.6 -55.1 4.9 -63.4 7.3 -3.6 1 -7.1 3.1 -11.5 6.9 -7.3 6.4 -11.5 7.9 -21.5 7.8 -6.5 0 -8.2 -0.5 -17 -4.7 -5.4 -2.6 -12 -5 -14.8 -5.5 l-5 -0.7 6.2 -0.7 c6.7 -0.9 9.9 -0.3 15.5 2.4 6.6 3.3 11.7 4 19.2 2.4 3.8 -0.8 8 -1.2 9.4 -0.8 1.7 0.4 2.3 0.2 1.8 -0.5 -0.7 -1.2 5.9 -7.8 10 -10 3.5 -1.9 15.3 -3.9 39.2 -6.6 11.9 -1.3 22.4 -2.5 23.2 -2.5 0.8 0 4.1 -0.4 7.3 -0.7 3.9 -0.5 5.7 -0.3 5.7 0.5 0 1.6 13.7 1.5 14.3 -0.1 0.3 -1 0.9 -0.9 2.1 0.3 2.2 2 5.4 19.1 3.8 19.7 -0.7 0.2 -1.2 1.3 -1.2 2.3 0 1.1 -0.6 3 -1.2 4.2 -0.7 1.2 -1.5 7.5 -1.8 14.2 -0.5 11.3 -0.6 11.7 -1.5 7z"/>
  <path d="M362.6 212.5 c-5.7 -5.8 -7.4 -8.3 -9.7 -14.5 -1.6 -4.1 -4.2 -9 -5.8 -10.8 l-3 -3.2 8.2 0.6 8.2 0.7 8.2 8.6 c7.2 7.5 8.5 9.5 10.7 16.1 1.4 4 2.3 7.7 1.8 8.1 -0.4 0.3 -3.2 0.8 -6.2 1.1 l-5.5 0.4 -6.9 -7.1z m-0.7 -10.4 c2.1 -1.3 -0.2 -6.1 -2.8 -6.1 -2.6 0 -3.3 2.3 -1.5 4.9 1.7 2.3 2.2 2.5 4.3 1.2z"/>
  <path d="M204 210.2 c0 -1.9 1.9 -2.2 5.3 -0.7 2.8 1.2 1.9 2.5 -1.8 2.5 -2.7 0 -3.5 -0.4 -3.5 -1.8z"/>
  <path d="M337.5 184 c-0.3 -0.5 0.1 -1 0.9 -1 0.8 0 1.8 0.5 2.1 1 0.3 0.6 -0.1 1 -0.9 1 -0.8 0 -1.8 -0.4 -2.1 -1z"/>
  <path d="M337 170.9 c-8.5 -1 -35.8 -4.7 -40.7 -5.6 -1.8 -0.3 -3.1 -0.8 -2.8 -1.2 0.6 -1.1 -2.5 -5.1 -4.6 -5.9 -1.3 -0.5 1.2 -2 9.6 -5.4 l11.4 -4.6 11.3 3.9 c19.6 6.9 24.7 9.8 30 17.2 l1.9 2.7 -4.3 -0.1 c-2.4 -0.1 -7.7 -0.5 -11.8 -1z"/>
  <path d="M226.6 149.8 c8.5 -10.4 13.7 -14.4 21.8 -17.1 8.3 -2.8 13.1 -2.2 26.8 3.2 6.8 2.7 13.6 5.3 15.1 5.6 1.5 0.4 2.6 1.2 2.4 1.8 -0.4 1.2 -18.3 8.8 -19 8.1 -1.9 -1.9 -18.7 -6.4 -23.9 -6.4 -5.7 0 -20 3.9 -22.2 6.1 -2 1.9 -2.8 0.8 -1 -1.3z"/>
 </g>
 <g fill="#edc250">
  <path d="M234 329.4 c-5.1 -1.4 -12 -6.4 -12 -8.6 0 -0.5 4 -10.1 9 -21.4 4.9 -11.2 10.4 -24.5 12.2 -29.4 l3.3 -8.9 6.5 -1 c11 -1.7 22 -2.4 22 -1.4 0 0.6 -2.1 5.7 -4.6 11.4 -4.5 10.4 -22.4 53.2 -24.2 57.9 -1.2 3.1 -4.4 3.5 -12.2 1.4z"/>
  <path d="M367.8 307.6 c-6.5 -2.3 -9 -4.4 -8.2 -6.9 0.8 -2.6 6.2 -15.7 13.7 -32.7 3 -6.9 6.5 -15.5 7.8 -19.1 l2.3 -6.7 4.4 -0.6 c2.5 -0.3 7.4 -0.6 10.9 -0.6 6.2 0 6.4 0.1 5.8 2.3 -0.4 1.2 -5 13.2 -10.2 26.7 -5.2 13.5 -10.7 27.8 -12.1 31.7 l-2.7 7.3 -4 0 c-2.2 -0.1 -5.7 -0.7 -7.7 -1.4z"/>
  <path d="M426.2 274 c-2.4 -18.8 -2.4 -19 -0.6 -24.5 1.5 -4.8 1.5 -6.2 0.4 -11.6 -2 -9.3 -2 -9.3 -18.5 -8.6 -13.9 0.6 -58.1 5.8 -64.1 7.6 -4.7 1.3 -6.8 2.6 -13 8.1 -10 8.8 -21.6 9.3 -38.1 1.7 -5.4 -2.5 -10.7 -4.7 -11.8 -5 -1.1 -0.3 0.5 -0.5 3.5 -0.6 4.1 -0.1 7.4 0.7 12.5 2.9 8 3.4 11.3 3.6 19.8 1.4 7.8 -2 11.3 -3.8 15.8 -8 2.7 -2.7 5.1 -3.8 10.5 -4.9 11 -2.4 54.6 -7.4 70.1 -8.2 l14.3 -0.6 1.4 3.4 c0.8 1.9 2 7.1 2.6 11.6 1.2 7.9 1.1 8.2 -1.1 11.3 -2.1 2.7 -2.5 4.7 -3 14.3 -0.3 6.2 -0.6 10.5 -0.7 9.7z"/>
 </g>
 <g fill="#f2f231">
  <path d="M356.7 149.4 c-1.5 -1.5 -0.6 -2.4 5.7 -5.4 4.7 -2.2 8.3 -5 12.8 -9.9 8.4 -9 12.6 -12 23.3 -16.7 5.7 -2.4 10.7 -5.4 13.7 -8.2 7.1 -6.6 9.8 -3 3.3 4.5 -2.5 2.9 -5.7 5 -11.9 7.7 -4.6 2 -8.9 3.6 -9.5 3.6 -0.6 0 -5.7 4.4 -11.4 9.8 -9.8 9.5 -15.9 13.5 -22.2 14.8 -1.7 0.3 -3.3 0.2 -3.8 -0.2z"/>
  <path d="M13.3 141.4 c-1.1 -2.8 1.9 -3.4 17.8 -3.4 12.4 0 15.8 0.3 16.2 1.4 1.2 3 -1.6 3.6 -17.5 3.6 -13.6 0 -15.9 -0.2 -16.5 -1.6z"/>
  <path d="M78.1 127.1 c-1.7 -3.2 -1.3 -5.7 2 -12.4 8.5 -16.8 26.6 -31.6 38.6 -31.7 4.8 0 5.7 0.4 10.3 4.5 4 3.6 5.7 4.4 7.3 3.9 2.8 -0.8 7.7 -4.3 7.7 -5.4 0 -1.4 3.2 -2.1 4.6 -0.9 1.2 0.9 1.1 1.6 -0.4 4.1 -5.2 9 -17.3 10.4 -23 2.6 -0.7 -1 -2.2 -2.3 -3.3 -2.9 -5.1 -2.7 -21.8 7.8 -30.6 19.2 -4 5.2 -9.3 15.1 -9.3 17.5 0 0.6 -0.6 1.7 -1.4 2.3 -1.2 1 -1.7 0.8 -2.5 -0.8z"/>
  <path d="M441 107.9 c0 -1.6 2 -2.9 9.3 -6.3 16.1 -7.6 29.6 -12.9 31.2 -12.2 5.5 2.1 -4.6 7.9 -30.5 17.8 -9 3.3 -10 3.4 -10 0.7z"/>
 </g>
 <g fill="#f955cc">
  <path d="M59.5 219.3 c-10.2 -2.3 -16.6 -6.1 -20.2 -12.1 -4 -6.6 -2.3 -23.6 2.7 -26.7 2.3 -1.4 3.2 1.1 1.7 4.7 -4 9.6 -2.9 17.8 3 22.7 4.3 3.5 11.1 6.1 16.2 6.1 6.3 0 11.1 1.2 11.1 2.7 0 2.6 -8 4.1 -14.5 2.6z"/>
  <path d="M203.8 215.5 c-3.1 -1.7 -4.5 -5 -2.9 -6.9 0.9 -1.1 1.9 -1.1 5.5 0.1 4.3 1.4 4.8 1.4 9.8 -0.9 2.9 -1.4 7.8 -4.7 10.8 -7.5 9.7 -8.8 13.8 -11.3 18.7 -11.3 2.4 0 6.1 0.9 8.3 2 7.4 3.8 12.4 2.6 20.1 -4.7 4.4 -4.1 7.2 -4.1 7.7 0 0.3 2.3 -0.7 3.9 -5 8.2 -8.1 8.1 -15.8 9.3 -26.4 4.3 -5.2 -2.4 -6.5 -2 -13.6 4.3 -2.4 2.2 -7.4 6 -11.1 8.6 -6 4.2 -7.5 4.7 -13 5 -4.2 0.2 -7.1 -0.2 -8.9 -1.2z"/>
  <path d="M452.7 209.6 c-10.7 -4.9 -12.7 -6.1 -12.7 -8.2 0 -2.3 3.8 -1.6 13.9 2.7 11.4 4.8 14.1 6.4 14.1 8.4 0 2.6 -5.1 1.7 -15.3 -2.9z"/>
  <path d="M183.5 83 c-0.9 -1.4 -1.6 -1 9.5 -6.5 5.2 -2.6 9.7 -5.1 9.8 -5.6 0.2 -0.5 0.8 -0.7 1.3 -0.3 0.5 0.3 0.9 0 0.9 -0.7 0 -0.7 0.3 -1 0.6 -0.7 1 1.1 12.2 -9.5 14.4 -13.6 1.3 -2.6 1.3 -2.9 -0.5 -4.3 -1.7 -1.2 -4.3 -1.4 -15.2 -0.8 -14.7 0.7 -17.3 0.1 -17.3 -4.2 0 -7.5 25.7 -20.6 34.2 -17.4 2.6 1 3.1 0.7 -7.9 4.1 -7 2.1 -19.3 9.3 -20 11.6 -0.6 1.8 1.8 2.2 7.2 1.3 8.1 -1.3 16.4 -1 20 0.7 4.1 1.9 6 6 4.6 9.7 -1.2 3.2 -8.5 13.2 -10.3 14.3 -0.8 0.5 -0.7 0.1 0.2 -1.1 0.8 -1 -0.5 -0.3 -3 1.6 -4.7 3.5 -20.4 11.3 -25.1 12.4 -1.6 0.4 -3 0.2 -3.4 -0.5z"/>
  <path d="M38 65.3 c-3.1 -1.3 -14.6 -8.6 -17.2 -11.1 -3.2 -3 -3.6 -5.2 -1 -5.2 2.6 0 21.6 13.2 22 15.3 0.3 1.7 -1 2.1 -3.8 1z"/>
  <path d="M311 48.9 c0 -3.5 5.1 -11.2 9.2 -13.7 4.8 -3 7.5 -2.8 10.6 0.8 1.5 1.7 3.3 3 4.1 3 0.7 0 3.1 -1.6 5.2 -3.5 5.3 -4.8 8.2 -5.3 13.4 -2.5 3.3 1.8 5.2 2.2 8.9 1.8 5.4 -0.6 6.7 0.6 3.7 3.6 -3 2.9 -9.5 2.9 -13.8 -0.2 -1.7 -1.2 -3.6 -2.2 -4.1 -2.2 -0.6 0 -3.2 1.8 -5.7 4 -5.5 4.8 -8.3 5 -12.8 1 -1.9 -1.6 -4.2 -3 -5 -3 -0.8 0 -4.3 3 -7.6 6.8 -5.4 6 -6.1 6.4 -6.1 4.1z"/>
  <path d="M295.5 45 c-1.6 -2.6 4.2 -15 7 -15 2.2 0 1.8 2.8 -1.5 9.8 -2.8 6 -4.2 7.3 -5.5 5.2z"/>
 </g>
</svg>