<?xml version="1.0" encoding="utf-8"?>
<!DOCTYPE svg PUBLIC "-//W3C//DTD SVG 1.1//EN" "http://www.w3.org/Graphics/SVG/1.1/DTD/svg11.dtd">
<svg version="1.1" xmlns="http://www.w3.org/2000/svg" width="600px" height="600px" viewBox="0 0 600 600" preserveAspectRatio="xMidYMid meet">
 <g fill="#503119">
  <path d="M268 380.5 l0 -3.5 10 0 10 0 0 3.5 0 3.5 -10 0 -10 0 0 -3.5z"/>
  <path d="M241.5 367.3 c-6.9 -1.6 -9 -3.2 -10.6 -8 -1 -3.1 -6.3 -13.5 -8.9 -17.3 -1.9 -2.7 -2.9 -5.4 -6.2 -16 -4.1 -13.3 -8 -19.6 -12.9 -21 -4.3 -1.2 -6.8 -3.7 -7.9 -8.2 -0.5 -1.8 -1.6 -5.8 -2.5 -8.8 -1.7 -6.2 -2.1 -28 -0.5 -30.9 1.3 -2.6 8.2 -5.1 13.9 -5.1 l4.8 0 0.7 9.3 c0.4 5 1.4 13.3 2.2 18.2 1.3 7.6 1.9 9.4 4.2 11.2 1.5 1.3 3.2 2.3 3.8 2.3 2.6 0 5.5 5.4 8.9 16.5 2 6.6 4.2 12.9 4.9 14 0.6 1.1 1.8 4 2.6 6.5 0.7 2.5 1.8 5 2.4 5.5 0.6 0.6 2.2 4.2 3.5 8 1.3 3.9 3.2 8.2 4.3 9.7 1 1.4 1.8 3.5 1.8 4.7 0 1.1 0.9 2.6 2 3.3 1.3 0.9 2 2.4 2 4.5 0 3.1 -0.2 3.3 -3.2 3.2 -1.8 -0.1 -6 -0.8 -9.3 -1.6z m-20.3 -59.3 c-1.1 -3.2 -2.8 -6 -4.3 -6.9 l-2.4 -1.6 2.3 3.5 c1.3 1.9 3.1 5.2 3.9 7.3 2.3 5.4 2.6 3.9 0.5 -2.3z m-14.5 -17.7 c-1.3 -3.9 -2.1 -9.8 -2.4 -18 l-0.6 -12.1 -2.5 1.1 c-2.4 1.1 -2.4 1.4 -1.9 9.2 0.6 9.4 3.7 19.8 6.8 23.1 1.2 1.3 2.3 2.4 2.4 2.4 0.1 0 -0.7 -2.6 -1.8 -5.7z"/>
  <path d="M349 365.6 c0 -3.7 1.2 -4.6 6.1 -4.6 2.6 0 2.9 0.3 2.9 3.4 0 3.7 -1.2 4.6 -6.1 4.6 -2.6 0 -2.9 -0.3 -2.9 -3.4z"/>
  <path d="M277.5 352 c-3.8 -1.1 -7.3 -2 -7.6 -2 -0.4 0 -2.5 -1.8 -4.8 -4 -2.7 -2.6 -4.1 -4.9 -4.1 -6.5 0 -1.8 -1.6 -4.2 -5 -7.5 -3.8 -3.8 -5 -5.6 -5 -8 0 -1.6 -0.3 -3 -0.7 -3 -2.1 0 -5.4 -7.3 -6.4 -13.6 -1.6 -11.4 -2.1 -13.4 -3 -14 -0.5 -0.3 -0.9 -4.1 -0.9 -8.4 0 -14.4 3.2 -23.3 8.8 -24.6 1.5 -0.4 3.8 -1.3 5.2 -2 2.8 -1.4 18.1 -5.4 20.9 -5.4 1 0 3.2 -0.7 4.7 -1.5 1.6 -0.8 4.7 -1.5 7 -1.5 2.2 0 4.4 -0.4 5 -0.9 1 -0.9 24.3 -3.1 33.2 -3.1 l5.2 0 0 3.4 0 3.3 -6.7 0.6 c-3.8 0.3 -10.2 1.1 -14.4 1.7 l-7.6 1.2 -3.8 10.2 c-2 5.5 -4.3 11.5 -5 13.1 -0.7 1.7 -2.4 5.8 -3.7 9.3 -1.2 3.4 -2.6 6.2 -3 6.2 -0.5 0 -0.8 0.6 -0.8 1.3 0 1.2 -9.2 22.7 -14.4 33.7 l-2.6 5.5 3.8 3.6 c4.1 3.9 13.4 7.9 18.2 7.9 2.8 0 3 0.3 3 3.5 0 3.5 0 3.5 -4.2 3.4 -2.4 0 -7.4 -0.9 -11.3 -1.9z m-4.5 -62.5 c6.7 -15.9 12.4 -29.3 12.6 -29.6 0.5 -0.8 -13.8 2.5 -19.6 4.6 -5.3 1.9 -12.5 6 -15.1 8.6 -1.1 1.1 -1.9 3.3 -1.9 5.2 0 7.9 9.4 42.8 11 41 0.4 -0.4 6.2 -13.8 13 -29.8z"/>
  <path d="M300.8 353.3 l-4.8 -0.4 0 -4.5 c0 -2.4 0.4 -5.2 0.9 -6.2 0.5 -0.9 2.4 -5.2 4.1 -9.5 1.7 -4.3 4.8 -11.5 6.9 -16 2.1 -4.5 4.6 -10.7 5.5 -13.7 1 -3 2.6 -7.3 3.7 -9.5 10.9 -23.4 17.9 -41.1 17.9 -45.1 0 -2.8 0.3 -3.2 3.8 -3.8 10.2 -1.6 16.7 0.4 22 7.1 1.7 2.2 3.4 6.1 4.1 9.1 2.3 10.7 1.1 29.6 -2.9 45.2 -0.4 1.9 -1.4 6.7 -2 10.5 -1.9 11.1 -4.2 15.2 -12.2 22.7 -12.7 11.7 -26.5 15.9 -47 14.1z m19.3 -10.4 c18.6 -6 28 -16.7 33.6 -37.8 2.1 -8.1 2.6 -12 2.7 -24.6 0.1 -14.7 0 -15.1 -2.7 -19.7 -5.2 -8.9 -5.4 -8.7 -12.6 10.5 -3.5 9.5 -11 28 -16.6 41.2 -13.8 32.5 -13.8 32.5 -12.2 32.5 0.8 0 4.3 -0.9 7.8 -2.1z"/>
  <path d="M504.2 343.3 c0.3 -3.2 0.7 -3.8 3.3 -4.3 1.7 -0.4 4 -1.2 5.2 -1.8 1.2 -0.7 4 -1.2 6.2 -1.2 4 0 4.1 0.1 4.1 3.5 0 3.4 -0.1 3.5 -6.6 5.5 -3.6 1.1 -7.9 2 -9.6 2 -2.8 0 -2.9 -0.2 -2.6 -3.7z"/>
  <path d="M372 341.2 c0 -2.1 0.4 -4.2 0.8 -4.7 0.5 -0.6 1.7 -3.6 2.7 -6.7 1.8 -5.5 2.1 -5.8 5.2 -5.8 3 0 3.3 0.3 3.3 3.1 0 1.7 -1.2 6.4 -2.6 10.5 -2.6 7.2 -2.7 7.4 -6 7.4 -3.3 0 -3.4 -0.2 -3.4 -3.8z"/>
  <path d="M470 324.9 c-1.9 -0.6 -5.2 -1.5 -7.2 -2 -3.5 -0.9 -3.8 -1.3 -3.8 -4.6 l0 -3.6 5.8 0.8 c3.1 0.4 7.9 0.8 10.6 0.9 l5 0.1 2.4 -6.5 c1.3 -3.6 4.2 -11 6.4 -16.5 2.2 -5.5 6.4 -16.3 9.3 -24 2.9 -7.7 7.4 -19.5 9.9 -26.1 2.5 -6.7 4.6 -12.7 4.6 -13.3 0 -1.2 -11.1 -1.4 -19.5 -0.3 -4.8 0.7 -4.9 0.8 -5.7 4.6 -0.5 2.2 -1.3 4.5 -1.9 5.2 -0.5 0.6 -2.3 5.3 -3.9 10.3 -1.7 5.1 -5.3 14.2 -8.1 20.4 -10.7 23.3 -16.2 37.9 -16 42.6 l0.2 4.4 -5.5 -0.7 c-6.2 -0.7 -9.6 -2.9 -9.6 -6.3 0 -1.2 -0.4 -2.5 -1 -2.8 -0.5 -0.3 -1 -1.3 -1 -2.1 0 -0.9 -0.8 -2.3 -1.9 -3.2 -2.8 -2.5 -9.4 -16.3 -12.3 -25.7 -2.3 -7.2 -4.2 -21.7 -3.4 -25.1 0.4 -1.6 1.2 -5.1 1.7 -7.9 1.4 -6.4 3.5 -10.5 5.6 -10.5 0.9 0 3.6 -0.9 5.9 -2 2.3 -1.1 7.9 -2.5 12.5 -3 4.6 -0.6 10.2 -1.5 12.4 -2 2.2 -0.5 7 -1 10.7 -1 3.7 0 9.3 -0.7 12.5 -1.5 6.6 -1.7 31.3 -2.1 31.3 -0.5 0 0.6 1.5 1 3.4 1 1.8 0 3.9 0.7 4.6 1.5 0.7 0.8 2.1 1.5 3 1.5 1.1 0 2.4 1.3 3.2 3 0.7 1.7 1.6 3 1.9 3 1.7 0 4.3 36.3 3.4 47 -0.5 6.8 -3 15.8 -6.9 25.1 -0.8 1.9 -3.2 5.3 -5.3 7.5 -3.8 3.9 -6.6 5.1 -17.3 7.6 -3 0.7 -5.7 1.5 -6 1.8 -0.5 0.6 -15.2 2.9 -22.5 3.6 -2.2 0.2 -5.6 -0.1 -7.5 -0.7z m37 -14.1 c8.4 -3.6 14.6 -12 18.1 -24.3 1.6 -5.6 1.7 -33.3 0.2 -42 l-0.8 -5 -2.2 5.5 c-6.6 17 -21.4 55.5 -23.7 61.8 l-2.6 7.4 3.2 -0.7 c1.8 -0.4 5.3 -1.6 7.8 -2.7z m-52.6 -27.6 c3.2 -7.9 8.3 -20.5 11.5 -28 3.2 -7.6 6.1 -14.9 6.4 -16.4 0.4 -1.4 0.9 -3.3 1.3 -4.1 0.4 -1.3 -1 -1.2 -10.3 0.4 -30.3 5.4 -34.8 9.9 -29.7 30.2 2.1 8.6 13.7 33.9 14.9 32.5 0.1 -0.2 2.8 -6.8 5.9 -14.6z"/>
  <path d="M545 249.7 c0 -7.1 0.9 -10 5 -16.4 1.2 -1.9 1.2 -3.4 -0.3 -11.3 -1.8 -9 -4.3 -16 -5.9 -16 -0.4 0 -0.8 -1.6 -0.8 -3.5 0 -3.3 0.2 -3.5 3.6 -3.5 1.9 0 4.2 0.7 5 1.5 3.7 3.6 7.3 18.4 7.4 29.7 0 4.6 -0.6 6.6 -2.9 10.3 -1.9 3.1 -3.1 6.6 -3.6 10.6 l-0.7 5.9 -3.4 0 -3.4 0 0 -7.3z"/>
  <path d="M237 234.7 l0 -3.3 11.3 -2.8 c6.1 -1.6 13.1 -3.1 15.5 -3.3 l4.2 -0.5 0 3.4 c0 3.4 -0.1 3.5 -6.1 5.2 -8.5 2.3 -19.5 4.6 -22.5 4.6 -2.1 0 -2.4 -0.5 -2.4 -3.3z"/>
  <path d="M371 235 c-3 -1 -8.2 -3 -11.5 -4.4 -3.3 -1.4 -7.2 -2.6 -8.7 -2.6 -2.5 0 -2.8 -0.4 -2.8 -3.5 0 -3.2 0.2 -3.5 3 -3.5 4.7 0 13 2 20.7 5.1 8.2 3.3 11.5 3.5 20.9 1.3 8.4 -1.9 11.6 -3.6 17.7 -9 6.2 -5.6 11.9 -7.6 30.2 -10.7 8.3 -1.4 16.6 -2.9 18.5 -3.2 1.9 -0.3 7.3 -1 12 -1.6 4.7 -0.5 14.4 -1.6 21.5 -2.4 7.2 -0.8 19.2 -1.5 26.8 -1.5 l13.7 0 0 3.3 0 3.4 -12.7 0.6 c-20.4 1 -73.1 7.5 -87.8 10.8 -6.8 1.6 -10.2 3.4 -15.8 8.6 -6 5.6 -11.1 7.8 -22.1 9.8 -11.4 1.9 -16.8 1.8 -23.6 -0.5z"/>
  <path d="M262 104.5 c0 -3.3 0.2 -3.5 3.5 -3.5 3.3 0 3.5 0.2 3.5 3.5 0 3.3 -0.2 3.5 -3.5 3.5 -3.3 0 -3.5 -0.2 -3.5 -3.5z"/>
 </g>
 <g fill="#4a3624">
  <path d="M202.4 543 c-11.3 -2 -42.6 -13.9 -67.9 -25.8 -8.6 -4 -22.1 -9.2 -31.5 -12.2 -34.7 -10.9 -38 -13.4 -51.6 -40 -4.6 -9.1 -10.4 -20.1 -12.9 -24.5 -8.7 -15.6 -10.7 -26.4 -7 -39 1 -3.3 4.6 -13.2 8.1 -22 5.4 -13.7 10.4 -30.4 10.4 -34.9 0 -0.9 -2 -1.2 -7.4 -1.2 -6 0.1 -8 -0.3 -10.2 -2 -5.2 -3.8 -6.8 -7 -7.2 -14.3 -0.4 -5.8 0 -7.8 2.8 -14.5 4.6 -11.1 15.2 -25.1 24.5 -32.2 2.2 -1.8 6.5 -4.2 9.5 -5.5 5.5 -2.2 10 -5.5 10 -7.1 0 -0.5 4.2 -9.8 9.4 -20.6 5.2 -10.8 12.7 -28.7 16.7 -39.7 8.4 -23.5 16.9 -41.9 22.7 -49.2 7.4 -9.2 22.8 -18.6 44 -26.9 16.7 -6.5 37.5 -17.7 59.2 -31.9 43.3 -28.4 59.4 -36.1 80.1 -38 9.6 -0.9 18 0.9 33.5 7 6.6 2.6 18.4 6.9 26.4 9.5 53.8 17.9 73.5 26.1 81.3 33.6 2 1.9 6.2 7.7 9.3 12.7 10.9 17.7 12.5 19.8 22.8 30.6 11.3 11.9 13.8 16.1 18 30.5 1.4 5 3 9.4 3.5 9.9 0.4 0.4 9.7 0.3 21.1 -0.3 22.8 -1.3 30 -0.8 33.7 2.4 3.1 2.7 7.2 17.7 8 29.6 0.5 8.1 0.4 8.8 -2.4 14.1 -2.9 5.4 -3 6.1 -3.6 24 -1 27.4 -4 42.2 -11.2 54.6 -1.4 2.3 -2.5 5 -2.5 6.1 0 3.8 4.2 13.9 12.9 31.1 11 21.7 12.7 27.1 14.1 44.7 0.6 7.7 1.8 18.2 2.6 23.4 4.7 28.7 -2.3 38.7 -45.1 64.5 -25.5 15.4 -35.8 18.8 -63.5 20.9 -29.4 2.3 -88.2 10.2 -116.5 15.6 -32 6.1 -41 7.5 -64.5 9.5 -10.2 0.9 -25.7 3 -34.5 4.7 -17.2 3.2 -36.2 4.4 -45.1 2.8z m36 -17 c16.5 -3.1 30.2 -4.9 46.2 -6 14.9 -0.9 36.2 -4.1 53.9 -7.9 15.6 -3.4 43.7 -8 53 -8.6 5 -0.4 16.7 -1.8 26 -3.1 25.4 -3.6 30.6 -4.2 46.5 -5.3 9.4 -0.7 16.9 -1.7 21.5 -3.1 10.4 -3.2 27.8 -12.6 51.5 -27.8 12.7 -8.2 21 -19 21 -27.4 0 -2 -0.7 -7.2 -1.5 -11.5 -0.8 -4.3 -1.9 -13.9 -2.5 -21.3 -0.5 -7.4 -1.2 -14.4 -1.6 -15.5 -0.3 -1.1 -3.9 -8.7 -7.9 -17 -3.9 -8.2 -8.7 -18.4 -10.5 -22.5 -1.9 -4.1 -3.7 -7.9 -4.1 -8.3 -0.4 -0.5 -2 -0.2 -3.7 0.7 -1.7 0.9 -4.2 1.6 -5.6 1.6 -1.3 0 -3.1 0.6 -3.8 1.4 -1.7 1.6 -11.4 4.1 -22.6 5.7 -11.8 1.6 -35.8 0.7 -44.4 -1.8 -16.9 -5 -29.1 -20.7 -43.3 -55.9 -4.4 -11.1 -7.6 -15.4 -9.8 -13.6 -2.8 2.4 -4.5 7.7 -6.1 19.2 -2.7 19.3 -7.7 40 -9.7 40 -0.5 0 -0.9 0.7 -0.9 1.5 0 0.8 -0.4 2.3 -0.9 3.3 -0.4 0.9 -1.7 3.5 -2.7 5.7 -2.4 5 -12.6 16 -16.5 17.7 -1.6 0.7 -2.9 1.6 -2.9 1.9 0 0.3 -3.5 2.2 -7.8 4.3 -16.2 7.5 -40.1 11.7 -67.1 11.5 -18.7 -0.1 -29.8 -2 -38.3 -6.6 -7 -3.8 -20 -16.8 -23.3 -23.3 -2.9 -5.7 -10 -23.9 -13 -33 -2.5 -7.9 -4.7 -10.5 -9.8 -12 -3.9 -1 -8 -0.7 -36.8 3.5 -40.1 5.8 -44.5 5.8 -59.3 -0.4 -11.3 -4.7 -15.6 -5.6 -22.1 -4.7 -3.2 0.5 -5 1.4 -6.1 3.1 -2.5 3.8 -6.3 19 -7.9 32 -2 14.9 -5.3 27.4 -11.5 42.9 -2.6 6.7 -5.8 15.6 -7 20 -2.7 9.8 -2.1 12.9 5.5 27.1 l5.4 10.1 10.6 1.2 c11.7 1.4 12.5 1.2 18.8 -4.6 3.1 -2.9 3.4 -4.8 1.2 -7.2 -2.2 -2.4 -3.5 -10.9 -3.5 -22.2 0 -12.9 0.5 -13.8 7.7 -13.8 l5.6 0 -0.7 4.3 c-0.3 2.3 -0.9 5.8 -1.2 7.8 -0.4 2.2 0 5 1 7.3 l1.6 3.8 5.3 -5.4 c5.4 -5.4 11.3 -8.9 17.5 -10.3 l3.2 -0.7 0 -9.2 c0 -11.2 1.6 -17.2 7.7 -28.3 3.4 -6.4 5 -10.8 6.8 -19.9 1.4 -6.4 3 -12.3 3.6 -13 2 -2.4 7.6 -1.7 9.5 1.1 1.4 2.2 1.6 4.4 1.1 13.8 -0.7 13 -1.7 16.6 -8.5 30.6 -2.8 5.6 -5.4 12.2 -5.7 14.6 -1.1 7.2 1.6 14.3 8.8 23 15.3 18.7 15.7 19.3 15.7 25.1 l0 5.4 -5.4 0 -5.4 0 -9.3 -9.7 c-5.1 -5.4 -10.8 -11.9 -12.7 -14.6 l-3.4 -4.7 -5 2.7 c-8.5 4.8 -12.5 8.8 -14.8 15.1 -5 13.8 -7.4 16.8 -17.2 21.8 -4.6 2.3 -6 2.6 -14.4 2.2 -5.2 -0.1 -9.4 0.1 -9.4 0.6 0 2.1 6.8 13.3 9.9 16.3 4.9 4.8 14.8 9.1 35.6 15.8 10.7 3.4 22.3 7.9 29 11.3 11.1 5.6 26.7 12.3 27.3 11.7 0.2 -0.2 -0.8 -2.5 -2.2 -5.3 -1.4 -2.7 -3.3 -8 -4.2 -11.6 -0.9 -3.7 -3.2 -9.2 -5.2 -12.4 -5.8 -9.5 -7.2 -12.5 -7.2 -15.9 0 -3.3 0.1 -3.3 4.6 -3.3 3.9 0 5.4 0.6 9.1 3.6 6.1 5 10.7 12.4 13.4 21.4 3 10.4 5.9 15.8 11.9 22.3 11.5 12.6 18.7 16.1 31.4 15.2 4.3 -0.3 12.4 -1.4 18 -2.5z m39.9 -145.7 c-1.3 -0.2 -3.5 -0.2 -5 0 -1.6 0.2 -0.5 0.4 2.2 0.4 2.8 0 4 -0.2 2.8 -0.4z m31.9 -14.4 c19.6 -3.2 29.9 -7.2 40.9 -15.8 6.9 -5.5 10.6 -10.2 14.3 -18.3 4.1 -9.1 6 -16.7 9.1 -37.8 1.3 -9.1 3 -18.1 3.9 -20 3.3 -8.1 9.7 -12 19.6 -12 12.1 0 17 4.6 24.6 23 7.8 19.2 9.8 23.4 14.9 31.1 11.2 16.8 26.1 22.2 51.2 18.5 13 -1.9 19.8 -4.1 30.2 -9.7 9.3 -5 14 -9.4 18.1 -17.1 5.1 -9.5 7.1 -21.4 7.1 -41.5 0 -10 0.4 -17.3 0.9 -17.3 0.5 0 1.2 -2.3 1.6 -5 0.4 -2.8 1.9 -7 3.5 -9.4 2.7 -4.4 2.8 -4.5 1.5 -11.8 -1.4 -7.7 -3.7 -14 -5.8 -16.1 -1.9 -1.9 -37.7 -1.5 -54.8 0.6 -23.3 2.9 -29.1 3.7 -44.5 6.4 -18.3 3.1 -24 5.1 -30.2 10.7 -2.6 2.4 -6.2 5 -7.9 5.9 -5.3 2.7 -16.2 4.7 -26 4.7 -8.5 0 -10.5 -0.4 -17.2 -3.2 -6.1 -2.5 -9.2 -3.2 -14.7 -3.2 -7.9 0 -43.4 4.4 -60 7.5 -24.6 4.6 -69.2 16.8 -73.1 20 -1.8 1.5 -1.7 6.5 0.4 20.9 l1.7 11.5 4.3 1.4 c5.6 1.7 7.3 4.5 11.8 19.1 11.7 38.2 19.9 50.4 37.9 56.5 10.6 3.5 17 3.6 36.7 0.4z m-62.7 -2.5 c-5.2 -3.8 -7.2 -6.6 -9.5 -13.5 -1.3 -4.1 -3 -7.8 -3.7 -8.2 -0.7 -0.4 -1.3 -1.4 -1.3 -2.1 0 -0.8 -1.1 -3.9 -2.5 -7 -1.4 -3.2 -4.1 -11 -6.1 -17.4 -3.3 -10.8 -6.2 -16.2 -8.8 -16.2 -0.6 0 -2.3 -1 -3.7 -2.3 -3.3 -2.7 -4.4 -7.3 -6 -24.2 -0.7 -7.1 -1.3 -13.1 -1.5 -13.3 -0.5 -0.8 -6.2 2.9 -6.8 4.3 -1.1 3 -0.6 13 0.9 18.5 0.9 3 2 7 2.5 8.8 1.1 4.5 3.6 7 7.9 8.2 4.9 1.3 8.8 7.6 13 20.8 1.8 5.7 3.1 10.5 2.9 10.8 -0.2 0.2 -2 -3.9 -3.8 -9.2 -4.2 -11.8 -7.5 -16.8 -14.2 -21.9 -4.6 -3.6 -5.6 -4.9 -7.7 -11 -1.8 -5.1 -2.5 -10 -2.9 -18.1 l-0.4 -11.2 5.3 -2 c3 -1.2 4.8 -2.1 4.2 -2.1 -2.5 -0.2 -9.4 3.2 -10.3 5 -1.5 2.8 -1.2 18.8 0.5 24.9 0.9 3 2 7 2.5 8.8 1.1 4.5 3.6 7 7.9 8.2 4.9 1.4 8.8 7.7 12.9 21 3.3 10.6 4.3 13.3 6.2 16 2.6 3.8 7.9 14.2 8.9 17.3 1.5 4.5 3.7 6.4 8.7 7.6 6 1.4 7.2 1.3 4.9 -0.5z m-6.7 -17.5 c-1.3 -3.5 -2.7 -6.7 -3.2 -7 -0.8 -0.6 -3.2 -6.3 -3.9 -9.4 -0.2 -0.5 -0.8 -1.9 -1.4 -3.1 -0.7 -1.1 -2.8 -7.4 -4.8 -14 -3.3 -10.8 -6.3 -16.4 -8.8 -16.4 -0.5 0 -2.1 -0.9 -3.7 -2 -3.4 -2.4 -3.9 -4.4 -6.5 -27.5 l-1.4 -12 0.4 13.5 c0.5 19.7 2.3 24.4 11.2 29.5 3.4 1.9 3.8 2.8 10.4 22.8 6.3 18.9 12.4 33.6 13.5 32.5 0.2 -0.3 -0.6 -3.4 -1.8 -6.9z m278.2 -6 c1.3 -0.7 1.3 -0.8 0 -0.8 -0.8 0 -2.6 0.6 -4 1.5 l-2.5 1.5 2.5 -0.7 c1.4 -0.3 3.2 -1 4 -1.5z m-475.7 -9.7 c1 -1 4.1 -7.3 7.1 -14 9 -20.2 12 -23.2 25 -25.4 10.1 -1.7 21 0.1 35 5.8 l11.6 4.7 23.2 -3.2 c12.8 -1.7 27.5 -3.8 32.6 -4.7 8.8 -1.5 9.3 -1.8 8.8 -3.8 -0.3 -1.1 -1.1 -7.2 -1.8 -13.3 -0.7 -6.6 -1.6 -11.3 -2.2 -11.3 -6.7 0 -89.1 13.1 -100.6 16 -18.2 4.5 -25.7 9.6 -36.6 25.2 -9.1 13 -11.1 19 -7.8 23.6 1.8 2.7 3.6 2.8 5.7 0.4z m71.7 -72.2 c27.5 -4.3 30.9 -4.8 45.5 -6.5 20.8 -2.5 28.4 -4.2 44.2 -9.9 35.9 -12.9 75.3 -22.1 112.3 -26.1 8 -0.8 17.2 -2 20.5 -2.5 13.9 -2.3 25.8 -0.6 36.4 5.2 5 2.7 6.2 2.9 11.9 2.4 8.3 -0.7 14.4 -3.6 20.8 -9.6 5.7 -5.4 7.6 -6.3 16.9 -8.6 7.6 -1.8 49.5 -8.4 53.4 -8.4 1.7 0 3.3 -0.5 3.6 -1 0.4 -0.6 -0.6 -4.8 -2.1 -9.3 -2.4 -7.4 -3.4 -8.9 -9.4 -14.8 -10.8 -10.7 -17.3 -18.9 -24.1 -30.5 -3.5 -6 -8.1 -12.6 -10.2 -14.7 -6.4 -6.4 -18.4 -11.3 -73.7 -30.2 -11.9 -4 -26.6 -9.4 -32.9 -11.9 -11.1 -4.7 -11.3 -4.7 -16.9 -3.5 -13.6 2.8 -17.8 5.3 -30.9 18.6 -10.2 10.3 -12.7 12.3 -15.2 12.3 -4.9 0 -6.8 -6.3 -3.6 -12.4 1.1 -2.1 1.2 -2.7 0.2 -2.3 -0.7 0.3 -10.7 6.6 -22.1 14.2 -33.9 22.3 -41.9 26.7 -66.6 36.5 -27.7 11 -38.8 19.3 -46.7 34.5 -3.9 7.6 -11.3 25.7 -11.3 27.6 0 3.8 -15.1 40 -22.2 53.2 -0.8 1.6 -0.7 1.8 0.9 1.3 1 -0.3 10.6 -1.9 21.3 -3.6z m436.4 -17.8 c0.4 -0.6 0.4 -1.2 0.1 -1.2 -1.3 0 -3.5 7.2 -3.4 11.2 0.1 4 0.2 3.8 1.3 -2.2 0.7 -3.6 1.5 -7.1 2 -7.8z m4.6 -9.5 c-0.1 -8.6 -4.9 -26.7 -7.1 -26.7 -0.5 0 -0.3 1.3 0.5 2.8 1.9 3.6 6 24.8 5.2 26.8 -0.3 0.9 -0.1 1.2 0.4 0.9 0.6 -0.3 1 -2.1 1 -3.8z m-164.4 1.8 c11.2 -2 15.8 -4.1 22.7 -10.3 3 -2.7 6.5 -5.3 7.7 -5.7 1.2 -0.4 1.9 -0.9 1.7 -1.2 -0.9 -0.8 -6.8 2.7 -11.1 6.7 -5.3 4.8 -8.7 6.5 -17 8.4 -10 2.4 -18.9 2 -26.1 -0.9 -6.9 -2.9 -8.3 -3.1 -4 -0.8 3.4 1.9 13.2 5.2 15.6 5.2 0.9 0.1 5.6 -0.6 10.5 -1.4z m38.4 -18.5 c2 -0.6 2.1 -0.8 0.5 -0.8 -1.1 0 -2.9 0.3 -4 0.8 -2.5 1.1 0.1 1.1 3.5 0z m17.8 -3 c16.2 -2.5 53.2 -6.7 68.7 -7.9 l12 -0.9 -11.5 0.1 c-6.3 0 -16 0.6 -21.5 1.3 -5.5 0.7 -13.4 1.6 -17.5 1.9 -4.1 0.3 -8.6 0.8 -10 1.1 -1.4 0.2 -4.1 0.7 -6 1 -13.5 2.1 -28.6 4.7 -28.9 5 -0.8 0.7 2 0.4 14.7 -1.6z"/>
  <path d="M270.5 499 c-2.7 -1 -8.8 -3.4 -13.5 -5.2 l-8.5 -3.4 -0.3 -4.4 c-0.4 -5.1 0.6 -6 6.8 -6 6.2 0 14.4 2.2 21.4 5.9 3.2 1.7 6.6 3.1 7.5 3.1 3.3 0 6.1 3 6.1 6.4 0 1.7 -0.5 3.7 -1.2 4.4 -1.8 1.8 -12.6 1.3 -18.3 -0.8z"/>
  <path d="M214.1 487.4 c-7.1 -1.9 -15.3 -8.1 -18.7 -14.2 -1.4 -2.6 -4.6 -7.6 -6.9 -11.2 -5.8 -8.8 -6.5 -10.4 -6.5 -13.9 0 -3 0.1 -3.1 4.8 -3.1 7.8 0 11.8 3.1 18 13.5 5.7 9.5 9.3 12.8 17.2 15.9 6.6 2.6 8 4.2 8 9.1 0 3.6 -0.4 4.4 -2.2 4.9 -3.5 0.9 -7.8 0.6 -13.7 -1z"/>
  <path d="M454.3 474.9 c-0.7 -0.7 -1.3 -3 -1.3 -5.1 0 -3.4 0.5 -4.2 4.8 -7.3 8.4 -6.3 15.9 -9.3 28.6 -11.5 19.6 -3.4 30.8 -11 38.6 -26.2 2.4 -4.6 4.8 -8.6 5.4 -9 1.7 -1.2 7.1 -0.9 8.4 0.4 1.8 1.8 1.4 10.1 -0.8 16.1 -2.5 6.6 -12.1 18.2 -19.6 23.6 -5.9 4.2 -11.3 6.1 -23.7 8.5 -4.2 0.8 -12.9 3.6 -19.4 6.2 -12.7 5.1 -19 6.4 -21 4.3z"/>
  <path d="M215.3 449.4 c-1.7 -0.9 -5.7 -4.2 -8.8 -7.5 -5.5 -5.8 -5.6 -6 -5.3 -11.1 l0.3 -5.3 4.2 -0.3 c3.3 -0.2 4.7 0.2 7.5 2.5 1.8 1.6 5.7 4.6 8.5 6.7 5.5 3.9 7.9 8.5 7.1 13.6 -0.3 2.2 -0.8 2.5 -5.3 2.8 -3 0.1 -6.2 -0.4 -8.2 -1.4z"/>
  <path d="M277 358.4 c-18.4 -5 -28.8 -20.2 -37.5 -55.3 -3.9 -15.6 -4.8 -30.2 -2.1 -36.4 3.5 -8.5 15.7 -14.4 42.1 -20.2 22.5 -5 37.7 -6.9 56.5 -7 15.2 0 16.8 0.2 20.7 2.2 4.8 2.6 8.2 6.7 11.5 13.9 2.1 4.5 2.3 6.2 2.2 22.4 -0.1 9.6 -0.7 20.4 -1.3 24 -1.7 9.5 -6 23.8 -8.8 29.3 -9.3 18.5 -33.5 28.8 -67.3 28.6 -5.9 0 -12.9 -0.7 -16 -1.5z m46.5 -9.9 c10.1 -3.4 14.2 -5.8 21.2 -12.3 8 -7.5 9.5 -10 11.7 -19.6 2.4 -10.2 1.9 -13.3 -0.8 -4.6 -1.2 4.1 -3.4 9.8 -4.8 12.5 -3.5 6.7 -11.9 14.5 -19.8 18.2 -10.1 4.8 -25 7.9 -25 5.3 0 -0.5 2.1 -1 4.6 -1 10.2 0 21.8 -5.2 31.1 -13.8 9.2 -8.6 10.5 -11.3 13.4 -27.7 0.4 -2.7 1.7 -9.5 2.8 -15 l2 -10 -0.4 8.6 c-0.3 4.7 -0.8 10.1 -1.1 12 -0.4 1.9 -0.3 3.1 0.1 2.7 1.2 -1.1 3.5 -14.3 4.2 -24.1 1.1 -16.3 -2.7 -26.1 -11.9 -30.8 -3 -1.5 -4.9 -1.9 -8.4 -1.3 -3.4 0.5 -4.2 0.9 -3.4 1.9 0.5 0.6 0.8 1.4 0.5 1.7 -0.3 0.2 -1.6 3.3 -2.9 6.9 -2.2 5.9 -12.2 29.2 -16.5 38.4 -1.1 2.2 -2.7 6.5 -3.7 9.5 -0.9 3 -3.4 9.2 -5.5 13.7 -2.1 4.5 -5.2 11.7 -6.9 16 -1.7 4.3 -3.6 8.6 -4.1 9.5 -1.9 3.6 -1.1 4.7 3.9 5 8.3 0.6 14.6 0.1 19.7 -1.7z m-49 -2.2 c-1.6 -0.8 -4.7 -3.2 -6.9 -5.2 -3.2 -3 -3.6 -3.2 -2.2 -0.9 2.2 3.4 8.2 7.6 11.1 7.7 0.6 0 -0.3 -0.7 -2 -1.6z m21.1 -0.7 c0.8 -0.8 1.4 -2.3 1.4 -3.3 0 -1.5 2.8 -8.6 15.3 -39 1.2 -2.9 2.8 -5.3 3.5 -5.3 0.7 0 1.2 -1.2 1.2 -2.8 0 -2.9 3.8 -12.7 12.4 -32.1 2.5 -5.7 4.6 -10.5 4.6 -10.7 0 -0.8 -11 -0.4 -18.6 0.7 -4.3 0.6 -10.2 0.9 -12.9 0.7 -4.8 -0.3 -4.7 -0.3 3.5 -1.6 4.7 -0.8 11.4 -1.8 15 -2.3 l6.5 -0.8 -7.5 0.5 c-20.5 1.3 -24.6 1.7 -25.4 2.5 -0.6 0.5 -2.8 0.9 -5 0.9 -2.3 0 -5.4 0.7 -7 1.5 -1.5 0.8 -3.7 1.5 -4.7 1.5 -2.8 0 -18.1 4 -20.9 5.4 -1.4 0.7 -3.7 1.6 -5.2 2 -2.5 0.6 -5.8 4.2 -6.5 7 -0.1 0.6 -0.7 2.9 -1.2 5.1 -1.3 5 -1.4 14.2 -0.2 14.9 0.9 0.6 1.4 2.6 3 14 1 6.3 4.3 13.6 6.4 13.6 0.4 0 0.7 1.5 0.7 3.4 0 2.5 0.6 3.8 2.6 5.1 2.5 1.6 2.5 1.6 1.4 -0.5 -0.6 -1.2 -2.3 -5.1 -3.6 -8.8 l-2.5 -6.7 2.5 2.7 c1.6 1.6 2.6 3.9 2.6 5.6 0 2 0.8 3.5 2.4 4.5 2.6 1.8 2.9 4.8 0.6 5.9 -1.2 0.5 -1.1 0.7 0.3 0.7 1 0.1 1.6 0.5 1.2 1 -0.3 0.6 0.4 1.5 1.6 2.1 1.2 0.7 1.9 0.8 1.5 0.2 -0.3 -0.6 -0.3 -1.2 0.1 -1.4 0.5 -0.1 1.6 -2 2.5 -4 1 -2.1 2.2 -3.8 2.8 -3.8 1.6 0 1.2 6.7 -0.6 8.5 -2.2 2.2 -1.1 5.9 2.8 8.7 6.7 4.8 20.3 7.4 23.4 4.4z"/>
  <path d="M358.6 265.8 c-0.8 -5 -5.5 -11.2 -10.5 -13.8 -2.3 -1.2 -2.9 -1.9 -1.8 -2 5.6 -0.1 12 7.5 13.3 15.8 0.3 2.3 0.4 4.2 0.2 4.2 -0.3 0 -0.8 -1.9 -1.2 -4.2z"/>
  <path d="M278.6 302.3 c0.9 -2.1 2.1 -5.1 2.8 -6.8 0.6 -1.6 1.4 -3.2 1.7 -3.5 0.3 -0.3 1.6 -3.2 2.8 -6.5 1.3 -3.3 2.9 -7.3 3.6 -9 1.2 -2.8 2.8 -7.4 3 -8.5 0 -0.3 0.6 -1.4 1.2 -2.5 0.6 -1.1 1.2 -2.4 1.3 -3 0.6 -2.4 1.3 -3.5 2.2 -3.5 1.3 0 0.3 9.9 -1.2 11.4 -0.5 0.5 -1 1.8 -1 2.8 0 1 -0.7 1.8 -1.5 1.8 -1 0 -1.5 1.1 -1.5 3.5 0 1.9 -0.4 3.5 -1 3.5 -0.5 0 -1 1.4 -1 3 0 1.7 -0.4 3 -1 3 -0.5 0 -1 1.1 -1 2.5 0 1.4 -0.4 2.5 -1 2.5 -0.5 0 -1 0.9 -1 2 0 1.1 -0.7 2 -1.5 2 -1 0 -1.5 1 -1.5 2.9 0 4.5 -1 6.1 -3.6 6.1 -2.4 0 -2.4 0 -0.8 -3.7z"/>
  <path d="M249.1 299.3 c0 -1.2 -0.4 -3 -0.7 -4 -0.5 -1.7 -0.5 -1.7 0.6 0 0.6 1 0.9 2.8 0.7 4 -0.4 2.2 -0.4 2.2 -0.6 0z"/>
  <path d="M246.1 276.9 c-0.1 -4.4 0.7 -6.3 4 -8.7 1.4 -1 1.3 -0.5 -0.4 2.8 -1.1 2.3 -2.3 5.6 -2.7 7.3 -0.7 3 -0.8 2.9 -0.9 -1.4z"/>
  <path d="M254.4 265.5 c4 -3 15.9 -6.6 35.8 -10.8 0.6 -0.1 1.2 0.9 1.4 2.2 0.3 1.4 0.1 2.2 -0.3 1.8 -0.4 -0.4 -1.3 0.3 -2 1.5 l-1.2 2.3 -0.1 -2.7 c0 -2.8 -2.2 -3.9 -3.5 -1.8 -0.3 0.6 -1.7 1 -3 1 -3.1 0 -18.4 3.8 -20.9 5.2 -1.1 0.6 -3.3 1.4 -5 1.9 -2.9 0.8 -3 0.7 -1.2 -0.6z"/>
  <path d="M462.2 328.5 c-14.1 -3.9 -21.6 -11.3 -31.2 -30.5 -12.6 -25.2 -16.1 -46.5 -9.8 -59.8 2.5 -5.3 7 -8.5 16.8 -11.7 13.8 -4.5 59.1 -11.5 75 -11.5 21.7 0 26.4 9.4 26.4 52.5 0 21.2 -1 27.9 -5.4 37.3 -6.1 13.1 -11.9 17.4 -28.7 21.9 -12.4 3.2 -34.7 4.2 -43.1 1.8z m21.5 -8.1 c0.3 -0.8 -0.6 -1 -2.9 -0.5 -3.4 0.7 -12.5 -0.1 -16.8 -1.4 -1.4 -0.4 -2.2 -0.4 -1.8 0 0.3 0.4 3.7 1.5 7.4 2.4 7 1.7 13.4 1.5 14.1 -0.5z m6.2 -1.6 c0.5 -1.3 0.6 -3 0.3 -3.8 -0.3 -0.8 -0.1 -1.1 0.3 -0.7 0.5 0.4 1.5 -0.3 2.2 -1.5 l1.2 -2.3 0.1 2.3 c0 2.5 1.3 2.7 7.4 1.1 10.3 -2.7 12.3 -3.6 15.9 -7.3 4 -4.2 5.5 -7.1 9 -17.5 2.3 -7.2 3.6 -6.6 1.6 0.7 -3.1 11.8 -9.5 20.3 -17.9 24.1 -3.3 1.5 -3.9 2.1 -2.2 2.1 6 0 14.7 -6.8 17.9 -14.2 5.5 -12.5 6.7 -18.1 6.5 -30.8 -0.3 -20.5 -1.6 -34.2 -3.3 -34.8 -0.5 -0.2 -0.9 -1 -0.9 -1.7 0 -0.8 -0.4 -1.6 -0.9 -2 -0.6 -0.3 -0.7 0.6 -0.2 2.3 1.5 5 2.3 15.9 1.2 14.2 -0.6 -0.8 -1.1 -3.2 -1.1 -5.3 0 -3.7 -1.8 -6.7 -3.9 -6.7 -1.1 0 -1.5 -1.9 -1.2 -5.6 0.1 -1.2 -0.5 -2.7 -1.4 -3.4 -1.9 -1.6 -1.3 -3.2 -18.2 42.5 -2.4 6.6 -6 15.7 -7.9 20.3 -7.9 18.5 -11.4 30.6 -8.3 28.6 0.5 -0.3 0.9 0 0.9 0.5 0 2 2.1 1.1 2.9 -1.1z m7.1 0.3 c0 -0.5 1.9 -1.1 4.1 -1.5 2.3 -0.4 4 -0.9 3.7 -1.1 -0.2 -0.3 -3.2 0.1 -6.6 0.7 -3.9 0.7 -5.8 1.5 -5 2 1.7 1 3.8 1 3.8 -0.1z m-19.9 -2.1 c1.1 0 2.2 -0.8 2.6 -1.7 0.9 -2.5 7.4 -19.4 19.3 -49.8 5.6 -14.3 11 -28.3 12 -31.2 l1.9 -5.2 -3.7 -0.7 c-3.8 -0.7 -19.2 0.8 -22.6 2.1 -1.6 0.7 -1.8 0.5 -1.4 -1.1 0.5 -1.8 0 -1.9 -8.1 -1.6 -4.7 0.2 -11.5 1 -15.1 1.8 -3.6 0.8 -9 1.5 -12.1 1.7 -3.1 0.2 -7.6 1.3 -10.1 2.5 -2.4 1.2 -5.2 2.2 -6.1 2.2 -1.8 0 -3.4 2.5 -4.8 7.3 l-0.8 3 3.5 -3.9 3.5 -3.9 -1.7 3.4 c-1 2.1 -1.8 7.2 -2.1 13.1 -0.6 10.3 0.2 14.4 5.5 26 5 11.3 6.7 14.3 8.4 14.7 1.7 0.5 3.8 5.9 3.8 9.8 -0.1 1.7 -0.3 1.6 -1.8 -0.7 -1.7 -2.8 -3.2 -3.6 -3.2 -1.9 0 0.6 0.5 1.3 1 1.6 0.6 0.3 1 1.6 1 2.8 0 1.3 0.8 3 1.8 3.8 2.2 1.9 8 3.3 6.3 1.6 -0.6 -0.6 -1.1 -1.5 -1.1 -1.9 0 -1.5 3.6 -0.7 9.5 2.2 3.3 1.7 6.7 3 7.7 3 1 0 1.8 0.5 1.8 1.1 0 0.6 0.7 0.8 1.6 0.5 0.9 -0.3 2.4 -0.6 3.5 -0.6z m-38.2 -27.7 c-5.7 -11.6 -8.7 -20 -9.6 -27.1 -0.3 -2.9 -0.9 -5.2 -1.3 -5.2 -0.5 0 -0.6 -0.9 -0.3 -2 0.3 -1.1 0.1 -2 -0.4 -2 -0.6 0 -0.9 1 -0.8 2.3 0.1 1.2 0.3 2.2 0.4 2.2 0.1 0 0.4 2.5 0.7 5.5 0.7 7.9 4.1 17.7 10.7 30.5 2.6 5.1 3.7 6.6 4.7 6 0.4 -0.2 -1.5 -4.8 -4.1 -10.2z m55.1 -63.3 c0 -0.5 -1.4 -0.7 -3.2 -0.3 -4.6 0.8 -4.8 1.3 -0.5 1.3 2.1 0 3.7 -0.4 3.7 -1z m14.8 -0.7 c-2.7 -0.2 -6.9 -0.2 -9.5 0 -2.7 0.2 -0.5 0.3 4.7 0.3 5.2 0 7.4 -0.1 4.8 -0.3z"/>
  <path d="M528.9 268 c-0.4 -8 -0.5 -14.7 -0.3 -14.9 1.2 -1.3 1.4 2 1.2 15 l-0.3 14.4 -0.6 -14.5z"/>
  <path d="M470.9 267.8 c0.5 -1.3 2.3 -5.5 3.9 -9.4 1.6 -4 3.8 -9.8 4.7 -13 1.8 -6.2 4.4 -11.4 5.7 -11.4 2.4 0 -1.8 17.7 -4.4 18.8 -0.4 0.2 -0.8 1.5 -0.8 2.8 0 1.3 -0.4 2.4 -1 2.4 -0.5 0 -1 1.1 -1 2.5 0 1.6 -0.6 2.5 -1.5 2.5 -1 0 -1.5 1.1 -1.5 3.5 0 3.1 -0.3 3.5 -2.5 3.5 -2.1 0 -2.3 -0.3 -1.6 -2.2z"/>
  <path d="M437 238.1 c0.8 -0.5 2.6 -1.2 4 -1.6 2.4 -0.7 2.4 -0.7 0.5 0.9 -1.1 0.8 -2.9 1.5 -4 1.5 -1.6 0 -1.7 -0.1 -0.5 -0.8z"/>
  <path d="M452.5 234 c1.8 -0.8 23.7 -5 26.5 -5 0.6 0 0.8 0.5 0.5 1 -0.3 0.6 -2.3 1 -4.3 1 -2 0.1 -6.6 0.8 -10.2 1.6 -8.3 2 -15.3 2.8 -12.5 1.4z"/>
  <path d="M234.2 350.3 c-2.1 -3 -8.2 -14.8 -8.2 -15.9 0 -0.4 0.7 -0.1 1.5 0.6 0.8 0.7 1.5 1.6 1.5 2 0 0.5 1.5 3.4 3.3 6.7 5 8.8 6 12.4 1.9 6.6z"/>
  <path d="M164.2 236.8 c-0.7 -0.7 -1.2 -3.9 -1.2 -7.4 0 -5.2 0.6 -7.3 3.5 -12.8 2.7 -5.1 3.9 -9.2 5.6 -19.3 2.6 -15.5 4.7 -21.4 10.4 -29.2 5.7 -7.7 13.9 -13.4 31.5 -21.8 12.4 -5.9 15.6 -8 22.2 -14.1 7 -6.4 8.2 -7.2 11.8 -7.2 l4 0 0 4.3 c0 6.6 -4.2 14.1 -10.9 19.3 -3.1 2.4 -12.5 8.1 -21 12.7 -25.6 13.6 -29.4 18.6 -33.7 44.3 -2.8 16.1 -6.7 26.9 -11.2 30.5 -2.8 2.1 -9.1 2.6 -11 0.7z"/>
  <path d="M158.3 179.8 c-5.1 -1.1 -6.5 -3.3 -6.1 -9.1 l0.3 -4.2 8.5 0 c5 0 9.9 0.6 11.8 1.4 2.9 1.2 3.2 1.7 3.2 5.7 0 3.3 -0.5 4.6 -2.2 5.8 -2.5 1.8 -8.9 1.9 -15.5 0.4z"/>
  <path d="M449.1 174.6 c-0.7 -0.8 -1.1 -3.6 -0.9 -6.8 l0.3 -5.3 4.2 -0.3 c6 -0.4 8.5 2.3 8.1 8.6 l-0.3 4.7 -5.1 0.3 c-3.5 0.2 -5.4 -0.2 -6.3 -1.2z"/>
  <path d="M425.1 162.3 c-3.4 -4.8 -4.1 -6.6 -4.1 -10.5 l0 -4.8 5.4 0 c8.3 0 13.6 5.4 13.6 13.9 0 6.4 -0.6 7.1 -6 7.1 -4.7 0 -4.9 -0.1 -8.9 -5.7z"/>
 </g>
 <g fill="#83694e">
  <path d="M204.4 530.2 c-6 -2.1 -11.3 -6.1 -18.4 -13.9 -6 -6.5 -8.9 -11.9 -11.9 -22.3 -1.2 -4.1 -3.7 -9.8 -5.6 -12.6 -3.8 -5.9 -11.7 -12.7 -14 -12.2 -1.8 0.3 -0.9 2.3 5.7 13 2 3.2 4.3 8.7 5.2 12.4 1.9 7.5 7.4 19.1 11.7 24.5 3.6 4.6 3.6 5.3 0.2 3.5 -1.6 -0.7 -8 -3.4 -14.3 -5.9 -6.4 -2.4 -16.9 -7.2 -23.6 -10.5 -7.4 -3.7 -18.8 -8.2 -29.8 -11.7 -28.2 -9 -34.8 -12.6 -40.4 -21.8 -3.4 -5.6 -8.5 -17.8 -7.7 -18.5 0.2 -0.2 3.3 0.1 6.8 0.7 9.7 1.7 14.2 1.4 19.6 -1.3 9.5 -4.9 12.8 -8.9 16.6 -20.4 0.9 -2.9 2.8 -6.6 4.2 -8.2 2.3 -2.8 18.1 -13 20 -13 0.6 0 2.6 2.4 4.5 5.3 6 8.8 22.6 25.7 25.4 25.7 1.9 0 2.4 -0.5 2.4 -2.4 0 -2.3 -3.5 -7.1 -15.7 -22.1 -11.5 -13.9 -12.3 -24.9 -3.3 -43.3 5.2 -10.6 7.2 -16.1 8.4 -23.4 0.5 -2.6 1.2 -3.8 2.3 -3.8 1.4 0 1.5 1 1 6.5 -0.5 5.6 -4.9 19 -6.6 20.5 -0.3 0.3 -1.9 3.4 -3.6 6.9 -4 8.5 -4.2 18.1 -0.5 25.6 1.3 2.8 3.2 5.6 4.2 6.3 1 0.7 1.8 1.7 1.8 2.3 0 0.5 1.8 2.5 4 4.5 2.2 2 4 4 4 4.5 0 0.4 1.1 2 2.5 3.5 1.4 1.5 2.5 3.2 2.5 3.8 0 0.7 1.3 1.9 2.9 2.9 5.5 3.2 19.6 8.7 22.4 8.7 4.8 0 9.7 2.9 9.7 5.6 0 1.9 0.5 2.4 2.4 2.4 1.9 0 3.3 1.6 7.1 8.3 4.6 7.9 5.1 8.5 11.4 11.5 3.7 1.8 7.1 3.2 7.7 3.2 0.6 0 2.5 1.6 4.2 3.6 l3.2 3.6 7.7 -0.7 c4.3 -0.3 11.9 -0.7 16.8 -0.8 8.5 -0.2 9.4 0 16.5 3.4 4.1 2 9.2 4.2 11.2 4.8 2.1 0.7 4 1.7 4.3 2.2 1.1 1.6 14 1 41.3 -2.1 32.8 -3.7 56.8 -8 70.9 -12.6 14 -4.5 20.1 -5.9 35.3 -7.9 11.7 -1.6 20 -4 20 -5.7 0 -0.5 0.6 -0.8 1.4 -0.8 0.8 0 1.6 -0.6 1.9 -1.4 1.2 -3 13.1 -7.6 24.7 -9.7 11.3 -2 22.7 -6 24.3 -8.6 0.4 -0.7 1.2 -1.3 1.6 -1.3 1.2 0 11.1 -9.9 11.1 -11.1 0 -0.5 1.1 -0.9 2.5 -0.9 1.4 0 2.5 0.4 2.5 0.8 0 2 -6.3 9.4 -11.2 13.2 -8.1 6.5 -13.6 8.8 -26.5 11.1 -13.2 2.3 -17.5 3.9 -26.2 9.8 -6.9 4.7 -7.7 5.7 -6.1 7.6 1 1.2 2.2 1 8.3 -1.2 4 -1.4 9.6 -3.6 12.5 -4.9 2.9 -1.3 8.9 -3 13.3 -3.9 13 -2.4 18.3 -4.3 24.3 -8.6 13.3 -9.5 25.4 -29.5 20.3 -33.7 -1.7 -1.4 -3 -0.4 -5.1 3.6 -2.1 4.2 -3.6 4.1 -3.6 -0.3 0 -2.9 1 -4.4 5.8 -9.2 14.8 -14.6 19.9 -23.4 17.3 -29.6 -1.7 -4.1 -2.6 -10.7 -1.4 -10.7 1.2 0 4 4.9 5.9 10.2 0.8 2.4 1.9 10.4 2.4 17.8 0.6 7.4 1.7 17 2.5 21.3 2.2 11.7 2 20.2 -0.9 26.2 -2.6 5.6 -10.4 13.4 -18.6 18.7 -23.7 15.2 -41.1 24.6 -51.5 27.8 -4.6 1.4 -12.1 2.4 -21.5 3.1 -15.9 1.1 -21.1 1.7 -46.5 5.3 -9.3 1.3 -21 2.7 -26 3.1 -9.3 0.6 -37.4 5.2 -53 8.6 -17.7 3.8 -39 7 -53.9 7.9 -16.3 1.1 -30 2.9 -46.6 6.1 -15.6 3 -30.2 3.4 -36.6 1.1z m81.5 -33.6 c1 -1.1 0.7 -1.7 -1.1 -3 -1.2 -0.9 -3 -1.6 -3.9 -1.6 -0.9 0 -4.3 -1.4 -7.5 -3.1 -10.8 -5.6 -23 -7.4 -22.2 -3.2 0.3 1.5 7 4.6 22.3 10.3 6.1 2.3 10.9 2.5 12.4 0.6z m-59.8 -11.6 c1.5 0 1 -2.6 -0.8 -4.3 -1 -0.8 -3.8 -2.3 -6.3 -3.3 -7.9 -3.1 -11.5 -6.4 -17.2 -15.9 -5.3 -9 -10.3 -13.4 -15.1 -13.5 -2.1 0 -1.6 1.2 4.8 11 2.3 3.6 5.5 8.6 6.9 11.2 1.5 2.7 5 6.5 7.9 8.8 5.1 3.8 14.7 7.3 17.5 6.4 0.8 -0.2 1.8 -0.4 2.3 -0.4z"/>
  <path d="M281.5 471.2 c-4.5 -2.2 -8.9 -4.7 -9.8 -5.6 -2 -2 -2.3 -8.6 -0.5 -10.4 2.9 -2.9 15.1 0.3 30.1 8 3.7 1.8 3.8 2 3.5 6.6 l-0.3 4.7 -7.5 0.3 c-7 0.2 -8.1 0 -15.5 -3.6z"/>
  <path d="M216.3 450.5 c-1.8 -0.8 -3.3 -1.9 -3.3 -2.5 0 -0.5 -0.6 -1 -1.4 -1 -0.7 0 -3.4 -2.2 -6 -5 -4.4 -4.7 -4.6 -5.1 -4.6 -11 l0 -6 5 0 c3.8 0 5 0.4 5 1.5 0 0.8 0.9 1.5 2 1.5 1.1 0 2.5 0.9 3.2 2 0.7 1.1 1.8 2 2.5 2 0.7 0 1.3 0.4 1.3 0.9 0 0.5 0.9 1.1 2 1.4 1.2 0.3 2 1.4 2 2.6 0 1.4 0.6 2.1 2 2.1 2.3 0 3.3 2.9 2.8 8.6 -0.3 3.9 -0.3 3.9 -4.8 4.1 -2.5 0.2 -6 -0.4 -7.7 -1.2z m9 -3.1 c0.3 -0.3 0.1 -1.9 -0.5 -3.5 -0.9 -2.6 -3.3 -4.6 -16.9 -14.7 -2.2 -1.7 -3.9 -0.8 -3.9 1.9 0 2.5 10 13.1 14.3 15.3 3.3 1.6 6 2 7 1z"/>
  <path d="M63.1 446.6 l-8.4 -1.1 -5.9 -11.5 c-9.2 -17.8 -9 -23.4 2.2 -51.6 6.2 -15.5 9.5 -28 11.5 -42.9 1.6 -13 5.4 -28.2 7.9 -32 3.5 -5.4 19.4 -4.7 34 1.4 14.4 6.1 16.2 6.1 56.3 0.2 33.7 -4.9 34.2 -5 39.3 -3.3 5.9 1.9 7.9 4.2 10.5 12.2 3 9.1 10.1 27.3 13 33 3.3 6.5 16.3 19.5 23.3 23.3 8.3 4.5 19.8 6.7 35.4 6.7 35.2 0 65.4 -8.4 80.7 -22.6 13.3 -12.3 19.3 -27.5 24.2 -60.9 2.2 -14.9 3.8 -19.7 7.5 -22.2 5.7 -3.7 9.7 0.6 16.8 18.5 6.6 16.4 12.9 28.1 19.4 35.8 11.2 13.3 20 17.2 40.7 18.1 19.1 0.9 38.3 -2.9 54.9 -10.7 5.6 -2.7 5.9 -2.7 6.3 -0.9 0.3 1.1 3.5 8.2 7 15.7 9 19.1 8.7 18.2 6 18.2 -1.8 0 -2.9 -1.4 -5.5 -6.5 -1.8 -3.6 -3.2 -7.2 -3.2 -8.1 0 -0.8 -0.6 -2.2 -1.4 -3 -0.8 -0.7 -1.6 -1.9 -1.8 -2.6 -0.3 -0.9 -2.3 -0.2 -6.4 2.3 -15.6 9.6 -28.9 14.9 -40.4 16 -10.8 1 -31.4 -0.5 -40.3 -3 -14.2 -3.9 -27 -15.6 -37.3 -34 -13.5 -24.1 -19.1 -26.1 -22.9 -8.1 -2.4 11.6 -7.1 22.2 -15.6 35 -12.5 18.9 -20.4 25.6 -40.4 34.4 -26.5 11.6 -50.2 13.4 -79.6 6 -14.9 -3.7 -20.1 -6.5 -29.6 -16 -9 -8.9 -12 -14.1 -22.3 -39.6 l-5.2 -12.7 -4.1 -0.5 c-24.4 -3.1 -30.1 -3 -35.1 0.7 -1.6 1.1 -1.7 1.8 -0.7 5.3 0.6 2.1 1.1 5.4 1.1 7.2 0 2.5 -0.4 3.2 -2 3.2 -1.7 0 -2 -0.7 -2 -3.9 0 -2.2 -0.8 -4.8 -1.8 -6.1 -1.5 -1.9 -1.9 -2 -3 -0.7 -0.7 0.8 -2.3 6.7 -3.7 13.1 -1.8 9.1 -3.4 13.5 -6.8 19.9 -6 11 -7.7 17.2 -7.7 28.2 l0 9.1 -5.7 1.7 c-8.8 2.8 -14.3 7.3 -21.7 18.1 -1.2 1.8 -1.5 1.6 -4.2 -2.9 -3.2 -5.5 -4.4 -15.2 -2.6 -20.5 1 -2.8 0.9 -3 -1.3 -3 -3.4 0 -4.5 2.7 -4.5 10.8 0 9.5 1.6 17.1 4.1 19.9 1.7 1.7 2 3 1.6 5.8 -0.7 4.3 -1.8 5.8 -7.1 9.7 -4.4 3.2 -8.2 3.4 -23.5 1.4z"/>
  <path d="M285.8 371.3 c-1 -0.2 -1.8 -1.1 -1.8 -1.9 0 -1.1 1.6 -1.4 7 -1.4 5.3 0 7 0.3 7 1.4 0 2.2 -7 3.3 -12.2 1.9z"/>
  <path d="M276.8 370.3 c-3.3 -0.8 -2 -3.3 1.7 -3.3 2.8 0 3.5 0.4 3.5 2 0 2 -1.4 2.3 -5.2 1.3z"/>
  <path d="M299 369.2 c0 -1.4 1.8 -2 10.8 -3.5 12.8 -2.1 21.5 -3.9 22.2 -4.7 1.4 -1.4 8.4 -4 11 -4 2.3 0 3 -0.4 3 -2 0 -1.6 0.7 -2 3.6 -2 3.1 0 3.5 0.2 2.4 1.5 -2.1 2.5 -13.2 8.2 -20.3 10.4 -5.9 1.8 -28.2 6.1 -31.6 6.1 -0.6 0 -1.1 -0.8 -1.1 -1.8z"/>
  <path d="M264.5 366 c-10.4 -5.2 -18 -15.1 -24.4 -31.7 l-2.1 -5.3 2.5 0 c2 0 2.5 0.5 2.5 2.5 0 1.4 0.5 2.5 1 2.5 0.6 0 1 1.1 1 2.5 0 1.4 0.4 2.5 0.8 2.5 1.3 0 4.2 6.8 4.2 10 0 2.5 0.4 3 2.5 3 2.2 0 2.5 0.4 2.5 3.5 0 3.3 0.2 3.5 3.5 3.5 2.4 0 3.5 0.5 3.5 1.5 0 0.9 0.9 1.5 2.4 1.5 1.4 0 3.1 0.7 4 1.5 0.8 0.8 2.4 1.5 3.5 1.5 1.4 0 2.1 0.6 2.1 2 0 2.8 -2.4 2.5 -9.5 -1z"/>
  <path d="M246.4 362.5 c-10.2 -7.3 -16.4 -17.1 -24.7 -39.3 -5.5 -14.5 -7.9 -18.4 -14.9 -23.7 -4.6 -3.5 -5.6 -5 -7.5 -10.5 -1.2 -3.6 -2.4 -8.6 -2.8 -11.2 -0.7 -4.3 -0.5 -4.8 1.2 -4.8 1.6 0 2.1 1.3 3.3 7.7 0.7 4.3 2 8.4 2.7 9.1 0.7 0.7 1.3 2.2 1.3 3.3 0 1 0.6 1.9 1.4 1.9 1.2 0 1.2 -0.7 0 -4.6 -0.7 -2.5 -1.7 -7.5 -2 -11 -0.6 -5.5 -0.4 -6.4 0.9 -6.4 1.1 0 1.8 1.2 2.2 3.8 2.2 13.4 3.8 16.5 10.9 20.5 3.8 2.2 3.9 2.4 11 23.7 7.7 23.1 12.4 33 18.9 39.7 2.2 2.4 3.8 4.5 3.6 4.8 -0.3 0.3 -2.8 -1.1 -5.5 -3z m-25.2 -55 c-0.2 -1.9 -0.8 -3.5 -1.3 -3.5 -0.5 0 -0.9 -0.6 -0.9 -1.3 0 -0.6 -1.6 -1.7 -3.5 -2.3 -2.8 -0.9 -3.5 -0.8 -3.5 0.2 0 0.8 1.1 1.4 2.5 1.4 1.6 0 2.5 0.6 2.5 1.5 0 0.8 0.5 1.5 1 1.5 0.6 0 1 1.4 1 3 0 1.8 0.5 3 1.3 3 0.9 0 1.2 -1.1 0.9 -3.5z"/>
  <path d="M281 358 c0 -2.1 1 -2.4 4.8 -1.4 3.6 1 2.7 3.4 -1.3 3.4 -2.8 0 -3.5 -0.4 -3.5 -2z"/>
  <path d="M301 358.5 c0 -1.4 1.3 -1.7 11.3 -3 4.2 -0.6 4.7 -0.4 4.7 1.3 0 1.6 -1 2 -5.2 2.6 -8.3 0.9 -10.8 0.8 -10.8 -0.9z"/>
  <path d="M322 354.7 c0 -0.7 2.9 -2.2 6.5 -3.4 l6.5 -2.1 0 2.2 c0 1.8 -0.9 2.5 -3.9 3.4 -5.1 1.6 -9.1 1.5 -9.1 -0.1z"/>
  <path d="M265 352.5 c0 -0.8 -0.8 -1.5 -1.8 -1.5 -2.9 0 -6.2 -4.2 -6.2 -7.8 0 -2.7 -0.4 -3.2 -2.5 -3.2 -1.6 0 -2.5 -0.6 -2.5 -1.6 0 -0.8 -0.7 -2.2 -1.5 -3 -0.8 -0.9 -1.5 -2.4 -1.5 -3.5 0 -1.1 -0.7 -2.7 -1.5 -3.5 -1.7 -1.7 -2.1 -8.4 -0.4 -8.4 0.5 0 2.1 2.6 3.5 5.8 5.2 11.8 7 14.5 13.2 20.3 3.4 3.2 6.7 5.9 7.2 5.9 0.6 0 1 0.5 1 1 0 0.6 -1.6 1 -3.5 1 -2.4 0 -3.5 -0.5 -3.5 -1.5z"/>
  <path d="M355.2 348.9 c0.2 -2.9 0.7 -3.5 3.1 -3.7 2.3 -0.3 2.7 -0.8 2.7 -3.3 0 -2.4 0.4 -2.9 2.5 -2.9 1.4 0 2.5 0.4 2.5 0.9 0 1.2 -6.7 9.2 -9.2 10.9 -1.8 1.3 -1.9 1.2 -1.6 -1.9z"/>
  <path d="M286.4 350 c-2.7 -0.4 -7.2 -1.7 -10 -2.9 -4.9 -2.2 -12.4 -8.6 -12.4 -10.6 0 -0.6 4.5 -11.2 10.1 -23.6 9.1 -20.2 19.8 -46.5 22.8 -56 1.2 -3.7 1.2 -3.7 8.9 -4.8 17.9 -2.6 17.2 -2.6 17.2 -0.5 0 1.7 -1.3 2.1 -10.7 3.4 l-10.8 1.5 -1.9 5.5 c-1.1 3 -2.3 5.7 -2.8 5.8 -0.4 0.2 -0.8 1.2 -0.8 2.2 0 3.7 -11.6 32 -13.1 32 -0.5 0 -0.9 0.9 -0.9 2 0 2.4 -2.1 7 -3.2 7 -0.4 0 -0.8 0.8 -0.8 1.9 0 3 -6.2 16.1 -7.6 16.1 -0.8 0 -1.4 1 -1.4 2.3 0 1.2 -0.3 3.9 -0.6 6 -0.7 3.7 -0.7 3.7 2.9 3.7 2 0 4.2 0.6 4.9 1.3 1.5 1.5 12.3 4.7 16 4.7 2.1 0 2.7 -0.8 4.3 -5.5 1.1 -3 2.3 -5.5 2.7 -5.5 0.4 0 0.8 -0.9 0.8 -1.9 0 -2.7 4.1 -13.1 5.1 -13.1 0.5 0 0.9 -0.9 0.9 -1.9 0 -3 1.1 -5.1 2.6 -5.1 0.9 0 1.4 -1.2 1.4 -3.4 0 -1.9 0.7 -4.1 1.5 -5 0.8 -0.8 1.5 -2.4 1.5 -3.5 0 -1.2 0.5 -2.1 1 -2.1 0.6 0 1 -0.8 1 -1.7 0 -2.5 5.2 -15.3 6.2 -15.3 0.4 0 0.8 -1.1 0.8 -2.5 0 -1.6 0.6 -2.5 1.5 -2.5 1 0 1.5 -1 1.5 -3 0 -3.2 1.9 -8 3.2 -8 0.4 0 0.8 -1.1 0.8 -2.4 0 -1.4 0.6 -3.1 1.3 -3.8 0.8 -0.7 1.6 -2.8 2 -4.6 l0.7 -3.2 -4.5 0 c-4.9 0 -6.4 -2.3 -2.2 -3.4 4.2 -1.1 12.7 -0.7 12.7 0.7 0 0.7 -2.7 7.3 -6.1 14.7 -3.3 7.4 -7.8 17.8 -9.9 23 -2.1 5.2 -6.6 16 -10 24 -3.5 8 -8.2 19.6 -10.6 25.9 -2.4 6.3 -4.5 11.5 -4.7 11.7 -0.9 0.9 -6.7 1.1 -11.3 0.4z"/>
  <path d="M306 348.2 c0 -1.4 7.5 -20 15.5 -38.7 4.3 -9.9 11.3 -27.2 15.6 -38.5 4.9 -13.1 8.3 -20.6 9.2 -20.8 5.1 -1 12.2 7.6 13.3 16.1 0.6 4.3 0.5 4.7 -1.5 4.7 -1.4 0 -2.1 -0.6 -2.1 -2 0 -1.1 -0.8 -3.9 -1.7 -6.2 -2.3 -5.7 -7.3 -10 -7.3 -6.3 0 0.8 -0.4 1.5 -1 1.5 -0.5 0 -1 0.9 -1 2 0 2.5 -7.1 21.4 -8.2 21.8 -0.4 0.2 -0.8 1.5 -0.8 2.8 0 1.3 -0.4 2.4 -1 2.4 -0.5 0 -1 1.1 -1 2.5 0 1.4 -0.4 2.5 -1 2.5 -0.5 0 -1 1.1 -1 2.5 0 1.4 -0.4 2.5 -1 2.5 -0.5 0 -1 1.1 -1 2.4 0 1.4 -0.7 3.1 -1.5 4 -0.8 0.8 -1.5 2.1 -1.5 3 0 2.1 -2.1 6.6 -3.2 6.6 -0.4 0 -0.8 0.8 -0.8 1.9 0 2 -5.6 16.2 -6.8 17.1 -0.4 0.3 -1.3 2.5 -2 5 -0.7 2.5 -1.5 5.3 -1.8 6.2 -0.6 1.5 -0.2 1.6 4.3 0.4 2.6 -0.7 7 -2.3 9.7 -3.4 2.7 -1.2 5.6 -2.2 6.6 -2.2 1 0 2 -0.9 2.3 -2 0.4 -1.6 1.4 -2 4.3 -2 l3.7 0 -2.2 2.4 c-3.2 3.4 -15.2 9.1 -23.2 11 -7.1 1.7 -11.9 2.1 -11.9 0.8z"/>
  <path d="M338 348.3 c0 -0.5 2.3 -2.3 5 -4.1 l5 -3.2 0 3 c0 2 -0.5 3 -1.5 3 -0.8 0 -1.5 0.5 -1.5 1 0 0.6 -1.6 1 -3.5 1 -1.9 0 -3.5 -0.3 -3.5 -0.7z"/>
  <path d="M460.3 337.8 c-4.6 -1 -6.1 -3.8 -2 -3.8 5.8 0 9.7 1.3 9.7 3.1 0 2.1 -1.2 2.2 -7.7 0.7z"/>
  <path d="M481 337 c0 -1.6 0.7 -2 3.5 -2 4 0 4.9 2.4 1.3 3.4 -3.8 1 -4.8 0.7 -4.8 -1.4z"/>
  <path d="M489 336.3 c0 -1.6 1.2 -2.1 7 -3.1 9.1 -1.6 11 -1.5 11 0.2 0 1.4 -2.8 2.2 -14.2 4.2 -3.3 0.5 -3.8 0.4 -3.8 -1.3z"/>
  <path d="M38 334 c0 -1.6 0.7 -2 3 -2 2.3 0 3 -0.5 3 -1.9 0 -1.1 0.6 -2.6 1.3 -3.3 0.8 -0.7 1.7 -2.6 2.1 -4.1 0.3 -1.5 1.3 -2.7 2.1 -2.7 1 0 1.5 -1.1 1.5 -3.5 0 -1.9 0.5 -3.5 1 -3.5 0.6 0 1 -0.9 1 -2 0 -2.4 2.1 -7 3.2 -7 0.4 0 0.8 -0.7 0.8 -1.5 0 -0.9 0.9 -1.5 2.5 -1.5 1.4 0 2.5 0.2 2.5 0.5 0 0.3 -1.3 2.9 -2.9 5.8 -1.6 2.8 -4.8 9.6 -7.1 15 -4.4 10.1 -7.5 13.7 -11.6 13.7 -1.7 0 -2.4 -0.6 -2.4 -2z"/>
  <path d="M366 332.5 c0 -1.9 0.5 -3.5 1 -3.5 0.6 0 1 -1.1 1 -2.5 0 -1.8 0.5 -2.5 2 -2.5 2.5 0 2.5 1.6 0 7.4 -2.3 5.5 -4 5.9 -4 1.1z"/>
  <path d="M33.9 331.9 c-2.1 -4 -1.2 -11.8 2 -18.4 1.7 -3.4 4 -7 5.1 -8 2 -1.8 2 -1.8 2 1.8 0 1.9 -0.4 3.7 -0.8 3.9 -0.4 0.2 -2 3 -3.5 6.4 -2.2 5 -2.5 6.9 -2 11.2 0.6 5.5 -0.7 7 -2.8 3.1z"/>
  <path d="M444.3 330 c-2.8 -2.2 -5.8 -5.1 -6.7 -6.5 -1.6 -2.5 -1.6 -2.5 1.2 -2.5 3.1 0 7.2 3.6 7.2 6.3 0 1.1 0.8 1.7 2.5 1.7 2 0 2.5 0.5 2.5 2.5 0 3.4 -0.9 3.2 -6.7 -1.5z"/>
  <path d="M509 331.5 c0 -2.2 0.4 -2.5 3.6 -2.5 4.4 0 4.2 1.8 -0.4 3.7 -3.1 1.3 -3.2 1.2 -3.2 -1.2z"/>
  <path d="M345 328.8 c0 -3.4 0.3 -3.8 2.5 -3.8 3.1 0 3.2 1.1 0 4.7 l-2.4 2.8 -0.1 -3.7z"/>
  <path d="M466 328 c0 -2.1 1 -2.4 4.8 -1.4 3.6 1 2.7 3.4 -1.3 3.4 -2.8 0 -3.5 -0.4 -3.5 -2z"/>
  <path d="M485 328.5 c0 -0.9 1.4 -1.7 3.8 -2 18.9 -3.3 31.1 -8.1 36.1 -14.4 3.2 -4 9.1 -15.6 9.1 -17.8 0 -0.7 0.7 -1.3 1.5 -1.3 1 0 1.5 1.1 1.5 3.5 0 1.9 -0.4 3.5 -1 3.5 -0.5 0 -1 0.9 -1 2 0 3.2 -2.2 7 -4.2 7 -1.3 0 -1.8 0.8 -1.8 3 0 2.5 -0.4 3 -2.5 3 -2 0 -2.5 0.5 -2.5 2.5 0 1.4 -0.5 2.5 -1.1 2.5 -0.6 0 -1.7 0.7 -2.5 1.5 -0.9 0.8 -2.6 1.5 -4 1.5 -1.3 0 -2.4 0.5 -2.4 1 0 0.6 -1.6 1 -3.5 1 -1.9 0 -3.5 0.4 -3.5 0.9 0 0.9 -15.5 4.1 -19.7 4.1 -1.4 0 -2.3 -0.6 -2.3 -1.5z"/>
  <path d="M256.2 321.8 c-3.5 -8.5 -5.3 -14.8 -8.1 -27.8 -2.6 -11.5 -2.6 -12 -0.2 -12 1.4 0 2 1 2.5 4.3 1.1 6.7 5.3 22.9 7.4 28.3 l2 4.9 1.7 -4.2 c0.9 -2.4 2.1 -4.3 2.6 -4.3 0.5 0 0.9 -0.8 0.9 -1.9 0 -1 4.5 -12.3 9.9 -25.2 5.5 -12.8 9.9 -23.5 9.7 -23.6 -0.1 -0.1 -4 0.7 -8.6 1.8 -8.3 1.9 -20.2 6.6 -20.8 8.1 -0.2 0.4 -0.9 0.8 -1.6 0.8 -0.7 0 -1.9 1.1 -2.6 2.5 -1.6 3.1 -5 3.4 -5 0.5 0 -5.1 12.1 -11.7 28 -15.5 5.8 -1.4 11.9 -2.9 13.7 -3.4 1.8 -0.5 3.4 -0.7 3.6 -0.4 0.4 0.4 -5.1 13.9 -23.9 58 -3.8 9 -7.2 16.3 -7.6 16.3 -0.3 0 -2 -3.3 -3.6 -7.2z"/>
  <path d="M237.5 327.1 c-0.3 -0.5 -2.1 -6.3 -4.1 -12.8 -2 -6.5 -4.6 -13.7 -5.9 -16 l-2.4 -4.3 2.9 0 c2.8 0 4 1.5 4 5.1 0 1 0.4 1.9 0.8 1.9 1.1 0 5.2 13.9 5.2 17.4 0 1.4 0.5 2.6 1 2.6 0.6 0 1 1.6 1 3.5 0 3.3 -1.2 4.6 -2.5 2.6z"/>
  <path d="M458 327 c0 -0.5 -1.1 -1 -2.5 -1 -1.8 0 -2.5 -0.5 -2.5 -2 0 -1.6 -0.7 -2 -3 -2 -2.7 0 -3 -0.3 -3 -3 l0 -3 5.1 3.5 c2.8 1.9 6.8 4 9 4.6 5 1.5 5.2 3.9 0.4 3.9 -1.9 0 -3.5 -0.4 -3.5 -1z"/>
  <path d="M526 322.5 c0 -2.2 0.4 -2.5 3.5 -2.5 3.3 0 3.5 -0.2 3.5 -3.5 0 -1.9 0.4 -3.5 0.9 -3.5 0.5 0 1.2 -1.1 1.5 -2.5 0.4 -1.4 1.3 -2.5 2.1 -2.5 0.8 0 1.5 -0.9 1.5 -2 0 -1.1 0.5 -4 1.2 -6.5 0.9 -3.3 1.7 -4.5 3.1 -4.5 1.7 0 1.8 0.5 1.3 3.8 -1.1 6.4 -7.2 17.6 -12.1 22.1 -5.2 4.7 -6.5 5.1 -6.5 1.6z"/>
  <path d="M349.3 320.3 c0.3 -2.1 1.7 -7.8 3.1 -12.8 1.5 -4.9 2.9 -12.5 3.3 -16.7 0.5 -6.9 0.8 -7.8 2.6 -7.8 1.8 0 1.9 0.5 1.2 8.2 -0.8 9.2 -4.5 24.9 -6.9 29.7 -2.3 4.3 -3.9 4 -3.3 -0.6z"/>
  <path d="M361.3 318.8 c0.3 -1.3 1.4 -5.9 2.5 -10.3 1.1 -4.4 2.3 -9.7 2.7 -11.7 0.6 -4 3.5 -5.4 3.5 -1.7 0 4.1 -2.3 15.9 -3.1 15.9 -0.5 0 -0.9 1.2 -0.9 2.8 0 4.8 -1.1 7.2 -3.2 7.2 -1.6 0 -1.9 -0.5 -1.5 -2.2z"/>
  <path d="M464.5 318.2 c-5.3 -1.8 -11.5 -5.7 -11.5 -7.2 0 -1.8 11 -29.1 14.8 -36.6 4.9 -9.8 14.8 -34.5 16.6 -41.6 1 -4.1 1.8 -5.4 3.5 -5.6 1.3 -0.2 2.1 0.2 2.1 1 0 1.9 -4.2 14.2 -5 14.8 -0.4 0.3 -1 2.2 -1.4 4.3 -0.4 2 -1.1 3.7 -1.5 3.7 -0.5 0 -1.1 1.8 -1.5 3.9 -0.3 2.2 -1.3 4.6 -2.1 5.5 -0.8 0.8 -1.5 2.1 -1.5 2.9 0 2.6 -1.2 4.7 -2.6 4.7 -0.9 0 -1.4 1.1 -1.4 3 0 1.7 -1.5 6.1 -3.3 9.8 -1.9 3.7 -4.4 9.4 -5.7 12.7 -1.3 3.3 -2.6 6.2 -3 6.5 -1 0.9 -2.8 9.3 -2.3 10.7 0.3 0.7 1.1 1.3 1.9 1.3 0.8 0 1.4 0.4 1.4 0.9 0 0.5 2.7 1.4 6 2.2 4.6 1 6 1.7 6 3.1 0 2.3 -2.9 2.3 -9.5 0z"/>
  <path d="M479.3 316.3 c0.4 -2.1 1.1 -3.9 1.7 -4.1 0.5 -0.2 1 -1.1 1 -2 0 -2.5 3.3 -11.2 4.2 -11.2 0.4 0 0.8 -0.9 0.8 -2 0 -2 2 -7.1 3.1 -8 0.3 -0.3 0.9 -2.2 1.3 -4.2 0.4 -2.1 1.1 -3.8 1.5 -3.8 0.5 0 1.1 -1.8 1.5 -3.9 0.3 -2.2 1.3 -4.6 2.1 -5.5 0.8 -0.8 1.5 -2.4 1.5 -3.5 0 -1.2 0.5 -2.1 1 -2.1 0.6 0 1 -0.8 1 -1.7 0 -2.6 3.2 -11.3 4.2 -11.3 0.4 0 0.8 -0.9 0.8 -1.9 0 -2.2 6 -18.3 7.1 -19.1 0.4 -0.3 0.9 -1.6 1 -3 0.3 -1.7 1.1 -2.6 2.7 -2.8 1.2 -0.2 2.2 -0.1 2.2 0.1 0 0.7 -7.5 20.6 -16 42.2 -9 23.1 -18.3 47 -19.3 49.8 -0.4 0.9 -1.4 1.7 -2.3 1.7 -1.4 0 -1.6 -0.7 -1.1 -3.7z"/>
  <path d="M371 317.3 c0 -1 0.8 -6.9 1.7 -13 1.5 -9.5 2.1 -11.3 3.5 -11.3 1 0 1.8 0.3 1.8 0.8 0 1 -2.9 19.1 -3.6 22.5 -0.6 3 -3.4 3.8 -3.4 1z"/>
  <path d="M490 318.6 c0 -0.3 0.7 -2 1.5 -3.8 0.8 -1.8 5.7 -14.8 10.9 -28.8 10.4 -27.6 21 -54.8 21.9 -55.6 1.2 -1.3 2.9 4.3 4.2 14.4 1.9 14.2 1.9 15.2 -0.4 15.2 -1.6 0 -1.9 -1.1 -2.6 -9.5 -0.6 -8.1 -0.9 -9.3 -2.1 -8.1 -0.8 0.8 -1.4 2.4 -1.4 3.5 0 1.2 -0.4 2.1 -1 2.1 -0.5 0 -1 1.1 -1 2.5 0 1.4 -0.4 2.5 -1 2.5 -0.5 0 -1 1.1 -1 2.5 0 1.4 -0.4 2.5 -1 2.5 -0.5 0 -1 0.9 -1 2 0 2.1 -3 10.2 -4 11 -0.4 0.3 -1 2.2 -1.4 4.3 -0.4 2 -1.1 3.7 -1.6 3.7 -0.6 0 -1 0.9 -1 1.9 0 2 -5.9 18.2 -6.9 19.1 -0.4 0.3 -1.2 2.8 -2 5.5 -0.7 2.8 -1.5 5.8 -1.8 6.7 -0.5 1.5 -0.1 1.6 3.3 0.6 2.2 -0.5 5.6 -1.9 7.6 -2.9 2.1 -1.1 5.1 -1.9 6.8 -1.9 2.8 0 3 -0.3 3 -3.5 0 -3.1 0.3 -3.5 2.5 -3.5 3.4 0 3.1 1.3 -1.2 6.1 -4.5 5 -9.2 7.5 -18 9.4 -3.8 0.9 -7.8 1.8 -9 2 -1.3 0.3 -2.3 0.3 -2.3 0.1z"/>
  <path d="M428.1 307.8 c-2.2 -4.6 -5.8 -12.8 -8 -18.3 -3.8 -9.6 -3.9 -10 -2 -10.3 2.8 -0.5 3 -0.1 3.6 5.3 0.4 2.9 1 4.5 1.9 4.5 0.8 0 1.4 1 1.4 2.5 0 1.4 0.5 2.5 1 2.5 0.6 0 1 1.6 1 3.5 0 2.2 0.5 3.5 1.3 3.5 1.8 0 5.7 8.3 5.7 12 0 5 -1.7 3.4 -5.9 -5.2z"/>
  <path d="M241 308.5 c0 -4 2.4 -4.9 3.4 -1.2 1 3.7 0.7 4.7 -1.4 4.7 -1.6 0 -2 -0.7 -2 -3.5z"/>
  <path d="M438 310.5 c0 -0.8 -0.4 -1.5 -1 -1.5 -0.5 0 -1 -1.1 -1 -2.5 0 -1.4 -0.6 -2.5 -1.3 -2.5 -1.8 0 -6.7 -10.3 -6.7 -14 0 -2 -0.5 -3 -1.5 -3 -0.9 0 -1.5 -0.9 -1.5 -2.5 0 -1.4 -0.4 -2.5 -1 -2.5 -0.5 0 -1 -1.1 -1 -2.5 0 -1.4 -0.4 -2.5 -1 -2.5 -0.5 0 -1 -1.6 -1 -3.5 0 -5.6 2.3 -4.2 4.9 3.1 3 8.5 11.3 25.4 15.2 31 l3 4.4 -3.1 0 c-2 0 -3 -0.5 -3 -1.5z"/>
  <path d="M443.8 298.7 c-2.6 -4.5 -6.2 -11.8 -8.2 -16.2 -3.4 -7.7 -3.4 -8 -1.4 -8.3 2.6 -0.5 3.8 1.3 3.8 5.6 0 1.9 0.5 3.2 1.3 3.2 1.5 0 5.7 8.1 5.7 10.9 0 1 0.8 2.1 1.8 2.3 1.5 0.4 2.5 -1.2 5.7 -9.3 2.1 -5.5 4.2 -9.9 4.6 -9.9 0.5 0 0.9 -0.8 0.9 -1.7 0 -2.5 5.2 -15.3 6.2 -15.3 0.4 0 0.8 -0.8 0.8 -1.7 0 -2.4 4.2 -12.3 5.2 -12.3 0.4 0 0.8 -1.1 0.8 -2.4 0 -1.2 0.5 -3.7 1.1 -5.5 0.6 -1.8 0.9 -3.5 0.5 -3.8 -0.8 -0.8 -30 4.9 -30.4 5.9 -0.2 0.4 -1.2 0.8 -2.3 0.8 -1 0 -1.9 0.5 -1.9 1 0 0.6 -0.8 1 -1.8 1 -1.2 0 -2.2 1.4 -3.1 4.6 -1.3 4.4 -1.3 6.2 0.5 19.7 0.5 3.9 0.4 4.7 -0.9 4.7 -1.5 0 -2.3 -2.5 -4.2 -14.3 -0.9 -5.7 0.4 -12.5 3.2 -15.7 1.3 -1.6 4.9 -3.8 7.9 -4.9 4.6 -1.8 35.2 -8.1 39 -8.1 1.3 0 -4.3 17 -9.4 28.6 -5 11.3 -17.8 43.6 -18.6 46.7 -0.3 1.5 -1 2.7 -1.4 2.7 -0.5 0 -2.9 -3.7 -5.4 -8.3z"/>
  <path d="M108.6 300.1 c-9.9 -4.1 -11.9 -6.1 -6.2 -6.1 2 0 3.6 0.5 3.6 1 0 0.6 1.1 1 2.5 1 1.6 0 2.5 0.6 2.5 1.5 0 1 1.1 1.5 3.5 1.5 3.1 0 3.5 0.3 3.5 2.5 0 1.4 -0.1 2.5 -0.2 2.5 -0.2 -0.1 -4.3 -1.8 -9.2 -3.9z"/>
  <path d="M125 302 c0 -1.5 0.7 -2 2.8 -2 2.4 0 45.8 -6 55.4 -7.6 3.2 -0.6 3.7 -1 3.3 -2.8 -1 -4.6 -2.5 -15.3 -2.5 -18.3 0 -2.2 0.5 -3.3 1.5 -3.3 0.8 0 1.6 1.3 1.9 3.3 0.3 1.7 0.9 6.4 1.5 10.2 0.6 3.9 1.3 8.4 1.7 10.1 l0.6 3.1 -10.4 1.7 c-11.4 1.9 -52.6 7.6 -54.5 7.6 -0.7 0 -1.3 -0.9 -1.3 -2z"/>
  <path d="M239 300.5 c0 -4 2.4 -4.9 3.4 -1.2 1 3.7 0.7 4.7 -1.4 4.7 -1.6 0 -2 -0.7 -2 -3.5z"/>
  <path d="M46 298 c3.1 -4.4 4 -4.5 4 -0.6 0 3.3 -0.2 3.6 -3.1 3.6 l-3 0 2.1 -3z"/>
  <path d="M63 297.1 c0 -2.4 0.4 -3.1 2 -3.1 1.1 0 2 -0.4 2 -0.9 0 -2.3 15.4 -3.8 25.4 -2.5 3.7 0.5 4.6 1.1 4.6 2.6 0 1.7 -0.5 1.8 -4.7 1.2 -11 -1.8 -20.6 -0.4 -26.5 3.8 l-2.8 1.9 0 -3z"/>
  <path d="M523 294.6 c0 -2 0.4 -3.6 0.9 -3.6 0.5 0 1.2 -3.6 1.6 -8 0.6 -7.1 0.9 -8 2.7 -8 1.9 0 2 0.4 1.4 5.9 -1.3 11.8 -6.6 22.7 -6.6 13.7z"/>
  <path d="M217.8 291.8 c-1 -0.9 -2 -4.5 -2.7 -10.3 -0.6 -4.9 -1.4 -10.5 -1.7 -12.2 -0.5 -2.8 -0.3 -3.3 1.3 -3.3 1.7 0 2.1 1.2 3.2 9.8 1.5 11.9 1.9 13.2 3.7 13.2 0.8 0 1.4 0.9 1.4 2 0 2.3 -2.8 2.7 -5.2 0.8z"/>
  <path d="M375 288.5 c0 -2.8 0.4 -3.5 2 -3.5 2.1 0 2.4 1 1.4 4.8 -1 3.6 -3.4 2.7 -3.4 -1.3z"/>
  <path d="M535 289.8 c0 -3 1.3 -5.8 2.6 -5.8 0.9 0 1.4 1.2 1.4 3.5 0 2.8 -0.4 3.5 -2 3.5 -1.1 0 -2 -0.6 -2 -1.2z"/>
  <path d="M543 286.5 c0 -3.8 0.3 -4.5 2 -4.5 2.1 0 2.6 2.3 1.4 6.8 -1.1 4.1 -3.4 2.6 -3.4 -2.3z"/>
  <path d="M54 289.6 c0 -1 6.8 -5.6 10.3 -7.1 3.7 -1.5 3.7 -1.5 3.7 1 0 2.2 -0.4 2.5 -3.5 2.5 -2.8 0 -3.5 0.4 -3.5 2 0 1.6 -0.7 2 -3.5 2 -1.9 0 -3.5 -0.2 -3.5 -0.4z"/>
  <path d="M367 286.8 c0 -3.9 1.2 -6.8 2.6 -6.8 1 0 1.4 1.3 1.4 4.5 0 3.8 -0.3 4.5 -2 4.5 -1.4 0 -2 -0.7 -2 -2.2z"/>
  <path d="M73 280.6 c0 -0.9 2.5 -2 7.3 -3 9.7 -2.2 56.6 -9.9 80.2 -13.1 10.5 -1.4 20.5 -2.8 22.3 -3.1 2.7 -0.5 3.2 -0.3 3.2 1.3 0 1.7 -1.7 2.1 -16.7 4.2 -23.6 3.2 -69.9 10.6 -81.7 13.1 -11.6 2.4 -14.6 2.5 -14.6 0.6z"/>
  <path d="M536 279.3 c0 -3.4 1.2 -6.3 2.6 -6.3 1 0 1.4 1.3 1.4 4 0 3.3 -0.3 4 -2 4 -1.2 0 -2 -0.7 -2 -1.7z"/>
  <path d="M378 276.5 c0 -2.4 0.5 -3.5 1.5 -3.5 0.9 0 1.5 -0.9 1.5 -2.5 0 -1.6 0.6 -2.5 1.5 -2.5 0.8 0 1.5 -0.7 1.5 -1.5 0 -0.8 0.6 -1.5 1.4 -1.5 0.8 0 1.6 -0.5 1.8 -1.1 0.2 -0.6 2.5 -1.3 5.1 -1.6 6.1 -0.7 6.6 1.8 0.8 3.6 -4.7 1.4 -9.6 5.9 -11.6 10.7 -1.8 4.4 -3.5 4.3 -3.5 -0.1z"/>
  <path d="M544 270 c0 -7 0.3 -9 1.4 -9 1.7 0 2.6 3.1 2.6 9 0 5.9 -0.9 9 -2.6 9 -1.1 0 -1.4 -2 -1.4 -9z"/>
  <path d="M236 271.5 c0 -2.8 0.4 -3.5 1.9 -3.5 1.6 0 2 -0.8 2.3 -3.7 0.2 -3.1 0.7 -3.9 2.6 -4.1 1.2 -0.2 2.2 -1 2.2 -1.8 0 -0.9 1.1 -1.4 3 -1.4 2 0 3 -0.5 3 -1.5 0 -1 1.1 -1.5 3.5 -1.5 4.8 0 4.4 1.7 -0.9 4 -6.3 2.7 -12.4 8.5 -13.8 13.1 -1.4 5 -3.8 5.2 -3.8 0.4z"/>
  <path d="M367.5 268.3 c-2.3 -14.8 -9.7 -23.9 -20.6 -25.7 -5.5 -0.9 -5.4 -3.6 0.1 -3.6 2.2 0 4 0.5 4 1 0 0.6 1.1 1 2.4 1 4.2 0 5.6 1.1 5.6 4.1 0 2.6 0.4 2.9 3 2.9 2 0 3 0.5 3 1.5 0 0.8 0.4 1.5 0.9 1.5 1.5 0 4 7.6 4.7 14.4 0.6 5.7 0.4 6.6 -0.9 6.6 -1.1 0 -1.8 -1.2 -2.2 -3.7z"/>
  <path d="M404.3 267.1 c-5.8 -2.9 -6.8 -5.1 -2.3 -5.1 5 0 8 2 8 5.2 0 1.5 -0.1 2.7 -0.2 2.7 -0.2 -0.1 -2.6 -1.4 -5.5 -2.8z"/>
  <path d="M418.6 263.8 c-0.3 -2.9 -0.6 -8.1 -0.6 -11.5 0 -5.5 0.2 -6.3 1.9 -6.3 1.6 0 1.8 0.8 1.8 6.8 0 3.7 0.3 8.8 0.7 11.5 0.6 4.2 0.5 4.7 -1.2 4.7 -1.6 0 -2 -1 -2.6 -5.2z"/>
  <path d="M85.2 266.3 c12.5 -24.6 26.8 -57.7 26.8 -62.2 0 -1.9 7.4 -20 11.3 -27.6 7.9 -15.2 19 -23.5 46.7 -34.5 24.7 -9.8 32.7 -14.2 66.4 -36.4 18.3 -12 39.8 -24.6 42.1 -24.6 0.4 0 -1 1.9 -3.1 4.3 -9.1 9.8 -12.8 16.1 -11.3 18.9 0.8 1.5 1.3 1.7 2.5 0.7 1.1 -0.9 1.4 -0.7 1.4 1.2 0 3.1 -4.1 11 -9.5 18.4 -2.4 3.3 -5.8 8.8 -7.4 12.3 -2.7 5.6 -3.3 6.2 -6 6.2 -2.8 0 -3.1 0.3 -3.1 3.1 0 2.2 -0.5 3.2 -2 3.6 -1.1 0.3 -2 0.9 -2 1.4 0 0.5 -0.7 0.9 -1.5 0.9 -0.8 0 -1.5 0.5 -1.5 1 0 0.6 -0.7 1 -1.5 1 -0.8 0 -1.5 0.4 -1.5 0.8 0 0.5 -2.4 1.9 -5.2 3.3 -2.9 1.3 -5.8 2.8 -6.4 3.4 -0.6 0.5 -4 2.4 -7.5 4 -3.5 1.7 -6.5 3.3 -6.7 3.8 -0.2 0.4 -1 0.7 -1.7 0.7 -0.7 0 -1.5 0.7 -1.9 1.5 -0.3 0.8 -1.7 1.5 -3.1 1.5 -2 0 -2.5 0.5 -2.5 2.5 0 1.3 -0.6 2.8 -1.3 3.2 -2.8 1.8 -6.6 13.2 -9.1 28 -3.2 18.5 -8.6 31.3 -13.3 31.3 -0.7 0 -1.3 0.6 -1.4 1.3 0 0.6 -0.4 3.3 -0.8 6 -0.4 2.6 -0.7 4.7 -0.6 4.7 2.4 0 22.1 -4.3 24.7 -5.4 25.6 -10.8 83.5 -25.4 113.3 -28.6 6.1 -0.6 15.9 -1.8 21.8 -2.6 13.8 -1.8 16.7 -1.8 16.7 0.1 0 0.9 -1.4 1.6 -3.7 2 -2.1 0.4 -4.9 0.8 -6.3 1.1 -1.4 0.2 -9 1.1 -17 1.9 -36.7 4 -76.3 13.2 -112.3 26.1 -15.8 5.7 -23.4 7.4 -44.2 9.9 -14.8 1.8 -18.6 2.3 -45.5 6.5 -10.6 1.7 -22.1 3.8 -25.5 4.5 -6.9 1.7 -7.8 1.8 -7.3 0.8z m87 -33.2 c4.5 -3.6 8.4 -14.4 11.2 -30.5 4.3 -25.5 8.3 -30.8 32.9 -43.9 22.5 -12 29.9 -18.4 32.2 -27.9 1.1 -4.4 -0.8 -3.5 -9.3 4.4 -6.6 6.1 -9.8 8.2 -22.2 14.1 -17.6 8.4 -25.8 14.1 -31.5 21.8 -5.7 7.8 -7.8 13.7 -10.4 29.2 -1.7 10.1 -2.9 14.2 -5.6 19.3 -3.6 6.7 -4.4 12.1 -2.3 14.2 1.6 1.6 2.1 1.5 5 -0.7z m-1.4 -56.7 c4.7 -3.3 1 -6.2 -9 -7.1 -4.6 -0.5 -5.9 -0.3 -6.4 1 -1 2.8 1.4 5.5 5.9 6.5 6.1 1.4 7 1.4 9.5 -0.4z"/>
  <path d="M212.4 261.3 c-1 -5.2 1.1 -8.4 6.9 -10.5 l4.7 -1.8 0 2.5 c0 2.1 -0.6 2.6 -4 3.1 l-4 0.7 0 4.8 c0 6.1 -2.5 6.9 -3.6 1.2z"/>
  <path d="M196 261 c0 -1.1 0.1 -2 0.3 -2 0.1 0 2.6 -0.9 5.5 -2 l5.2 -2 0 2.5 c0 2 -0.6 2.5 -3.5 3.1 -1.9 0.3 -3.5 1 -3.5 1.5 0 0.5 -0.9 0.9 -2 0.9 -1.3 0 -2 -0.7 -2 -2z"/>
  <path d="M536.6 259.8 c-1.1 -4.2 -0.7 -5.8 1.4 -5.8 1.7 0 2 0.7 2 4 0 4.5 -2.3 5.7 -3.4 1.8z"/>
  <path d="M259 253.6 c0 -2.5 2.1 -3.6 7.3 -3.6 1.5 0 2.7 -0.4 2.7 -0.8 0 -1.6 39.4 -9.1 48.3 -9.2 1.7 0 2.7 0.5 2.7 1.4 0 1.6 -1.7 2.1 -14 3.6 -10.7 1.4 -34.3 6.5 -41.5 9 l-5.5 1.9 0 -2.3z"/>
  <path d="M544 251.5 c0 -4.8 2 -13.5 3.1 -13.5 0.5 0 0.9 -0.7 0.9 -1.5 0 -0.8 0.4 -1.5 0.9 -1.5 2 0 2 -5.2 -0.1 -16.2 -2.5 -13.2 -2.1 -12.8 -12 -12.8 -4.3 0 -5.8 -0.4 -5.8 -1.4 0 -0.7 1 -1.6 2.3 -2 3.1 -0.8 12 -0.7 13.3 0.2 2.4 1.5 4.4 7.3 6.5 18.5 l2.2 11.6 -3.2 4.9 c-2.5 4 -5 12.2 -5.1 17 0 0.1 -0.7 0.2 -1.5 0.2 -1 0 -1.5 -1.1 -1.5 -3.5z"/>
  <path d="M232 247.6 c0 -1.3 2.8 -2.6 5.8 -2.6 0.6 0 1.2 0.9 1.2 2 0 1.6 -0.7 2 -3.5 2 -2.3 0 -3.5 -0.5 -3.5 -1.4z"/>
  <path d="M535.6 246.8 c-1 -3.8 -0.7 -4.8 1.4 -4.8 1.6 0 2 0.7 2 3.5 0 4 -2.4 4.9 -3.4 1.3z"/>
  <path d="M240 245.6 c0 -1.4 1.7 -2 24.7 -7.6 14.3 -3.5 14.3 -3.5 14.3 -1.2 0 1.5 -2.9 2.5 -17.3 6 -18.9 4.6 -21.7 4.9 -21.7 2.8z"/>
  <path d="M322 241 c0 -1.7 0.7 -2 4.5 -2 4.9 0 6.4 2.3 2.3 3.4 -4.5 1.2 -6.8 0.7 -6.8 -1.4z"/>
  <path d="M534.4 236.3 c-0.3 -2.1 -1.7 -5.7 -2.9 -8 l-2.4 -4.3 2.9 0 c3 0 4 1.5 4 6.1 0 1.6 0.5 2.9 1 2.9 0.6 0 1 1.6 1 3.5 0 4.9 -2.7 4.7 -3.6 -0.2z"/>
  <path d="M282 235.7 c0 -1.8 4.5 -2.9 21 -5.2 13.2 -1.8 13 -1.8 13 0.3 0 1.5 -2 2 -13.2 3.6 -21.4 3 -20.8 3 -20.8 1.3z"/>
  <path d="M369.5 235.1 c-15 -5.9 -16.5 -6.6 -16.5 -8.5 0 -2.4 3.5 -1.8 12.8 2.3 11.4 5 14.6 5.5 25.2 3.7 11.6 -2 16.6 -4.2 22.7 -9.9 7.8 -7.2 10.5 -8.1 33.8 -11.7 11.9 -1.8 55.2 -7 58.2 -7 0.7 0 1.3 0.8 1.3 1.8 0 1.6 -1.9 2 -16.7 3.6 -34.9 3.6 -68.3 9.2 -68.3 11.4 0 0.6 -1.1 1.2 -2.5 1.2 -2 0 -2.5 0.5 -2.5 2.5 0 1.8 -0.5 2.5 -2 2.5 -1.1 0 -2 0.7 -2 1.5 0 0.8 -0.5 1.5 -1.1 1.5 -0.6 0 -1.7 0.6 -2.5 1.4 -2.2 2.2 -14.9 4.9 -25.4 5.3 -7.7 0.3 -10.5 0 -14.5 -1.6z"/>
  <path d="M426 234 c0 -2.8 0.3 -3 3.5 -3 4.4 0 4.4 0.9 0 3.8 l-3.5 2.2 0 -3z"/>
  <path d="M317 230.5 c0 -1.5 0.3 -1.6 17.3 -4 13.3 -1.9 12.7 -1.9 12.7 0.3 0 1.6 -1.7 2.1 -13.2 3.5 -16.1 2.1 -16.8 2.1 -16.8 0.2z"/>
  <path d="M434 229.6 c0 -1.8 0.9 -2.5 3.9 -3.4 10.1 -3.1 12.6 0.3 2.6 3.5 l-6.5 2.1 0 -2.2z"/>
  <path d="M491 228.6 c0 -1.6 3 -2.6 7.8 -2.6 2.5 0 3.2 0.4 3.2 2 0 1.8 -0.7 2 -5.5 2 -4 0 -5.5 -0.4 -5.5 -1.4z"/>
  <path d="M448 225 c0 -1.6 0.7 -2 3.5 -2 4 0 4.9 2.4 1.3 3.4 -3.8 1 -4.8 0.7 -4.8 -1.4z"/>
  <path d="M370.7 221 c-3 -1.6 -8.5 -3.7 -12.1 -4.6 -7.5 -1.9 -9.1 -4.4 -2.8 -4.4 4.1 0 16.2 3.7 16.2 5 0 0.4 2 1.3 4.5 2 3.3 0.9 4.5 1.8 4.5 3.1 0 2.8 -3.8 2.4 -10.3 -1.1z"/>
  <path d="M385 222.3 c0 -1.6 0.9 -2.1 4.5 -2.6 6 -0.9 10 -3 16.1 -8.8 2.8 -2.6 6.7 -5.4 8.7 -6.3 6 -2.5 35.2 -7.8 61.5 -11.1 2.8 -0.4 5.2 -0.8 5.2 -1 0 -0.1 -0.7 -2.2 -1.5 -4.5 -0.8 -2.3 -1.5 -5.3 -1.5 -6.6 0 -1.3 -0.4 -2.4 -0.9 -2.4 -0.5 0 -1.3 -0.9 -1.6 -2 -0.4 -1.2 -2.9 -4.1 -5.6 -6.7 -2.7 -2.5 -4.9 -5.4 -4.9 -6.4 0 -1.2 -0.7 -1.9 -1.8 -1.9 -2.4 0 -4.2 -1.9 -4.2 -4.6 0 -1.6 -0.7 -2.4 -2.2 -2.6 -1.3 -0.2 -2.7 -1.3 -3.3 -2.5 -0.5 -1.3 -1.3 -2.3 -1.7 -2.3 -0.5 0 -0.8 -0.7 -0.8 -1.5 0 -0.8 -0.4 -1.5 -1 -1.5 -0.5 0 -1 -0.7 -1 -1.5 0 -0.8 -0.4 -1.5 -0.8 -1.5 -1.1 0 -3.2 -4.6 -3.2 -7 0 -1.1 -0.7 -2 -1.5 -2 -0.9 0 -1.5 -0.9 -1.5 -2.5 0 -1.6 -0.6 -2.5 -1.5 -2.5 -0.8 0 -1.5 -0.8 -1.5 -1.8 0 -0.9 -1 -2.2 -2.2 -2.7 -1.3 -0.6 -2.7 -2 -3.3 -3.3 -0.5 -1.2 -1.5 -2.2 -2.2 -2.2 -1.9 0 -8.3 -3.3 -8.3 -4.2 0 -0.4 -0.9 -0.8 -2 -0.8 -1.2 0 -3.7 -0.8 -5.8 -1.9 -2 -1 -7.5 -3.1 -12.2 -4.6 -4.7 -1.5 -8.6 -3.2 -8.8 -3.6 -0.2 -0.5 -1.1 -0.9 -1.9 -0.9 -2.4 0 -55.9 -18.5 -65.4 -22.6 -9.7 -4.1 -14.1 -4.2 -24.4 -0.4 -3.3 1.2 -7.5 2.7 -9.2 3.4 -1.8 0.6 -3.3 1.7 -3.3 2.3 0 0.8 -1.4 1.3 -3.7 1.3 l-3.8 -0.1 3.5 -3.1 c6.3 -5.5 21 -10.7 30.3 -10.8 2.2 0 8.3 1.9 15 4.6 6.1 2.5 20.8 7.9 32.7 11.9 55.3 18.9 67.3 23.8 73.7 30.2 2.1 2.1 6.7 8.7 10.2 14.7 6.8 11.6 13.3 19.8 24.1 30.5 6.5 6.4 6.9 6.9 10.4 17.8 2 6.2 3.6 11.5 3.6 11.7 0 0.3 -1.5 0.7 -3.2 1 -1.8 0.3 -13 1.9 -24.8 3.6 -21 3.1 -34.7 5.8 -40.3 7.9 -1.6 0.6 -5.2 3.3 -8.1 6.1 -6 5.7 -11.8 8.6 -19.3 9.6 -4.9 0.6 -5.3 0.5 -5.3 -1.3z"/>
  <path d="M465 222.2 c0 -1.6 1.6 -2.1 10.4 -3.5 12.7 -2.1 14.6 -2.1 14.6 -0.2 0 0.9 -1.4 1.6 -3.7 2 -2.1 0.4 -7.3 1.3 -11.7 2.1 -9.8 1.8 -9.6 1.8 -9.6 -0.4z"/>
  <path d="M524.3 220.8 c-4.2 -2.6 -4.2 -3.8 0.2 -3.8 3.2 0 3.5 0.2 3.5 3 0 1.7 -0.1 3 -0.2 2.9 -0.2 0 -1.8 -1 -3.5 -2.1z"/>
  <path d="M198.7 219.3 c-1.3 -1.3 -0.7 -6.9 1.8 -16.2 4.6 -16.9 10.7 -25.1 19 -25.1 l4.5 0 0 4.8 c0 4 -0.6 5.6 -3.9 9.9 -3.7 4.9 -8.1 15 -9.7 21.8 -0.4 1.7 -1.1 3.6 -1.7 4.3 -1 1.2 -8.9 1.7 -10 0.5z"/>
  <path d="M492 218 c0 -1.6 0.7 -2 3.5 -2 4 0 4.9 2.4 1.3 3.4 -3.8 1 -4.8 0.7 -4.8 -1.4z"/>
  <path d="M502 217 c0 -1.6 0.7 -2 3.5 -2 4 0 4.9 2.4 1.3 3.4 -3.8 1 -4.8 0.7 -4.8 -1.4z"/>
  <path d="M509 205.6 c0 -1.7 3.1 -2.6 8.8 -2.6 3.5 0 4.2 0.3 4.2 2 0 1.8 -0.7 2 -6.5 2 -4.9 0 -6.5 -0.3 -6.5 -1.4z"/>
  <path d="M451 174 c0 -2.7 0.2 -2.9 1.9 -1.9 2.2 1.5 5.1 0.5 5.1 -1.6 0 -1.7 -3.5 -5.5 -5.1 -5.5 -0.6 0 -1.3 0.9 -1.6 2 -0.9 3.5 -3.3 2.4 -3.3 -1.5 l0 -3.5 5 0 c3.8 0 5 0.4 5 1.5 0 0.8 0.6 1.5 1.4 1.5 1.7 0 2.6 2.2 2.6 6.5 0 4 -2 5.5 -7.4 5.5 -3.3 0 -3.6 -0.2 -3.6 -3z"/>
  <path d="M430 167 c0 -1.3 -0.7 -2 -2 -2 -1.1 0 -2 -0.7 -2 -1.5 0 -0.8 -0.5 -1.5 -1 -1.5 -0.6 0 -1.4 -0.8 -1.7 -1.7 -0.4 -1 -1.3 -2.4 -2 -3.1 -1.4 -1.4 -1.7 -6.9 -0.7 -9.6 0.4 -1.1 1.9 -1.6 5.3 -1.6 9.3 0 14.1 5.3 14.1 15.5 0 6.9 -0.5 7.5 -6.6 7.5 -2.7 0 -3.4 -0.4 -3.4 -2z m6.6 -4.4 c1.1 -4.7 -5.2 -12.6 -10.2 -12.6 -3.5 0 -3 2.6 1.7 9.3 4.4 6.2 7.4 7.4 8.5 3.3z"/>
  <path d="M270.8 100.3 c1.1 -1.6 3.2 -3.9 4.6 -5.2 l2.6 -2.4 0 3.5 c0 4.1 -2.5 6.8 -6.4 6.8 l-2.7 0 1.9 -2.7z"/>
 </g>
 <g fill="#a18c6d">
  <path d="M286.5 494.1 c-0.3 -0.5 -2.2 -1.5 -4.3 -2.2 -2 -0.6 -7 -2.8 -11.1 -4.7 -8.1 -3.9 -7.7 -3.9 -30.3 -2.7 l-10.8 0.6 -3.2 -3.4 c-1.8 -1.9 -4.8 -4 -6.7 -4.6 -7.8 -2.6 -11.9 -5.9 -16.2 -13.4 -6.8 -11.6 -11.5 -15.8 -18.1 -16.3 -2.2 -0.1 -8.5 -2.2 -14 -4.5 -9.2 -3.8 -10.3 -4.6 -14.1 -9.8 -2.2 -3.1 -6.7 -8.5 -9.9 -12.1 -13.5 -15.1 -14.8 -27.2 -4.8 -47 5.8 -11.5 7.9 -18.7 8.2 -28.6 0.1 -5.5 -0.3 -7.9 -1.6 -9.9 -2.3 -3.5 -1 -6.7 3.5 -9 5.9 -3.1 14.5 -3.1 39.6 0.1 l4.1 0.5 5.2 12.7 c10.3 25.5 13.3 30.7 22.3 39.6 9.5 9.5 14.7 12.3 29.5 16 28 7 47.6 5.4 73.7 -6 20 -8.8 27.9 -15.5 40.4 -34.4 8.5 -12.8 13.2 -23.4 15.6 -35 1.8 -8.6 3.5 -11.7 7 -12.6 6.9 -1.7 12 3 21.7 20.2 8.1 14.4 11.5 18.5 21.9 26.3 11.4 8.6 21.3 11.2 43.4 11.2 10.6 0 13 -0.3 19.5 -2.7 9.9 -3.5 21.9 -9.6 30.6 -15.4 l7.2 -4.8 3.1 6.6 c3 6.5 3 6.7 1 7 -1.7 0.3 -2 0.8 -1.4 3 0.3 1.5 0.9 7.8 1.2 14.1 0.6 13 -0.4 19 -4.8 28.6 -3.7 7.7 -5.9 18.3 -4.1 19.4 1.6 0.9 -3.5 11.3 -7.7 15.7 -9.5 10 -18.1 14.6 -32.1 16.9 -13.6 2.3 -18.2 4 -27.3 10.3 l-8.1 5.5 -15 2.2 c-18 2.7 -20.9 3.4 -34.9 7.9 -14.1 4.6 -38.1 8.9 -70.9 12.6 -26.6 3 -46.2 3.8 -47.3 2.1z m15.3 -24.3 c0.4 -1.9 -3.8 -4.2 -17.6 -9.8 -7.4 -3 -8.4 -3.2 -9.8 -1.9 -2.5 2.6 -0.5 4.7 8.9 9.4 7.5 3.8 9.9 4.5 13.6 4.3 3.4 -0.2 4.7 -0.8 4.9 -2z m-76 -23.1 c0.6 -2.9 -2.1 -6 -10.7 -12.6 -9.3 -7 -11.1 -7.5 -11.1 -2.9 0 2.6 1.1 4.3 6 9.1 8.3 8 15 10.7 15.8 6.4z"/>
  <path d="M531 417.3 c0 -1.9 1.2 -4 3.9 -6.5 2.1 -2.1 4.3 -3.8 4.9 -3.8 0.6 0 1.2 -1 1.4 -2.2 0.2 -1.3 1.3 -2.7 2.6 -3.3 1.2 -0.5 2.2 -1.5 2.2 -2.2 0 -0.6 0.9 -2.7 2 -4.5 2.8 -4.8 3.3 -15.8 0.7 -15.8 -0.7 0 -2.5 -2.5 -4 -5.5 -2.7 -5.6 -3.6 -11.5 -1.7 -11.5 1.2 0 12 21.5 12 24 0 4.7 -3.5 12.5 -8.2 18.2 -6.7 8.2 -10.8 12.5 -13.5 14.3 -2.2 1.5 -2.3 1.4 -2.3 -1.2z"/>
  <path d="M281 348.5 c-5.5 -1.7 -9 -3.6 -9 -4.7 0 -1.3 4.7 -0.9 11 1 4.4 1.2 6 2.2 6 3.5 0 2 -1.8 2.1 -8 0.2z"/>
  <path d="M294 348 c0 -1.1 0.5 -2 1 -2 0.6 0 1 -1.1 1 -2.5 0 -2 0.5 -2.5 2.5 -2.5 l2.4 0 -1.7 4.5 c-1.7 4.8 -5.2 6.4 -5.2 2.5z"/>
  <path d="M267.4 340.8 c-3.6 -4 -3.6 -4.5 1 -14.5 2.4 -5.4 6.4 -14.3 8.8 -19.7 4.6 -10.4 6.8 -13 6.8 -7.8 0 4 -0.9 6.2 -2.6 6.2 -0.9 0 -1.4 1.1 -1.4 2.9 0 3.9 -0.9 6.1 -2.6 6.1 -0.9 0 -1.4 1.2 -1.4 3.5 0 2.4 -0.5 3.5 -1.5 3.5 -1 0 -1.5 1 -1.5 3 0 3.3 -2.9 10 -4.3 10 -0.5 0 -0.4 0.6 0.2 1.4 0.7 0.8 1.1 2.9 0.9 4.6 l-0.3 3.2 -2.1 -2.4z"/>
  <path d="M299 336.6 c0 -3.2 0.3 -3.6 2.5 -3.6 2.4 0 2.5 0.1 1.2 3.2 -1.9 4.6 -3.7 4.8 -3.7 0.4z"/>
  <path d="M36.8 334.9 c-2.9 -1.6 -2.1 -2.9 1.8 -2.9 2.8 0 3.5 0.3 3.2 1.7 -0.4 2.1 -2.6 2.7 -5 1.2z"/>
  <path d="M302 328.6 c0 -2.5 0.4 -3.6 1.5 -3.6 1 0 1.5 -1.1 1.5 -3.5 0 -2.4 0.5 -3.5 1.5 -3.5 1 0 1.5 -1 1.5 -3.4 0 -1.9 0.7 -4.1 1.5 -5 0.8 -0.8 1.5 -2.4 1.5 -3.5 0 -1.1 0.7 -2.6 1.5 -3.5 0.8 -0.8 1.5 -2.4 1.5 -3.5 0 -1.2 0.5 -2.1 1 -2.1 0.6 0 1 -1.1 1 -2.5 0 -1.4 0.5 -2.5 1 -2.5 0.6 0 1 -1.1 1 -2.5 0 -1.6 0.6 -2.5 1.5 -2.5 1 0 1.5 -1.1 1.5 -3.5 0 -1.9 0.5 -3.5 1 -3.5 0.6 0 1 -0.9 1 -1.9 0 -3 1.1 -5.1 2.6 -5.1 0.9 0 1.4 -1.1 1.4 -2.9 0 -3.9 0.9 -6.1 2.6 -6.1 0.9 0 1.4 -1.2 1.4 -3.5 0 -3.1 0.3 -3.5 2.5 -3.5 2.5 0 2.5 0.1 1.1 3.3 -0.7 1.7 -4.6 10.9 -8.6 20.2 -4 9.4 -10.5 24.6 -14.4 33.9 -4 9.4 -7.8 17.2 -8.4 17.4 -0.8 0.2 -1.2 -0.9 -1.2 -3.2z"/>
  <path d="M466.3 318.5 c-4.5 -1.3 -13.3 -6 -13.3 -7.2 0 -1.5 3.1 -7.3 3.9 -7.3 0.6 0 1.1 2 1.1 4.5 0 4.3 0.1 4.5 3 4.5 1.7 0 3 0.4 3 0.9 0 0.5 2.5 1.2 5.5 1.6 4.5 0.5 5.5 1 5.5 2.6 0 2.3 -1.5 2.3 -8.7 0.4z"/>
  <path d="M481 312.6 c0 -3.2 0.3 -3.6 2.5 -3.6 2.4 0 2.5 0.1 1.2 3.2 -1.9 4.6 -3.7 4.8 -3.7 0.4z"/>
  <path d="M484 304.6 c0 -2 0.5 -3.6 1 -3.6 0.6 0 1 -1.1 1 -2.5 0 -1.4 0.5 -2.5 1 -2.5 0.6 0 1 -1.1 1 -2.5 0 -1.4 0.4 -2.5 0.9 -2.5 0.5 0 1.1 -1.8 1.5 -4 0.3 -2.2 1.1 -4 1.6 -4 0.6 0 1 -1.1 1 -2.5 0 -2 0.5 -2.5 2.5 -2.5 l2.4 0 -2.3 6.3 c-8.7 22.9 -11.6 28 -11.6 20.3z"/>
  <path d="M457.9 298.3 c5.5 -14 6.8 -16.7 7.9 -17.1 0.8 -0.2 1.2 0.8 1.2 3.2 0 2 -0.4 3.6 -1 3.6 -0.5 0 -1 1.1 -1 2.5 0 1.4 -0.4 2.5 -1 2.5 -0.5 0 -1 1.1 -1 2.5 0 1.4 -0.4 2.5 -1 2.5 -0.5 0 -1 1.1 -1 2.5 0 2 -0.5 2.5 -2.5 2.5 l-2.5 0 1.9 -4.7z"/>
  <path d="M285.3 288.8 c1.9 -4.6 3.7 -4.8 3.7 -0.4 0 3.2 -0.3 3.6 -2.5 3.6 -2.4 0 -2.5 -0.1 -1.2 -3.2z"/>
  <path d="M289.1 278.8 c2.5 -6.3 2.8 -6.8 4 -6.8 0.5 0 0.9 1.6 0.9 3.5 0 1.9 -0.4 3.5 -1 3.5 -0.5 0 -1 1.1 -1 2.5 0 2 -0.5 2.5 -2.5 2.5 l-2.5 0 2.1 -5.2z"/>
  <path d="M544 272.5 c0 -3.7 2.4 -5 3.2 -1.7 0.6 2.7 -0.2 5.2 -1.8 5.2 -0.9 0 -1.4 -1.1 -1.4 -3.5z"/>
  <path d="M497 271.5 c0 -1.9 0.5 -3.5 1 -3.5 0.6 0 1 -1.1 1 -2.5 0 -2 0.5 -2.5 2.5 -2.5 l2.5 0 -2.1 5.2 c-2.5 6.3 -2.8 6.8 -4 6.8 -0.5 0 -0.9 -1.6 -0.9 -3.5z"/>
  <path d="M470.6 269.3 c0.9 -2.1 3.3 -7.8 5.4 -12.7 3.8 -9.4 6 -11.9 6 -6.9 0 4.3 -1.1 7.3 -2.6 7.3 -0.9 0 -1.4 1.2 -1.4 3.5 0 2.4 -0.5 3.5 -1.5 3.5 -1 0 -1.5 1 -1.5 2.9 0 4.5 -1 6.1 -3.6 6.1 -2.4 0 -2.4 0 -0.8 -3.7z"/>
  <path d="M295.1 262.8 c1.7 -4.5 3.2 -8.5 3.4 -8.9 0.3 -0.3 2.8 -0.9 5.7 -1.3 2.9 -0.4 6.8 -0.9 8.6 -1.2 2.7 -0.5 3.2 -0.3 3.2 1.4 0 1.6 -0.9 2 -6.1 2.6 -8.3 1 -8.5 1.1 -9.9 6.2 -0.7 2.4 -1.7 4.4 -2.1 4.4 -0.5 0 -0.9 1.1 -0.9 2.5 0 2 -0.5 2.5 -2.4 2.5 l-2.5 0 3 -8.2z"/>
  <path d="M502 258.6 c0 -2 0.4 -3.6 0.9 -3.6 0.5 0 1.1 -1.8 1.5 -4 0.3 -2.2 1.1 -4 1.6 -4 0.6 0 1 -1.1 1 -2.5 0 -1.4 0.5 -2.5 1 -2.5 0.6 0 1 -1.1 1 -2.5 0 -2 0.5 -2.5 2.5 -2.5 2.5 0 2.5 0 1 3.8 -0.8 2 -3 7.5 -4.8 12.1 -3.6 9.3 -5.7 11.4 -5.7 5.7z"/>
  <path d="M317 252.6 c0 -0.7 1 -1.6 2.3 -2 4.1 -1.1 5.7 -0.7 5.7 1.4 0 1.7 -0.7 2 -4 2 -2.7 0 -4 -0.4 -4 -1.4z"/>
  <path d="M167.4 246.8 c1.1 -9.4 1.7 -11.8 3.1 -11.8 4.5 0 10 -13 13.1 -31.3 4.4 -26.2 8.2 -31.5 31 -43.6 23 -12.3 29.3 -17.2 33.9 -27.1 1.4 -3 4.5 -8.2 7 -11.5 2.4 -3.3 5.3 -7.8 6.4 -10 1.1 -2.2 7.3 -9.5 13.8 -16.2 13.2 -13.6 18 -16.6 32.5 -19.8 8.9 -1.9 10.9 -1.6 22.2 3.2 4.3 1.8 20.3 7.6 35.5 12.8 43.8 15.1 51.4 17.9 51.9 19.3 0.7 2.2 -5 1.3 -15.4 -2.2 -5.4 -1.9 -23.6 -8.2 -40.4 -14 -16.8 -5.8 -30.6 -11 -30.8 -11.6 -0.2 -0.5 -1.4 -1 -2.7 -1 -1.3 0 -3 -0.6 -3.7 -1.3 -2.5 -2.5 -8.5 -2.9 -17.3 -1 -4.7 0.9 -8.5 2.1 -8.5 2.5 0 0.4 -1.3 0.8 -3 0.8 -2 0 -3 0.5 -3 1.5 0 0.9 -0.7 1.8 -1.6 2.2 -1.6 0.6 -8.5 7.5 -8 8 0.1 0.1 2.7 -0.7 5.7 -1.8 4.7 -1.9 6.8 -2.1 16.4 -1.6 6.1 0.3 13.5 1.3 16.5 2.2 14.7 4.5 31.9 13.5 43.3 22.8 10.2 8.3 23.6 13.7 43 17.2 13.5 2.5 24 6.5 28.7 11.1 1.4 1.3 4.4 6 6.5 10.4 l3.9 8.1 5.7 -0.7 c5.1 -0.6 5.8 -0.4 7.3 1.7 1.8 2.6 2.2 8.9 0.6 8.9 -0.5 0 -1 0.9 -1 1.9 0 1.3 -0.8 2.1 -2.5 2.3 -2.2 0.3 -1.8 0.9 5.5 8.4 l8 8.1 4.8 -0.5 4.9 -0.4 -1.8 -5.9 c-1 -3.2 -2.5 -7.2 -3.4 -8.8 -0.8 -1.7 -1.5 -4.4 -1.5 -6.2 0 -2.7 0.2 -3 1.6 -1.8 2.4 2 4.3 6.3 7.3 16.4 l2.8 9.3 -6.1 0.6 c-10.1 1.1 -38.4 5.6 -48.9 7.7 -12.7 2.6 -15.9 4.1 -22.1 9.8 -6.4 6.1 -9.6 7.7 -18 9.2 -8.4 1.4 -13.2 0.8 -19.9 -2.5 -12.2 -6.1 -18.1 -6.7 -37.4 -4.2 -5.9 0.8 -15.7 2 -21.8 2.6 -29.8 3.2 -87.7 17.8 -113.3 28.6 -4.3 1.8 -23 5.4 -28 5.4 l-3.5 0 0.7 -6.2z m38.3 -31 c0.6 -0.7 1.3 -2.6 1.7 -4.3 1.6 -6.8 6 -16.9 9.7 -21.8 4 -5.3 5 -8.7 2.4 -8.7 -2.4 0 -7.9 5.5 -10.8 10.8 -2.8 5.2 -8 22.9 -7.1 24.3 0.8 1.3 3 1.1 4.1 -0.3z m251.9 -43.2 c1.9 -1.4 1.9 -1.5 -0.2 -4.3 -1.2 -1.5 -3.1 -2.9 -4.3 -3.1 -1.7 -0.3 -2.1 0.2 -2.1 2.4 0 2.5 2.4 6.4 4 6.4 0.3 0 1.5 -0.6 2.6 -1.4z m-22.2 -7.2 c2 -0.8 2.1 -5.5 0.2 -9.2 -2 -3.8 -4.7 -6.1 -8.3 -6.8 -3.8 -0.8 -5.1 1.7 -2.7 5.5 2 3.1 8.4 11.1 8.9 11.1 0.2 0 1 -0.3 1.9 -0.6z"/>
  <path d="M544 249.8 c0 -1.3 0.3 -4 0.6 -6 0.5 -3.1 1.1 -3.8 2.9 -3.8 2.1 0 2.1 0 0.7 6 -1.5 6 -4.2 8.4 -4.2 3.8z"/>
  <path d="M483.5 236.8 c2.9 -8.3 3.6 -9.3 5.9 -9.6 2.1 -0.3 2.6 0.1 2.6 1.7 0 1.2 -0.6 2.1 -1.3 2.1 -0.7 0 -1.9 2.2 -2.6 5 -0.7 2.8 -1.7 5 -2.2 5 -0.5 0 -0.9 1.1 -0.9 2.5 0 2 -0.5 2.5 -2.4 2.5 l-2.4 0 3.3 -9.2z"/>
  <path d="M373 236 c0 -0.5 -1.3 -1 -3 -1 -2 0 -3 -0.5 -3 -1.5 0 -1 -1 -1.5 -3.4 -1.5 -1.9 0 -4.1 -0.7 -5 -1.5 -0.8 -0.8 -2.8 -1.5 -4.5 -1.5 -2.5 0 -3.1 -0.4 -3.1 -2.1 0 -1.9 0.4 -2.1 3.4 -1.6 1.9 0.3 7 2.1 11.3 4 4.3 1.9 9.3 3.8 11.1 4.1 4.4 1 4.3 3.6 -0.3 3.6 -1.9 0 -3.5 -0.4 -3.5 -1z"/>
  <path d="M385 235.6 c0 -1.4 2.7 -2.2 13.3 -4.1 3.2 -0.6 3.7 -0.5 3.7 1.2 0 1.6 -1.1 2.2 -6.4 3.1 -8.3 1.6 -10.6 1.5 -10.6 -0.2z"/>
  <path d="M512 233.3 c0 -4.8 1.1 -7.3 3.1 -7.3 2.3 0 2.4 1.9 0.5 6.5 -1.8 4.2 -3.6 4.6 -3.6 0.8z"/>
  <path d="M326 229.6 c0 -1.3 2.8 -2.6 5.8 -2.6 0.6 0 1.2 0.9 1.2 2 0 1.6 -0.7 2 -3.5 2 -2.3 0 -3.5 -0.5 -3.5 -1.4z"/>
  <path d="M405 230.2 c0 -0.4 1.2 -1.5 2.8 -2.4 1.5 -0.9 4.9 -3.7 7.5 -6.2 5.9 -5.6 9.5 -6.7 31.2 -10 27.2 -4.1 26.5 -4.1 26.5 -1.9 0 1.6 -2.2 2.1 -19.7 4.6 -10.8 1.5 -22.2 3.7 -25.4 4.7 -3.2 1.1 -6.8 2 -7.9 2 -1.4 0 -2 0.7 -2 2.1 0 2.4 -2.2 4.9 -4.4 4.9 -0.9 0 -1.6 0.7 -1.6 1.5 0 1 -1.1 1.5 -3.5 1.5 -1.9 0 -3.5 -0.4 -3.5 -0.8z"/>
  <path d="M334 228.7 c0 -1.6 1.6 -2.1 10.3 -3.3 4.3 -0.6 4.7 -0.5 4.7 1.5 0 1.5 -0.6 2.1 -2.2 2.1 -1.3 0 -4.7 0.3 -7.5 0.6 -4.4 0.6 -5.3 0.4 -5.3 -0.9z"/>
  <path d="M496 228.6 c0 -1.5 3 -2.6 7.3 -2.6 2 0 2.7 0.5 2.7 2 0 1.7 -0.7 2 -5 2 -3.6 0 -5 -0.4 -5 -1.4z"/>
  <path d="M548.7 220.2 c-2.7 -12.7 -3.1 -16.2 -1.8 -16.2 1.7 0 3.7 5.4 5.5 14.9 2 10.3 2 10.1 -0.1 10.1 -1.4 0 -2.2 -1.8 -3.6 -8.8z"/>
  <path d="M474 209.6 c0 -0.7 1 -1.6 2.3 -2 4.1 -1.1 5.7 -0.7 5.7 1.4 0 1.7 -0.7 2 -4 2 -2.7 0 -4 -0.4 -4 -1.4z"/>
  <path d="M484 208.6 c0 -1.3 2.8 -2.6 5.8 -2.6 0.6 0 1.2 0.9 1.2 2 0 1.6 -0.7 2 -3.5 2 -2.3 0 -3.5 -0.5 -3.5 -1.4z"/>
  <path d="M492 207.6 c0 -0.7 1 -1.6 2.3 -2 4.1 -1.1 5.7 -0.7 5.7 1.4 0 1.7 -0.7 2 -4 2 -2.7 0 -4 -0.4 -4 -1.4z"/>
  <path d="M501 206.6 c0 -1.4 2.9 -2.6 6.8 -2.6 1.5 0 2.2 0.6 2.2 2 0 1.7 -0.7 2 -4.5 2 -3.2 0 -4.5 -0.4 -4.5 -1.4z"/>
  <path d="M516 205.6 c0 -1.4 2.9 -2.6 6.8 -2.6 1.5 0 2.2 0.6 2.2 2 0 1.7 -0.7 2 -4.5 2 -3.2 0 -4.5 -0.4 -4.5 -1.4z"/>
  <path d="M457.7 158.3 c-0.4 -0.3 -0.7 -1.9 -0.7 -3.5 0 -2.3 -0.4 -2.8 -2.5 -2.8 -1.6 0 -2.5 -0.6 -2.5 -1.5 0 -0.8 -0.4 -1.5 -1 -1.5 -0.5 0 -1 -0.7 -1 -1.5 0 -0.8 -0.4 -1.5 -1 -1.5 -0.5 0 -1 -1.1 -1 -2.5 0 -1.4 -0.6 -2.5 -1.3 -2.5 -1.6 0 -3.7 -4.1 -3.7 -7 0 -1.1 -0.7 -2 -1.5 -2 -0.8 0 -1.5 -0.7 -1.5 -1.5 0 -0.8 -0.4 -1.5 -1 -1.5 -0.5 0 -1 -1.6 -1 -3.7 0 -3.4 0.1 -3.5 1.8 -1.9 1.1 0.9 4.3 5.9 7.3 11.2 3 5.2 7.1 11.6 9.1 14.2 2 2.6 4.7 5.9 5.8 7.5 l2.1 2.7 -2.9 0 c-1.6 0 -3.2 -0.3 -3.5 -0.7z"/>
  <path d="M430 118.5 c0 -3.1 1.1 -3.2 4.7 0 l2.8 2.4 -3.7 0.1 c-3.4 0 -3.8 -0.3 -3.8 -2.5z"/>
  <path d="M421.2 116.1 c-0.8 -0.4 -1.2 -1.8 -1 -2.9 l0.3 -2.1 4.3 1.9 c2.3 1 4.2 2.4 4.2 3 0 1.2 -5.9 1.3 -7.8 0.1z"/>
 </g>
 <g fill="#ec7647">
  <path d="M246.4 362.2 c-10 -7.3 -17.2 -18.8 -24.9 -39.9 -4.6 -12.7 -8.2 -18.4 -14.1 -22.6 -2.5 -1.7 -5.4 -4.8 -6.4 -6.8 -2.8 -5.3 -5.1 -18.5 -4.8 -26.4 0.3 -7.5 0.9 -8.3 8 -10 l2.8 -0.7 0 10.3 c0 11.2 2 22.7 4.6 26.6 0.8 1.4 3.5 3.3 5.9 4.4 2.8 1.2 4.6 2.8 5.3 4.6 0.5 1.6 3.6 10.8 6.7 20.6 6.5 19.9 11.4 30.6 17.5 37.8 2.3 2.7 3.9 4.9 3.7 4.9 -0.2 0 -2.2 -1.3 -4.3 -2.8z"/>
  <path d="M306 348.6 c0 -0.8 7 -18.4 12 -30.1 7.4 -17.2 19.1 -46.3 23.5 -58.2 2 -5.7 4.3 -10.3 5 -10.3 2.7 0 8.1 4.8 10.3 9.2 5.9 11.8 2.7 46.4 -5.9 64.5 -3.7 7.7 -11 14.5 -20.4 18.8 -8.2 3.8 -24.5 7.9 -24.5 6.1z"/>
  <path d="M256.2 320.8 c-5 -12.3 -10.2 -33.9 -10.2 -42.6 0 -6.5 2.3 -9.2 11.3 -13.7 6.5 -3.1 32.3 -10.2 33.4 -9.1 0.2 0.2 -5.3 13.8 -12.3 30.2 -6.9 16.5 -13.8 32.7 -15.3 36.1 -1.4 3.5 -2.9 6.3 -3.3 6.3 -0.3 0 -2 -3.3 -3.6 -7.2z"/>
  <path d="M491 317.7 c0 -1.3 23.4 -63.1 28.9 -76.6 1.7 -4.1 3.1 -8 3.1 -8.7 0 -2.1 1.8 -1.7 3 0.7 0.7 1.1 1.8 7.8 2.6 14.7 3.9 35.3 -1.4 56.3 -16.1 64.4 -5.7 3.1 -21.5 7.2 -21.5 5.5z"/>
  <path d="M447 303.9 c-4.9 -7.9 -15 -29.9 -16.4 -35.9 -2 -8.4 -2.1 -20.2 -0.2 -23.9 3 -5.6 9 -7.9 31.9 -12 8.9 -1.6 16.3 -2.8 16.5 -2.6 0.7 0.7 -6.1 18.8 -15.4 41 -5.2 12.7 -10.6 26.1 -11.9 29.9 l-2.3 6.9 -2.2 -3.4z"/>
 </g>
 <g fill="#72a995">
  <path d="M274.1 369.4 c-8.5 -2.3 -16.8 -7.2 -21.7 -12.9 -6.8 -8 -12 -20.1 -20.4 -47.2 -3.7 -12 -5.6 -14.8 -11.1 -16.4 -4.8 -1.5 -3.9 1.9 -8.4 -31.9 -1.1 -8.4 3.6 -10.6 43.5 -20.5 29.2 -7.2 35.2 -8.3 69.5 -12.5 l24.9 -3 12.6 5.9 c14.8 7.1 20 8.5 28.3 7.9 7.9 -0.7 14.2 -3.7 21.7 -10.4 10.5 -9.4 15.6 -11.1 43.5 -14.4 9.9 -1.1 21.2 -2.5 25 -3 19.2 -2.6 57.1 -3.9 61.9 -2 3.2 1.2 4.6 5.8 5.3 18.1 0.4 7 0.2 10.2 -0.8 12 -1 1.8 -1.3 8.6 -1.4 27.9 -0.1 24.2 -0.2 25.9 -2.6 33.5 -3 9.8 -8.4 18.4 -14.1 22.6 -12.2 9 -30 14.5 -50.8 15.5 -30.1 1.6 -42.3 -8.5 -58.1 -47.8 -5.5 -13.6 -6.6 -15.7 -10.3 -19.6 -4.2 -4.5 -7.7 -6.2 -12.6 -6.2 -8.3 0 -14.8 5.3 -17.5 14.3 -0.7 2.3 -2.3 11.2 -3.5 19.7 -4.2 29.3 -8.6 40.6 -19.5 50.8 -7.6 7.2 -21 14.1 -32 16.6 -20.2 4.6 -40.9 5.8 -51.4 3z m47.6 -15.8 c23.3 -6.4 34.1 -16.7 40.7 -38.6 3.9 -13.4 4.9 -20.4 5 -37 0.1 -13.8 -0.1 -16 -2 -20.1 -3.3 -7.2 -8.7 -12.5 -14.6 -14.5 -13.9 -4.6 -68 3 -94 13.2 -13.5 5.3 -17.8 10.7 -17.8 22.2 0 7.5 3.3 23.5 7.7 36.7 7.9 24.1 15.6 33.8 31.2 39.3 6 2.1 7.8 2.2 20.6 1.8 10.9 -0.3 16.1 -1 23.2 -3z m173.2 -28.1 c11 -2.1 21.5 -5.8 25.7 -9 4.5 -3.5 9.9 -11.6 12.4 -18.9 3.4 -9.6 4.5 -25.6 3.1 -44.3 -1.5 -19.7 -2.8 -24.6 -7.9 -29.6 -5.9 -5.7 -11.1 -6.5 -30.8 -4.4 -16.9 1.8 -45.3 6.7 -54.4 9.3 -8.6 2.5 -14.8 6.1 -17.4 10.2 -6.9 10.5 -5.9 23.9 3.5 46 10.8 25.6 20.3 36.5 35.9 40.8 6.3 1.7 20.3 1.7 29.9 -0.1z"/>
  <path d="M37.2 335 c-4.8 -2 -5.6 -11.5 -1.7 -19.8 3.9 -8.3 12.3 -19.8 18.8 -25.7 7 -6.4 14.5 -9.4 32.2 -12.9 12.7 -2.5 53.9 -9.1 79 -12.6 8.3 -1.1 16.5 -2.3 18.3 -2.7 l3.2 -0.5 0 5.3 c0 4.8 2.2 20.9 3.6 26.5 0.5 1.8 0 2.2 -3.3 2.7 -24 3.5 -54.8 7.8 -60.7 8.3 -7.2 0.6 -7.7 0.5 -18.9 -4 -13.3 -5.4 -21.1 -7.1 -28.6 -6.2 -12.5 1.5 -17.7 6.4 -25.2 24.1 -5 11.7 -8.4 17.5 -10.3 17.5 -0.8 0 -2 0.2 -2.8 0.4 -0.7 0.3 -2.3 0.1 -3.6 -0.4z"/>
 </g>
 <g fill="#bea97b">
  <path d="M524.1 431.9 c0.7 -1.3 1.6 -7.2 2 -13 0.5 -8.1 1.3 -12.1 3.4 -17 5.3 -12.6 5.8 -14.5 6.2 -23.4 0.4 -7.7 0 -10.7 -2.5 -20.5 -2.8 -10.5 -2.9 -11.6 -1.5 -13.2 2.1 -2.4 3.2 -2.3 4.2 0.5 0.5 1.2 4.8 10.3 9.6 20.2 4.8 9.9 8.8 19.2 8.7 20.6 -0.2 8.3 -3.7 14.2 -15.6 26.7 -4.2 4.4 -8.7 10.3 -10.5 13.9 -1.7 3.4 -3.6 6.5 -4.2 6.8 -0.7 0.5 -0.6 -0.1 0.2 -1.6z"/>
  <path d="M284.8 349.3 c-3.6 -0.9 -2 -3.3 2.2 -3.3 3.3 0 4 0.3 4 2 0 2 -2 2.4 -6.2 1.3z"/>
  <path d="M295 346.6 c0 -2 0.4 -3.6 0.9 -3.6 0.5 0 1.1 -1.8 1.5 -4 0.3 -2.2 1 -4 1.5 -4 0.5 0 1.1 -1.8 1.5 -4 0.3 -2.2 1.1 -4 1.6 -4 0.6 0 1 -1.1 1 -2.4 0 -1.4 0.7 -3.1 1.5 -4 0.8 -0.8 1.5 -2.1 1.5 -2.9 0 -2.6 1.2 -4.7 2.6 -4.7 0.9 0 1.4 -1.2 1.4 -3.5 0 -1.9 0.5 -3.5 1 -3.5 0.6 0 1 -1.1 1 -2.4 0 -1.4 0.7 -3.1 1.5 -4 0.8 -0.8 1.5 -2.4 1.5 -3.5 0 -1.2 0.5 -2.1 1 -2.1 0.6 0 1 -1.1 1 -2.5 0 -1.4 0.5 -2.5 1 -2.5 0.6 0 1 -1.1 1 -2.4 0 -1.4 0.7 -3.1 1.5 -4 0.8 -0.8 1.5 -2.4 1.5 -3.5 0 -1.2 0.6 -2.1 1.5 -2.1 1 0 1.5 -1 1.5 -3.2 0 -4.3 1.2 -6.1 3.8 -5.6 1.9 0.3 1.7 1.1 -3.5 13.3 -16.3 38.6 -20.6 48.9 -24 57.9 -4.1 10.7 -6.3 13.2 -6.3 7.2z"/>
  <path d="M274.4 345.6 c-2.8 -1.3 -6.1 -3.8 -7.3 -5.5 l-2.2 -3.1 2.9 0 c2.9 0 6.2 2.6 6.2 4.8 0 0.7 1.4 1.2 3 1.2 2.5 0 3 0.4 3 2.5 0 1.4 -0.1 2.5 -0.2 2.5 -0.2 0 -2.6 -1.1 -5.4 -2.4z"/>
  <path d="M269.9 323.8 c0.5 -1.3 4.5 -10.4 8.9 -20.3 7.7 -17.5 19.2 -46.4 19.2 -48.4 0 -1.2 1.6 -1.6 11 -3.1 8.7 -1.3 9 -1.3 9 0.9 0 1.5 -1.1 2 -6.2 2.5 -11.6 1.3 -11.8 1.4 -11.8 5.2 0 1.9 -0.4 3.4 -1 3.4 -0.5 0 -1 1.1 -1 2.5 0 1.4 -0.4 2.5 -0.9 2.5 -0.5 0 -1.1 1.8 -1.5 4 -0.3 2.2 -1.1 4 -1.6 4 -0.6 0 -1 1.1 -1 2.5 0 1.4 -0.4 2.5 -0.9 2.5 -0.5 0 -1.1 1.8 -1.5 4 -0.4 2.6 -1.1 4 -2.1 4 -1 0 -1.5 1 -1.5 3 0 3.7 -1.9 8 -3.7 8 -0.8 0 -1.3 1.1 -1.3 2.9 0 3.9 -0.9 6.1 -2.6 6.1 -0.9 0 -1.4 1.2 -1.4 3.4 0 1.9 -0.7 4.1 -1.5 5 -0.8 0.8 -1.5 2.1 -1.5 2.9 0 3 -1.3 4.7 -3.6 4.7 -2 0 -2.2 -0.3 -1.5 -2.2z"/>
  <path d="M467.5 318.6 c-5.7 -1.4 -10.6 -3.8 -12.4 -6 -1.2 -1.4 -0.9 -1.6 2.3 -1.6 2.3 0 3.6 0.5 3.6 1.3 0 0.8 2.7 1.8 7.5 2.6 6.2 1.1 7.5 1.7 7.5 3.2 0 2.2 -1.3 2.3 -8.5 0.5z"/>
  <path d="M478 318.5 c0 -1.6 2.1 -6.7 3.1 -7.5 0.3 -0.3 0.9 -2.2 1.3 -4.2 0.4 -2.1 1.1 -3.8 1.6 -3.8 0.6 0 1 -1.1 1 -2.5 0 -1.4 0.5 -2.5 1 -2.5 0.6 0 1 -1.1 1 -2.5 0 -1.4 0.5 -2.5 1 -2.5 0.6 0 1 -1.1 1 -2.5 0 -2 0.5 -2.5 2.5 -2.5 2.5 0 2.5 0 1 3.7 -0.9 2.1 -3.7 9.3 -6.2 16 -3.6 9.5 -5.1 12.3 -6.5 12.3 -1 0 -1.8 -0.7 -1.8 -1.5z"/>
  <path d="M455.4 305.3 c0.8 -2.1 3.2 -8.4 5.5 -14.1 7.4 -18.5 11.1 -24.2 11.1 -17.2 0 3.1 -3.8 12 -5.2 12 -0.4 0 -0.8 1.1 -0.8 2.5 0 1.4 -0.4 2.5 -1 2.5 -0.5 0 -1 1.1 -1 2.5 0 1.4 -0.4 2.5 -1 2.5 -0.5 0 -1 1.1 -1 2.5 0 1.4 -0.4 2.5 -0.9 2.5 -0.5 0 -1.1 1.8 -1.5 4 -0.5 3.4 -1 4 -3.1 4 -2.4 0 -2.4 -0.1 -1.1 -3.7z"/>
  <path d="M492 283.5 c0 -1.9 0.4 -3.5 0.9 -3.5 0.5 0 1.1 -1.8 1.5 -3.9 0.3 -2.2 1.3 -4.6 2.1 -5.5 0.8 -0.8 1.5 -2.4 1.5 -3.5 0 -1.2 0.4 -2.1 0.9 -2.1 0.5 0 1.1 -1.8 1.5 -4 0.3 -2.2 1 -4 1.5 -4 0.5 0 1.1 -1.8 1.5 -4 0.3 -2.2 1.1 -4 1.6 -4 0.6 0 1 -1.1 1 -2.5 0 -1.4 0.5 -2.5 1 -2.5 0.6 0 1 -1.1 1 -2.5 0 -1.4 0.4 -2.5 0.8 -2.5 0.5 0 1.5 -2.9 2.2 -6.5 1.2 -5.8 1.6 -6.5 3.8 -6.5 2.1 0 2.3 0.3 1.7 2.7 -0.7 2.8 -17.2 46.1 -20.6 54.1 -2.2 5.1 -3.9 5.4 -3.9 0.7z"/>
  <path d="M545.2 269.8 c-0.6 -3.5 -1.4 -8.7 -1.8 -11.5 -0.6 -5 -0.5 -5.3 1.5 -5.3 2 0 2.1 0.4 2.1 11.5 0 6.3 -0.1 11.5 -0.3 11.5 -0.2 0 -0.9 -2.8 -1.5 -6.2z"/>
  <path d="M471.9 266.8 c2.8 -7.3 6.1 -13.8 7 -13.8 1.7 0 1.3 6.7 -0.4 8.4 -0.8 0.8 -1.5 2.1 -1.5 2.9 0 3 -1.3 4.7 -3.6 4.7 -2 0 -2.2 -0.3 -1.5 -2.2z"/>
  <path d="M330 262.5 c0 -2.4 0.5 -3.5 1.5 -3.5 1 0 1.5 -1 1.5 -2.9 0 -4.5 1 -6.1 3.6 -6.1 1.3 0 2.4 0.2 2.4 0.4 0 1.4 -7.3 15.6 -8 15.6 -0.6 0 -1 -1.6 -1 -3.5z"/>
  <path d="M319 252.6 c0 -1.4 2.9 -2.6 6.8 -2.6 1.5 0 2.2 0.6 2.2 2 0 1.7 -0.7 2 -4.5 2 -3.2 0 -4.5 -0.4 -4.5 -1.4z"/>
  <path d="M480.6 245.3 c1.5 -3.8 3.4 -9.1 4.3 -12 1.6 -5.3 2.8 -6.3 7.9 -6.3 1.5 0 2.2 0.6 2.2 2 0 1.5 -0.7 2 -2.9 2 -2.5 0 -2.9 0.4 -3.5 4 -0.3 2.2 -1.1 4 -1.6 4 -0.6 0 -1 1.1 -1 2.5 0 1.4 -0.4 2.5 -0.9 2.5 -0.5 0 -1.1 1.8 -1.5 4 -0.5 3.4 -1 4 -3.1 4 l-2.5 0 2.6 -6.7z"/>
  <path d="M543.7 245.9 c-0.4 -3.5 -0.1 -6.3 1 -9 1.8 -4.5 1.4 -13.5 -0.9 -20.4 -1 -3.1 -2 -4.1 -4.5 -4.9 -4.7 -1.3 -4.3 -3.6 0.7 -3.6 3.9 0 4 0.1 4 3.5 0 2.8 0.4 3.5 2 3.5 1.1 0 2 -0.7 2 -1.5 0 -0.8 0.6 -1.5 1.4 -1.5 1.4 0 2.2 2.8 4.2 14.3 0.6 3.3 0.4 3.7 -1.5 3.7 -1.2 0 -2.1 0.6 -2.1 1.5 0 0.8 0.9 1.5 2 1.5 2.6 0 2.5 0.5 -0.9 5.9 -1.6 2.5 -3.2 6.3 -3.5 8.4 -1 5.5 -3.2 4.7 -3.9 -1.4z"/>
  <path d="M383.5 242.2 c-6 -0.6 -14 -3.5 -23.5 -8.2 -5.3 -2.6 -11.6 -5.4 -14 -6 l-4.5 -1.3 3 -0.9 c4.6 -1.4 12.6 -0.1 19.9 3.2 3.6 1.6 8.4 3.5 10.6 4.1 2.6 0.8 4 1.8 4 2.9 0 1.8 4.2 3 10.3 3 2.7 0 4.1 2.9 1.5 3.1 -0.7 0 -2 0.1 -2.8 0.3 -0.8 0.1 -2.8 0 -4.5 -0.2z"/>
  <path d="M393 240.2 c0 -1.8 0.8 -2.2 5 -2.8 2.8 -0.4 5 -1 5 -1.5 0 -0.5 1.3 -0.9 2.9 -0.9 2.3 0 3 -0.5 3.3 -2.2 0.2 -1.9 1 -2.3 4.3 -2.6 l4 -0.2 -3.8 3.4 c-4.6 4.1 -11.1 7.3 -16.6 8.2 -3.7 0.6 -4.1 0.4 -4.1 -1.4z"/>
  <path d="M386 235.6 c0 -0.9 1.9 -1.8 5 -2.5 6.7 -1.4 7 -1.4 7 0.8 0 1.4 -1 2 -3.7 2.5 -6 0.9 -8.3 0.7 -8.3 -0.8z"/>
  <path d="M399 232.7 c0 -0.8 1.6 -1.8 3.5 -2.4 3.3 -1.1 3.5 -1 3.5 1.3 0 2.1 -0.5 2.4 -3.5 2.4 -2.2 0 -3.5 -0.5 -3.5 -1.3z"/>
  <path d="M500 228.6 c0 -1.6 3 -2.6 7.8 -2.6 2.5 0 3.2 0.4 3.2 2 0 1.8 -0.7 2 -5.5 2 -4 0 -5.5 -0.4 -5.5 -1.4z"/>
  <path d="M413.4 223.5 c5.9 -5.7 7.6 -6.6 7.6 -4 0 1.1 0.8 1.3 3.3 0.8 4.2 -0.8 4.7 -1.3 1.4 -1.3 -4.4 0 -3.2 -2.6 1.7 -3.9 5 -1.2 37.7 -6.3 38.1 -5.9 0.2 0.2 0.6 1.7 0.9 3.4 0.6 2.7 0.4 3.2 -1.6 3.8 -3.8 1 -4.6 0.7 -5.1 -1.6 l-0.4 -2.3 -0.8 2.2 c-0.8 2.4 -1.8 2.7 -13.5 4.2 -10 1.4 -16.5 3.4 -22.2 7 -4.4 2.8 -4.8 2.9 -4.8 1.1 0 -1.1 -0.7 -2 -1.5 -2 -0.8 0 -1.5 0.9 -1.5 2 0 1.6 -0.7 2 -3.7 2 l-3.7 0 5.8 -5.5z"/>
  <path d="M467.6 212.9 c-0.7 -3.8 -0.8 -3.7 3.1 -4.5 2.8 -0.5 3.1 -0.3 3.7 2.7 0.7 3.8 0.8 3.7 -3.1 4.5 -2.8 0.5 -3.1 0.3 -3.7 -2.7z"/>
  <path d="M476 211.7 c0 -2.8 0.5 -3.6 2.3 -4.1 3.8 -1 5.5 -0.7 6 1.2 0.4 1.4 0.5 1.5 0.6 0.1 0.1 -1.6 2.8 -2.9 6.4 -2.9 1 0 1.7 0.8 1.7 2 0 1.1 -0.4 2 -1 2 -0.5 0 -1 0.6 -1 1.4 0 1.5 -1.8 2 -10.2 3.2 l-4.8 0.6 0 -3.5z"/>
  <path d="M494 209.6 c0 -2.6 0.5 -3.5 2.3 -4 4.7 -1.2 5.7 -0.8 5.7 2.8 0 2.6 -0.5 3.5 -2.2 4 -4.8 1.2 -5.8 0.8 -5.8 -2.8z"/>
  <path d="M504.6 208.8 c-0.3 -1.7 -0.4 -3.3 -0.2 -3.5 0.2 -0.3 2.3 -0.7 4.5 -1 3.7 -0.5 4.1 -0.3 4.1 1.6 0 1.6 0.6 2.1 2.5 2.1 3.1 0 3.3 2.5 0.3 3.4 -1.3 0.3 -4.2 0.6 -6.4 0.6 -3.9 0 -4.2 -0.2 -4.8 -3.2z"/>
  <path d="M545 206 c0 -4.3 2.6 -3.6 4.3 1.3 0.5 1.3 0.1 1.7 -1.8 1.7 -2.1 0 -2.5 -0.5 -2.5 -3z"/>
  <path d="M519 205.6 c0 -1.6 3 -2.6 8.3 -2.6 3 0 3.7 0.4 3.7 2 0 1.8 -0.7 2 -6 2 -4.4 0 -6 -0.4 -6 -1.4z"/>
  <path d="M458.9 187.7 c-7.8 -8.3 -9.3 -10.6 -15.3 -23.2 -3.7 -7.7 -7.8 -15.2 -9.2 -16.6 -4.4 -4.6 -15.3 -8.8 -29.1 -11.4 -19.4 -3.5 -32.8 -8.9 -43 -17.2 -11.4 -9.3 -28.9 -18.5 -43.3 -22.7 -3 -0.9 -9.1 -1.9 -13.5 -2.2 l-8.1 -0.7 -15.2 6.1 -15.2 6 2.9 -3.7 c5.9 -7.4 20.2 -20.2 24.9 -22.2 2.5 -1.1 8.2 -2.8 12.4 -3.8 9.2 -2.2 13.1 -1.7 23.3 2.9 3.9 1.7 17.4 6.7 30 11 72.9 24.9 75.9 26.4 84 40.6 8 14.1 12.6 20.4 21.9 30.2 5.7 5.9 11.2 12.5 12.3 14.7 2.1 4.2 6.8 19.4 6.2 20 -0.2 0.1 -4.2 0.5 -8.9 0.8 l-8.5 0.6 -8.6 -9.2z m-0.6 -15.8 c1.7 -2.7 -1.7 -7.1 -5.1 -6.7 -3.5 0.4 -4.1 3.9 -1.2 6.8 2.4 2.4 4.8 2.3 6.3 -0.1z"/>
 </g>
 <g fill="#f1cc60">
  <path d="M284.5 349 c-6.6 -1.4 -11.8 -4 -15.8 -7.8 -4.3 -4.2 -4.5 -5.7 -1.6 -11.4 7.7 -15.1 28.5 -65 30.4 -73 0.5 -2.1 1.5 -2.9 3.9 -3.3 10.8 -1.8 17.3 -2.6 26.9 -3.1 l10.7 -0.7 -5 11.4 c-2.8 6.3 -8.5 19.5 -12.7 29.4 -4.1 9.9 -8.9 21.2 -10.6 25 -1.7 3.9 -5.4 13.1 -8.3 20.5 l-5.1 13.5 -4.4 0.2 c-2.4 0.1 -6.2 -0.3 -8.4 -0.7z"/>
  <path d="M467 318.2 c-6.7 -1.8 -13 -5.4 -13 -7.6 0 -2 7.7 -21.2 15 -37.1 7.6 -16.8 17 -40.8 17 -43.7 0 -1 0.3 -1.8 0.8 -1.8 0.4 0 6.6 -0.5 13.7 -1 7.2 -0.5 13.8 -0.7 14.7 -0.4 2.2 0.7 2.2 0.8 -21.7 61.9 -3.6 9.4 -7.8 20.2 -9.3 24 -2.7 7 -2.8 7 -6.7 7.2 -2.2 0.1 -6.9 -0.5 -10.5 -1.5z"/>
  <path d="M380.5 241.5 c-0.5 -0.2 -2.2 -0.6 -3.7 -0.9 -2.4 -0.5 -2.8 -1.2 -2.8 -3.9 l0 -3.2 6.6 0.3 c7.4 0.4 19.9 -2 25.7 -5 2.1 -1 6.2 -4.1 9.2 -6.8 5.7 -5.2 8.2 -6.2 21.8 -8.6 10.5 -1.8 10.7 -1.8 10.7 0.6 0 1.1 -0.4 2 -1 2 -0.5 0 -1 0.7 -1 1.5 0 1 -1 1.5 -2.7 1.5 -3.3 0 -11.3 2.1 -16.3 4.2 -1.9 0.8 -6.4 4.1 -10 7.2 -7.5 6.6 -10.6 8.4 -17.5 10.2 -4.5 1.2 -16.4 1.8 -19 0.9z"/>
  <path d="M545.5 239.1 c-0.3 -1 -0.1 -3 0.5 -4.5 0.5 -1.5 1 -5.2 1 -8.2 0 -3 0.4 -5.4 0.9 -5.4 0.4 0 0.6 -1.1 0.3 -2.5 -0.3 -1.5 -1.1 -2.5 -2.2 -2.5 -1 0 -2.5 -1.2 -3.5 -2.6 l-1.7 -2.6 -27.6 0.2 c-34 0.3 -32.2 0.4 -32.2 -1.8 0 -1.6 1.5 -2 12 -3.1 15 -1.5 38.3 -3.1 47.2 -3.1 6.5 0 6.8 0.1 8.3 3.1 1.7 3.1 5.5 21 5.5 25.4 0 3.3 -4 9.5 -6.2 9.5 -0.9 0 -1.9 -0.8 -2.3 -1.9z"/>
  <path d="M453 212.6 c0 -0.7 1 -1.6 2.3 -2 4.1 -1.1 5.7 -0.7 5.7 1.4 0 1.7 -0.7 2 -4 2 -2.7 0 -4 -0.4 -4 -1.4z"/>
  <path d="M462.2 211.3 c0.2 -1.2 1.4 -1.9 3.6 -2.1 2.7 -0.3 3.2 0 3.2 1.7 0 1.7 -0.6 2.1 -3.6 2.1 -2.8 0 -3.5 -0.3 -3.2 -1.7z"/>
 </g>
 <g fill="#e7ce6f">
  <path d="M307.5 321 c0.9 -3 3.4 -8 4 -8 0.4 0 -3.5 9.2 -4.3 10 -0.2 0.3 -0.1 -0.6 0.3 -2z"/>
  <path d="M456.8 313.7 c-2.9 -2.4 -3.6 -5.1 -1.7 -6.3 0.8 -0.4 0.9 0 0.4 1.5 -0.5 1.5 0.1 2.7 2.2 4.6 3.5 3.1 2.8 3.2 -0.9 0.2z"/>
  <path d="M287.7 283.2 c0.3 -1.2 0.9 -2.5 1.4 -2.8 1.4 -0.8 1.1 1 -0.6 3.2 -1.3 1.8 -1.4 1.8 -0.8 -0.4z"/>
  <path d="M324.4 280.5 c1 -2.2 2.2 -4.4 2.7 -5 0.6 -0.5 0.2 0.9 -0.9 3.3 -2.5 5.5 -3.9 6.9 -1.8 1.7z"/>
  <path d="M544.7 264 c-2.2 -14.9 -2.2 -20.7 0.4 -27.1 1.8 -4.8 1.9 -5.9 0.9 -12 -0.7 -3.8 -2 -8.4 -3 -10.3 -2 -4 -1.9 -4.2 1 -2.4 1.6 1 2.3 1 3.5 -0.3 2.3 -2.3 0.1 -6.9 -3.3 -6.9 -1.4 0 -2.2 -0.3 -1.8 -0.7 2.7 -2.7 7 1.6 8.1 8 0.3 1.7 1 4.7 1.5 6.5 0.6 2.4 0.5 3.6 -0.6 4.6 -0.8 0.8 -1.4 3.2 -1.4 5.3 0 2.1 -0.4 4.4 -0.9 5.2 -1.1 1.7 -0.3 4.3 1 3.5 1.3 -0.8 1.1 0.3 -0.8 3.9 -1.4 2.5 -1.9 6.5 -2.3 18.7 l-0.5 15.5 -1.8 -11.5z"/>
  <path d="M499.5 270.1 c0.7 -3.2 5.2 -13.1 6 -13.1 0.4 0 -5.5 15.3 -6.2 16 -0.3 0.3 -0.2 -1 0.2 -2.9z"/>
  <path d="M333.6 260 c0.4 -1.4 1.3 -3.6 2.1 -5 l1.4 -2.5 -0.7 2.5 c-0.4 1.4 -1.3 3.6 -2.1 5 l-1.4 2.5 0.7 -2.5z"/>
  <path d="M509 246 c0 -0.8 0.5 -2.2 1 -3 0.9 -1.3 1 -1.3 1 0 0 0.8 -0.5 2.2 -1 3 -0.9 1.3 -1 1.3 -1 0z"/>
  <path d="M376.1 240.4 c-2.9 -0.8 -9 -3.3 -13.5 -5.5 -4.4 -2.3 -10.8 -5.2 -14.1 -6.5 l-6 -2.3 7.3 -0.1 c6.3 0 8.4 0.5 17 4.2 5.3 2.3 11.1 4.5 12.7 4.9 l3 0.7 -2.8 0.1 c-3.3 0.1 -2.7 2.1 0.7 2.1 1.2 0 2.6 0.3 2.9 0.7 1.6 1.6 13 1.8 18.4 0.4 2.2 -0.6 5.8 -2.3 7.9 -3.7 2.1 -1.5 3.2 -1.9 2.4 -1 -5.3 6.4 -23.2 9.4 -35.9 6z"/>
  <path d="M512.1 239.7 c-0.2 -1.7 3.3 -12.7 4 -12.7 0.4 0 0 2.4 -1 5.3 -2.5 7.2 -2.9 8.3 -3 7.4z"/>
  <path d="M415.3 231.4 c0.9 -1.1 1.7 -2.4 1.7 -2.9 0 -0.4 -0.8 -0.2 -1.7 0.6 -1.7 1.2 -1.7 1.2 -0.2 -0.5 0.9 -0.9 2.4 -1.8 3.3 -2 1 -0.1 2.1 -0.8 2.6 -1.5 0.4 -0.8 1.2 -1.2 1.8 -1 0.5 0.2 -1.3 2.4 -4.2 4.9 -2.8 2.4 -4.3 3.5 -3.3 2.4z"/>
  <path d="M486 229.2 c0 -0.6 2.8 -1.3 6.3 -1.6 16.1 -1.4 20.6 -1.5 21.1 -0.7 0.3 0.4 -4.7 1.1 -11.2 1.5 -6.4 0.4 -12.7 1 -13.9 1.3 -1.3 0.3 -2.3 0.1 -2.3 -0.5z"/>
  <path d="M415.9 221.6 c1.7 -2 8.1 -5.7 8.1 -4.7 0 0.5 -1.3 1.4 -3 2.1 -1.6 0.7 -3 1.6 -3 2 0 0.4 -0.7 1.1 -1.6 1.4 -1.4 0.5 -1.5 0.4 -0.5 -0.8z"/>
  <path d="M427.9 222.1 c0.8 -0.5 1 -1.4 0.5 -2.2 -0.6 -1.1 -0.4 -1.1 1 0 1.3 1.1 1.4 1.6 0.4 2.2 -0.7 0.5 -1.7 0.9 -2.3 0.9 -0.5 0 -0.4 -0.4 0.4 -0.9z"/>
  <path d="M436 219.3 c0 -0.5 1.2 -1 2.7 -1.1 1.5 -0.1 3.2 -0.7 3.8 -1.4 0.7 -0.8 0.6 -0.9 -0.2 -0.4 -0.7 0.4 -1.3 0.2 -1.3 -0.3 0 -0.6 -1.9 -1.1 -4.2 -1.2 -3.7 -0.1 -4 -0.2 -1.7 -0.9 1.5 -0.4 4.6 -1 7 -1.3 2.4 -0.3 7.8 -1.1 11.9 -1.7 11.8 -1.7 14 -2 22 -3 4.1 -0.4 7.7 -0.7 8.1 -0.4 0.3 0.2 2 -0.1 3.8 -0.6 1.7 -0.5 3.1 -0.5 3.1 0 0 0.8 14.1 1.8 35.4 2.5 7.1 0.3 13.1 0.7 13.4 1 0.3 0.3 -6 0.5 -13.9 0.5 -7.9 0 -20.7 0.7 -28.4 1.5 -17.3 1.8 -55 6.3 -58.7 7.1 -1.6 0.3 -2.8 0.2 -2.8 -0.3z"/>
  <path d="M505.3 205.3 c1.5 -0.2 3.7 -0.2 5 0 1.2 0.2 0 0.4 -2.8 0.4 -2.7 0 -3.8 -0.2 -2.2 -0.4z"/>
  <path d="M524.1 203.9 c4.2 -0.4 9.8 -0.4 12.5 0 3.8 0.7 2.2 0.9 -7.6 0.8 -12 0 -12.2 0 -4.9 -0.8z"/>
 </g>
</svg>