<?xml version="1.0" encoding="utf-8"?>
<!DOCTYPE svg PUBLIC "-//W3C//DTD SVG 1.1//EN" "http://www.w3.org/Graphics/SVG/1.1/DTD/svg11.dtd">
<svg version="1.1" xmlns="http://www.w3.org/2000/svg" width="500px" height="500px" viewBox="0 0 500 500" preserveAspectRatio="xMidYMid meet">
 <g fill="#edc23f">
  <path d="M200 339.5 c0 -3.3 0.2 -3.5 3.5 -3.5 3.3 0 3.5 0.2 3.5 3.5 0 3.3 -0.2 3.5 -3.5 3.5 -3.3 0 -3.5 -0.2 -3.5 -3.5z"/>
  <path d="M227.5 333 c-5.1 -1.3 -8 -2.7 -11.3 -5.5 -2.7 -2.2 -3.2 -3.4 -3.2 -6.9 0 -2.3 0.4 -4.6 0.9 -5.1 1.3 -1.5 14.8 -32.5 19.7 -45.4 2.3 -6.2 4.5 -11.5 4.7 -11.7 0.9 -1 11.7 -2.4 22.7 -3 l12 -0.7 0 3.2 c0 1.8 -1.3 6.3 -2.9 9.9 -5.2 11.9 -25.8 61.6 -26.5 64 -0.7 2 -1.3 2.2 -6.9 2.1 -3.4 -0.1 -7.5 -0.5 -9.2 -0.9z"/>
  <path d="M359.5 310.6 c-6.4 -2 -9.5 -4.5 -9.5 -7.5 0 -2.8 5.9 -18.2 13.5 -35.1 2.6 -5.8 6.2 -14.5 8 -19.5 l3.2 -9 4.9 -0.7 c2.7 -0.3 9.1 -0.7 14.2 -0.7 l9.2 -0.1 0 3.3 c0 1.8 -4 13.3 -8.8 25.7 -4.9 12.4 -10.8 27.6 -13.2 33.8 l-4.3 11.2 -6.6 -0.1 c-3.6 0 -8.4 -0.6 -10.6 -1.3z"/>
  <path d="M416.6 268.8 c-0.9 -8.2 -0.7 -19.4 0.5 -24 1 -3.7 0.9 -4.9 -0.7 -8.3 -2.3 -4.9 -3.8 -5.2 -21.4 -3.5 -48.1 4.4 -58.6 6.6 -64.7 13 -6.4 6.6 -11.9 8.5 -24.8 8.5 l-11.1 0 -10.7 -5 c-10.3 -4.8 -10.7 -5.1 -10.7 -8.2 l0 -3.3 6.8 0 c5.1 0 8.6 0.7 14.5 3 l7.8 3.1 6.2 -1.7 c8 -2.2 10.5 -3.5 14.1 -7.3 1.6 -1.7 5 -3.7 7.5 -4.5 10.4 -3.3 49.9 -8 77.7 -9.2 l16.2 -0.6 1.5 2.3 c2 3.1 3.7 12.6 3.7 20.7 0 4.8 -0.5 7.3 -2.1 9.9 -1.6 2.5 -2.3 5.7 -2.7 11.9 l-0.5 8.4 -3.2 0 c-3.1 0 -3.2 -0.1 -3.9 -5.2z"/>
  <path d="M351 149.2 c0 -1.1 8.8 -8.6 13.1 -11.1 1.9 -1.1 5.1 -4.1 7.3 -6.7 3 -3.6 3.6 -4.8 2.5 -5.5 -1.1 -0.6 -0.8 -1.3 1.1 -3.4 2.1 -2.2 3 -2.5 5.8 -2 1.8 0.3 3.9 0.2 4.5 -0.3 0.7 -0.5 4.5 -2.2 8.6 -3.8 5.6 -2.2 8.6 -4.1 12.2 -7.8 3.2 -3.3 5.2 -4.7 6.3 -4.3 5.2 2 -2.9 12.3 -13.5 17.2 -7.9 3.6 -7.6 3.4 -5.9 4.5 0.8 0.5 1.2 1 1 1.2 -4.1 2.7 -9 4.4 -10.4 3.6 -1.2 -0.7 -3.1 0.7 -8.3 6.3 -4.3 4.5 -8.8 8.1 -12.5 10 -5.5 2.8 -11.8 3.9 -11.8 2.1z"/>
  <path d="M8.8 143 c-2.6 -1.6 -2.2 -3.9 0.8 -5 1.4 -0.6 9 -1 16.8 -1 11.8 0 14.6 0.3 15.6 1.6 1.1 1.2 1 1.8 -0.4 3.2 -1.4 1.4 -4.1 1.7 -16.4 2 -9.1 0.1 -15.4 -0.2 -16.4 -0.8z"/>
  <path d="M72.2 127.8 c-1.5 -1.5 -1.5 -4.8 -0.1 -8.5 0.8 -2.2 0.7 -3 -0.6 -3.9 -1.4 -1.1 -1.4 -1.5 0.6 -4.8 1.6 -2.8 2.6 -3.5 4 -3.1 1.1 0.4 1.9 0.2 1.9 -0.3 0 -2.1 11.7 -13.5 18.6 -18.1 13.6 -9.1 20.9 -9.6 27.7 -2.1 1.9 2.2 4.4 4 5.4 4 1 0 4 -1.8 6.7 -4 2.6 -2.2 5 -4 5.1 -4 0.2 0 1.1 0.7 1.9 1.6 1.4 1.3 1.4 1.9 0.1 4.3 -3.1 6.1 -11.1 10.3 -16.4 8.6 -1.2 -0.3 -4.2 -2.4 -6.7 -4.6 -2.5 -2.1 -5.5 -3.9 -6.7 -3.9 -3 0 -13.1 5.3 -18.3 9.5 -5.9 4.9 -12.2 12.7 -10.6 13.2 1.7 0.6 1.5 3 -0.5 6.4 -1.1 1.8 -2.3 2.7 -3.3 2.4 -1 -0.3 -2.2 1 -3.5 3.8 -2.2 4.5 -3.4 5.4 -5.3 3.5z"/>
  <path d="M435.2 107.8 c0.2 -1.8 2.9 -3.6 12.8 -8.5 13.4 -6.6 26.5 -11.4 28.7 -10.6 0.8 0.3 1.3 1.5 1.1 2.7 -0.4 2.5 -7.4 6.2 -26.1 13.6 -14.5 5.7 -17 6.1 -16.5 2.8z"/>
 </g>
 <g fill="#bfaa71">
  <path d="M403.3 388.4 c-1.1 -3 0.8 -18.6 2.8 -22.5 5 -9.9 5.4 -17.7 1.5 -28.8 -3.4 -9.4 -1.7 -14.1 5.1 -14.1 2.6 0 3.2 0.9 10.1 15.3 3.9 8.4 7.2 16.3 7.2 17.6 0 3.9 -2.2 11.5 -4.3 14.6 -1.1 1.7 -4.6 5.7 -7.7 9 -3.2 3.3 -6 7 -6.4 8.3 -0.6 1.7 -1.5 2.2 -4.2 2.2 -2.2 0 -3.7 -0.6 -4.1 -1.6z"/>
  <path d="M200.3 342.5 c-0.7 -0.8 -1.3 -2.8 -1.3 -4.5 0 -2.7 0.3 -3 3.1 -3 1.7 0 3.7 0.6 4.5 1.4 0.8 0.8 1.4 2.8 1.4 4.5 0 2.8 -0.3 3.1 -3.2 3.1 -1.8 -0.1 -3.9 -0.7 -4.5 -1.5z"/>
  <path d="M229 333 c0 -0.5 -1.6 -1 -3.5 -1 -1.9 0 -3.5 -0.4 -3.5 -1 0 -0.5 -0.9 -1 -2 -1 -1.6 0 -2 -0.7 -2 -3.1 l0 -3 2.8 1.9 c3.1 2.1 7.3 3.8 12 4.7 4.5 0.9 4.3 3.5 -0.3 3.5 -1.9 0 -3.5 -0.4 -3.5 -1z"/>
  <path d="M240.7 328.3 c0.6 -1.7 24.4 -58.9 27.7 -66.5 1.6 -3.7 1.6 -3.8 -0.4 -3.8 -1.1 0 -2 -0.4 -2 -1 0 -0.5 1.6 -1 3.5 -1 3.3 0 3.5 0.2 3.5 3.5 0 2.4 -0.5 3.5 -1.5 3.5 -1 0 -1.5 1 -1.5 3.4 0 1.9 -0.7 4.1 -1.5 5 -0.8 0.8 -1.5 2.4 -1.5 3.5 0 1.2 -0.4 2.1 -1 2.1 -0.5 0 -1 1.1 -1 2.4 0 1.4 -0.7 3.1 -1.5 4 -0.8 0.8 -1.5 2.4 -1.5 3.5 0 1.2 -0.6 2.1 -1.5 2.1 -1 0 -1.5 1.1 -1.5 3.5 0 1.9 -0.4 3.5 -1 3.5 -0.5 0 -1 1.1 -1 2.5 0 1.4 -0.4 2.5 -1 2.5 -0.5 0 -1 1.1 -1 2.4 0 1.4 -0.7 3.1 -1.5 4 -0.8 0.8 -1.5 2.4 -1.5 3.5 0 1.2 -0.4 2.1 -1 2.1 -0.5 0 -1 0.9 -1 1.9 0 3 -1.1 5.1 -2.6 5.1 -0.9 0 -1.4 1.1 -1.4 2.8 0 5.1 -1.1 7.2 -3.6 7.2 -1.8 0 -2.2 -0.4 -1.7 -1.7z"/>
  <path d="M214 317.6 c0 -1.9 0.7 -4.1 1.5 -5 0.8 -0.8 1.5 -2.1 1.5 -2.9 0 -3 1.3 -4.7 3.6 -4.7 2.7 0 2.6 0.6 -2.2 10.5 -2.9 6.3 -4.4 7 -4.4 2.1z"/>
  <path d="M360.3 311.3 c-1.3 -0.2 -2.3 -1.1 -2.3 -1.9 0 -0.9 -1.1 -1.4 -2.9 -1.4 -2.8 0 -3 -0.2 -3.7 -5.6 -0.4 -3.4 -0.3 -5.9 0.3 -6.3 0.6 -0.3 1.3 -2.3 1.7 -4.3 0.4 -2.1 1.1 -3.8 1.6 -3.8 0.6 0 1 -1.1 1 -2.5 0 -1.6 0.6 -2.5 1.5 -2.5 1 0 1.5 -1 1.5 -3 0 -3.2 2.9 -10 4.2 -10 0.4 0 0.8 -0.9 0.8 -1.9 0 -3 1.1 -5.1 2.6 -5.1 0.8 0 1.4 -1 1.4 -2.6 0 -3.3 2.1 -10.4 3 -10.4 0.4 0 1 -1.8 1.4 -4 0.5 -3.4 1 -4 3.1 -4 l2.4 0 -3.3 9.3 c-1.9 5 -5.5 13.9 -8.1 19.7 -2.6 5.8 -6.6 15.3 -9 21.2 l-4.3 10.8 3.2 1.9 c1.7 1.1 5.2 2.5 7.9 3.1 8.4 2.2 4.9 5 -4 3.3z"/>
  <path d="M371 310 c0 -0.5 0.6 -1 1.4 -1 0.8 0 4.3 -7.7 9.1 -20.2 9.9 -25.8 11.2 -28.8 12.5 -28.8 0.5 0 1 1.6 1 3.5 0 1.9 -0.4 3.5 -1 3.5 -0.5 0 -1 1.1 -1 2.5 0 1.4 -0.4 2.5 -1 2.5 -0.5 0 -1 1.1 -1 2.5 0 1.4 -0.4 2.5 -1 2.5 -0.5 0 -1 1.1 -1 2.5 0 1.4 -0.4 2.5 -1 2.5 -0.5 0 -1 0.8 -1 1.8 0 2.5 -4.2 14.2 -5.2 14.2 -0.4 0 -0.8 1.1 -0.8 2.5 0 1.4 -0.4 2.5 -0.9 2.5 -0.5 0 -1.1 1.8 -1.5 4 -0.6 3.8 -0.8 4 -4.1 4 -1.9 0 -3.5 -0.4 -3.5 -1z"/>
  <path d="M222 299.7 c0 -2 0.7 -4.2 1.5 -5.1 0.8 -0.8 1.5 -2.1 1.5 -2.9 0 -2.6 1.2 -4.7 2.6 -4.7 0.9 0 1.4 -1.2 1.4 -3.5 0 -1.9 0.5 -3.5 1 -3.5 0.6 0 1 -1.1 1 -2.5 0 -2 0.5 -2.5 2.5 -2.5 l2.5 0 -1.9 4.8 c-5 12.5 -9.8 22.6 -10.9 23 -0.8 0.2 -1.2 -0.8 -1.2 -3.1z"/>
  <path d="M416.2 270.1 c-1.5 -11.1 -1.5 -16 0 -23.2 0.9 -4.5 0.9 -6.6 -0.1 -9.8 -1.1 -3.8 -1.5 -4.1 -4.6 -4.1 -2.9 0 -3.5 -0.4 -3.5 -2.1 0 -1.8 0.5 -2 4.7 -1.7 4.5 0.3 4.9 0.6 6.7 4.3 1.8 3.9 1.8 7.9 0 18.8 -0.3 2.1 -0.3 7.2 0.2 11.5 l0.8 7.7 0.7 -8.7 c0.5 -6.2 1.4 -9.8 2.8 -12.2 1.2 -1.8 2.1 -4.5 2.1 -6 0 -1.9 0.5 -2.6 2 -2.6 1.6 0 2 0.7 2 3.5 0 2.3 -0.5 3.5 -1.4 3.5 -1.3 0 -1.8 1.7 -3.2 11.3 -0.4 2 -1 3.7 -1.4 3.7 -0.5 0 -0.6 3.4 -0.3 7.5 l0.6 7.5 -3.5 0 -3.4 0 -1.2 -8.9z"/>
  <path d="M234 270.6 c0 -3.2 0.3 -3.6 2.5 -3.6 2.4 0 2.5 0.1 1.2 3.2 -1.9 4.6 -3.7 4.8 -3.7 0.4z"/>
  <path d="M237 262.5 c0 -2.4 0.5 -3.5 1.4 -3.5 0.8 0 1.6 -0.4 1.8 -0.9 0.2 -0.5 3.1 -1.3 6.6 -1.7 5.2 -0.5 6.2 -0.4 6.2 0.9 0 0.9 -1.2 1.8 -3 2.1 -1.6 0.3 -4.3 0.8 -5.9 1.1 -1.7 0.4 -3.3 1.6 -3.9 3 -1.6 3.6 -3.2 3.1 -3.2 -1z"/>
  <path d="M255 257 c0 -1.7 0.7 -2 4.5 -2 4.9 0 6.4 2.3 2.3 3.4 -4.5 1.2 -6.8 0.7 -6.8 -1.4z"/>
  <path d="M395 254 c4 -10.1 4.9 -12 5.9 -12 0.6 0 1.1 1.6 1.1 3.5 0 1.9 -0.4 3.5 -1 3.5 -0.5 0 -1 1.1 -1 2.5 0 1.4 -0.4 2.5 -1 2.5 -0.5 0 -1 1.1 -1 2.5 0 2 -0.5 2.5 -2.5 2.5 l-2.5 0 2 -5z"/>
  <path d="M294 254.6 c-1.9 -0.7 -6.6 -2.9 -10.5 -4.8 -3.8 -1.9 -8.3 -3.8 -9.8 -4.2 -2.5 -0.6 -2.8 -1 -2.5 -4.4 l0.3 -3.7 6.8 -0.3 c4.2 -0.2 6.7 0.1 6.7 0.8 0 0.5 1.4 1 3 1 1.7 0 3 0.5 3 1 0 0.6 1.1 1 2.5 1 1.4 0 2.5 0.5 2.5 1 0 0.6 3 1 7 1 5.3 0 7 0.3 7 1.4 0 3.5 -9.4 3.3 -19 -0.4 -4.1 -1.7 -9.3 -3 -11.5 -3 -3.8 0 -3.6 0.2 6.5 5.2 10.1 5 10.8 5.2 19 5.2 10.1 0.1 16.3 -2.3 22.3 -8.4 5 -5.3 12.4 -7.4 34.8 -10 21.4 -2.4 20.9 -2.4 20.9 -0.2 0 1.6 -1.4 2 -10.7 3 -29.2 3.1 -38.8 5.5 -41.7 10.3 -4.4 7.4 -25.9 12.4 -36.6 8.5z"/>
  <path d="M314 242.2 c0 -2.2 3.9 -4.2 8.2 -4.2 2.6 0 2.9 0.2 1.7 1.6 -1.6 1.9 -6.3 4.4 -8.4 4.4 -0.8 0 -1.5 -0.8 -1.5 -1.8z"/>
  <path d="M380 240 c0 -1.7 0.7 -2 4.5 -2 4.9 0 6.4 2.3 2.3 3.4 -4.5 1.2 -6.8 0.7 -6.8 -1.4z"/>
  <path d="M425.5 237.3 c-1.3 -7.6 -3 -11.8 -5.2 -12.8 -3.8 -1.6 -2.8 -3.7 1.5 -3.3 3.3 0.3 3.8 0.7 5 4.2 0.7 2.2 1.5 6.6 1.9 9.8 0.5 4.9 0.3 5.8 -1 5.8 -1.1 0 -1.8 -1.2 -2.2 -3.7z"/>
  <path d="M329 232.5 c0 -1.5 0.7 -2.5 2.3 -2.8 3.9 -1 28.5 -4.7 31.1 -4.7 3.9 0 3.3 2.8 -0.6 3.4 -1.8 0.3 -8 1.3 -13.8 2.1 -5.8 0.9 -12.4 2.2 -14.7 3 -4.2 1.4 -4.3 1.3 -4.3 -1z"/>
  <path d="M384 232.6 c0 -1.4 2.9 -2.6 6.8 -2.6 1.5 0 2.2 0.6 2.2 2 0 1.7 -0.7 2 -4.5 2 -3.2 0 -4.5 -0.4 -4.5 -1.4z"/>
  <path d="M394 231.6 c0 -1.6 3 -2.6 8.3 -2.6 3 0 3.7 0.4 3.7 2 0 1.8 -0.7 2 -6 2 -4.4 0 -6 -0.4 -6 -1.4z"/>
  <path d="M368 226 c0 -1.6 0.7 -2 3.5 -2 4 0 4.9 2.4 1.3 3.4 -3.8 1 -4.8 0.7 -4.8 -1.4z"/>
  <path d="M376 225 c0 -1.7 0.7 -2 4 -2 4.5 0 5.7 2.3 1.8 3.4 -4.2 1.1 -5.8 0.7 -5.8 -1.4z"/>
  <path d="M385 224 c0 -1.7 0.7 -2 4.5 -2 4.9 0 6.4 2.3 2.3 3.4 -4.5 1.2 -6.8 0.7 -6.8 -1.4z"/>
  <path d="M399 223 c0 -1.8 0.7 -2 7 -2 5.3 0 7 0.3 7 1.4 0 1.7 -3.1 2.6 -9.2 2.6 -4.1 0 -4.8 -0.3 -4.8 -2z"/>
  <path d="M101.5 208 c0.5 -1.4 0.2 -2 -0.9 -2 -0.9 0 -1.6 -0.7 -1.6 -1.5 0 -1 1.1 -1.5 3.5 -1.5 3.3 0 3.5 0.2 3.5 3.5 0 3.1 -0.3 3.5 -2.6 3.5 -2.1 0 -2.4 -0.4 -1.9 -2z"/>
  <path d="M369 209.3 c0 -0.5 -1.6 -2.5 -3.5 -4.7 -3.5 -3.8 -3.5 -3.8 -3.5 -1.2 0 1.4 -0.4 2.6 -1 2.6 -0.5 0 -1 0.7 -1 1.5 0 1 -1.1 1.5 -3.5 1.5 -1.9 0 -3.5 -0.4 -3.5 -0.9 0 -0.5 -0.9 -1.1 -2 -1.4 -1.5 -0.4 -2 -1.4 -2 -4.1 l0 -3.5 6 -0.7 c5.5 -0.6 6 -0.9 6 -3 0 -2 0.5 -2.4 3.3 -2.4 5.5 0.1 11.7 7.4 11.7 13.8 0 3 -0.2 3.2 -3.5 3.2 -1.9 0 -3.5 -0.3 -3.5 -0.7z"/>
  <path d="M205 183.5 c0 -3.3 0.2 -3.5 3.5 -3.5 3.3 0 3.5 0.2 3.5 3.5 0 3.3 -0.2 3.5 -3.5 3.5 -3.3 0 -3.5 -0.2 -3.5 -3.5z"/>
  <path d="M224 177.6 c0 -3.6 1.5 -4.6 7.3 -4.6 2.4 0 2.7 0.4 2.7 3.4 0 3.6 -1.5 4.6 -7.2 4.6 -2.5 0 -2.8 -0.4 -2.8 -3.4z"/>
  <path d="M334 161.5 c0 -3.3 0.2 -3.5 3.5 -3.5 3.3 0 3.5 0.2 3.5 3.5 0 3.3 -0.2 3.5 -3.5 3.5 -3.3 0 -3.5 -0.2 -3.5 -3.5z"/>
  <path d="M248 158.5 c0 -3.3 0.2 -3.5 3.5 -3.5 3.3 0 3.5 0.2 3.5 3.5 0 3.3 -0.2 3.5 -3.5 3.5 -3.3 0 -3.5 -0.2 -3.5 -3.5z"/>
  <path d="M256 155.6 c0 -3.7 1.2 -4.6 6.1 -4.6 2.6 0 2.9 0.3 2.9 3.4 0 3.7 -1.2 4.6 -6.1 4.6 -2.6 0 -2.9 -0.3 -2.9 -3.4z"/>
  <path d="M284 155.6 c0 -3.6 1.5 -4.6 7.3 -4.6 2.4 0 2.7 0.4 2.7 3.4 0 3.6 -1.5 4.6 -7.2 4.6 -2.5 0 -2.8 -0.4 -2.8 -3.4z"/>
  <path d="M268 150.5 c0 -3.3 0.2 -3.5 3.5 -3.5 3.3 0 3.5 0.2 3.5 3.5 0 3.3 -0.2 3.5 -3.5 3.5 -3.3 0 -3.5 -0.2 -3.5 -3.5z"/>
  <path d="M300 148.5 c0 -3.3 0.2 -3.5 3.5 -3.5 3.3 0 3.5 0.2 3.5 3.5 0 3.3 -0.2 3.5 -3.5 3.5 -3.3 0 -3.5 -0.2 -3.5 -3.5z"/>
  <path d="M221 146.5 c0 -3.3 0.2 -3.5 3.5 -3.5 3.3 0 3.5 0.2 3.5 3.5 0 3.3 -0.2 3.5 -3.5 3.5 -3.3 0 -3.5 -0.2 -3.5 -3.5z"/>
  <path d="M281 145.1 c0 -4.4 2.2 -6.4 6.5 -5.9 1.9 0.2 3.5 0 3.5 -0.4 0 -0.4 1.6 -0.8 3.5 -0.8 3.3 0 3.5 0.2 3.5 3.5 0 3.2 -0.2 3.5 -2.9 3.5 -1.6 0 -3.1 0.5 -3.3 1.1 -0.2 0.6 -2.7 1.4 -5.6 1.7 l-5.2 0.5 0 -3.2z"/>
  <path d="M241 132.6 c0 -3.1 0.3 -3.4 3.8 -4 2 -0.3 5.4 -0.6 7.5 -0.6 3.5 0 3.7 0.1 3.7 3.4 0 3.2 -0.2 3.4 -4.6 4 -2.6 0.3 -6 0.6 -7.5 0.6 -2.6 0 -2.9 -0.3 -2.9 -3.4z"/>
  <path d="M126 130.8 c0 -0.7 1.6 -2.1 3.5 -3 l3.5 -1.8 0 3 c0 2.8 -0.3 3 -3.5 3 -2.1 0 -3.5 -0.5 -3.5 -1.2z"/>
  <path d="M382.5 130 c-0.5 -0.9 5 -5 6.8 -5 1.4 0 0.7 4.8 -0.9 5.4 -2.4 0.9 -5.2 0.7 -5.9 -0.4z"/>
  <path d="M217 129.2 c0 -1.1 5.5 -4.2 7.4 -4.2 2.1 0 2.1 3.6 0 4.4 -2.3 0.9 -7.4 0.7 -7.4 -0.2z"/>
  <path d="M378 122 c0 -2.9 0.2 -3 2.3 -1.9 1.2 0.6 2.3 1.3 2.5 1.4 0.1 0.1 -0.9 1 -2.3 1.9 -2.5 1.6 -2.5 1.6 -2.5 -1.4z"/>
  <path d="M79 119.3 c0 -0.5 1.1 -2.4 2.3 -4.5 1.8 -2.9 2.6 -3.4 4 -2.7 2.1 1.2 2.2 2.9 0.2 2.9 -0.9 0 -1.5 0.9 -1.5 2.5 0 2 -0.5 2.5 -2.5 2.5 -1.4 0 -2.5 -0.3 -2.5 -0.7z"/>
  <path d="M72 113.1 c0 -4 0.9 -6.1 2.6 -6.1 2.3 0 2.7 2.5 0.9 5.9 -2 3.9 -3.5 4 -3.5 0.2z"/>
  <path d="M287 64.6 c0 -1.3 2.8 -2.6 5.8 -2.6 0.6 0 1.2 0.9 1.2 2 0 1.6 -0.7 2 -3.5 2 -2.3 0 -3.5 -0.5 -3.5 -1.4z"/>
  <path d="M311 58.6 c0 -1.3 2.8 -2.6 5.8 -2.6 0.6 0 1.2 0.9 1.2 2 0 1.6 -0.7 2 -3.5 2 -2.3 0 -3.5 -0.5 -3.5 -1.4z"/>
  <path d="M321 56.6 c0 -0.7 1 -1.6 2.3 -2 4.1 -1.1 5.7 -0.7 5.7 1.4 0 1.7 -0.7 2 -4 2 -2.7 0 -4 -0.4 -4 -1.4z"/>
 </g>
 <g fill="#af9c6f">
  <path d="M166.3 471.3 c-5.5 -1.6 -7.3 -4.3 -2.8 -4.3 5.1 0 11.5 2.3 11.5 4.2 0 2.2 -1.7 2.2 -8.7 0.1z"/>
  <path d="M188 471.3 c0 -1.7 1.6 -2.2 12.2 -4.2 18.2 -3.3 24.8 -3.8 24.8 -1.8 0 1.1 -1.1 1.8 -3.2 2.1 -1.8 0.2 -8.9 1.4 -15.8 2.7 -6.9 1.2 -13.7 2.4 -15.2 2.6 -2.3 0.4 -2.8 0.2 -2.8 -1.4z"/>
  <path d="M152.6 466.7 c-7 -2.6 -8.5 -4.7 -3.2 -4.7 2 0 3.6 0.5 3.6 1 0 0.6 1.4 1 3 1 2.5 0 3 0.4 3 2.5 0 1.4 -0.1 2.5 -0.2 2.4 -0.2 0 -3 -1 -6.2 -2.2z"/>
  <path d="M231 465 c0 -1.7 0.7 -2 4.5 -2 4.9 0 6.4 2.3 2.3 3.4 -4.5 1.2 -6.8 0.7 -6.8 -1.4z"/>
  <path d="M242 464.2 c0 -1.5 2.1 -2.1 14.3 -4 16.6 -2.6 16.7 -2.6 16.7 -0.8 0 1.6 -4.8 2.8 -20.1 5.1 -5.5 0.8 -10.1 1.5 -10.4 1.5 -0.3 0 -0.5 -0.8 -0.5 -1.8z"/>
  <path d="M138.5 461.3 c-3.3 -1.4 -11.2 -4.9 -17.5 -7.8 -6.3 -2.9 -15.4 -6.5 -20.2 -8.1 -8.7 -2.8 -11.6 -5.4 -6.1 -5.4 3.4 0 16.3 4.1 16.3 5.2 0 0.4 1.1 0.8 2.5 0.8 1.6 0 2.5 0.6 2.5 1.5 0 1 1 1.5 3 1.5 3.1 0 12 3.8 12 5.2 0 0.4 1.1 0.8 2.4 0.8 1.4 0 3.1 0.7 4 1.5 0.8 0.8 2.3 1.5 3.3 1.5 2.8 0 4.5 1.5 4.1 3.8 -0.3 2 -0.4 2 -6.3 -0.5z"/>
  <path d="M276 458.2 c0 -1.6 1.8 -2.2 11.8 -4 13.9 -2.6 17.2 -2.7 17.2 -0.7 0 0.9 -1.4 1.6 -3.7 2 -2.1 0.4 -8.3 1.5 -13.7 2.6 -12 2.3 -11.6 2.3 -11.6 0.1z"/>
  <path d="M308 453 c0 -1.7 0.7 -2 4 -2 4.5 0 5.7 2.3 1.8 3.4 -4.2 1.1 -5.8 0.7 -5.8 -1.4z"/>
  <path d="M317 452 c0 -1.6 0.7 -2 3.5 -2 4 0 4.9 2.4 1.3 3.4 -3.8 1 -4.8 0.7 -4.8 -1.4z"/>
  <path d="M325 451.2 c0 -1.5 1.4 -2 8.3 -3 10.8 -1.6 12.7 -1.5 12.7 0.3 0 1.4 -0.7 1.6 -13 3.5 -8.3 1.3 -8 1.3 -8 -0.8z"/>
  <path d="M348 448 c0 -1.7 0.7 -2 4.5 -2 4.9 0 6.4 2.3 2.3 3.4 -4.5 1.2 -6.8 0.7 -6.8 -1.4z"/>
  <path d="M363 447 c0 -1.4 0.7 -2 2.3 -2 3.7 0 18.7 -3.4 18.7 -4.2 0 -0.4 1.6 -0.8 3.5 -0.8 8.7 0 -0.2 4.9 -13.6 7.5 -10.4 1.9 -10.9 1.9 -10.9 -0.5z"/>
  <path d="M85.1 440.1 c-6.4 -2.3 -6.8 -4.5 -0.7 -3.9 5.4 0.6 5.9 0.9 5.4 3.6 -0.3 1.9 -0.4 1.9 -4.7 0.3z"/>
  <path d="M74.3 434.5 l-2.8 -2.4 3.8 -0.1 c3.3 0 3.7 0.3 3.7 2.5 0 3.1 -1.1 3.2 -4.7 0z"/>
  <path d="M400 434.5 c0 -2 0.5 -2.5 2.5 -2.5 1.6 0 2.5 -0.6 2.5 -1.5 0 -0.9 0.9 -1.5 2.5 -1.5 1.6 0 2.5 -0.6 2.5 -1.5 0 -0.8 0.7 -1.5 1.5 -1.5 0.8 0 1.5 -0.4 1.5 -1 0 -0.5 0.7 -1 1.5 -1 0.8 0 1.5 -0.4 1.5 -1 0 -0.5 1.4 -1 3 -1 2.3 0 3 -0.4 3 -2 0 -1.3 0.7 -2 1.9 -2 1 0 2.1 -0.9 2.4 -2.1 0.3 -1.1 1.5 -2.3 2.6 -2.6 1.2 -0.3 2.1 -1.2 2.1 -1.9 0 -0.8 0.7 -1.4 1.5 -1.4 0.8 0 1.5 -0.9 1.5 -2 0 -1.1 0.6 -2 1.4 -2 2.4 0 3 -11.2 1.2 -22.7 -0.9 -5.5 -1.6 -11.2 -1.6 -12.7 0 -3.8 2.8 -3.3 3.4 0.7 3.9 23.9 4 28.8 0.8 35.2 -2.9 5.9 -8.2 11.3 -16.9 17.2 -9.5 6.4 -20.7 13.3 -21.7 13.3 -0.3 0 -0.6 -1.1 -0.6 -2.5z"/>
  <path d="M67.8 428.3 c-2 -2.3 -6.4 -10.1 -7.7 -13.5 -1 -2.6 -0.8 -2.8 1.2 -2.8 2.5 0 5.7 5.2 5.7 9 0 1.1 0.7 2 1.5 2 1 0 1.5 1.1 1.5 3.5 0 4 -0.1 4.1 -2.2 1.8z"/>
  <path d="M183 423.5 c0 -3.3 0.2 -3.5 3.5 -3.5 3.3 0 3.5 0.2 3.5 3.5 0 3.3 -0.2 3.5 -3.5 3.5 -3.3 0 -3.5 -0.2 -3.5 -3.5z"/>
  <path d="M168.2 414.5 c-0.7 -1.4 -1.2 -3.9 -1.2 -5.5 0 -2.7 0.3 -3 3.3 -3 3.8 0 5.7 2.7 5.7 8 0 2.7 -0.3 3 -3.3 3 -2.6 0 -3.6 -0.6 -4.5 -2.5z"/>
  <path d="M364 408.5 c0 -3.1 0.3 -3.5 3.8 -4.4 2 -0.6 5.2 -1.1 7 -1.1 3 0 3.2 0.2 3.2 3.4 0 3.1 -0.3 3.4 -4.4 4.5 -2.5 0.6 -5.6 1.1 -7 1.1 -2.3 0 -2.6 -0.4 -2.6 -3.5z"/>
  <path d="M51.2 397.7 c-7.6 -13.6 -8.4 -21 -4 -34.1 1.7 -5.3 3.8 -5.9 3.8 -1.2 0 2 -0.4 3.6 -0.9 3.6 -0.5 0 -1.2 3.1 -1.6 7 -0.6 5.6 -0.3 8.1 1.1 12.2 1.1 2.9 2.5 5.9 3.1 6.6 0.7 0.7 1.3 2.9 1.3 4.8 0 2.7 0.4 3.4 2 3.4 1.6 0 2 0.7 2 3.5 0 1.9 -0.4 3.5 -0.8 3.5 -0.5 0 -3.2 -4.2 -6 -9.3z"/>
  <path d="M183 403.5 c0 -3.3 0.2 -3.5 3.5 -3.5 3.3 0 3.5 0.2 3.5 3.5 0 3.3 -0.2 3.5 -3.5 3.5 -3.3 0 -3.5 -0.2 -3.5 -3.5z"/>
  <path d="M400 394 c0 -1.7 0.6 -4.3 1.4 -5.8 0.7 -1.5 1.6 -6.3 1.9 -10.7 0.3 -5.8 1.2 -9.7 3.2 -14 3.8 -8.4 4.2 -14.7 1.6 -23.3 -2.3 -7.6 -2.7 -12.2 -1.1 -12.2 0.6 0 1 -1.1 1 -2.5 0 -2.2 0.4 -2.5 3.5 -2.5 3.4 0 3.5 0.1 3.5 3.8 -0.1 3.5 -0.1 3.6 -1.3 1.4 -1.1 -1.9 -1.5 -2.1 -3.1 -0.9 -1.8 1.3 -1.8 1.6 0.5 8.3 3.4 10.1 3.2 20.7 -0.5 29.4 -4.4 10.2 -6.2 27.4 -2.1 20 1.4 -2.5 1.4 -2.4 1.5 1.7 0 6.1 -2.7 10.3 -6.7 10.3 -3 0 -3.3 -0.3 -3.3 -3z"/>
  <path d="M168 391.5 c0 -3.3 0.2 -3.5 3.5 -3.5 3.3 0 3.5 0.2 3.5 3.5 0 3.3 -0.2 3.5 -3.5 3.5 -3.3 0 -3.5 -0.2 -3.5 -3.5z"/>
  <path d="M416.7 374.8 c0.5 -0.7 0.8 -2.3 0.7 -3.5 0 -1.2 0.2 -2 0.7 -1.7 0.4 0.2 0.6 1.1 0.2 1.9 -1 2.8 0.6 1.5 3.5 -2.7 1.6 -2.4 3.4 -6.2 3.9 -8.6 1 -3.8 0.8 -4.8 -2.3 -11.3 -1.9 -3.9 -3.4 -7.3 -3.4 -7.5 0 -0.2 1.1 -0.4 2.5 -0.4 1.6 0 2.5 0.6 2.5 1.6 0 0.8 0.7 2.2 1.5 3 0.8 0.9 1.5 2.6 1.5 4 0 1.3 0.5 2.4 1.1 2.4 1.5 0 0.5 12.3 -1 12.8 -0.6 0.2 -1.1 1.5 -1.1 2.8 0 1.3 -0.4 2.4 -1 2.4 -0.5 0 -1 0.7 -1 1.5 0 0.8 -0.7 1.5 -1.5 1.5 -0.9 0 -1.8 0.7 -2.1 1.5 -0.4 0.8 -1.7 1.5 -3.1 1.5 -1.9 0 -2.3 -0.3 -1.6 -1.2z"/>
  <path d="M433.5 358 c-0.4 -3.3 -1.1 -6 -1.6 -6 -0.5 0 -0.9 -1.6 -0.9 -3.6 0 -7.8 5 0.4 6.5 10.9 0.7 4.3 0.5 4.7 -1.3 4.7 -1.7 0 -2.1 -0.9 -2.7 -6z"/>
  <path d="M50.6 354.3 c2.6 -6 7.2 -19.7 7.9 -23.6 0.6 -3.2 0.5 -3.4 -1.7 -3 -4.4 0.7 -11.1 -2 -13.5 -5.6 -2.9 -4.3 -3 -7.1 -0.3 -7.1 1.3 0 2 0.7 2 2 0 1.1 0.5 2 1 2 0.6 0 1 0.6 1 1.3 0 1.6 6.3 3.7 10.7 3.7 2.6 0 3.1 0.5 3.7 3.1 0.9 4.6 0.7 7.9 -0.4 7.9 -0.5 0 -1 1.6 -1 3.5 0 1.9 -0.4 3.5 -1 3.5 -0.5 0 -1 1 -1 2.3 0 3.8 -1.2 6.7 -2.6 6.7 -0.9 0 -1.4 1.2 -1.4 3.5 0 3.1 -0.3 3.5 -2.5 3.5 l-2.5 0 1.6 -3.7z"/>
  <path d="M425.2 339.5 c-1.4 -3 -1.6 -8.5 -0.4 -8.5 0.8 0 6.2 9.1 6.2 10.4 0 0.3 -1.1 0.6 -2.3 0.6 -1.6 0 -2.8 -0.9 -3.5 -2.5z"/>
  <path d="M417.6 337.1 c-0.3 -0.4 -1 -2 -1.5 -3.5 -1 -2.4 -0.8 -2.6 1.4 -2.6 2.2 0 2.5 0.4 2.5 3.5 0 3.3 -1.2 4.6 -2.4 2.6z"/>
  <path d="M226.3 333.3 c-1.6 -0.3 -2.3 -1.1 -2.3 -2.7 l0 -2.3 5.5 1.5 c8.9 2.5 6.2 5.3 -3.2 3.5z"/>
  <path d="M419 325.5 c0 -1.4 -0.4 -2.5 -1 -2.5 -0.5 0 -1 -1.6 -1 -3.5 0 -5.4 2.2 -4.2 4.7 2.5 l2.2 6 -2.5 0 c-1.9 0 -2.4 -0.5 -2.4 -2.5z"/>
  <path d="M243.3 321.8 c1.9 -4.6 3.7 -4.8 3.7 -0.4 0 3.2 -0.3 3.6 -2.5 3.6 -2.4 0 -2.5 -0.1 -1.2 -3.2z"/>
  <path d="M248.1 310.8 c2.5 -6.3 2.8 -6.8 4 -6.8 0.5 0 0.9 1.6 0.9 3.5 0 1.9 -0.4 3.5 -1 3.5 -0.5 0 -1 1.1 -1 2.5 0 2 -0.5 2.5 -2.5 2.5 l-2.5 0 2.1 -5.2z"/>
  <path d="M417 310.1 c0 -1.6 1.3 -5.7 3 -9.2 1.6 -3.4 3.2 -8.2 3.6 -10.6 0.5 -3.3 1.1 -4.3 2.5 -4.3 2.3 0 2.4 1.4 0.3 9.4 -1.7 6.4 -7.1 17.6 -8.5 17.6 -0.5 0 -0.9 -1.3 -0.9 -2.9z"/>
  <path d="M41 309.2 c0 -2.4 5.9 -14.2 7.1 -14.2 1.6 0 1 5.4 -1.3 10.7 -1.5 3.5 -2.9 5.3 -4 5.3 -1.1 0 -1.8 -0.7 -1.8 -1.8z"/>
  <path d="M376.3 302.8 c1.9 -4.6 3.7 -4.8 3.7 -0.4 0 3.2 -0.3 3.6 -2.5 3.6 -2.4 0 -2.5 -0.1 -1.2 -3.2z"/>
  <path d="M221 301.5 c0 -2.4 0.5 -3.5 1.5 -3.5 1 0 1.5 -1.1 1.5 -3.5 0 -3.1 0.3 -3.5 2.5 -3.5 2.1 0 2.3 0.3 1.6 2.3 -4.7 11.9 -7.1 14.7 -7.1 8.2z"/>
  <path d="M350 301.5 c0 -3.1 0.3 -3.5 2.5 -3.5 2.2 0 2.3 0.3 1.5 2.4 -0.5 1.5 -0.5 2.7 0.3 3.5 0.8 0.8 0.4 1.1 -1.6 1.1 -2.4 0 -2.7 -0.4 -2.7 -3.5z"/>
  <path d="M255.9 291.8 c4.7 -12 7.1 -14.8 7.1 -8.3 0 2.4 -0.5 3.5 -1.5 3.5 -1 0 -1.5 1.1 -1.5 3.5 0 3.1 -0.3 3.5 -2.5 3.5 -2.1 0 -2.3 -0.3 -1.6 -2.2z"/>
  <path d="M52 289 c3.1 -4.4 4 -4.5 4 -0.6 0 3.3 -0.2 3.6 -3.1 3.6 l-3 0 2.1 -3z"/>
  <path d="M385.1 279.8 c2.5 -6.3 2.8 -6.8 4 -6.8 0.5 0 0.9 1.6 0.9 3.5 0 1.9 -0.4 3.5 -1 3.5 -0.5 0 -1 1.1 -1 2.5 0 2 -0.5 2.5 -2.5 2.5 l-2.5 0 2.1 -5.2z"/>
  <path d="M421.8 282.3 c-3.7 -0.4 -3.8 -0.5 -3.8 -4.8 0 -2.4 -0.4 -4.5 -0.9 -4.7 -0.5 -0.1 -1.3 -3.1 -1.7 -6.5 -0.6 -5.4 -0.4 -6.3 1 -6.3 0.9 0 1.6 0.1 1.7 0.3 0 0.1 0.6 3.8 1.4 8.2 l1.3 8 0.1 -7 c0.2 -9.4 0.9 -11.8 3.2 -11.2 1.6 0.4 1.9 -0.1 1.9 -2.8 0 -1.8 -0.5 -3.5 -1.1 -3.7 -0.9 -0.3 -0.8 -1.1 0.1 -2.8 0.8 -1.4 1.3 -3.7 1.2 -5.2 -0.2 -2.2 0.2 -2.8 1.8 -2.8 1.1 0 2 -0.4 2 -1 0 -0.5 -0.9 -1 -1.9 -1 -1.5 0 -2.2 -1.1 -3 -5 -1.4 -6.6 -1.4 -7 0.4 -7 0.8 0 1.5 -0.9 1.5 -2 0 -1.1 0.6 -2 1.4 -2 1.5 0 3.8 8.5 5.1 18.6 0.6 4.3 0.3 5.8 -1.9 10.2 -2.3 4.6 -2.6 6.3 -2.6 15.9 0 11.7 -0.6 15.4 -2.4 15.1 -0.6 -0.1 -2.8 -0.3 -4.8 -0.5z"/>
  <path d="M60.4 280.1 c1 -1.1 4.5 -3.1 7.9 -4.6 6.1 -2.6 6.3 -2.7 9.2 -9.7 3.3 -7.8 5.5 -9.8 5.5 -5 0 4 -0.9 6.2 -2.6 6.2 -0.9 0 -1.4 1.2 -1.4 3.5 0 1.9 -0.4 3.5 -1 3.5 -0.5 0 -1 0.7 -1 1.5 0 0.9 -0.9 1.5 -2.5 1.5 -1.4 0 -2.5 0.5 -2.5 1 0 0.6 -1.3 1 -3 1 -2 0 -3 0.5 -3 1.5 0 1.1 -1.1 1.5 -3.7 1.5 -3.5 0 -3.6 -0.1 -1.9 -1.9z"/>
  <path d="M235 267.6 c0 -3.2 0.3 -3.6 2.5 -3.6 2.4 0 2.5 0.1 1.2 3.2 -1.9 4.6 -3.7 4.8 -3.7 0.4z"/>
  <path d="M390.3 266.8 c1.9 -4.6 3.7 -4.8 3.7 -0.4 0 3.2 -0.3 3.6 -2.5 3.6 -2.4 0 -2.5 -0.1 -1.2 -3.2z"/>
  <path d="M267.3 264.8 c1.9 -4.6 3.7 -4.8 3.7 -0.4 0 3.2 -0.3 3.6 -2.5 3.6 -2.4 0 -2.5 -0.1 -1.2 -3.2z"/>
  <path d="M367 261.6 c0 -3.2 0.3 -3.6 2.5 -3.6 2.4 0 2.5 0.1 1.2 3.2 -1.9 4.6 -3.7 4.8 -3.7 0.4z"/>
  <path d="M394 257 c4 -10.1 4.9 -12 5.9 -12 0.6 0 1.1 1.6 1.1 3.5 0 1.9 -0.4 3.5 -1 3.5 -0.5 0 -1 1.1 -1 2.5 0 1.4 -0.4 2.5 -1 2.5 -0.5 0 -1 1.1 -1 2.5 0 2 -0.5 2.5 -2.5 2.5 l-2.5 0 2 -5z"/>
  <path d="M254 257 c0 -1.6 0.7 -2 3.5 -2 4 0 4.9 2.4 1.3 3.4 -3.8 1 -4.8 0.7 -4.8 -1.4z"/>
  <path d="M305 254.7 c0 -1 1.6 -1.9 5.2 -2.6 7.8 -1.7 13.8 -4.7 17.7 -9 2.6 -2.8 5.2 -4.3 9.3 -5.5 7.3 -2.1 8.8 -2 8.8 0.4 0 1.6 -0.7 2 -3.5 2 -2 0 -4.1 0.4 -4.8 1 -6.1 5 -7.8 6 -10.1 6 -2.1 0 -2.6 0.5 -2.6 2.4 0 2 -0.8 2.7 -4.7 4 -2.6 0.9 -7.1 1.9 -10 2.3 -4.4 0.5 -5.3 0.3 -5.3 -1z"/>
  <path d="M415.4 250.8 c1.5 -11.5 1.9 -12.8 3.1 -12.8 2.1 0 2.4 3.6 0.9 10.8 -0.8 3.7 -1.4 6.8 -1.4 6.9 0 0.2 -0.7 0.3 -1.6 0.3 -1.4 0 -1.6 -0.8 -1 -5.2z"/>
  <path d="M288 252.4 c-3 -1.4 -5.7 -2.9 -6 -3.3 -0.3 -0.4 -1.7 -1.1 -3.2 -1.5 -1.6 -0.3 -2.8 -1.3 -2.8 -2.1 0 -1 -1 -1.5 -3 -1.5 -2.8 0 -3 -0.3 -3 -3.5 0 -3.4 0.1 -3.5 4 -3.5 4.5 0 5.6 2.3 1.8 3.4 l-2.3 0.7 2.5 1.1 c1.4 0.5 6.8 3 12 5.4 5.2 2.4 10.1 4.4 10.8 4.4 0.6 0 1.2 0.7 1.2 1.5 0 2.3 -5.7 1.8 -12 -1.1z"/>
  <path d="M371 250.6 c0 -3.2 0.3 -3.6 2.5 -3.6 2.4 0 2.5 0.1 1.2 3.2 -1.9 4.6 -3.7 4.8 -3.7 0.4z"/>
  <path d="M87.6 244.3 c0.9 -2.1 3.3 -8.7 5.4 -14.8 6.9 -19.9 10 -25.1 10 -17 0 1.9 -0.4 3.5 -1 3.5 -0.5 0 -1 1.1 -1 2.5 0 1.4 -0.4 2.5 -1 2.5 -0.5 0 -1 0.7 -1 1.7 0 2.6 -3.3 12.3 -4.2 12.3 -0.4 0 -0.8 1.4 -0.8 3 0 1.7 -0.4 3 -1 3 -0.5 0 -1 0.9 -1 1.9 0 3.5 -1.2 5.1 -3.6 5.1 -2.4 0 -2.4 0 -0.8 -3.7z"/>
  <path d="M300 245.1 c0 -1.3 0.6 -2.1 1.8 -2.1 0.9 0 4.1 -0.3 7 -0.6 4.3 -0.6 5.2 -0.4 5.2 0.9 0 1.6 -1.6 2.1 -9.2 3.2 -4.4 0.7 -4.8 0.6 -4.8 -1.4z"/>
  <path d="M286.3 242.2 c-8.6 -3.2 -10 -5.8 -2.6 -4.9 2.6 0.3 4.9 1 5.1 1.6 0.2 0.6 1.5 1.1 2.8 1.1 1.9 0 2.4 0.5 2.4 2.5 0 1.4 -0.1 2.5 -0.2 2.4 -0.2 0 -3.6 -1.3 -7.5 -2.7z"/>
  <path d="M379 240 c0 -1.6 0.7 -2 3.5 -2 4 0 4.9 2.4 1.3 3.4 -3.8 1 -4.8 0.7 -4.8 -1.4z"/>
  <path d="M369 234.6 c0 -1.5 2.1 -2.6 5.1 -2.6 1.2 0 1.9 0.7 1.9 2 0 1.6 -0.7 2 -3.5 2 -2.3 0 -3.5 -0.5 -3.5 -1.4z"/>
  <path d="M378 233.6 c0 -1.6 2.1 -2.6 5.6 -2.6 1.7 0 2.4 0.6 2.4 2 0 1.7 -0.7 2 -4 2 -2.8 0 -4 -0.4 -4 -1.4z"/>
  <path d="M387 232.6 c0 -1.5 3 -2.6 7.3 -2.6 2 0 2.7 0.5 2.7 2 0 1.7 -0.7 2 -5 2 -3.6 0 -5 -0.4 -5 -1.4z"/>
  <path d="M414 232 c0 -2.4 3.5 -2.8 4.4 -0.4 0.9 2.3 0.8 2.4 -1.9 2.4 -1.8 0 -2.5 -0.5 -2.5 -2z"/>
  <path d="M336 230 c0 -1.6 0.7 -2 3.5 -2 4 0 4.9 2.4 1.3 3.4 -3.8 1 -4.8 0.7 -4.8 -1.4z"/>
  <path d="M356 227 c0 -1.6 0.7 -2 3.5 -2 4 0 4.9 2.4 1.3 3.4 -3.8 1 -4.8 0.7 -4.8 -1.4z"/>
  <path d="M366 226 c0 -1.7 0.7 -2 4 -2 4.5 0 5.7 2.3 1.8 3.4 -4.2 1.1 -5.8 0.7 -5.8 -1.4z"/>
  <path d="M375 225 c0 -1.6 0.7 -2 3.5 -2 4 0 4.9 2.4 1.3 3.4 -3.8 1 -4.8 0.7 -4.8 -1.4z"/>
  <path d="M383 224 c0 -1.7 0.7 -2 4 -2 4.5 0 5.7 2.3 1.8 3.4 -4.2 1.1 -5.8 0.7 -5.8 -1.4z"/>
  <path d="M395 223 c0 -1.1 -0.7 -2 -1.5 -2 -2.4 0 -1.8 -2.7 0.8 -3.4 4.7 -1.2 7.7 -0.7 7.7 1.4 0 1.1 0.7 2 1.5 2 2.4 0 1.8 2.7 -0.7 3.4 -4.8 1.2 -7.8 0.7 -7.8 -1.4z"/>
  <path d="M354.5 215.9 c-5.7 -5.6 -7.6 -8.5 -10.5 -15.1 -3.6 -8.5 -6 -11 -6 -6.4 0 2.3 -0.4 2.6 -3.4 2.6 -4.3 0 -4.9 -1.5 -4 -9.8 l0.6 -6.3 7.7 0.6 c18.4 1.4 21.1 1.7 21.1 2.5 0 0.4 3.4 4.2 7.4 8.3 6.7 6.8 7.7 8.4 9.5 14.5 1.2 3.8 2.1 8.7 2.1 10.9 l0 4 -6.1 0.7 c-10.6 1.1 -10.8 1 -18.4 -6.5z m3.9 -13.1 c0.6 -0.4 0.7 -1 0.3 -1.4 -0.3 -0.4 -1.3 -0.1 -2.2 0.6 -0.8 0.7 -2.2 1 -3 0.6 -0.9 -0.3 -1.3 -0.2 -1 0.4 0.3 0.6 1.3 1 2.1 1 0.8 0 1.4 0.6 1.5 1.3 0 0.7 0.3 0.6 0.6 -0.3 0.3 -0.8 1.1 -1.8 1.7 -2.2z m12.1 -0.5 c-0.9 -1.6 -2.9 -3.7 -4.3 -4.8 -2.6 -1.9 -2.7 -1.9 -1.2 0 2.6 3.4 6.3 7.5 6.7 7.5 0.2 0 -0.3 -1.2 -1.2 -2.7z"/>
  <path d="M382.6 217.9 c-0.3 -1.7 -0.6 -4.2 -0.6 -5.5 0 -1.3 -0.4 -2.4 -1 -2.4 -0.5 0 -1 -1.2 -1 -2.6 0 -1.4 -0.7 -3.2 -1.5 -4 -0.8 -0.9 -1.5 -3.1 -1.5 -5 0 -2.9 -0.3 -3.4 -2.3 -3.4 -3.3 0 -5.7 -3 -5.7 -7 l0 -3.3 2.2 1.9 c5.6 5 10.6 13.4 12.9 22 1.7 6.1 2.9 8.8 4.2 9.2 3.1 0.8 1.9 3.2 -1.7 3.2 -3 0 -3.4 -0.4 -4 -3.1z"/>
  <path d="M154 197.5 c0 -3.3 0.2 -3.5 3.5 -3.5 3.3 0 3.5 0.2 3.5 3.5 0 3.3 -0.2 3.5 -3.5 3.5 -3.3 0 -3.5 -0.2 -3.5 -3.5z"/>
  <path d="M105 197.6 c0 -0.8 0.6 -1.6 1.4 -1.8 0.7 -0.2 2.9 -2.3 4.7 -4.7 1.9 -2.4 4.9 -5.5 6.7 -6.9 l3.4 -2.6 -0.4 3.5 c-0.2 2.6 -0.8 3.5 -2.5 3.7 -3.4 0.5 -2.8 2.2 0.7 2.2 2.8 0 3 0.3 3 3.5 0 3.3 -0.2 3.5 -3.5 3.5 -2.8 0 -3.5 -0.4 -3.5 -2 0 -2.8 -1.7 -2.5 -2.4 0.5 -0.5 2.1 -1.2 2.5 -4.1 2.5 -2.4 0 -3.5 -0.5 -3.5 -1.4z"/>
  <path d="M162 195.5 c0 -3.3 0.2 -3.5 3.5 -3.5 3.3 0 3.5 0.2 3.5 3.5 0 3.3 -0.2 3.5 -3.5 3.5 -3.3 0 -3.5 -0.2 -3.5 -3.5z"/>
  <path d="M179 191.6 l0 -3.4 8.3 -2.2 c11.3 -3 44.7 -13.7 53.4 -17.2 3.9 -1.5 8.5 -2.8 10.2 -2.8 2.9 0 3.1 0.3 3.1 3.4 0 2.7 -0.5 3.6 -2.2 4.1 -2.2 0.7 -5.2 1.9 -12.2 5 -1.9 0.8 -4 1.5 -4.8 1.5 -0.7 0 -5.1 1.3 -9.8 2.9 -4.7 1.6 -13.9 4.6 -20.5 6.6 -6.6 1.9 -13.4 4 -15.1 4.5 -1.7 0.6 -4.7 1 -6.7 1 -3.5 0 -3.7 -0.2 -3.7 -3.4z"/>
  <path d="M147 188.8 l0 -3.3 14.8 -3.3 c8.1 -1.8 15.5 -3.3 16.5 -3.2 0.9 0 1.7 -0.4 1.7 -1 0 -0.5 1.6 -1 3.5 -1 3.3 0 3.5 0.2 3.5 3.5 0 3.3 -0.2 3.5 -3.4 3.5 -1.9 0 -3.6 0.4 -3.8 0.9 -0.3 1 -26.2 7.1 -30.2 7.1 -2.3 0 -2.6 -0.4 -2.6 -3.2z"/>
  <path d="M123 181.2 c0 -0.8 5.2 -4.2 6.4 -4.2 0.3 0 0.6 1.1 0.6 2.5 0 2.2 -0.4 2.5 -3.5 2.5 -1.9 0 -3.5 -0.4 -3.5 -0.8z"/>
  <path d="M131 177 c0 -0.6 1.9 -2 4.3 -3 l4.2 -1.9 0.3 2.1 c0.2 1.1 -0.2 2.5 -1 2.9 -1.9 1.2 -7.8 1.1 -7.8 -0.1z"/>
  <path d="M203 173.7 c0 -3.1 0.3 -3.4 6.3 -5.6 8.5 -3.2 15.7 -5.1 19 -5.1 2.4 0 2.7 0.4 2.7 3.3 l0 3.3 -11.3 3.7 c-6.2 2 -12.5 3.7 -14 3.7 -2.4 0 -2.7 -0.4 -2.7 -3.3z"/>
  <path d="M336 174.3 c-6.9 -0.3 -26 -2.6 -39.7 -4.6 -6.8 -1.1 -8.8 -1.8 -11.3 -4.2 -2.8 -2.7 -3.2 -2.8 -6.8 -1.7 -2.2 0.7 -5.1 1.2 -6.6 1.2 -2.3 0 -2.6 -0.4 -2.6 -3.4 0 -3.3 0.3 -3.5 5.3 -5.2 2.8 -0.9 5.7 -2 6.2 -2.4 0.6 -0.4 2.3 -1 3.8 -1.4 1.5 -0.4 6.5 -2.4 11.1 -4.6 8.1 -3.8 13.1 -5 13.8 -3.1 0.2 0.5 5.3 2.7 11.4 4.9 12.5 4.6 18.7 7.3 19.2 8.5 0.2 0.4 1 0.7 1.7 0.7 2.5 0 7.5 8.1 7.5 12.2 0 3.7 -0.1 3.8 -3.2 3.6 -1.8 -0.1 -6.2 -0.3 -9.8 -0.5z"/>
  <path d="M143 172 c0 -0.6 2.1 -2 4.6 -3 3.9 -1.7 4.4 -2.3 3.4 -3.5 -1 -1.3 -0.8 -1.5 1.4 -1.5 2.3 0 2.6 0.4 2.6 3.5 0 3.1 -0.3 3.5 -2.5 3.5 -1.4 0 -2.5 0.5 -2.5 1 0 0.6 -1.6 1 -3.5 1 -1.9 0 -3.5 -0.5 -3.5 -1z"/>
  <path d="M353 169.5 c0 -0.8 -0.4 -1.5 -1 -1.5 -0.5 0 -1 -0.7 -1 -1.5 0 -0.8 -0.4 -1.5 -1 -1.5 -0.5 0 -1 -1.6 -1 -3.6 0 -3.1 0.2 -3.5 1.4 -2.4 1.6 1.3 7.6 10.3 7.6 11.3 0 0.4 -1.1 0.7 -2.5 0.7 -1.6 0 -2.5 -0.6 -2.5 -1.5z"/>
  <path d="M259 164.5 c0 -3.3 0.2 -3.5 3.5 -3.5 3.3 0 3.5 0.2 3.5 3.5 0 3.3 -0.2 3.5 -3.5 3.5 -3.3 0 -3.5 -0.2 -3.5 -3.5z"/>
  <path d="M160 164.2 c0 -0.8 7.1 -5.2 8.4 -5.2 1.4 0 0.5 4.8 -1 5.4 -2.3 0.9 -7.4 0.7 -7.4 -0.2z"/>
  <path d="M245 159.6 c0 -3.2 0.3 -3.5 6.3 -5.9 6.2 -2.5 6.2 -2.5 3.4 -3.6 -1.6 -0.6 -5.2 -1.4 -8.1 -1.7 -4.4 -0.5 -6.3 -0.2 -11.7 2.1 -3.5 1.6 -8.8 3 -11.6 3.2 l-5.3 0.5 0 -4.1 c0 -3 0.5 -4.4 2 -5.3 1.1 -0.7 2 -1.8 2 -2.5 0 -1.9 8.1 -8.4 14 -11.1 4.1 -1.9 7.7 -2.6 14.2 -3 8.5 -0.4 9.1 -0.3 20.5 4.1 6.5 2.5 13.7 5.1 16.1 5.8 3.9 1.1 4.2 1.5 4.2 4.6 0 1.8 -0.4 3.3 -0.9 3.3 -0.5 0 -1.6 0.6 -2.3 1.3 -2 2 -36.9 15.7 -40 15.7 -2.5 0 -2.8 -0.4 -2.8 -3.4z m42.4 -15.5 c1.5 -0.6 1.6 -0.9 0.5 -1.3 -0.8 -0.3 -2 0.1 -2.7 0.8 -1.4 1.5 -0.7 1.7 2.2 0.5z"/>
  <path d="M329 150 c0 -0.5 -1.1 -1 -2.5 -1 -2 0 -2.5 -0.5 -2.5 -2.5 l0 -2.5 5.2 2.1 c6.3 2.5 6.8 2.8 6.8 4 0 0.5 -1.6 0.9 -3.5 0.9 -1.9 0 -3.5 -0.4 -3.5 -1z"/>
  <path d="M190 146 c0 -0.8 5.1 -4 6.5 -4 0.3 0 0.5 1.1 0.5 2.5 0 2.2 -0.4 2.5 -3.5 2.5 -1.9 0 -3.5 -0.4 -3.5 -1z"/>
  <path d="M202 138.2 c0 -0.8 5.2 -4.2 6.4 -4.2 0.3 0 0.6 1.1 0.6 2.5 0 2.2 -0.4 2.5 -3.5 2.5 -1.9 0 -3.5 -0.4 -3.5 -0.8z"/>
  <path d="M293.8 138.3 c-1.1 -0.3 -1.8 -1.4 -1.8 -2.8 l0 -2.3 5 1.6 c5.7 1.8 6.8 4.3 1.8 4.1 -1.8 -0.1 -4.1 -0.3 -5 -0.6z"/>
  <path d="M282.8 134.3 c-1.1 -0.3 -1.8 -1.4 -1.8 -2.9 l0 -2.4 4.7 1.8 c5.7 2.1 6.9 4.2 2.1 4.1 -1.8 -0.1 -4.1 -0.3 -5 -0.6z"/>
  <path d="M214 131.2 c0 -0.9 6 -4.5 10.3 -6.1 2.5 -1 2.7 -0.9 2.7 1.4 0 2.1 -0.5 2.5 -3 2.5 -2 0 -3 0.5 -3 1.5 0 1 -1.1 1.5 -3.5 1.5 -1.9 0 -3.5 -0.4 -3.5 -0.8z"/>
  <path d="M270 129.1 c0 -0.5 -1.8 -1.1 -4 -1.5 -2.2 -0.3 -4 -1.1 -4 -1.6 0 -0.6 -1 -1 -2.2 -1 -4.4 0 -6.8 -1.2 -6.8 -3.2 0 -2.6 2.4 -2.2 14.6 2.4 9.6 3.6 11.8 5.8 6 5.8 -2 0 -3.6 -0.4 -3.6 -0.9z"/>
  <path d="M385 128.4 c0 -1.2 3.4 -3.3 5.3 -3.4 1 0 1.7 0.7 1.7 2 0 1.6 -0.7 2 -3.5 2 -1.9 0 -3.5 -0.3 -3.5 -0.6z"/>
  <path d="M374 126 c-2.1 -1.3 -0.2 -4.2 3.4 -5.1 4.9 -1.3 5.8 0 2.2 3.2 -3.8 3.3 -3.6 3.2 -5.6 1.9z"/>
  <path d="M235 122.6 c0 -1.3 2.8 -2.6 5.8 -2.6 0.6 0 1.2 0.9 1.2 2 0 1.6 -0.7 2 -3.5 2 -2.3 0 -3.5 -0.5 -3.5 -1.4z"/>
  <path d="M71.7 115.4 c-0.4 -0.4 -0.7 -1.6 -0.7 -2.6 0 -1.2 0.7 -1.8 2.5 -1.8 2.1 0 2.3 0.3 1.6 2.2 -0.9 2.4 -2.3 3.3 -3.4 2.2z"/>
 </g>
 <g fill="#9ec440">
  <path d="M415 262.5 c0 -2.4 0.5 -3.5 1.5 -3.5 0.8 0 1.5 0.6 1.6 1.3 0 0.6 0.2 2.2 0.5 3.5 0.3 1.7 -0.1 2.2 -1.6 2.2 -1.6 0 -2 -0.7 -2 -3.5z"/>
  <path d="M344 237.6 c0 -1.3 2.8 -2.6 5.8 -2.6 0.6 0 1.2 0.9 1.2 2 0 1.6 -0.7 2 -3.5 2 -2.3 0 -3.5 -0.5 -3.5 -1.4z"/>
  <path d="M358 235.5 c0 -1.5 2.4 -2.1 11.8 -2.9 4.5 -0.4 5.2 -0.2 5.2 1.3 0 1.4 -1.1 2 -5.2 2.5 -8.6 1 -11.8 0.8 -11.8 -0.9z"/>
  <path d="M377 233.5 c0 -0.8 0.6 -1.5 1.3 -1.6 0.6 0 2.2 -0.2 3.5 -0.3 1.6 -0.2 2.2 0.3 2.2 1.6 0 1.4 -0.8 1.8 -3.5 1.8 -2.4 0 -3.5 -0.5 -3.5 -1.5z"/>
  <path d="M400 231.5 c0 -0.8 1.4 -1.7 3.5 -2.1 4.7 -0.9 10.5 0.3 10.5 2.1 0 1.2 -1.5 1.5 -7 1.5 -5.5 0 -7 -0.3 -7 -1.5z"/>
  <path d="M101.7 207.9 c1.1 -1.3 -0.6 -1.5 -13 -1.1 -21 0.6 -31.8 -2.4 -36.6 -10.2 -2.5 -4 -2.7 -8.6 -0.5 -12.9 6.6 -13 23.7 -27 51.4 -42.2 11.9 -6.5 12 -6.6 10.3 -7.2 -2.4 -0.9 -1.3 -2.3 1.7 -2.3 4.4 0 11 2.9 11 4.9 0 0.9 -1.5 2.2 -3.2 3 -4.3 1.8 -25.6 14.3 -33.3 19.4 -3.3 2.3 -10 7.3 -14.9 11.1 -7 5.7 -9.4 8.3 -11.7 12.9 -1.7 3.4 -2.7 6.6 -2.4 7.7 1.2 3.8 7.1 5.4 21.8 5.8 17.5 0.5 26.4 -0.3 27.1 -2.6 0.5 -1.3 3.1 -2.2 10.8 -3.5 24.7 -4.4 45.9 -9.1 61.5 -13.6 32.4 -9.3 63.2 -19.6 77.1 -25.7 4.3 -1.9 8.6 -1.9 7.9 0 -0.4 0.9 3.1 -0.1 9.6 -2.8 5.6 -2.4 10.9 -4.5 11.7 -4.8 1.1 -0.4 0.9 -0.8 -1 -1.6 l-2.5 -1 3 -1.1 c1.7 -0.6 4.7 -1.9 6.7 -2.7 2.5 -1.1 4.9 -1.4 7.3 -1 3.2 0.6 5.7 -0.3 20.4 -7.4 19.1 -9.1 28.2 -14 26.4 -14 -0.7 0 -1.3 -0.7 -1.3 -1.5 0 -2.1 5.7 -4.8 8.6 -4.1 2.8 0.7 6.7 -1.3 20.7 -10.6 17.1 -11.5 28.9 -23.3 30.3 -30.6 0.8 -4.3 -2 -7.5 -8.4 -9.3 -6.9 -2 -36.7 -1.7 -51 0.5 -14.7 2.3 -43.6 9.2 -62.7 15.1 -8.2 2.5 -22.5 6.9 -31.8 9.7 -13.1 4 -17 4.9 -17.9 4 -0.9 -0.9 -1 -1.7 -0.2 -2.9 1 -1.6 12.9 -6.2 25.6 -9.8 3.1 -0.9 7.3 -2.9 9.4 -4.6 5.6 -4.4 20.6 -8.8 57.4 -16.9 18.4 -4 31.1 -5.4 50 -5.5 16.6 0 20.3 0.3 24.9 1.9 6.5 2.3 12.7 7.6 14 12.1 1.2 4.5 -0.3 11.5 -3.5 16.7 -3.5 5.6 -15.1 16.7 -23.4 22.4 -3.6 2.4 -8.9 6.2 -11.8 8.4 -3 2.1 -5.9 4.1 -6.5 4.4 -0.9 0.5 -0.9 0.8 0.1 1.2 2 0.9 1.4 2.3 -1.9 4.3 -2.4 1.5 -3.7 1.7 -5.3 1 -1.7 -0.8 -3.6 -0.2 -9.6 3.1 -4.1 2.3 -13.6 7 -21 10.6 -12.5 6 -13.4 6.6 -11.6 8 1.1 0.7 1.8 1.5 1.5 1.7 -0.2 0.1 -2.9 1.3 -5.9 2.6 -5.9 2.5 -10.2 3 -10.8 1.2 -0.3 -0.8 -1.5 -0.5 -3.5 0.8 -1.8 1 -6.3 3.1 -10.2 4.5 -3.8 1.5 -8.3 3.3 -10 4 -1.6 0.8 -3.7 1.6 -4.5 1.9 -0.8 0.3 0.4 0.3 2.6 0 7.8 -1 5.3 1.3 -4.9 4.7 -5.6 1.8 -15.1 5.3 -21.2 7.7 -6 2.5 -17.7 6.7 -26 9.4 -8.2 2.7 -17.7 5.7 -21 6.8 -5.7 1.9 -27.9 7.9 -42.8 11.5 -14.1 3.5 -43.5 8.5 -54.7 9.3 -8.3 0.5 -9.3 0.4 -8.3 -0.8z m91.8 -18.9 c2.5 -1.1 -0.1 -1.1 -3.5 0 -2 0.6 -2.1 0.8 -0.5 0.8 1.1 0 2.9 -0.3 4 -0.8z m43.9 -14 c0.7 -0.7 0.1 -0.7 -1.9 -0.1 -5.4 1.7 -6.1 2.1 -2.5 1.6 1.9 -0.3 3.9 -1 4.4 -1.5z m24.6 -20.5 c3.3 -1.9 2.1 -1.9 -2.1 0 -1.9 0.8 -2.7 1.4 -1.9 1.4 0.8 0 2.6 -0.6 4 -1.4z"/>
  <path d="M131 133.6 c-3.5 -1.3 -5.4 -4.6 -2.7 -4.6 0.9 0 1.7 -0.4 1.9 -0.9 0.7 -1.8 39.5 -19.7 52.5 -24.2 4.5 -1.6 10 -3.7 12.2 -4.8 5.5 -2.9 29.9 -11.1 32.7 -11.1 2.9 0 4.1 1.8 2.3 3.5 -0.8 0.8 -10.8 5.2 -22.4 9.9 -39.1 15.7 -71.4 30.6 -68.2 31.3 0.9 0.3 1.5 0.9 1.2 1.4 -0.8 1.2 -5.3 1 -9.5 -0.5z"/>
 </g>
 <g fill="#e77341">
  <path d="M194.6 338 c-4.9 -5.3 -7.1 -9.5 -13.8 -26.7 -3.6 -9.3 -4.3 -10.5 -8.8 -13.7 -6.1 -4.4 -7.8 -9.4 -8.7 -24.7 l-0.6 -10.6 4.2 -1.6 c2.3 -1 5.4 -1.7 7 -1.7 l2.8 0 0.5 10.3 c0.7 12.1 2.3 16.6 7.2 19.6 2 1.3 3.6 2.4 3.6 2.5 0 0.1 2.4 7.1 5.4 15.6 5.3 15.4 9.6 25.3 11.6 26.5 0.5 0.3 1 2.6 1 5.1 0 4.3 -0.1 4.4 -3.4 4.4 -2.7 0 -4.2 -0.9 -8 -5z"/>
  <path d="M244 329.1 c0 -4.2 1.4 -8.2 11.5 -32.6 3.6 -8.8 8.9 -21.7 11.6 -28.7 l5.1 -12.8 3.8 0 c4.3 0 8.2 2.7 10.8 7.3 1.4 2.6 1.6 5.7 1.6 17.2 -0.2 14.6 -1.8 25.2 -5.3 33 -2.4 5.4 -8.3 11.9 -13.5 15 -5.1 2.9 -14.9 5.5 -21 5.5 l-4.6 0 0 -3.9z"/>
  <path d="M208.6 317.1 c-3.5 -5.5 -8.8 -27.6 -9 -36.7 -0.1 -9.7 0.9 -11.3 9.4 -15.1 5.6 -2.5 21.2 -6.3 26.3 -6.3 2.5 0 2.7 0.3 2.7 3.7 0 3.7 -4.7 16.1 -15.8 41.3 -5.9 13.5 -5.9 13.5 -9.5 13.8 -1.9 0.2 -3.8 -0.1 -4.1 -0.7z"/>
  <path d="M378 306.9 c0 -2.7 3 -11.8 9.1 -27.7 5 -13.1 10.2 -26.7 11.6 -30.4 2.6 -6.7 2.6 -6.8 6.4 -6.8 4.4 0 4.5 0 5.9 12.5 2.8 25.2 -0.5 44.5 -8.8 50.4 -3.3 2.3 -16.2 6.1 -20.9 6.1 -3.2 0 -3.3 -0.1 -3.3 -4.1z"/>
  <path d="M340.7 290.8 c-6.5 -13.1 -8.7 -20.9 -8.7 -30.4 0 -9.4 2.1 -12.8 9.2 -14.9 6.8 -2 26.1 -5.5 30.5 -5.5 3.1 0 3.3 0.2 3.3 3.4 0 4.2 -2.9 12.4 -12.7 36.1 -4.1 9.9 -7.8 19 -8.3 20.3 -0.7 1.7 -1.8 2.2 -4.4 2.2 -3.3 0 -3.5 -0.2 -8.9 -11.2z"/>
  <path d="M200 217.5 l0 -3.5 5.5 0 c3 0 5.5 -0.4 5.5 -0.8 0 -0.5 -2.5 -0.7 -5.5 -0.4 -3.7 0.3 -5.5 0.1 -5.5 -0.7 0 -0.6 -1.3 -1.1 -3 -1.1 -2.8 0 -3 -0.3 -3 -3.5 0 -3.4 0.1 -3.5 3.9 -3.5 2.2 0 4.1 0.5 4.3 1 0.2 0.6 2.1 0.8 5 0.4 3.4 -0.5 4.8 -1.2 5.1 -2.5 0.3 -1.1 1.4 -1.9 2.6 -1.9 1.2 0 2.1 -0.6 2.1 -1.5 0 -0.9 0.9 -1.5 2.5 -1.5 1.5 0 2.5 -0.6 2.5 -1.5 0 -2.1 3.1 -5.5 5.1 -5.5 0.9 0 1.9 -0.9 2.2 -2 0.4 -1.5 1.4 -2 4.2 -2 3.6 0 3.6 0.1 3.3 3.7 -0.2 3 -0.8 3.9 -2.8 4.4 -2.3 0.6 -2.2 0.7 0.8 0.8 1.7 0.1 3.2 -0.3 3.2 -0.9 0 -0.5 1.1 -1 2.5 -1 2.2 0 2.5 -0.4 2.5 -3.5 0 -3.1 0.3 -3.5 2.6 -3.5 1.5 0 4.8 0.8 7.5 1.7 4.6 1.6 4.9 2 4.9 5.1 0 3.4 0 3.4 -4 3 -3.9 -0.3 -4 -0.3 -4 2.9 0 3.1 -0.2 3.3 -3.5 3.3 -1.9 0 -3.5 -0.4 -3.5 -1 0 -0.5 -0.9 -1 -2 -1 -1.1 0 -2 0.5 -2 1 0 0.6 -0.5 1 -1.1 1 -0.6 0 -2 1.1 -3.1 2.5 -1.1 1.4 -3 2.5 -4.4 2.5 -1.5 0 -2.4 0.6 -2.4 1.6 0 1.8 -2.3 4.4 -3.9 4.4 -0.6 0 -1.1 0.5 -1.1 1 0 0.6 -0.5 1 -1.1 1 -0.6 0 -1.7 0.7 -2.5 1.5 -0.9 0.8 -3.1 1.5 -5 1.5 -1.9 0 -3.4 0.5 -3.4 1 0 0.6 -2.5 1 -5.5 1 l-5.5 0 0 -3.5z m16 -7.5 c0 -0.5 -0.7 -1 -1.5 -1 -0.8 0 -1.5 0.5 -1.5 1 0 0.6 0.7 1 1.5 1 0.8 0 1.5 -0.4 1.5 -1z m10 -7 c0 -1.1 -0.4 -2 -1 -2 -0.5 0 -1 0.9 -1 2 0 1.1 0.5 2 1 2 0.6 0 1 -0.9 1 -2z"/>
  <path d="M257 201.5 c0 -3.3 0.2 -3.5 3.5 -3.5 3.3 0 3.5 0.2 3.5 3.5 0 3.3 -0.2 3.5 -3.5 3.5 -3.3 0 -3.5 -0.2 -3.5 -3.5z"/>
  <path d="M267 196.7 c0 -2 -0.4 -2.2 -4 -1.9 -4 0.4 -4 0.4 -4 -3.1 0 -3.8 1.2 -4.7 6.1 -4.7 2.2 0 2.9 0.5 2.9 1.9 0 1.7 0.3 1.8 2.5 0.8 1.9 -0.9 2.5 -2 2.5 -4.4 0 -3.1 0.2 -3.3 3.5 -3.3 3.5 0 3.5 0 3.5 4.5 0 3.3 -0.4 4.5 -1.5 4.5 -0.9 0 -1.5 0.9 -1.5 2.3 0 3.2 -3 5.7 -6.8 5.7 -2.7 0 -3.2 -0.4 -3.2 -2.3z"/>
 </g>
 <g fill="#9f8968">
  <path d="M170.5 472.3 c-6.4 -1.6 -26.7 -8.9 -36 -13 -11.2 -5 -14 -7.3 -8.7 -7.3 2.9 0 14.2 4.4 15.2 5.9 0.3 0.5 1.6 1 3 1.4 1.4 0.3 7.7 2.3 14 4.6 6.3 2.2 13.4 4.3 15.8 4.7 3.2 0.5 4.2 1.1 4.2 2.5 0 1.9 -2.7 2.4 -7.5 1.2z"/>
  <path d="M186 471.2 c0 -1.6 2.1 -2.2 14.8 -4.5 17 -3.1 21.2 -3.3 21.2 -1.2 0 0.9 -1.4 1.6 -3.7 2 -2.1 0.4 -9.7 1.7 -16.9 3.1 -15.7 2.9 -15.4 2.9 -15.4 0.6z"/>
  <path d="M226 465 c0 -1.8 0.7 -2 5.5 -2 4 0 5.5 0.4 5.5 1.4 0 1.6 -3 2.6 -7.7 2.6 -2.6 0 -3.3 -0.4 -3.3 -2z"/>
  <path d="M238 464.2 c0 -1.5 1.5 -2 9.8 -3 5.4 -0.7 18.5 -3 29.2 -5.2 21.3 -4.4 26 -4.8 26 -2.5 0 0.8 -0.3 1.5 -0.6 1.5 -0.3 0 -8.5 1.6 -18.3 3.5 -18.5 3.8 -40.7 7.5 -44.1 7.5 -1.3 0 -2 -0.7 -2 -1.8z"/>
  <path d="M304 453.1 c0 -1.7 0.6 -2.1 3.4 -2.1 1.9 0 11.6 -1.1 21.6 -2.5 21.3 -2.9 25 -3.1 25 -1 0 1.6 0.4 1.5 -22 4.4 -27.8 3.7 -28 3.7 -28 1.2z"/>
  <path d="M116 450.9 c-2.5 -1.2 -11.2 -4.3 -19.5 -7.1 -8.2 -2.7 -16.8 -6 -19.1 -7.3 -6.3 -3.7 -10.9 -9.5 -16.8 -21.2 -3 -6 -6.9 -13.5 -8.8 -16.8 -5 -8.9 -5.2 -9.5 -2.3 -9.5 1.6 0 2.5 0.6 2.5 1.5 0 0.8 0.4 1.5 0.9 1.5 0.5 0 1.7 2 2.8 4.5 1 2.5 2 4.5 2.3 4.5 0.3 0 3 5.1 6 11.3 3 6.1 6.1 11.6 6.8 12 0.6 0.4 1.2 1.9 1.2 3.2 0 2 0.5 2.5 2.5 2.5 1.3 0 2.8 0.6 3.2 1.4 1 1.6 9.6 5.1 25.1 10.1 6.1 2 11.2 4.1 11.2 4.6 0 0.5 1 0.9 2.3 0.9 3.2 0 4.9 1.4 4.5 3.8 l-0.3 2.1 -4.5 -2z"/>
  <path d="M357 447.1 c0 -1.8 0.6 -2.1 4.5 -2.1 4.8 0 13.2 -1.5 18 -3.2 5.3 -1.9 21 -9.3 22.3 -10.5 0.7 -0.7 2 -1.3 2.8 -1.3 0.8 0 1.4 -0.4 1.4 -1 0 -0.5 1.1 -1.2 2.5 -1.6 1.4 -0.3 2.5 -1 2.5 -1.5 0 -0.5 0.7 -0.9 1.5 -0.9 0.8 0 1.5 -0.4 1.5 -1 0 -0.5 0.5 -1 1 -1 0.6 0 2 -0.9 3.2 -2 1.2 -1.1 2.7 -2 3.4 -2 0.6 0 1.4 -0.7 1.8 -1.5 0.3 -0.8 1.7 -1.5 3.1 -1.5 1.9 0 2.5 -0.5 2.5 -2.1 0 -1.2 0.8 -2.3 2 -2.6 1.1 -0.3 2 -1.4 2 -2.4 0 -1.1 0.4 -1.9 0.9 -1.9 0.5 0 1.5 -2 2.2 -4.5 1 -3.3 1.8 -4.5 3.2 -4.5 1.7 0 1.9 0.5 1.4 3.7 -1.4 8.5 -9.7 16.7 -29.1 28.8 -19.7 12.2 -31.1 16.6 -47.4 18.1 -6.9 0.7 -7.2 0.6 -7.2 -1.5z"/>
  <path d="M228 438.5 c-10.6 -6 -14 -6.8 -27.6 -6.6 -11.9 0.2 -13.3 0 -14.5 -1.7 -0.8 -1 -4.1 -3.2 -7.4 -4.8 -5.2 -2.6 -6.5 -3.8 -10.5 -10.2 -4.7 -7.7 -7.6 -10.1 -12.3 -10.2 -1.5 0 -6 -1.5 -10 -3.4 -6.3 -3.1 -8.1 -4.6 -14.7 -12.6 -10.6 -12.9 -10.5 -12.8 -10.5 -25 0 -10.4 0 -10.6 4.3 -18.8 5.5 -10.6 7.1 -18.1 4.8 -21.6 -2.3 -3.6 -2 -8 0.8 -11.3 2.1 -2.4 3.2 -2.8 9.7 -3.1 4.1 -0.3 12.4 0.1 18.6 0.8 l11.1 1.2 3.8 9.2 c6.4 15.7 8 19 12.1 24.4 7.1 9.4 13.5 13.1 29 16.8 8.5 2.1 12.3 2.5 17.9 2.1 14.6 -1.1 34.2 -9.1 43.8 -17.8 6.8 -6.2 17.9 -22.5 20.5 -30.1 1.1 -3.1 2.4 -8.1 3.1 -11.2 1.3 -6.5 2.7 -7.6 9.9 -7.6 6.7 0 10.2 3.1 16 14.1 10.4 19.6 26.3 29 46.8 27.7 6.3 -0.4 8.8 -1.3 19.3 -6.4 6.7 -3.2 12.6 -6.4 13.2 -7.1 0.6 -0.8 3.2 -1.3 6.4 -1.3 l5.4 0 0 3.5 c0 4.1 -1.6 4.6 -3.2 1 -1.3 -2.9 -2.1 -3.1 -3.8 -1 -1 1.3 -0.9 2.9 1 9.1 3 10.3 2.5 21.3 -1.5 29.9 -2 4.4 -2.9 8.3 -3.4 14.8 -0.3 4.8 -0.5 8.7 -0.4 8.7 0.1 0 1.2 -1.9 2.4 -4.2 1.2 -2.4 5.2 -7.5 9 -11.5 5.4 -5.8 7.2 -8.4 8.4 -12.8 l1.7 -5.6 -4.7 -9.2 c-6.8 -13.3 -6.9 -13.7 -4.2 -13.7 1.7 0 2.8 1 4 3.5 0.9 2 1.7 4.2 1.7 5 0 0.8 0.5 1.5 1 1.5 0.6 0 1 1.4 1 3 0 1.9 0.5 3 1.4 3 0.8 0 1.6 1.5 2 3.8 1.7 9.8 1.8 11.2 0.5 12.6 -3.1 3.4 -3.9 4.6 -3.9 5.6 0 0.5 -0.7 1 -1.5 1 -0.8 0 -1.5 0.8 -1.5 1.8 0 1 -2.1 3.8 -4.6 6.2 -2.5 2.5 -5.7 6.7 -7.1 9.4 -3.2 6.3 -11.2 14.2 -16.8 16.7 -2.3 1 -8.1 2.6 -12.6 3.5 -9.9 1.8 -16.3 4.4 -20.4 8.3 -2.7 2.5 -4.4 3 -15.4 4.5 -6.8 0.9 -16.4 3 -21.5 4.7 -15.1 5 -33.1 8.1 -65.5 11.4 -19 1.9 -27.8 1.9 -31.1 0z"/>
  <path d="M436.2 383.2 c-0.7 -4.2 -1.2 -9 -1.2 -10.5 0 -3.9 2.8 -3.5 3.4 0.6 0.3 1.7 1 5.9 1.6 9.1 1.3 8 1.3 8.6 -0.8 8.6 -1.4 0 -2 -1.4 -3 -7.8z"/>
  <path d="M45.6 385.8 c-1.1 -4.2 -0.7 -5.8 1.4 -5.8 1.7 0 2 0.7 2 4 0 4.5 -2.3 5.7 -3.4 1.8z"/>
  <path d="M45 373.1 c0 -5.1 8 -26.1 9.9 -26.1 1.9 0 1.2 5.3 -1.8 13 -1.6 4.1 -3.2 9.2 -3.6 11.3 -0.5 2.7 -1.2 3.7 -2.6 3.7 -1.2 0 -1.9 -0.7 -1.9 -1.9z"/>
  <path d="M433.7 362.6 c-0.3 -3 -1.8 -8.2 -3.2 -11.7 -3.1 -7.1 -4.3 -13.9 -2.6 -13.9 1.7 0 7.8 13.9 9 20.4 1.6 8.6 1.4 10.6 -0.8 10.6 -1.5 0 -1.9 -1 -2.4 -5.4z"/>
  <path d="M56.6 338.3 c2.9 -9.4 3 -11.5 0.7 -11.2 -3.7 0.3 -5.3 -0.1 -5.3 -1.6 0 -1.2 1.3 -1.5 5.5 -1.5 l5.5 0 0 4 c0 2.2 -0.4 4 -1 4 -0.5 0 -1 1.4 -1 3.1 0 1.8 -0.5 4.9 -1.2 7 -0.9 3 -1.6 3.9 -3.3 3.9 l-2.3 0 2.4 -7.7z"/>
  <path d="M202 342.4 c0 -2 0.4 -2.5 1.6 -2 1.4 0.5 1.5 0.4 0.4 -0.9 -1.1 -1.3 -0.8 -1.5 1.9 -1.5 2.9 0 3.1 0.2 3.1 3.5 0 3.3 -0.2 3.5 -3.5 3.5 -3.1 0 -3.5 -0.3 -3.5 -2.6z"/>
  <path d="M422 333.1 c0 -1.1 -0.4 -2.1 -1 -2.3 -1.8 -0.6 -5 -11.6 -5 -17.2 0 -7 0.7 -8.6 3.6 -8.6 2.8 0 2.9 0.2 0.8 4.2 -2 3.9 -1.3 8 3.2 17.7 1.9 4.1 3.4 7.5 3.4 7.7 0 0.2 -1.1 0.4 -2.5 0.4 -1.8 0 -2.5 -0.5 -2.5 -1.9z"/>
  <path d="M237 332 c0 -0.5 0.6 -1 1.4 -1 0.7 0 2.3 -2.2 3.4 -5 2.4 -5.8 4.2 -6.5 4.2 -1.5 0 1.9 -0.4 3.5 -1 3.5 -0.5 0 -1 1.1 -1 2.5 0 2.2 -0.4 2.5 -3.5 2.5 -1.9 0 -3.5 -0.4 -3.5 -1z"/>
  <path d="M45 324 c-4 -4 -5.2 -10 -2.1 -10 1.3 0 2.1 0.9 2.6 2.9 0.3 1.6 1.3 3.2 2.1 3.5 1.6 0.6 2 5.6 0.4 5.6 -0.5 0 -1.9 -0.9 -3 -2z"/>
  <path d="M212 320.5 c0 -3.1 0.3 -3.5 2.6 -3.5 2.1 0 2.4 0.3 1.9 2 -0.4 1.2 -0.1 2.7 0.5 3.5 1 1.3 0.7 1.5 -1.9 1.5 -2.9 0 -3.1 -0.2 -3.1 -3.5z"/>
  <path d="M216 312.6 c0 -3.2 0.3 -3.6 2.5 -3.6 2.4 0 2.5 0.1 1.2 3.2 -1.9 4.6 -3.7 4.8 -3.7 0.4z"/>
  <path d="M41 311.3 c0 -3.4 1.2 -6.3 2.6 -6.3 1 0 1.4 1.3 1.4 4 0 3.3 -0.3 4 -2 4 -1.2 0 -2 -0.7 -2 -1.7z"/>
  <path d="M361 311 c0 -0.5 -1.1 -1 -2.4 -1 -4.1 0 -5.6 -1.1 -5.6 -4 l0 -2.9 4.3 2.4 c2.3 1.3 5.7 2.6 7.5 3 4.4 0.9 4.3 3.5 -0.3 3.5 -1.9 0 -3.5 -0.4 -3.5 -1z"/>
  <path d="M220 303.6 c0 -3.2 0.3 -3.6 2.5 -3.6 2.4 0 2.5 0.1 1.2 3.2 -1.9 4.6 -3.7 4.8 -3.7 0.4z"/>
  <path d="M253.1 298.8 c2.5 -6.3 2.8 -6.8 4 -6.8 0.5 0 0.9 1.6 0.9 3.5 0 1.9 -0.4 3.5 -1 3.5 -0.5 0 -1 1.1 -1 2.5 0 2 -0.5 2.5 -2.5 2.5 l-2.5 0 2.1 -5.2z"/>
  <path d="M378.3 297.8 c1.9 -4.6 3.7 -4.8 3.7 -0.4 0 3.2 -0.3 3.6 -2.5 3.6 -2.4 0 -2.5 -0.1 -1.2 -3.2z"/>
  <path d="M352 296.6 c0 -3.2 0.3 -3.6 2.5 -3.6 2.4 0 2.5 0.1 1.2 3.2 -1.9 4.6 -3.7 4.8 -3.7 0.4z"/>
  <path d="M46 298.1 c0 -1.7 9.1 -13 13.6 -17 2.5 -2.2 6.8 -4.8 9.6 -5.8 4.1 -1.5 5.4 -2.5 6.6 -5.3 0.8 -1.9 4.5 -10 8.2 -18 3.7 -8 8.4 -19.4 10.4 -25.5 4.3 -12.7 7.6 -19.7 9.4 -20.3 1.8 -0.5 1.6 5.3 -0.3 7.2 -0.8 0.8 -1.5 2 -1.5 2.6 0 3.3 -9.4 28 -10.6 28 -0.9 0 -1.4 1.1 -1.4 3 0 3.1 -5.5 15.2 -7.1 15.8 -0.5 0.2 -0.9 1.1 -0.9 2 0 3.4 -3.5 10.2 -5.2 10.2 -1 0 -1.8 0.7 -1.8 1.5 0 0.9 -0.9 1.5 -2.5 1.5 -1.4 0 -2.5 0.4 -2.5 1 0 0.5 -1.1 1.2 -2.5 1.6 -1.4 0.3 -2.5 1 -2.5 1.5 0 0.5 -1.5 0.9 -3.4 0.9 -3.3 0 -3.5 0.2 -3.8 3.8 -0.2 3 -0.7 3.8 -2.5 4 -1.7 0.3 -2.3 1 -2.3 2.8 0 1.3 -0.4 2.4 -1 2.4 -0.5 0 -1 0.7 -1 1.5 0 0.9 -0.9 1.5 -2.5 1.5 -1.4 0 -2.5 -0.4 -2.5 -0.9z"/>
  <path d="M423 295.3 c0 -1 0.3 -4.2 0.6 -7 0.6 -4.3 1 -5.3 2.5 -5.3 2.2 0 2.4 1.7 0.8 9 -0.7 3.1 -1.6 5 -2.5 5 -0.8 0 -1.4 -0.8 -1.4 -1.7z"/>
  <path d="M355 288.5 c0 -2.4 0.5 -3.5 1.5 -3.5 1 0 1.5 -1.1 1.5 -3.5 0 -3.1 0.3 -3.5 2.5 -3.5 2.1 0 2.3 0.3 1.6 2.3 -4.7 11.9 -7.1 14.7 -7.1 8.2z"/>
  <path d="M227 287.6 c0 -1.9 0.7 -4.1 1.5 -5 0.8 -0.8 1.5 -2.4 1.5 -3.5 0 -1.2 0.4 -2.1 0.9 -2.1 0.5 0 1.1 -1.8 1.5 -4 0.5 -3.4 1 -4 3.1 -4 l2.5 0 -2.2 5.8 c-5.7 15.5 -8.8 20 -8.8 12.8z"/>
  <path d="M383.3 284.8 c1.9 -4.6 3.7 -4.8 3.7 -0.4 0 3.2 -0.3 3.6 -2.5 3.6 -2.4 0 -2.5 -0.1 -1.2 -3.2z"/>
  <path d="M263.1 274.8 c2.5 -6.3 2.8 -6.8 4 -6.8 0.5 0 0.9 1.6 0.9 3.5 0 1.9 -0.4 3.5 -1 3.5 -0.5 0 -1 1.1 -1 2.5 0 2 -0.5 2.5 -2.5 2.5 l-2.5 0 2.1 -5.2z"/>
  <path d="M388.3 271.8 c1.9 -4.6 3.7 -4.8 3.7 -0.4 0 3.2 -0.3 3.6 -2.5 3.6 -2.4 0 -2.5 -0.1 -1.2 -3.2z"/>
  <path d="M363 270.6 c0 -3.2 0.3 -3.6 2.5 -3.6 2.4 0 2.5 0.1 1.2 3.2 -1.9 4.6 -3.7 4.8 -3.7 0.4z"/>
  <path d="M236 264.5 c0 -2.4 0.5 -3.5 1.5 -3.5 0.8 0 1.5 -0.8 1.5 -1.8 0 -1.6 1.3 -2.1 8.3 -3 10.7 -1.5 12.7 -1.5 12.7 0.2 0 1.5 -1.8 2 -10.5 3.1 -7.6 0.9 -8.4 1.4 -10 5.1 -1.8 4.4 -3.5 4.4 -3.5 -0.1z"/>
  <path d="M268.3 262.8 c1.9 -4.6 3.7 -4.8 3.7 -0.4 0 3.2 -0.3 3.6 -2.5 3.6 -2.4 0 -2.5 -0.1 -1.2 -3.2z"/>
  <path d="M392.3 261.8 c1.9 -4.6 3.7 -4.8 3.7 -0.4 0 3.2 -0.3 3.6 -2.5 3.6 -2.4 0 -2.5 -0.1 -1.2 -3.2z"/>
  <path d="M425 260 c0 -3.6 0.4 -5 1.4 -5 1.5 0 2.8 -7.8 1.4 -8.2 -0.4 -0.2 -1 -1.8 -1.4 -3.5 -0.5 -2.7 -0.3 -3.3 1.1 -3.3 2 0 1.7 -3.1 -1.3 -13.2 -1.4 -4.9 -2 -5.8 -3.9 -5.8 -1.6 0 -2.3 -0.6 -2.3 -2 0 -2.6 3 -2.6 6.3 0 2.9 2.3 4 5.5 6.3 18.4 l1.6 8.9 -2.6 4.9 c-1.4 2.8 -2.6 6 -2.6 7.1 0 3.8 -1.2 6.7 -2.6 6.7 -1 0 -1.4 -1.4 -1.4 -5z"/>
  <path d="M142.1 259.8 c0.1 -9.3 1.4 -14.6 4.1 -16.7 3.7 -3 6.6 -10.5 8.3 -22.2 1.4 -9.5 2.8 -13.6 7.2 -21.6 1.6 -2.7 2.9 -3.4 10.1 -5.4 4.6 -1.2 9.3 -2.3 10.5 -2.4 4.2 -0.4 23.5 -6 39.7 -11.6 4.7 -1.6 9.1 -2.9 9.8 -2.9 0.8 0 3 -0.7 5 -1.6 2.1 -0.9 4.6 -2 5.7 -2.4 1.1 -0.5 5 -2.2 8.7 -4 3.7 -1.7 8 -3.5 9.7 -4 2.8 -0.8 3.1 -0.7 3.1 1.5 0 2.1 0.7 2.4 8.8 3.9 25 4.5 50.1 8 75.7 10.4 9.5 0.9 13.5 2.8 13.5 6.4 0 1 0.6 1.8 1.3 1.8 2.2 0 4.7 3.4 4.7 6.4 l0 2.7 -2.7 -1.9 c-1.6 -1.1 -4.1 -3.8 -5.8 -6 -2.9 -3.9 -3.2 -4.1 -10.3 -4.8 -4 -0.3 -7.5 -0.4 -7.8 -0.2 -0.2 0.3 0.7 2.5 2 4.9 1.4 2.4 3.4 6.9 4.6 9.9 1.6 4.1 4 7.3 9.5 12.7 l7.4 7.2 5.5 -0.6 c3.1 -0.3 5.6 -1.1 5.6 -1.7 0 -0.6 -0.9 -3.9 -1.9 -7.3 l-1.9 -6.3 2.2 0 c1.8 0 2.4 1 3.9 6.4 0.9 3.5 1.7 7.6 1.7 8.9 0 2.4 -0.4 2.6 -6.7 3.2 -8.6 0.8 -16.5 2.2 -13.5 2.4 1.2 0.1 2.2 0.7 2.2 1.6 0 0.8 -0.1 1.5 -0.2 1.5 -0.2 0 -4.1 0.7 -8.8 1.5 -10.6 1.9 -10 1.9 -10 -0.5 0 -1.7 -0.4 -1.9 -2.7 -1.4 -6 1.5 -10.7 3.2 -9 3.3 2.7 0.2 2 1.7 -1.8 4 l-3.5 2 0 -2 c0 -1.9 -0.4 -1.8 -3.8 1.2 -2.1 1.9 -3.4 3.6 -3 3.7 1.8 0.8 0.6 2.4 -2.7 3.8 -4.4 1.8 -6.5 1.8 -6.5 -0.1 0 -1.2 -1.2 -1.5 -5.7 -1.3 -4.3 0.1 -4.8 0.2 -2 0.5 4.3 0.5 5 2.8 1.2 3.7 -4.8 1.2 -13.7 -2.4 -10.6 -4.3 1.5 -1 -7.2 -5 -12.2 -5.7 -2.3 -0.3 -11.9 0.4 -21.2 1.5 -28.6 3.4 -55.7 9.8 -81.5 19.1 -10.7 3.9 -25.1 6.9 -32.7 7 -3.2 0 -3.3 -0.1 -3.2 -4.2z m69.4 -47.4 c1.7 -0.8 2.2 -1.2 1.2 -0.9 -1 0.3 -4.2 0.5 -7 0.5 -3.7 0 -4.8 0.3 -3.7 1 2.1 1.4 6 1.2 9.5 -0.6z m48.5 -14.8 c2.3 -1.3 2 -1.4 -5 -1.8 -4.1 -0.2 -7.6 -0.3 -7.8 -0.2 -0.4 0.3 8.1 3.2 9.3 3.3 0.6 0 2.1 -0.6 3.5 -1.3z m-16.9 -4.3 c-2.1 -0.9 -3.8 -1 -5.6 -0.3 -1.4 0.5 -2.5 1.1 -2.5 1.2 0 0.2 2.5 0.3 5.6 0.3 5.4 0 5.4 0 2.5 -1.2z"/>
  <path d="M399 244.4 c1.3 -3.3 1.3 -3.2 -1.2 -3.7 -1.4 -0.3 -0.9 -0.5 1.5 -0.6 3.6 -0.1 3.7 0 3.7 3.4 0 3.1 -0.3 3.5 -2.5 3.5 -2.2 0 -2.4 -0.2 -1.5 -2.6z"/>
  <path d="M374 242.6 c0 -3 0.4 -3.4 3.1 -4 5.2 -1 7.9 -0.7 7.9 0.9 0 0.8 -1.4 1.7 -3.5 2.1 -2 0.3 -4 1.5 -4.6 2.5 -1.5 2.9 -2.9 2.2 -2.9 -1.5z"/>
  <path d="M365 226 c0 -1.6 0.7 -2 3.5 -2 4 0 4.9 2.4 1.3 3.4 -3.8 1 -4.8 0.7 -4.8 -1.4z"/>
  <path d="M374 225 c0 -1.6 0.7 -2 3.5 -2 4 0 4.9 2.4 1.3 3.4 -3.8 1 -4.8 0.7 -4.8 -1.4z"/>
  <path d="M394 223 c0 -1.1 0.5 -2 1 -2 0.6 0 1 -0.6 1 -1.4 0 -1.6 3 -2.6 7.8 -2.6 2.5 0 3.2 0.4 3.2 2 0 1.6 -0.7 2 -3 2 -1.9 0 -3 0.5 -3 1.4 0 1.3 -2.8 2.6 -5.7 2.6 -0.7 0 -1.3 -0.9 -1.3 -2z"/>
  <path d="M384 220.1 c0 -1.1 -0.5 -2.1 -1.1 -2.3 -0.6 -0.2 -1.4 -2.7 -1.7 -5.6 -0.2 -2.9 -0.8 -5.2 -1.3 -5.2 -0.5 0 -0.9 -1.3 -0.9 -3 0 -1.6 -0.5 -3 -1.1 -3 -1.9 0 -3.8 -3.3 -3.9 -6.7 0 -2.8 -0.3 -3.2 -3.2 -3.5 -3 -0.3 -3.3 -0.6 -3.6 -4 -0.3 -3.5 -0.1 -3.8 2.2 -3.8 2.9 0 4.4 1.7 2 2.2 -1.3 0.2 -0.6 1.4 2.8 5.3 5.6 6.2 8 10.9 10.4 20.3 1.7 6.8 2 7.2 4.6 7.2 2.1 0 2.8 0.5 2.8 2 0 1.7 -0.7 2 -4 2 -3.3 0 -4 -0.3 -4 -1.9z"/>
  <path d="M107 207.6 c0 -1.4 2.9 -2.6 6.8 -2.6 1.5 0 2.2 0.6 2.2 2 0 1.7 -0.7 2 -4.5 2 -3.2 0 -4.5 -0.4 -4.5 -1.4z"/>
  <path d="M352.5 201.4 c-1.9 -2 -1.9 -4.3 0 -5 1.9 -0.8 4.5 1.3 4.5 3.6 0 2.4 -2.6 3.2 -4.5 1.4z"/>
  <path d="M109 195.3 c0 -2 5.7 -8.5 10.9 -12.3 5.5 -4.2 16 -9.5 25.9 -13.2 3.1 -1.1 6 -2.6 6.4 -3.2 0.4 -0.6 0.8 0.3 0.8 2 0 2.8 -0.4 3.2 -6.9 5.7 -3.8 1.5 -7.6 2.7 -8.5 2.7 -0.9 0 -1.6 0.4 -1.6 0.9 0 0.5 -1.5 1.5 -3.2 2.2 -1.8 0.7 -3.9 1.9 -4.6 2.6 -0.7 0.7 -1.9 1.3 -2.7 1.3 -0.7 0 -1.5 0.7 -1.9 1.5 -0.3 0.8 -1.4 1.5 -2.5 1.5 -1 0 -2.1 0.9 -2.4 2.1 -0.3 1.1 -1.5 2.3 -2.6 2.6 -1.2 0.3 -2.1 1.2 -2.1 1.9 0 0.8 -0.4 1.4 -0.9 1.4 -0.5 0 -1.6 0.3 -2.5 0.6 -0.9 0.3 -1.6 0.2 -1.6 -0.3z"/>
  <path d="M120 192.1 c0 -1.8 3.9 -3.1 9.8 -3.1 4.4 0 2.3 2.8 -2.8 3.9 -6.7 1.4 -7 1.4 -7 -0.8z"/>
  <path d="M155 185.3 c0 -1.5 2.3 -2.3 11.8 -4.6 13.2 -3.1 16.2 -3.3 16.2 -1.3 0 1 -3.9 2.4 -12.8 4.5 -14.9 3.6 -15.2 3.6 -15.2 1.4z"/>
  <path d="M190 176 c0 -1.6 0.7 -2 3.5 -2 4 0 4.9 2.4 1.3 3.4 -3.8 1 -4.8 0.7 -4.8 -1.4z"/>
  <path d="M356 175 c0 -1.1 -0.4 -2 -1 -2 -0.5 0 -1 -0.7 -1 -1.5 0 -0.8 -0.4 -1.5 -1 -1.5 -0.5 0 -1 -0.7 -1 -1.5 0 -0.8 -0.4 -1.5 -1 -1.5 -0.5 0 -1 -0.4 -1 -0.9 0 -2 -8.9 -9.7 -13.8 -12 -2.9 -1.4 -5.2 -2.8 -5.2 -3.3 0 -0.4 -0.9 -0.8 -2.1 -0.8 -3.9 0 -11.9 -4.1 -11.9 -6.1 0 -1.1 0.6 -1.9 1.3 -1.9 2.5 0 24.2 10.1 27.7 12.8 1.9 1.6 5.9 6.4 8.8 10.8 2.9 4.3 5.7 8.4 6.2 9.1 1.6 1.9 1.2 2.3 -2 2.3 -2.3 0 -3 -0.4 -3 -2z"/>
  <path d="M317.5 173 c-11.5 -1.6 -26.4 -3.8 -33.1 -4.9 -6.7 -1.2 -13.8 -2.1 -15.8 -2.1 -2.4 0 -3.6 -0.5 -3.6 -1.4 0 -0.9 3.3 -2.1 9.4 -3.6 l9.5 -2.3 4 3.6 c2.8 2.5 4.7 3.5 6.2 3.2 1.3 -0.3 2.7 -0.1 3.3 0.4 0.6 0.5 3.4 1.1 6.1 1.4 2.8 0.3 10 1.2 16 2.1 6.1 0.8 14 1.4 17.6 1.4 3.7 0 7.2 0.2 7.8 0.6 2 1.3 1.2 -0.9 -1.9 -5.1 -3.4 -4.6 -9.2 -7.6 -26.2 -13.8 -10.6 -3.9 -12.1 -4.8 -9.5 -5.8 1.9 -0.7 10.7 1.2 10.7 2.4 0 0.5 0.7 0.9 1.6 0.9 3.4 0 9.4 2.4 9.4 3.7 0 0.8 1.2 1.3 3.4 1.3 1.9 0 4.1 0.7 5 1.5 0.8 0.8 2.2 1.5 3 1.5 0.9 0 1.6 0.8 1.6 2 0 1.3 0.7 2 2 2 1.1 0 2.4 0.8 2.7 1.8 0.4 0.9 1.5 2.6 2.5 3.6 1 1.1 1.8 3.5 1.8 5.3 l0 3.3 -6.2 -0.1 c-3.5 -0.1 -15.7 -1.4 -27.3 -2.9z"/>
  <path d="M201 173.2 c0 -0.9 1.3 -4.2 2.8 -7.2 2.7 -5.3 3 -5.5 7.3 -5.8 2.4 -0.2 7.7 0.2 11.7 0.9 5.7 0.9 7.2 1.5 7.2 2.9 0 1.3 -1.4 2.1 -4.7 2.9 -2.7 0.7 -9 2.8 -14.1 4.7 -5.1 1.8 -9.5 3.4 -9.7 3.4 -0.3 0 -0.5 -0.8 -0.5 -1.8z"/>
  <path d="M164 162.2 c0 -0.4 2.7 -2.3 5.9 -4.2 3.3 -1.9 5.7 -3.8 5.5 -4.2 -0.3 -0.5 0.2 -0.8 1 -0.8 2.6 0 2.1 5.7 -0.6 6.6 -1.2 0.3 -2.8 1.3 -3.6 2 -1.4 1.5 -8.2 2 -8.2 0.6z"/>
  <path d="M228.2 158.2 l-12.3 -2.7 0.3 -4 c0.2 -3.3 0.7 -4.1 2.6 -4.3 1.6 -0.3 2.2 -1 2.2 -2.8 0 -2 0.5 -2.4 3.1 -2.4 l3 0 -2.1 3 c-1.1 1.6 -2.5 3.2 -3 3.5 -0.6 0.4 -1 1.1 -1 1.7 0 1.4 3 0.6 11 -2.7 5.7 -2.5 7.3 -2.7 14.5 -2.2 8.1 0.5 20.8 4.3 20.2 6 -0.1 0.5 -2.6 1.7 -5.5 2.7 -2.8 1 -7.7 3 -10.8 4.4 -6.7 3.1 -6.6 3.1 -22.2 -0.2z"/>
  <path d="M188 147.1 c0 -0.5 1.6 -1.6 3.5 -2.5 1.9 -0.9 4.7 -2.7 6.2 -3.9 6.7 -5.5 23.5 -14.5 33.2 -17.7 10.4 -3.5 15.1 -3.9 15.1 -1.2 0 1.3 -1.4 2 -5.7 2.9 -9 1.9 -14.7 3.7 -16.1 5 -0.7 0.7 -2 1.3 -2.8 1.3 -0.8 0 -1.4 0.4 -1.4 0.9 0 0.5 -2 1.7 -4.5 2.8 -2.5 1 -4.5 2.1 -4.5 2.6 0 0.4 -0.7 0.7 -1.5 0.7 -0.8 0 -1.5 0.3 -1.5 0.8 0 1 -5.8 4.2 -7.6 4.2 -0.8 0 -1.4 0.7 -1.4 1.5 0 0.8 -0.9 1.5 -2 1.5 -1.1 0 -2 0.5 -2 1 0 0.6 -1.6 1 -3.5 1 -1.9 0 -3.5 -0.4 -3.5 -0.9z"/>
  <path d="M277.5 139 c-4.4 -1.5 -10.9 -4 -14.4 -5.4 -7.7 -3.1 -13.2 -3.3 -20.6 -0.7 l-5.5 1.9 0 -2.3 c0 -2.8 3.7 -4.3 12.6 -5.2 6 -0.6 17.4 1.9 17.4 3.7 0 0.4 1.2 1 2.8 1.3 1.5 0.2 5.7 1.5 9.4 2.8 5.6 2 6.8 2.8 6.8 4.7 0 1.2 -0.1 2.2 -0.2 2.1 -0.2 0 -3.9 -1.3 -8.3 -2.9z"/>
  <path d="M228 138.1 c0 -2.9 0.3 -3.1 3.6 -3.1 3.9 0 3.8 0.9 -0.6 4 l-3 2.1 0 -3z"/>
  <path d="M280 133.4 c-9.6 -3.5 -19.9 -7.2 -22.7 -8.1 -3.8 -1.2 -5.3 -2.2 -5.3 -3.5 0 -3 0.7 -2.8 34 9.2 8 2.8 15.2 5.4 16 5.7 1.1 0.3 0.9 0.8 -1 1.8 -1.4 0.8 -2.7 1.4 -3 1.4 -0.3 0 -8.4 -2.9 -18 -6.5z"/>
  <path d="M383.5 130.6 c-1.8 -1.3 -1.8 -1.4 0.3 -2.5 2.9 -1.6 3.2 -1.4 3.2 1.4 0 2.8 -0.8 3.1 -3.5 1.1z"/>
  <path d="M373.7 125.9 c-2.3 -1.3 -2.1 -2.9 0.3 -2.9 1.1 0 2 -0.7 2 -1.5 0 -0.9 0.9 -1.5 2.4 -1.5 3.8 0 3.9 1.5 0.3 4.3 -2.5 1.9 -3.7 2.3 -5 1.6z"/>
  <path d="M80.2 120.1 c-1 -0.6 -0.9 -1.5 0.8 -4.4 2.5 -4.3 5 -4.9 5 -1.2 0 1.6 -0.6 2.5 -1.5 2.5 -0.8 0 -1.5 0.9 -1.5 2 0 2.2 -0.7 2.5 -2.8 1.1z"/>
  <path d="M362.6 120.1 c-0.3 -0.5 1 -1.8 2.9 -3 l3.5 -2 0 2.9 c0 2.6 -0.3 3 -2.9 3 -1.7 0 -3.2 -0.4 -3.5 -0.9z"/>
 </g>
 <g fill="#65a189">
  <path d="M216.4 347 c-11.5 -4.6 -17.9 -13.9 -24.9 -36.5 -4.3 -13.5 -6 -17.5 -7.8 -17.5 -0.6 0 -2.2 -0.8 -3.4 -1.8 -1.9 -1.4 -2.5 -3.6 -3.9 -14.3 -0.9 -7 -1.4 -14.2 -1 -16.2 0.7 -3.5 0.8 -3.6 10.7 -6.7 33 -10.2 83.2 -18.6 91.6 -15.3 1.4 0.6 1.1 0.9 -1.7 1.4 l-3.5 0.5 5 2.3 c2.8 1.2 8.4 3.9 12.4 5.9 6.5 3.2 8.4 3.7 14.5 3.7 9.5 -0.1 16.2 -2.5 22.9 -8.5 5.9 -5.1 8.5 -6.2 18.2 -8 11.8 -2.1 41.2 -5.1 56 -5.7 18.2 -0.7 18 -0.8 17.9 10.6 0 4.2 -0.4 9.8 -0.9 12.5 -0.5 3 -0.3 8.1 0.5 13.5 1.8 12 2.8 14.1 3.1 6.1 0.1 -6.3 0.2 -6.4 1 -2.5 2 8.7 2 11.3 0.6 19.5 -1.8 10.3 -5.7 18.9 -10.5 23.2 -4.6 4 -15.9 9.2 -23.7 10.9 -3.3 0.7 -12.3 1.3 -20 1.4 -12.5 0 -14.5 -0.2 -19 -2.3 -9.9 -4.6 -16 -12.9 -23.6 -31.9 -4.3 -11 -7.3 -15.8 -11.1 -17.6 -2.7 -1.3 -3.6 -1.4 -5.8 -0.2 -4 2.1 -6 5.9 -7.6 14.4 -0.8 4.2 -2.3 12.6 -3.4 18.6 -4.2 22.9 -13.2 32.9 -36.1 39.6 -6 1.7 -10.7 2.2 -24.4 2.5 -15.2 0.4 -17.5 0.2 -22.1 -1.6z m43.5 -18 c18 -6.9 26.4 -21.3 27.8 -47 0.6 -11.8 -0.3 -15.1 -5.6 -21.2 -4.7 -5.3 -9.3 -6.2 -24.3 -4.4 -17.8 2.1 -32.7 5.2 -41.9 8.7 -13.9 5.4 -16.8 9.6 -14.4 21.3 5.4 25.9 14.3 41.2 26.1 45 7.9 2.6 22.2 1.5 32.3 -2.4z m129.4 -21 c17.1 -5.4 23.6 -20.4 21 -48.4 -1.2 -13.3 -2.8 -16.9 -8.7 -19.9 -3.7 -2 -4.5 -2 -14.8 -0.9 -20.9 2.4 -40.9 6.8 -46.8 10.4 -3.3 2 -6.9 8.7 -7 12.9 0 6 7.9 25.5 14.5 35.4 3.7 5.6 9.4 10.2 15 12.3 4.4 1.7 18.9 0.7 26.8 -1.8z"/>
  <path d="M49 323.3 c-3 -1.1 -4 -3.7 -4 -10.6 0 -5.9 0.5 -7.8 3.3 -13 4.1 -7.9 12.8 -17.2 18.7 -20.2 6.2 -3.1 13.4 -4.9 32.1 -7.9 23.4 -3.8 57.4 -8.6 60.6 -8.6 l2.9 0 1.3 11.3 c0.7 6.1 1.6 13.1 1.8 15.3 l0.5 4.1 -4.9 0.7 c-2.6 0.4 -12.2 1.9 -21.3 3.3 -9.1 1.4 -20.3 2.7 -25 2.7 -7.4 0.1 -9.4 -0.3 -16.1 -3.1 -10.3 -4.4 -14.8 -5 -20.4 -2.8 -5.4 2 -8.3 6 -13.9 18.8 -2.2 4.8 -4.7 9.2 -5.7 9.7 -1.9 1.1 -7.4 1.2 -9.9 0.3z"/>
  <path d="M161.6 177.3 c-3.1 -0.8 -10 -5 -11.1 -6.7 -0.7 -1.2 -0.6 -1.9 0.4 -2.6 1.3 -0.7 1.3 -1.1 0.1 -2.6 -1.3 -1.5 -1.1 -1.6 2.8 -1.3 2.3 0.3 4.2 0.2 4.2 -0.1 0 -0.3 1.5 -1 3.4 -1.6 2.6 -0.8 4 -0.7 5.8 0.2 1.3 0.7 3.9 1.3 5.9 1.4 4.5 0 5.9 1.5 5.9 6.2 0 5.8 -2.6 7.8 -9.7 7.7 -3.2 -0.1 -6.7 -0.4 -7.7 -0.6z"/>
  <path d="M253 170.1 c-2.4 -0.8 -2.4 -0.9 1.4 -2.6 2.2 -0.9 4.7 -1.9 5.5 -2.1 0.9 -0.2 3.4 -1 5.5 -1.7 2.1 -0.8 4.7 -1.2 5.7 -1 3.7 1 1.8 2.9 -4.8 5.2 -8.8 2.9 -10.3 3.1 -13.3 2.2z"/>
  <path d="M228 164.3 c0 -2.2 12.9 -7 17.3 -6.5 5.4 0.6 2.5 2.7 -8.8 6.3 -7.4 2.3 -8.5 2.3 -8.5 0.2z"/>
  <path d="M120.8 137.4 c-3.8 -2 -3.5 -3.4 0.7 -3.4 3.1 0 3.5 0.3 3.5 2.5 0 2.9 -0.5 3 -4.2 0.9z"/>
  <path d="M130.3 133.8 c-2.3 -0.8 -3.3 -1.7 -3.3 -3.1 0 -1.6 0.5 -1.9 3.1 -1.3 4 0.8 9.9 3.6 9.9 4.7 0 1.2 -5.6 1 -9.7 -0.3z"/>
  <path d="M363.4 120.6 c-1.9 -1.4 -1.9 -1.5 0.1 -2.2 1.1 -0.4 2.7 -1.3 3.6 -2.1 1.9 -1.6 4.9 -0.8 4.9 1.3 0 0.8 -1 1.4 -2.5 1.4 -1.6 0 -2.5 0.6 -2.5 1.5 0 1.9 -1.1 1.9 -3.6 0.1z"/>
  <path d="M347.6 114.8 c-2 -1.1 -2.1 -2.8 -0.1 -2.8 0.8 0 1.5 -0.4 1.5 -0.8 0 -1.9 4.6 -3 6.9 -1.7 2.3 1.2 2.3 1.2 -2.2 3.7 -3.1 1.8 -4.9 2.2 -6.1 1.6z"/>
 </g>
 <g fill="#36b4a3">
  <path d="M48 251 c-1 -1.8 -0.5 -2.6 3.1 -5.8 2.4 -2 6.7 -5.9 9.7 -8.5 5.4 -4.8 7.4 -5.4 8 -2.4 0.5 2.3 -3.3 7.1 -10.6 13.3 -6.9 5.9 -8.6 6.4 -10.2 3.4z"/>
  <path d="M157.5 174.8 c-2.2 -1.1 -5 -2.9 -6.3 -3.9 -2.1 -1.6 -2.2 -1.8 -0.5 -2.8 1.7 -1 1.6 -1.3 -1.1 -3.7 -3.3 -2.9 -5 -2.9 -15.5 0.1 -6.7 1.8 -12.1 0.8 -16.3 -3.1 -2.2 -2.2 -2.8 -3.6 -2.6 -5.9 0.4 -4 2.9 -4.3 5.1 -0.6 2.4 4.2 6 4.6 15.5 2 9.6 -2.6 13.2 -2.1 18.7 2.4 2.9 2.3 5 3.2 8 3.3 4.1 0.2 12.9 1.9 14.6 2.9 0.5 0.4 0.9 2.6 0.9 5 0 5.5 -1.6 6.5 -10.2 6.5 -4.4 -0.1 -7.5 -0.7 -10.3 -2.2z m16.1 -1.4 c1 -0.8 1.2 -1.2 0.4 -0.8 -0.8 0.4 -3 1.1 -5 1.5 -3.5 0.7 -3.5 0.7 -0.4 0.8 1.6 0 3.9 -0.6 5 -1.5z m1.4 -4.9 c-0.7 -0.8 -2 -1.5 -2.9 -1.4 -1.1 0 -0.9 0.3 0.7 0.9 1.2 0.5 2.2 1.5 2.2 2.1 0 0.7 0.3 0.9 0.6 0.6 0.4 -0.4 0.1 -1.3 -0.6 -2.2z"/>
  <path d="M190.4 122.4 c-1.8 -1.3 -1.8 -1.5 0.6 -3.5 5.8 -4.9 20.4 -10.9 22.2 -9.1 1.5 1.5 -2.8 5.5 -10.2 9.2 -9.4 4.8 -10.5 5.1 -12.6 3.4z"/>
  <path d="M333.9 90 c-6 -1.1 -18.7 -6 -19.3 -7.5 -1 -2.8 2.2 -4 7.7 -2.8 7.9 1.7 16.4 5.2 17.1 7 1 2.6 -1.4 4.1 -5.5 3.3z"/>
  <path d="M428.7 54.4 c-1.2 -1.2 -0.8 -2.2 2.5 -5.9 4.6 -5.3 14.6 -12.7 16.6 -12.3 2.1 0.4 2.8 3.4 1.2 5.3 -0.6 0.8 -4.2 3.9 -7.9 6.9 -6.5 5.3 -10.9 7.5 -12.4 6z"/>
 </g>
 <g fill="#bf3a7c">
  <path d="M53.7 219.9 c-10.9 -1.6 -20.5 -8.9 -22.8 -17.3 -1.3 -4.8 -0.3 -12.7 2.3 -18.3 2.1 -4.5 4.3 -6 6.3 -4.3 1.1 0.9 0.9 2.2 -0.6 6.5 -2.3 6.7 -2.4 12.6 -0.2 17.2 2.3 5 10 8.4 21.1 9.4 8.3 0.7 10.6 1.8 9.5 4.5 -0.5 1.4 -5.7 3.5 -8.2 3.3 -0.9 -0.1 -4.2 -0.5 -7.4 -1z"/>
  <path d="M197.6 214.9 c-1.7 -1.4 -2.6 -2.9 -2.4 -4.3 0.2 -1.7 0.9 -2.1 3.8 -1.8 10.2 0.8 12.8 -0.1 21.5 -7.2 2.8 -2.2 5.2 -4.3 5.5 -4.7 0.3 -0.3 2.7 -2.2 5.3 -4.2 5.7 -4.4 9.2 -4.7 16.3 -1.5 5.1 2.2 11.1 2.5 14.5 0.7 1.1 -0.6 3.9 -2.8 6.1 -5 2.2 -2.1 4.6 -3.9 5.4 -3.9 1.9 0 3.3 3.2 2.4 5.5 -1.3 3.1 -9.1 10.2 -13.2 12 -5.2 2.1 -8.8 1.9 -16.3 -1.1 l-6.5 -2.6 -4.2 2.6 c-2.4 1.4 -6.2 4.4 -8.5 6.6 -2.4 2.3 -6.9 5.7 -10 7.6 -7.1 4.2 -15.3 4.8 -19.7 1.3z"/>
  <path d="M449 211.2 c-14.6 -6.6 -15.2 -7 -14.8 -9.5 0.5 -3.3 4.9 -2.7 16.1 2.3 10.6 4.6 13.7 7.2 12.1 9.7 -0.6 0.9 -1.5 1.8 -2 2 -0.5 0.1 -5.6 -1.9 -11.4 -4.5z"/>
  <path d="M355 185.3 c-1.4 -0.7 -3.8 -1.3 -5.5 -1.3 -4.6 0 -7.5 -1.1 -7.5 -2.7 0 -1.3 1.2 -1.4 7.8 -0.8 4.2 0.4 7.8 0.8 8 1 0.2 0.2 0.2 1.4 0 2.7 -0.3 2.2 -0.5 2.3 -2.8 1.1z"/>
  <path d="M328 182.5 c-0.8 -0.2 -3.2 -0.6 -5.2 -1 -2.4 -0.4 -3.8 -1.1 -3.8 -2 0 -1.7 1.1 -1.8 8.8 -0.9 4.2 0.6 5.2 1 5.2 2.5 0 1.8 -1.2 2.1 -5 1.4z"/>
  <path d="M300 178.4 c-21.1 -3.4 -21 -3.3 -21 -4.9 0 -1.9 1.3 -1.9 13.6 0 5.4 0.9 13.4 2.1 17.7 2.7 6.4 0.9 7.7 1.4 7.7 3 0 2.2 0.4 2.2 -18 -0.8z"/>
  <path d="M330 173 c0 -2.1 1 -2.4 4.8 -1.4 3.6 1 2.7 3.4 -1.3 3.4 -2.8 0 -3.5 -0.4 -3.5 -2z"/>
  <path d="M268.8 173.3 c-3.3 -0.8 -2 -3.3 1.7 -3.3 2.8 0 3.5 0.4 3.5 2 0 2 -1.4 2.3 -5.2 1.3z"/>
  <path d="M321 172 c0 -2.1 1 -2.4 4.8 -1.4 3.6 1 2.7 3.4 -1.3 3.4 -2.8 0 -3.5 -0.4 -3.5 -2z"/>
  <path d="M313 171 c0 -2.1 1 -2.4 4.8 -1.4 3.6 1 2.7 3.4 -1.3 3.4 -2.8 0 -3.5 -0.4 -3.5 -2z"/>
  <path d="M258.8 171.3 c-3.3 -0.8 -2 -3.3 1.7 -3.3 2.8 0 3.5 0.4 3.5 2 0 2 -1.4 2.3 -5.2 1.3z"/>
  <path d="M298.8 170.7 c-5.6 -0.8 -6.8 -1.3 -6.8 -2.8 0 -2.2 -0.1 -2.2 7.6 -0.9 3.2 0.6 7.4 1.3 9.2 1.6 1.9 0.3 3.2 1.1 3.2 1.9 0 1.7 -2.8 1.8 -13.2 0.2z"/>
  <path d="M277.3 167.3 c-2.5 -0.3 -3.3 -0.9 -3.3 -2.5 0 -1.8 0.4 -1.9 3.8 -1.4 8.1 1.4 9.2 1.8 9.2 3.2 0 1.4 -2.4 1.6 -9.7 0.7z"/>
  <path d="M204.1 165.1 c-0.8 -0.5 -4.3 -1.5 -7.8 -2.2 -6.2 -1.3 -6.3 -1.3 -6.3 -4.6 0 -4.1 1.1 -4.2 15.8 -0.9 5.9 1.3 14 2.9 18 3.6 6.1 1.1 7.2 1.6 7.2 3.3 0 1.7 -0.5 1.9 -3.2 1.3 -13.9 -2.8 -16.7 -3 -18.6 -1.3 -2.1 1.9 -3.1 2.1 -5.1 0.8z"/>
  <path d="M234.3 159.7 c-4.3 -0.8 -5.3 -1.4 -5.3 -3 0 -1.6 0.5 -1.9 3 -1.3 1.7 0.3 5.9 1.1 9.5 1.8 6.8 1.2 8 2.2 4.3 3.2 -2.8 0.7 -4.9 0.6 -11.5 -0.7z"/>
  <path d="M173 157.4 c0 -0.4 0.8 -1.3 1.8 -2 1.6 -1.2 1.6 -1.3 0 -1.9 -3 -1.2 -2 -2.5 1.7 -2.5 3.3 0 3.5 0.2 3.5 3.5 0 3.3 -0.2 3.5 -3.5 3.5 -1.9 0 -3.5 -0.3 -3.5 -0.6z"/>
  <path d="M217.8 156.3 c-2.4 -0.4 -2.8 -0.9 -2.8 -3.9 0 -3.2 0.2 -3.4 3.2 -3.4 2.5 0 2.9 0.3 2 1.2 -1.9 1.9 -1.4 2.5 2.8 3.2 2.6 0.4 4 1.1 4 2.1 0 1.5 -2.9 1.7 -9.2 0.8z"/>
  <path d="M383 130.1 c0 -1.1 3.9 -4.1 5.2 -4.1 0.5 0 0.8 1.1 0.8 2.5 0 2.1 -0.5 2.5 -3 2.5 -1.6 0 -3 -0.4 -3 -0.9z"/>
  <path d="M178.3 84.3 c-3.1 -1.2 -0.6 -3.5 9 -8.4 6.2 -3.2 9.5 -5.5 8.5 -5.7 -2.7 -0.5 -2.1 -2.5 1.3 -4.4 1.9 -1.1 4 -1.6 5.6 -1.2 1.9 0.5 3.2 -0.1 6 -2.7 4.7 -4.6 6.7 -8.4 5 -9.7 -1.6 -1.4 -8.7 -1.6 -20.3 -0.6 -8.5 0.6 -9.3 0.5 -11.3 -1.5 -3 -3 -2.7 -4.5 1.9 -9.5 8.7 -9.4 28.7 -16.3 33.5 -11.5 1.4 1.4 -0.4 2.6 -6.4 3.8 -8.8 1.8 -23.9 10.6 -21.8 12.7 0.3 0.3 2.9 0.1 5.7 -0.5 12.5 -2.7 22.5 -0.6 25.1 5.3 1.7 3.6 0.3 8.8 -3.1 12.1 -3.3 3.2 -3.8 4.5 -1.5 4.5 0.8 0 1.5 0.6 1.5 1.4 0 2.2 -4.3 4.5 -7.3 3.9 -1.9 -0.4 -4.1 0.4 -7.4 2.5 -4.9 3.1 -20.4 10.3 -22 10.1 -0.4 0 -1.4 -0.3 -2 -0.6z"/>
  <path d="M26.3 62.6 c-11.8 -6.3 -17.4 -12.5 -12.9 -14.2 3.3 -1.2 24.6 13.1 24.6 16.6 0 2 -5.6 0.9 -11.7 -2.4z"/>
  <path d="M305 48.5 c0 -3.8 2.3 -7.6 7.4 -12.3 5.7 -5.2 8.7 -5.4 13.3 -1 2.4 2.4 3.7 3 4.7 2.3 0.7 -0.6 3.2 -2.5 5.6 -4.3 5 -3.7 7.2 -4 12 -1.1 2.8 1.7 4.4 2 8.6 1.5 8.7 -1 9.8 3.7 1.7 7.1 -4.6 1.9 -6.5 1.6 -10.7 -1.2 -2 -1.4 -4.4 -2.5 -5.3 -2.5 -0.9 0 -3.5 1.8 -5.9 4 -5.5 5 -8.3 5.2 -13 0.5 -4.1 -4.1 -5.4 -3.8 -10 2.2 -5.9 7.7 -8.4 9.2 -8.4 4.8z"/>
  <path d="M289.7 46.3 c-2 -2 0.7 -10.9 4.5 -15 4.9 -5.2 6.8 -1.3 3.3 6.5 -3.5 7.6 -6 10.4 -7.8 8.5z"/>
 </g>
 <g fill="#3b40e3">
  <path d="M357 186.5 c-2.3 -2.2 -3.6 -2.5 -17 -3.4 -8 -0.6 -20.3 -2 -27.5 -3.1 -7.1 -1.1 -17.7 -2.7 -23.5 -3.5 -10.9 -1.6 -37.3 -6.5 -37.8 -7 -0.7 -0.7 17.2 -6.5 20.1 -6.5 1.8 0 9.8 1.1 17.9 2.5 13.5 2.3 53.3 7.5 57.3 7.5 1.4 0 1.5 -0.3 0.5 -1.5 -1.1 -1.3 -0.6 -1.5 3.8 -1.5 5.9 0 8.2 0.7 8.2 2.5 0 0.8 0.3 1.6 0.8 1.8 0.4 0.3 9.3 1 19.7 1.7 27.5 1.7 46.2 -0.2 52.1 -5.4 2.2 -1.8 2.6 -2.8 2 -5 -1 -4 -6.7 -9.8 -15.9 -15.9 -8.7 -5.9 -28.7 -17 -32.4 -18.2 -3.2 -0.9 -2.9 -2 1.4 -4.6 l3.6 -2.3 12.2 6.2 c16.4 8.3 25.8 14.6 33.2 22.4 7.4 7.8 9.3 12.8 7.2 18.4 -2.1 5.4 -7.2 9 -16.4 11.6 -7.2 1.9 -10.5 2.2 -32.2 2.2 -13.4 0.1 -24.3 0.3 -24.3 0.7 0 0.3 0.5 1 1.2 1.7 0.9 0.9 -0.2 1.2 -5.3 1.2 -5.5 0 -6.8 -0.4 -8.9 -2.5z"/>
  <path d="M220 164 c-4.7 -0.9 -9.9 -2 -11.5 -2.3 l-3 -0.7 2.5 1.4 c5 2.9 -0.5 2.7 -14.6 -0.5 -7.6 -1.7 -15.1 -3.4 -16.6 -3.6 -3.2 -0.6 -3.6 -1.8 -1.1 -3.2 1.4 -0.7 0.5 -1.3 -4.2 -2.6 -3.3 -0.9 -14.3 -4.2 -24.5 -7.2 -10.2 -3 -19.4 -5.7 -20.5 -6 -1.1 -0.3 -3.3 -1.1 -5 -1.8 -1.6 -0.7 -7.3 -2.9 -12.6 -4.8 -13.4 -5 -28.9 -12.4 -28.9 -13.7 0 -1.6 3.3 -7 4.2 -7 0.5 0 3.9 1.5 7.6 3.4 12.5 6.2 46.7 17.8 77.4 26.1 16.6 4.6 17.9 4.8 21.7 3.5 3.5 -1.1 5.1 -1 13.3 0.8 5.1 1.2 11 2.4 13.1 2.8 3.5 0.6 3.7 0.8 2.2 2.4 -1.4 1.6 -1.2 1.8 4.2 2.7 11.5 2.1 22.8 4.6 23.6 5.3 0.7 0.6 -17 7.2 -18.3 6.9 -0.3 -0.1 -4.3 -0.9 -9 -1.9z"/>
  <path d="M368.2 123.2 c-2.9 -1.4 -5.1 -3 -4.9 -3.5 0.1 -0.4 1.6 -1.7 3.3 -2.7 l3 -1.9 6.4 3 6.4 3 -2.9 2.4 c-3.7 3 -4.8 3 -11.3 -0.3z"/>
  <path d="M63.5 109.8 c-16.3 -11.6 -21.8 -23.3 -16.4 -34.4 3.7 -7.7 15.1 -14.1 31.6 -17.7 8.7 -1.9 12.9 -2.1 38.3 -2.1 30 0 46.3 1.4 72.7 6.4 16.3 3.1 16.5 3.3 11.2 6.4 -2.9 1.7 -3.5 1.7 -17.2 -0.3 -28.3 -4.1 -43.9 -5.4 -65.7 -5.5 -25.9 0 -40.7 2.2 -52.7 7.9 -8.9 4.1 -11.6 7.8 -11 14.3 0.7 6.4 7.3 13.6 20.6 22.2 2.3 1.5 2.3 1.6 0.5 5.3 -1 2 -2.1 3.7 -2.5 3.7 -0.3 0 -4.6 -2.8 -9.4 -6.2z"/>
  <path d="M336.5 110.4 c-6 -2.5 -20.9 -7.8 -32.9 -11.9 -21.7 -7.3 -26.5 -9.8 -25.3 -12.9 0.9 -2.3 5.4 -2 13.4 0.8 3.7 1.3 10.2 3.4 14.3 4.6 12 3.6 49.7 17.7 50.5 19 0.6 0.9 -6 5 -7.8 4.9 -0.7 0 -6.1 -2.1 -12.2 -4.5z"/>
  <path d="M237 78.3 c-1.4 -0.2 -7 -1.5 -12.5 -2.8 -5.5 -1.3 -11.5 -2.7 -13.3 -3 -3.2 -0.7 -3.3 -0.8 -1.6 -2.6 2.8 -3.1 4.7 -3.1 17.4 0.1 14.3 3.6 20.2 5.8 19.7 7.4 -0.4 1.2 -5.5 1.7 -9.7 0.9z"/>
 </g>
 <g fill="#7a6244">
  <path d="M173.8 472.3 c-3.6 -0.9 -2 -3.3 2.2 -3.3 3.3 0 4 0.3 4 2 0 2 -2 2.4 -6.2 1.3z"/>
  <path d="M184 471.1 c0 -1.4 1 -2 4.6 -2.5 6.9 -0.9 8.4 -0.8 8.4 0.8 0 0.9 -1.9 1.8 -5 2.5 -6.9 1.5 -8 1.4 -8 -0.8z"/>
  <path d="M155.5 467.1 c-14.5 -5 -18.5 -6.8 -18.5 -8 0 -0.6 1.6 -1.1 3.5 -1.1 1.9 0 3.5 0.5 3.5 1 0 0.6 0.8 1 1.7 1 0.9 0 6.8 1.7 13 3.8 8.6 2.8 11.3 4.1 11.3 5.5 0 2.5 -2.1 2.2 -14.5 -2.2z"/>
  <path d="M201 468.1 c0 -1.5 1.3 -2 6.9 -3 9.2 -1.5 11.1 -1.4 11.1 0.4 0 0.8 -0.2 1.5 -0.4 1.5 -0.2 0 -4 0.7 -8.3 1.5 -9.7 1.9 -9.3 1.9 -9.3 -0.4z"/>
  <path d="M176 466.4 c-1.4 -0.2 -4 -0.7 -5.8 -1 -2 -0.3 -5.2 -2.2 -7.8 -4.6 -3.1 -2.8 -4.4 -3.6 -4.4 -2.4 0 2.5 -5.4 2 -14.5 -1.4 -4.4 -1.6 -8.1 -3 -8.2 -3 -0.1 0 -0.3 1.1 -0.5 2.5 l-0.3 2.5 -12.5 -5.7 c-6.9 -3 -16.7 -7 -21.9 -8.7 -9.6 -3.1 -12.8 -5.6 -7.4 -5.6 3.7 0 17.3 4 17.3 5.1 0 0.5 0.9 0.9 2 0.9 2.5 0 15.2 5.6 16.1 7.1 0.3 0.6 1.5 0.9 2.4 0.7 3.2 -0.6 -14.3 -8.5 -31.4 -14.3 -9 -3 -17.8 -6.3 -19.7 -7.4 -2.7 -1.6 -3.4 -1.7 -3.4 -0.6 0 0.8 0.6 1.5 1.3 1.5 0.6 0 3.6 1 6.4 2.2 4.1 1.8 5.3 2.8 5.3 4.5 l0 2.3 -5.1 -2 c-6.9 -2.6 -12.3 -6.5 -15.9 -11.4 -3.6 -4.9 -3.7 -5.6 -0.5 -5.6 1.8 0 2.5 0.5 2.5 2 0 1.2 0.7 2 1.6 2 1.2 0 1.4 -0.3 0.6 -1.2 -2.8 -3.4 -7.2 -13.9 -7.2 -17.1 0 -2.9 -0.4 -3.6 -2.1 -3.9 -1.6 -0.2 -3.4 -2.7 -6.8 -9 -7.1 -13.8 -7 -20.6 0.9 -40.8 5 -12.7 7.6 -22.3 9.5 -35.3 0.9 -5.9 1.8 -11.4 2.2 -12.2 0.3 -0.8 0 -1.5 -0.6 -1.5 -0.6 0 -1.1 0.9 -1.1 1.9 0 3.2 -5.1 14.1 -6.6 14.1 -0.8 0 -1.4 0.7 -1.4 1.5 0 0.8 -0.9 1.5 -2 1.5 -1.2 0 -2 0.7 -2 1.6 0 2.4 -6.6 1.2 -9.6 -1.7 -7.8 -7.3 -4.6 -21 8.7 -36.8 4.9 -5.8 7.3 -7.7 13.5 -10.7 4.1 -2 7.8 -4.3 8.1 -5.3 0.4 -0.9 3.7 -8.3 7.6 -16.6 3.8 -8.2 8.9 -20.8 11.4 -28 6.6 -18.9 7.5 -20.5 12.1 -20.6 2 0 4.8 -0.2 6.2 -0.5 1.4 -0.2 5.4 -0.8 9 -1.4 20.4 -3.3 41.3 -7.5 49.9 -10.1 9.3 -2.8 10.4 -2.3 3.2 1.6 -3.5 1.9 -7.5 4.5 -8.8 5.7 -4.1 3.8 -7.2 11.7 -8.8 22.7 -1.7 11.6 -4.6 19.2 -8.3 22.2 -2 1.5 -2.7 3.3 -3.4 8.1 -0.4 3.4 -0.7 6.3 -0.5 6.4 1.1 1.1 20.1 -3.2 29.7 -6.6 25.7 -9.3 53 -15.7 81 -19 21.5 -2.6 20 -2.7 20 1.4 0 3.9 0.4 3.8 -15 5.6 -25.5 3.1 -49.5 8.1 -71.8 15 -12.1 3.7 -11.9 3.3 -9.4 19.9 l1.7 11.4 3.3 1.1 c1.8 0.6 3.7 1.8 4.2 2.6 0.6 0.8 2.8 7.3 5.1 14.5 4.9 15.4 9.8 25.6 14.7 30.8 2 2 3.1 3.7 2.4 3.7 -0.7 0 -1.2 0.9 -1.2 1.9 0 1.3 -0.8 2.1 -2.2 2.3 -3.2 0.5 6.1 3.6 12.7 4.3 l5 0.5 -4.2 -1.1 c-3.6 -0.8 -4.3 -1.4 -4.3 -3.4 l0 -2.4 4.6 1.6 c3.6 1.2 7.4 1.4 17.7 1 26.5 -1 43.7 -9.4 51.5 -24.9 3.1 -6 5.3 -15.2 8.1 -33.7 1.4 -9.2 3.6 -13.8 7.5 -16.2 6.2 -3.8 14.1 -1.4 18.1 5.5 1.3 2.2 3.7 7.6 5.4 11.9 9 22.7 16.2 30.8 30.1 33.8 3 0.6 5 1.6 5 2.4 0 1.7 3.4 2.8 6 2 1.1 -0.3 2 -1.3 2 -2 0 -0.9 1.5 -1.6 3.8 -2 12.1 -1.9 16.4 -3 22.7 -5.9 14.2 -6.6 18.7 -13.4 22 -33.8 0.6 -3.7 3.5 -5.6 3.5 -2.3 0 0.8 0.7 1.5 1.5 1.5 1.8 0 1.8 0.4 0 10.3 -0.8 4.9 -2.5 9.9 -4.5 13.4 -4.4 7.8 -3.8 11.2 4.9 28.3 6.2 12.2 10.1 22.1 10.1 25.7 0 0.7 -0.8 1.3 -1.7 1.3 -1.3 0 -2.3 -1.6 -3.6 -6.1 -1 -3.4 -2 -5.9 -2.3 -5.7 -0.2 0.3 0 1.7 0.5 3.2 0.6 1.4 1.5 8.1 2.1 14.8 0.5 6.8 1.4 13.9 2 15.8 1.7 5.8 1.2 18.1 -0.8 22.1 l-1.8 3.4 3.6 -0.4 3.5 -0.4 -2.6 3.4 c-3.6 4.8 -12 11.3 -23.9 18.7 -12.8 8 -13 8.1 -13 4.8 0 -1.6 0.6 -2.6 1.5 -2.6 0.8 0 1.5 -0.5 1.5 -1.1 0 -0.5 -2.3 0.2 -5 1.8 -5 2.8 -5 2.8 -2 3.1 1.6 0.2 3 0.7 3 1.2 0 1.7 -16.4 9 -20.2 9 -1.1 0 -1.8 -0.8 -1.8 -2 0 -1.6 0.7 -2 3 -2 1.7 0 3 -0.4 3 -0.9 0 -0.5 1.2 -1.2 2.6 -1.5 1.5 -0.4 2.4 -0.9 2.2 -1.2 -0.3 -0.2 -2.5 0.3 -4.9 1.1 -2.4 0.9 -10.3 2 -17.5 2.5 -7.2 0.5 -18.9 1.8 -26 2.9 -7.1 1.1 -18.3 2.5 -24.9 3.1 -6.6 0.5 -19 2.4 -27.5 4 -31.4 6.2 -36.8 7.1 -51 8 -8 0.5 -20.8 2.1 -28.5 3.4 -14.6 2.6 -26.2 3.7 -30.5 3z m80.1 -30.9 c32.4 -3.3 50.4 -6.4 65.5 -11.4 5.1 -1.7 14.7 -3.8 21.5 -4.7 11 -1.5 12.7 -2 15.4 -4.5 4.1 -3.9 10.5 -6.5 20.4 -8.3 4.5 -0.9 10.3 -2.5 12.7 -3.5 5.5 -2.5 14.2 -11.1 17.1 -17.1 1.2 -2.5 3.6 -5.9 5.4 -7.5 4.9 -4.7 11.9 -14.5 11.9 -16.9 0 -1.7 0.2 -1.8 1 -0.6 1.4 2.1 0.2 -4.4 -1.6 -8.9 -1.8 -4.3 -1.8 -4.1 1.1 -4.1 l2.5 0 -3 -6 c-1.6 -3.3 -3 -6.6 -3 -7.5 0 -0.8 -0.4 -1.5 -1 -1.5 -0.5 0 -1 -1.3 -1 -3 0 -2 -0.5 -3 -1.5 -3 -1.2 0 -1.3 0.4 -0.5 1.9 1.3 2.6 1.3 8.1 -0.1 8.1 -0.5 0 -2.1 -2.5 -3.5 -5.5 -1.4 -3 -2.9 -5.5 -3.3 -5.5 -0.4 0 -2.1 1 -3.8 2.3 -1.6 1.2 -8.1 4.7 -14.4 7.7 -11 5.3 -11.5 5.5 -21.4 5.8 -11.9 0.5 -20 -0.9 -27.5 -4.5 -7.9 -3.8 -16.7 -13.1 -22.1 -23.2 -4.6 -8.7 -9.6 -14.1 -13 -14.1 -4 0 -5.7 1.9 -6.9 7.6 -2.1 10.2 -4.9 16.6 -11.5 26.4 -8.1 12.2 -15.3 18.9 -25.9 23.9 -12.3 5.9 -20.7 8.1 -32.6 8.8 -9.1 0.5 -11.9 0.2 -21.3 -2.1 -15.5 -3.7 -21.9 -7.4 -29 -16.8 -4.1 -5.4 -5.7 -8.7 -12.1 -24.4 l-3.8 -9.2 -11.3 -1.2 c-14 -1.6 -19.2 -1 -22.2 2.5 -2.2 2.5 -2.2 2.7 -0.7 5.1 1.3 2 1.6 4 1.1 9.6 -0.5 5.7 -1.6 9.1 -5.4 17.1 -4.4 9.1 -4.8 10.7 -4.8 17.1 0.1 8.4 0.6 9.5 10.5 21.6 6.6 8 8.4 9.5 14.7 12.6 4 1.9 8.5 3.4 10 3.4 4.7 0.1 7.6 2.5 12.3 10.1 3.9 6.3 5.3 7.7 10 10 3 1.5 6.4 3.7 7.6 4.9 1.9 2 2.8 2.1 10.5 1.6 4.6 -0.3 9.8 -0.6 11.6 -0.7 2.9 0 14.5 4.3 20.3 7.6 3.2 1.8 6.3 1.8 25.1 0z m152.9 -7.5 c0 -1.1 0.7 -2 1.5 -2 0.8 0 1.5 -0.4 1.5 -1 0 -0.5 0.7 -1 1.5 -1 0.8 0 1.5 -0.5 1.5 -1.1 0 -0.9 -4.6 1.5 -10.1 5.3 l-2.4 1.7 3.3 0 c2.6 0.1 3.2 -0.3 3.2 -1.9z m16 -11.6 c0 -1.4 -0.3 -1.4 -1.5 -0.4 -0.8 0.7 -1.5 1.4 -1.5 1.6 0 0.2 0.7 0.4 1.5 0.4 0.8 0 1.5 -0.7 1.5 -1.6z m6 -4.4 c0 -1.1 -0.2 -2 -0.3 -2 -0.2 0 -1.2 0.9 -2.2 2 -1.8 1.9 -1.7 2 0.3 2 1.5 0 2.2 -0.6 2.2 -2z m-227.8 -73.7 c-4.3 -5.5 -6.7 -10.9 -12.8 -28.3 -3 -8.5 -5.4 -15.5 -5.4 -15.6 0 -0.1 -1.6 -1.2 -3.6 -2.5 -4.9 -3 -6.5 -7.3 -7.2 -19.5 l-0.7 -10.2 -3.7 1.5 c-2.1 0.8 -3.8 2.1 -3.8 2.9 0 0.8 -0.4 1.4 -1 1.4 -0.5 0 -1 -1.4 -1 -3.1 0 -2.4 -0.3 -3 -1.6 -2.5 -0.9 0.3 -2 0.6 -2.5 0.6 -0.5 0 -0.9 0.6 -0.9 1.4 0 1.8 -1.1 2 -23 5.1 -58.9 8.2 -65.9 10.2 -76.1 21.2 -11.7 12.7 -15.6 26.6 -8.2 29.4 3.9 1.5 5.7 -0.4 9.9 -9.8 5.4 -12.3 8.5 -16.7 13.4 -18.7 5.3 -2.1 7 -2 7 0.4 0 1.5 0.7 2 2.5 2 1.9 0 2.5 -0.5 2.5 -2.1 0 -1.9 0.4 -2.1 3.8 -1.4 2 0.4 6.9 2 10.7 3.5 10.1 4.2 11 4.3 22.5 2.5 5.8 -0.8 16.8 -2.5 24.5 -3.6 7.7 -1.2 14.1 -2.2 14.2 -2.3 0.1 0 -0.3 -2.4 -0.9 -5.1 -0.8 -3.8 -0.8 -5 0.2 -5.3 0.9 -0.3 0.9 -0.6 0 -1.2 -0.6 -0.4 -1.4 -2.6 -1.7 -4.9 -0.5 -3.4 -0.3 -4.1 1.1 -4.1 3 0 4.7 2.7 5.7 9.1 1.4 9 3.2 12.3 8.2 15.7 4.1 2.9 4.8 4 9.7 16.4 2.8 7.3 6.3 15.2 7.6 17.4 2 3.6 11.7 13.4 13.1 13.4 0.3 0 -0.9 -1.7 -2.5 -3.7z m214.8 -14.8 c0 -1.4 -0.4 -2.5 -0.9 -2.5 -0.5 0 -1.2 -1.8 -1.6 -4 -0.5 -3 -1.1 -4 -2.6 -4 -1 0 -1.9 0.6 -1.9 1.4 0 0.8 -1.2 1.7 -2.7 1.9 -2 0.3 -1.5 0.4 1.5 0.6 4.1 0.1 4.2 0.2 5.4 4.6 1.3 4.9 2.8 6 2.8 2z m-249 -29.5 c0 -0.5 -0.3 -1 -0.7 -1 -0.5 0 -1.8 -0.3 -3 -0.6 -1.7 -0.5 -2.3 -0.2 -2.3 1 0 1.1 0.9 1.6 3 1.6 1.7 0 3 -0.4 3 -1z m-85.7 -20.1 c1.2 0 1.6 -0.3 1 -0.6 -0.7 -0.2 -1.3 -2 -1.3 -3.9 0 -1.9 -0.4 -3.4 -1 -3.4 -0.5 0 -1 1.1 -1 2.4 0 1.4 -0.7 3.1 -1.5 4 -2 1.9 -1.9 3 0.1 2.2 0.9 -0.3 2.5 -0.6 3.7 -0.7z m10.1 -28.6 c1.9 -3.8 4.4 -10.2 5.5 -14 1.2 -3.9 3.5 -10.4 5.1 -14.4 1.6 -4.1 2.3 -6.5 1.5 -5.4 -0.8 1 -2.1 3.4 -2.7 5.2 -0.7 1.8 -1.6 3.3 -2 3.3 -0.4 0 -0.8 0.8 -0.8 1.7 0 3.4 -5.4 18.3 -6.7 18.3 -0.8 0 -1.3 1.3 -1.3 3.4 0 1.9 -0.7 4.1 -1.5 5 -0.8 0.8 -1.5 2.2 -1.5 3.2 0 2.4 0.5 1.7 4.4 -6.3z"/>
  <path d="M229.9 416.3 c-4 -2.1 -7.5 -4.4 -7.7 -5 -0.8 -2.7 3.1 -2.4 10.9 0.7 8.3 3.4 11.3 5.5 10.4 7.1 -1.2 1.9 -6.5 0.8 -13.6 -2.8z"/>
  <path d="M180.9 400.1 c-5.5 -3.4 -8.9 -7.6 -8.9 -10.7 0 -1.3 0.2 -2.4 0.5 -2.4 0.9 0 9.5 6.3 12.7 9.2 2.8 2.7 3.4 5.8 1.3 6.5 -0.6 0.2 -3.1 -1 -5.6 -2.6z"/>
  <path d="M222 465.1 c0 -1.9 0.6 -2.1 6 -2.1 4.7 0 6 0.3 6 1.5 0 0.8 -0.1 1.5 -0.2 1.5 -0.2 0.1 -2.9 0.3 -6 0.7 -5.4 0.5 -5.8 0.4 -5.8 -1.6z"/>
  <path d="M236 464.1 c0 -1.5 1.1 -1.9 6.6 -2.5 8.5 -0.9 24.6 -3.7 39.9 -7 13.8 -3 17.5 -3.2 17.5 -1.1 0 0.8 -0.2 1.5 -0.4 1.5 -0.2 0 -8 1.6 -17.1 3.5 -14.4 3 -41.4 7.5 -45.2 7.5 -0.7 0 -1.3 -0.8 -1.3 -1.9z"/>
  <path d="M301 453 c0 -1.7 0.7 -2 4.5 -2 4.9 0 6.4 2.3 2.3 3.4 -4.5 1.2 -6.8 0.7 -6.8 -1.4z"/>
  <path d="M313 452.2 c0 -1.6 1.8 -2 12.8 -3.5 7 -1 13.5 -1.7 14.5 -1.7 2.8 0 2 2.8 -1 3.4 -2.5 0.5 -24.7 3.6 -25.8 3.6 -0.3 0 -0.5 -0.8 -0.5 -1.8z"/>
  <path d="M343 448 c0 -1.6 0.7 -2 3.5 -2 4 0 4.9 2.4 1.3 3.4 -3.8 1 -4.8 0.7 -4.8 -1.4z"/>
  <path d="M354 447 c0 -1.7 0.7 -2 4.5 -2 4.9 0 6.4 2.3 2.3 3.4 -4.5 1.2 -6.8 0.7 -6.8 -1.4z"/>
  <path d="M367 446 c0 -1.6 0.7 -2 3.5 -2 4 0 4.9 2.4 1.3 3.4 -3.8 1 -4.8 0.7 -4.8 -1.4z"/>
  <path d="M54.7 403.1 c-2.2 -3.8 -2.2 -4.1 0.8 -4.1 2.2 0 2.5 0.4 2.5 3.5 0 4.3 -1 4.4 -3.3 0.6z"/>
  <path d="M48.7 392.1 c-3.2 -5.7 -3.5 -9.1 -0.9 -9.1 2 0 5.2 7 5.2 11.3 0 4 -1.3 3.3 -4.3 -2.2z"/>
  <path d="M436.6 387.8 c-0.9 -7.9 -0.8 -9.8 0.8 -9.8 1.5 0 2 1.8 3.2 10.3 0.6 4.2 0.4 4.7 -1.3 4.7 -1.7 0 -2.1 -0.9 -2.7 -5.2z"/>
  <path d="M45 375.4 c0 -3.2 3.1 -13.5 7.5 -24.9 2.5 -6.4 5 -13.6 5.5 -15.9 0.5 -2.3 1.2 -5 1.5 -5.8 0.4 -1.1 0 -1.8 -1.2 -2.1 -1 -0.3 -0.4 -0.5 1.5 -0.6 2.8 -0.1 3.2 0.2 3.2 2.3 0 3.7 -2.2 12.6 -3.2 12.6 -0.4 0 -0.8 1 -0.8 2.2 0 2.8 -2.2 8.8 -3.2 8.8 -0.4 0 -0.8 0.8 -0.8 1.8 0 0.9 -1.4 5.5 -3 10.2 -1.6 4.7 -3 9.5 -3 10.8 0 1.5 -0.6 2.2 -2 2.2 -1.2 0 -2 -0.7 -2 -1.6z"/>
  <path d="M434 366.5 c0 -4.9 2.3 -6.4 3.4 -2.2 1.2 4.4 0.7 6.7 -1.4 6.7 -1.7 0 -2 -0.7 -2 -4.5z"/>
  <path d="M224.6 334.4 c-10.1 -3.2 -17.8 -14.5 -23.5 -34.8 -5.3 -18.7 -5 -27 0.9 -31.9 6.3 -5.3 29.6 -11.8 51.3 -14.2 5.3 -0.6 5.7 -0.5 5.7 1.5 0 2.5 -2.4 3.5 -10.7 4.5 -3.4 0.4 -6.6 1.2 -7.2 1.8 -0.5 0.7 -2.7 5.9 -4.9 11.7 -4.4 11.6 -18.8 44.9 -20.3 46.6 -0.5 0.7 0.3 2.1 2.4 4.1 3.8 3.6 6.4 5.1 12.1 6.7 3 0.9 4.2 1.8 4.4 3.4 0.3 1.8 -0.1 2.2 -2.5 2.1 -1.5 0 -5 -0.7 -7.7 -1.5z m-5.6 -32.9 c7.1 -16.3 14.6 -34.5 15.4 -37.1 0.7 -2.2 0.6 -2.2 -6.6 -0.8 -9.3 1.7 -20.1 6 -23 9.1 -1.9 2 -2.3 3.5 -2.1 7.6 0.2 6.9 6.2 29.5 8.9 33.8 1 1.7 1.9 0.2 7.4 -12.6z"/>
  <path d="M242.2 333.6 c0.4 -1.7 0.1 -2.6 -0.8 -2.6 -1.7 0 1.9 -9.3 23 -58.9 3.1 -7.2 5.6 -13.3 5.6 -13.6 0 -0.3 -1.1 -0.5 -2.5 -0.5 -1.4 0 -2.5 -0.4 -2.5 -1 0 -0.5 -1.1 -1 -2.5 -1 -3.1 0 -3.3 -2.5 -0.2 -3.4 3.5 -0.9 10.4 -0.7 15.3 0.5 4.8 1.2 9.6 5.9 12 11.5 1.6 3.9 1.8 8.4 0.4 8.4 -0.5 0 -1 0.9 -1 2 0 3.6 -2.9 2.2 -3.5 -1.7 -1.2 -7.6 -1.7 -8.7 -5 -12 -1.8 -1.8 -3.7 -3.3 -4.3 -3.3 -0.5 0 -3.3 5.7 -6.1 12.8 -2.7 7 -8 19.9 -11.6 28.7 -9.1 22.1 -11.9 29.5 -11.1 30.2 1 1 11.7 -1.7 17.3 -4.3 2.9 -1.4 7.2 -4.7 9.7 -7.5 6.5 -7.2 8 -12 11.2 -34.6 0.6 -4.3 3.4 -4.5 3.4 -0.3 0 1.7 0.5 3 1.1 3 2.4 0 -2.3 20.5 -6.5 28.8 -5.5 10.7 -19.7 19.1 -35 20.7 l-6.9 0.8 0.5 -2.7z"/>
  <path d="M364.9 314 c-9.8 -1.7 -16.9 -7 -22.7 -17.2 -1.8 -3 -3.2 -5.8 -3.2 -6.2 0 -0.3 1.3 -0.6 2.9 -0.6 2.3 0 3.2 0.8 5.2 4.5 1.3 2.5 2.7 4.5 3 4.5 0.4 0 1 -1.2 1.4 -2.7 0.3 -1.6 3.9 -10.7 8 -20.3 7.8 -18.8 12.8 -32.1 12.2 -32.6 -0.6 -0.7 -22.5 3.6 -28 5.4 -4.6 1.5 -5.5 2.3 -7.6 6.5 -1.5 3.1 -2.9 4.7 -4.2 4.7 -1.2 0 -1.9 -0.7 -1.9 -1.7 0.1 -3.1 3.7 -10 6.1 -11.7 5 -3.4 23.6 -7.8 46.4 -10.7 6.6 -0.8 9 -0.8 9.3 0 0.5 1.4 6.2 1.5 6.2 0.1 0 -3.1 9.5 1.1 12.1 5.3 2.5 4.2 3.5 10.7 1.8 11.8 -1.2 0.8 -1.2 1 0 1.8 0.8 0.5 1.6 3.2 1.9 6.5 0.4 5.2 0.3 5.6 -1.7 5.6 -2.7 0 -3.6 -2.4 -4.5 -11.7 -0.6 -7.4 -1.3 -10.3 -2.5 -10.3 -1.2 0 -24.8 61.7 -23.9 62.5 0.8 0.9 15.1 -3.6 18 -5.6 3.8 -2.7 6.2 -7.7 8.7 -17.9 1.2 -4.5 2.1 -8.4 2.1 -8.6 0 -0.2 0.9 -0.4 2 -0.4 2.3 0 2.5 1.5 1 10.9 -1.9 11.6 -8.4 20.6 -17.3 23.9 -9.7 3.6 -23.2 5.5 -30.8 4.2z m22.2 -38.5 c7.1 -18.1 12.9 -33.3 12.9 -33.7 0 -0.5 -2.9 -0.8 -6.5 -0.8 -3.7 0 -6.5 -0.4 -6.5 -1 0 -0.5 -0.7 -1 -1.5 -1 -0.8 0 -1.5 0.4 -1.5 1 0 0.5 -1.5 1.2 -3.3 1.5 -3.1 0.6 -3.5 1.2 -6.1 8.8 -1.6 4.5 -5.6 14.3 -8.9 21.7 -3.3 7.4 -7.5 17.3 -9.4 22 -3.1 8 -3.2 8.5 -1.5 10.2 2.7 2.7 9.2 4.7 14.6 4.5 l4.8 -0.2 12.9 -33z"/>
  <path d="M336 284.4 c-3.4 -7.9 -6 -16.6 -6 -20.1 0 -2.6 0.4 -3.3 2 -3.3 1.5 0 2.3 1.2 3.5 5.8 0.9 3.1 2.6 8.4 3.9 11.7 1.3 3.3 2 6.2 1.5 6.3 -0.5 0.2 -0.9 1.2 -0.9 2.3 0 3.4 -2 2 -4 -2.7z"/>
  <path d="M425 260 c0 -0.5 -0.7 -1 -1.5 -1 -2.3 0 -1.8 -3.8 1 -8.6 2.4 -4.1 2.5 -4.6 1.4 -12.1 -1.5 -11.2 -3 -14.3 -6.8 -14.3 -2.4 0 -3.1 -0.4 -3.1 -2 0 -1.1 0.5 -2 1 -2 0.6 0 1 -0.7 1 -1.5 0 -3.5 8.2 -0.9 10.4 3.2 2 4.1 3.1 10.3 1.7 10.3 -0.6 0 -1.1 0.7 -1.1 1.5 0 0.8 0.6 1.5 1.4 1.5 0.7 0 1.6 1 2 2.3 0.9 3.5 0.7 4.7 -0.9 4.7 -0.8 0 -1.5 0.7 -1.5 1.5 0 0.8 0.7 1.5 1.6 1.5 2 0 1.6 1.9 -1.8 10.2 -1.2 3.2 -2.9 5.8 -3.5 5.8 -0.7 0 -1.3 -0.4 -1.3 -1z"/>
  <path d="M299.5 246.2 c-1.1 -0.2 -5.9 -1.7 -10.7 -3.5 -8.7 -3.2 -8.8 -3.2 -8.8 -6.6 l0 -3.4 4.1 0.7 c2.2 0.4 6.3 1.8 8.9 3.1 5.8 2.9 14 3.3 19.6 1 2 -0.8 5.6 -3.3 8.1 -5.5 2.7 -2.3 6.7 -4.6 9.7 -5.5 6 -1.8 30.2 -6.1 39.8 -7 l6.6 -0.6 -1.8 -6.3 c-2.2 -7.9 -3.4 -10.3 -7.3 -14.3 l-3.1 -3.3 3.7 0 c3 0 3.7 0.4 3.7 2 0 1.1 0.7 2 1.5 2 1.7 0 2 -1.7 0.4 -2.2 -0.6 -0.2 -0.9 -1.9 -0.7 -3.8 l0.3 -3.5 3.7 5 c2.1 2.8 4.5 7.5 5.4 10.5 4.5 15 3.6 13.5 8.2 13.2 3.3 -0.3 4.2 0 4.2 1.2 0 1 0.9 1.6 2.5 1.6 3.1 0 3.3 2.5 0.3 3.4 -4.4 1.1 -7.6 0.7 -8.1 -1.1 -0.4 -1.6 -0.5 -1.6 -0.6 -0.1 -0.1 1.7 -1.9 2.3 -11.3 3.3 -5.4 0.6 -5.8 0.5 -5.8 -1.4 0 -1.4 -0.6 -2.1 -1.7 -2 -1.1 0 -1.3 0.3 -0.5 0.6 2 0.8 1.4 3 -1 3.7 -4.1 1.1 -6.6 0.6 -7.1 -1.1 -0.4 -1.6 -0.5 -1.6 -0.6 -0.1 -0.1 1.8 -1 2.1 -15.2 4.3 -12.6 2 -15.7 3.1 -20 7.2 -5.4 5.1 -19.5 9.7 -26.4 8.5z m82.8 -29.1 c-0.3 -2.5 -0.9 -4.8 -1.2 -5.1 -0.3 -0.3 -1.5 -3.1 -2.5 -6.2 -1.1 -3.2 -2.2 -5.8 -2.6 -5.8 -0.4 0 0.2 2.6 1.3 5.8 1.1 3.1 2.1 8.2 2.1 11.3 0.1 4.8 0.4 5.5 1.8 5.1 1.4 -0.3 1.6 -1.2 1.1 -5.1z"/>
  <path d="M170 232.3 c0 -2.7 4 -14.2 6.3 -18.1 2.1 -3.6 7.2 -6.8 8.2 -5.2 0.3 0.5 -0.8 2.8 -2.6 4.9 -1.7 2.2 -4.4 7.5 -5.9 11.8 -1.7 4.9 -3.4 7.9 -4.4 8.1 -1 0.2 -1.6 -0.3 -1.6 -1.5z"/>
  <path d="M401 219.6 c0 -1.7 3.1 -2.6 9.3 -2.6 4 0 4.7 0.3 4.7 2 0 1.8 -0.7 2 -7 2 -5.3 0 -7 -0.3 -7 -1.4z"/>
  <path d="M352 200.4 c-1.1 -1.2 -1 -1.8 0.3 -3.2 1.6 -1.5 1.8 -1.5 3.3 0 1.9 1.8 1.2 4.8 -0.9 4.8 -0.8 0 -2 -0.7 -2.7 -1.6z"/>
  <path d="M336.8 195.3 c-2.4 -2.8 -4.9 -8.3 -4.3 -9.3 2.3 -3.8 10.6 5.1 8.9 9.5 -0.8 2 -2.7 1.9 -4.6 -0.2z"/>
  <path d="M109 195.2 c0 -1.8 3.7 -4 7.6 -4.5 2.3 -0.2 5.1 -1.3 6.3 -2.3 3.6 -3.2 14.1 -9.2 19 -11 2.5 -0.9 7 -2.7 10 -4 5 -2.2 5.6 -2.3 8.3 -0.9 6.7 3.3 12.9 3.1 14.9 -0.6 1.5 -2.8 -0.5 -4.9 -4.7 -4.9 -1.8 0 -4.9 -0.8 -6.8 -1.7 l-3.6 -1.7 8 -4.3 c4.4 -2.4 8.2 -4.3 8.5 -4.3 0.3 0 0.5 1.1 0.5 2.5 0 1.8 -0.7 2.6 -2.5 3.1 -1.4 0.3 -2.5 1 -2.5 1.5 0 1 2.3 0 8.1 -3.7 l3.5 -2.2 10.5 2.4 c5.7 1.4 11.6 2.9 13 3.5 l2.7 1 -2.3 4.8 c-1.3 2.6 -3 5.3 -3.9 6 -3.8 3.1 -49.9 14.3 -80.6 19.6 -5.2 0.9 -10.5 1.8 -11.7 2.1 -1.3 0.2 -2.3 0 -2.3 -0.4z"/>
  <path d="M359 189.1 l-3.4 -4.4 3.4 0.6 c4.2 0.9 4.2 0.9 3.8 4.8 l-0.3 3.3 -3.5 -4.3z"/>
  <path d="M120.5 183 c1 -1.1 6.4 -4.2 11.9 -6.9 13.7 -6.6 13.6 -6.6 13.6 -3.6 0 2.2 -0.4 2.5 -3.5 2.5 -2.2 0 -3.5 0.5 -3.5 1.3 0 0.8 -2.4 2.4 -5.2 3.8 -2.9 1.3 -5.9 3 -6.6 3.6 -0.7 0.7 -3 1.3 -4.9 1.3 -3.5 0 -3.6 0 -1.8 -2z"/>
  <path d="M353.6 172.4 c-0.8 -2.2 -0.7 -7.4 0.2 -7.4 0.9 0 5.2 6.6 5.2 8 0 1.6 -4.7 1.1 -5.4 -0.6z"/>
  <path d="M344.4 167.8 c-4.5 -6 -10.3 -9.4 -27.2 -15.4 -5.6 -2 -10.4 -4 -10.7 -4.4 -0.2 -0.4 2.3 -2 5.6 -3.5 l6.2 -2.7 4.6 2 c2.5 1.2 6.7 3 9.4 4.1 2.6 1.1 4.7 2.5 4.7 3 0 2.2 -10.1 0.5 -12 -2 -0.3 -0.4 -2.5 -0.9 -5 -1.3 l-4.5 -0.6 5.5 2.2 c3 1.2 5.7 2.6 5.8 3 0.2 0.4 1.4 0.8 2.7 0.8 1.3 0 3 0.6 3.7 1.3 0.7 0.8 2.6 1.6 4.1 1.9 2.3 0.5 2.7 0.2 2.7 -1.9 0 -1.9 0.4 -2.4 1.6 -1.9 2.2 0.9 6.9 4.7 8.3 6.9 1 1.5 0.7 1.7 -1.9 1.7 -2 0 -3 0.5 -3 1.5 0 0.8 0.7 1.5 1.5 1.5 0.8 0 1.5 0.7 1.5 1.5 0 0.8 0.5 1.5 1 1.5 0.6 0 1 1.4 1 3 0 1.7 -0.4 3 -0.9 3 -0.4 0 -2.6 -2.4 -4.7 -5.2z m0.6 -9.3 c0 -0.8 -0.9 -1.5 -2 -1.5 -2.5 0 -2.6 1.7 -0.2 2.3 0.9 0.3 1.8 0.5 2 0.6 0.1 0 0.2 -0.6 0.2 -1.4z"/>
  <path d="M147 171 c0 -0.5 1.3 -1.6 2.9 -2.4 2.6 -1.4 3 -1.4 4.5 0.3 1.6 1.7 1.6 1.9 0.1 2.5 -2.6 0.9 -7.5 0.7 -7.5 -0.4z"/>
  <path d="M208.5 150.5 c-3.3 -0.8 -6.6 -1.4 -7.2 -1.4 -0.7 -0.1 -1.3 -1 -1.3 -2.1 0 -1.1 -0.4 -2 -1 -2 -0.5 0 -1 0.5 -1 1 0 0.6 -1.5 1 -3.4 1 -1.9 0 -3.8 -0.4 -4.1 -1 -0.3 -0.5 -0.2 -1 0.3 -1 0.5 0 3.3 -1.6 6.2 -3.6 l5.2 -3.6 -0.4 3.5 -0.4 3.4 4 -2.6 4 -2.6 -3.2 -0.3 c-1.8 -0.2 -3.2 -0.7 -3.2 -1.1 0 -0.7 10.1 -7.1 11.3 -7.1 0.4 0 0.7 1.1 0.7 2.5 l0 2.5 4 -2 c4.1 -2.1 10 -2.7 10 -1 0 0.6 0.7 1 1.5 1 0.8 0 1.5 -0.4 1.5 -0.9 0 -2 10.7 -5.4 18.2 -5.9 6.4 -0.4 8.8 -0.1 13.8 1.8 3.3 1.2 6 2.6 6 3.1 0 0.5 0.8 0.9 1.8 0.9 2.3 0 11.5 3.1 12.2 4 0.3 0.4 2.5 1 5 1.4 l4.5 0.6 -4 -1.7 c-2.2 -0.9 -4.1 -2 -4.3 -2.5 -0.2 -0.4 -1.3 -0.8 -2.4 -0.8 -1.1 0 -4.2 -0.8 -6.9 -1.7 -3.9 -1.4 -4.9 -2.2 -4.9 -4 0 -2.2 0.2 -2.2 11.3 1.8 6.1 2.3 13.4 4.9 16.1 5.8 l4.9 1.7 -6.5 2.8 -6.6 2.8 -6.4 -2.2 c-3.4 -1.2 -11 -4 -16.8 -6.3 -13.5 -5.4 -18.1 -5.4 -28.5 -0.3 -7.5 3.7 -10.6 6.3 -16.3 13.4 -3.7 4.6 -4.4 4.8 -13.7 2.7z"/>
  <path d="M221.2 127.8 c0.5 -1.6 14.6 -6.4 21.6 -7.3 4.8 -0.6 5.2 -0.5 5.2 1.4 0 1.6 -0.6 2.1 -2.8 2.1 -1.6 0 -5.1 0.7 -7.8 1.5 -2.7 0.8 -5.9 1.5 -7.1 1.5 -1.3 0 -2.3 0.5 -2.3 1 0 0.6 -1.6 1 -3.6 1 -2.4 0 -3.4 -0.4 -3.2 -1.2z"/>
  <path d="M253.8 124.7 c-2.6 -0.7 -3.8 -1.6 -3.8 -2.9 0 -2.2 1.8 -2.3 8.7 -0.1 9.5 3 5 5.8 -4.9 3z"/>
 </g>
 <g fill="#4a3824">
  <path d="M173 472 c-7.9 -1.3 -28.9 -9 -45.9 -16.7 -9 -4.1 -22.4 -9.4 -29.8 -11.9 -25.2 -8.3 -27.2 -10.1 -41.8 -38.9 -10 -19.6 -10 -19.6 -9.9 -26.8 0 -5.7 0.9 -9.5 3.8 -17.7 7.2 -20 9.4 -26.5 10.1 -29.7 0.7 -3.3 0.6 -3.3 -3.2 -3.4 -9.8 -0.1 -14.8 -5 -14.7 -14.4 0.1 -6.1 3.5 -13.2 11 -23.1 5.8 -7.6 10.1 -11 17.6 -13.8 4.1 -1.6 4.9 -2.4 6.9 -7 1.2 -2.8 3.5 -7.8 5.1 -11.1 5 -10.3 8.8 -19.6 12.9 -31.4 6.7 -19.1 7 -19.5 16.2 -20.4 4.2 -0.3 4.6 0.2 1.8 2.7 -2.3 2.1 -8.1 15.5 -11.2 25.8 -1.1 4 -5.2 13.5 -9.1 21.2 -3.8 7.6 -6.7 14 -6.5 14.3 0.3 0.2 4.5 -0.3 9.3 -1.1 10.8 -1.8 23.8 -3.7 48.7 -7.1 15.7 -2.1 20.5 -3.2 29.5 -6.6 14.4 -5.4 35.3 -11.3 53.1 -14.8 18 -3.6 50.2 -7.5 55.7 -6.6 2.2 0.3 6.9 1.9 10.5 3.6 5.6 2.7 7.1 3 12.2 2.5 6.7 -0.7 12 -3.1 16.2 -7.5 2 -2.1 5.1 -3.8 9.5 -5.1 7.5 -2.3 27.1 -5.7 37.8 -6.7 4 -0.3 7.5 -0.9 7.7 -1.3 0.6 -0.9 -2.4 -11.9 -4 -15 -0.8 -1.4 -4.6 -5.8 -8.4 -9.8 -3.9 -4 -7.1 -7.8 -7.1 -8.3 0 -2 12.3 0.1 14.9 2.4 4.8 4.4 9.7 13.4 12.1 22.1 l2.3 8.7 6.6 -0.5 c17.3 -1.4 27.7 -1.5 31.1 -0.3 3 1 3.8 2 5.3 6.7 1 3 2.4 9 3 13.2 1.1 7.4 1 8 -1.6 13.5 -2.4 5.3 -2.6 7.1 -3.1 22.3 -0.5 18.1 -1.5 23.3 -6.5 32.6 l-3.1 5.9 1.5 5.3 c0.9 3 4.7 11.6 8.5 19.2 7.5 15.3 7.9 16.9 11.1 41.8 2.2 17.5 2.1 23 -0.6 28.2 -5.6 10.8 -36.3 31 -57.9 38.1 -3.7 1.2 -12.7 2.5 -23.5 3.5 -9.7 0.8 -23.4 2.3 -30.6 3.3 -7.1 1.1 -16.8 2.2 -21.5 2.6 -7.3 0.6 -17.3 2.4 -35 6.4 -6.8 1.5 -33.2 4.9 -44 5.6 -5.2 0.4 -16.6 2 -25.3 3.6 -16.3 3 -19.9 3.2 -27.7 1.9z m33 -12 c6.3 -1.1 18.1 -2.5 26.2 -3 8.1 -0.5 15.8 -1.2 17 -1.4 18.4 -4.1 52.9 -10 64.5 -11.1 8.1 -0.8 20.9 -2.3 28.3 -3.4 7.4 -1.2 16.3 -2.1 19.6 -2.1 13.6 0 21.8 -2.9 41.9 -14.9 16.7 -10 23.6 -15.6 26.5 -21.6 2.4 -4.9 2.4 -7.3 0.2 -23 -0.7 -4.4 -1.6 -11.6 -2 -16 -0.8 -7 -1.9 -10 -8.4 -23.5 -4.2 -8.5 -7.9 -16.5 -8.2 -17.7 -0.8 -2.4 -2.5 -3 -4.2 -1.4 -2.2 2.1 -16.2 6.1 -26.6 7.7 -19.2 2.8 -32.5 -0.4 -41.6 -10 -6.1 -6.5 -9.2 -11.8 -15.4 -26.4 -5.4 -12.8 -8.7 -17.3 -12 -16.4 -2.9 0.7 -5.5 7.3 -6.8 17.2 -1.5 11.4 -4.7 24.4 -7.6 30.5 -9.1 19.3 -32.8 29.8 -66.9 29.6 -14.9 0 -22.6 -1.6 -29.7 -6.2 -10.1 -6.5 -16.1 -15.8 -22.3 -34.7 -1.5 -4.6 -3.7 -9.5 -5 -11 -2.1 -2.5 -2.9 -2.7 -9.7 -2.6 -4 0 -16.9 1.5 -28.7 3.2 -23.3 3.6 -26.2 3.5 -35.7 -0.8 -9.6 -4.4 -22 -4.6 -25.1 -0.4 -1.4 2 -2.9 8.5 -4.9 21.9 -1.8 12.3 -4.5 22.1 -9.4 34.5 -5.7 14.4 -6.7 19.1 -5.1 24.8 0.7 2.6 3 7.9 5.1 11.8 l4 7.1 7.2 0.8 c4 0.5 8.6 0.8 10.1 0.8 3.8 0 7.8 -3.1 10.1 -7.7 1.7 -3.5 1.7 -3.9 0.3 -4.8 -2.2 -1.2 -3.7 -7 -3.7 -14 0 -6.9 0.7 -8.8 3 -8.8 1.6 0 1.7 0.4 0.8 3.6 -1.2 4.4 -0.2 10.7 2.1 13.5 l1.8 2.2 5.4 -5.5 c3.8 -3.9 7 -6.1 10.6 -7.4 l5.1 -1.8 0.4 -8.6 c0.3 -7.7 0.7 -9.4 4.5 -17 2.6 -5.1 5 -11.9 6 -17 1.3 -6.1 2.2 -8.5 3.3 -8.5 1.2 0 1.5 1.6 1.5 8.5 0 8.1 -0.2 9 -4.8 18.7 -7.7 16.3 -6.9 23.2 4 36.1 9.5 11.2 10 12 8 13.9 -1.5 1.6 -2.1 1.2 -7.2 -4.3 -6.7 -7 -13.2 -14.9 -13.7 -16.6 -0.5 -1.3 -12.3 4.8 -15 7.9 -0.9 1 -2.8 4.5 -4.3 7.8 -3 7 -6.4 10.9 -11.9 13.7 -3.4 1.7 -5 1.9 -11.8 1.3 -4.3 -0.3 -7.8 -0.3 -7.8 0.1 0 1 6 12.6 8 15.5 2.7 3.7 9.7 7.1 27.1 12.8 8.6 2.9 19.9 7.4 25 10 5.2 2.7 12.6 6 16.4 7.4 3.9 1.4 7.8 2.8 8.7 3.2 1.2 0.5 0.5 -1.2 -2.2 -5.2 -2.1 -3.3 -5 -9.5 -6.4 -13.9 -1.4 -4.3 -4.1 -10.4 -6 -13.4 -3.8 -6.1 -3.8 -7.8 0.2 -5.4 4.3 2.5 9 9.5 11.6 17.1 3.4 10.1 4.7 12.1 12.3 19.5 9.9 9.5 14.7 10.1 43.3 4.8z m51.5 -116 c10.7 -2.7 22 -8.4 26.9 -13.5 7.6 -7.7 11 -17.3 14 -38.6 0.8 -5.8 2 -11.8 2.6 -13.4 2.6 -6.8 9.3 -10.5 15.3 -8.6 5.3 1.8 8.3 5.8 12.7 17 6.1 15.3 9.6 21.7 14.6 26.8 7.4 7.4 11.7 8.8 26.4 8.8 14.3 0 20.4 -1.3 30.7 -6.3 9 -4.4 12.9 -8.1 16.4 -15.7 3.7 -8.3 4.9 -15.6 4.9 -31 0 -12.2 0.2 -13.5 2.7 -18.5 l2.7 -5.4 -1.6 -9.4 c-0.9 -5.2 -2.3 -10.1 -3.1 -10.9 -2.2 -2.2 -21.6 -1.7 -48.2 1.2 -36.4 4 -44.3 5.8 -49.8 11.5 -3.6 3.7 -12.5 7.1 -20.2 7.7 -5.2 0.5 -7.2 0.1 -13.9 -2.6 -9.2 -3.7 -11.9 -3.8 -32.1 -1.1 -22.7 3 -32.7 4.8 -47.5 8.6 -20.3 5.1 -31.1 8.7 -32.2 10.8 -0.7 1.3 -0.7 5.3 0.2 13 1.5 14 1.3 13.4 5.3 15.1 1.9 0.8 3.8 2 4.4 2.7 0.6 0.7 2.7 6.7 4.7 13.2 4.3 13.8 10.2 27 13.8 30.7 3.3 3.5 11.2 8 16.7 9.6 6.2 1.8 23.6 0.9 33.6 -1.7z m-53.2 -5.2 c-4.8 -5.2 -7.7 -11.2 -13.4 -28.2 -5 -14.7 -5.7 -16.2 -9.1 -18.5 -5.2 -3.7 -6.1 -6.2 -6.6 -18.1 -0.2 -5.8 -0.7 -10.9 -1.2 -11.3 -0.4 -0.5 -2.4 -0.1 -4.5 0.7 l-3.8 1.6 0.5 8.3 c0.7 9.8 2.3 15.8 5.2 18.5 1.1 1.1 3.7 3.5 5.7 5.4 2.7 2.5 4.7 6.3 8.4 15.8 6.2 16.1 9.1 20.8 16.3 26.3 4.9 3.7 6.3 3.4 2.5 -0.5z m-146.9 -19.7 c0.9 -1 3.2 -5.5 5.1 -10.1 2 -4.5 4.8 -10 6.3 -12.1 5.3 -7.5 17.3 -8.9 30.3 -3.4 12.4 5.2 11.6 5.2 36.9 1.6 28.4 -4.1 27.3 -3.8 26.6 -6.5 -0.3 -1.1 -1.1 -6.6 -1.7 -12.1 -0.6 -5.5 -1.3 -10.1 -1.4 -10.3 -0.5 -0.5 -34 4.3 -58.5 8.3 -21.3 3.5 -28.3 5.5 -35.5 10.5 -8.9 6.1 -19.5 23.8 -18 29.9 1.4 5.8 6.5 7.9 9.9 4.2z"/>
  <path d="M218.5 435.4 c-10.9 -4.2 -11.7 -4.6 -11.6 -5.9 0.1 -2.2 5.7 -1.4 14.4 2 10.5 4.2 11.9 5.2 9.7 6.5 -2.2 1.4 -2.6 1.3 -12.5 -2.6z"/>
  <path d="M178 427.4 c-4.8 -2.1 -7.6 -4.9 -11.7 -11.9 -1.9 -3.3 -4.5 -7.5 -5.9 -9.4 -1.3 -1.9 -2.2 -3.6 -2 -3.8 0.2 -0.2 2 0.3 4 1.1 2.4 1 4.5 3.1 6.5 6.3 4.9 8 8.3 11.5 13.7 13.9 6.6 2.9 7.8 5.4 2.6 5.4 -2 -0.1 -5.3 -0.8 -7.2 -1.6z"/>
  <path d="M356.2 418.3 c0.4 -2.2 9.1 -8 14 -9.4 2.3 -0.6 6.7 -1.5 9.9 -2 12.8 -2.1 23 -9.2 27.9 -19.5 2.9 -6.3 5.1 -7.8 5.8 -4 0.6 2.9 -4 10.9 -9.7 17 -6.5 6.8 -9.1 8.3 -16.9 9.7 -3.1 0.6 -11.2 3.1 -17.9 5.5 -6.7 2.4 -12.4 4.4 -12.8 4.4 -0.4 0 -0.5 -0.7 -0.3 -1.7z"/>
  <path d="M179.6 398.9 c-5.5 -3.7 -9.9 -10.9 -6.6 -10.9 2.8 0 15 10.9 15 13.4 0 1.5 -4.1 0.3 -8.4 -2.5z"/>
  <path d="M228.3 335 c-13.3 -2.8 -21.1 -13.4 -27.3 -37 -3.2 -12.2 -3.9 -22.8 -1.7 -26.7 4.3 -7.6 24.8 -14 56.9 -17.7 20.2 -2.4 26.2 -0.8 31.4 8 7.2 12.3 2.1 47.5 -8.6 59.7 -4.3 4.8 -12.7 9.7 -20.8 12.1 -6.5 1.9 -24.1 2.9 -29.9 1.6z m17.6 -18 c3.1 -7.4 9.9 -23.5 15 -35.7 5.1 -12.2 9.4 -22.5 9.5 -23 0.1 -1 -14.3 -0.4 -22.9 1 l-7 1.2 -3.8 10.3 c-2 5.6 -7.7 19.4 -12.7 30.5 l-8.9 20.2 2.2 2.3 c4.3 4.7 10.9 7.2 18.1 6.9 l4.9 -0.2 5.6 -13.5z m10.6 11.8 c11.6 -2.9 20.7 -10.5 24.4 -20.3 4.4 -11.6 6.4 -32.4 4 -40.9 -1.2 -4.3 -6.1 -9.6 -8.8 -9.6 -1.1 0 -2.9 3.4 -6 11.8 -2.5 6.4 -5.2 13.5 -6.2 15.7 -4.7 10.6 -17.9 43.6 -17.9 44.7 0 0.8 3.6 0.3 10.5 -1.4z m-40.3 -20.3 c1.5 -3.3 4.5 -10 6.7 -15 5.4 -12.1 12.9 -30.9 12.5 -31.4 -0.2 -0.2 -3.4 0.2 -7.1 0.9 -9.3 1.7 -20 5.9 -23.6 9.3 -2.9 2.7 -3 2.9 -2.3 9.5 1.2 11.2 8.8 35.6 10.5 33.5 0.4 -0.4 1.9 -3.5 3.3 -6.8z"/>
  <path d="M359.2 312.2 c-9.8 -3.5 -17.7 -13.9 -24.8 -32.4 -2.9 -7.5 -3.6 -10.8 -3.7 -17.3 -0.4 -15.5 4.2 -18.6 36.3 -23.9 17.9 -3 28.9 -4 33.5 -3.2 5.7 1.1 10.2 5.8 11.4 11.9 2.7 14 2.1 39 -1.1 46.5 -2.3 5.3 -6.8 11 -10.3 13.2 -5.9 3.6 -15.4 6 -26 6.6 -8.2 0.4 -10.9 0.1 -15.3 -1.4z m26.3 -31.7 c6.2 -15.9 12.2 -31.4 13.4 -34.3 2.6 -6.6 2.5 -6.6 -11.1 -5.5 l-10.3 0.8 -4.5 12 c-2.6 6.6 -6.3 15.8 -8.5 20.5 -5.2 11.5 -11.5 27.1 -11.5 28.5 0 2.7 12.3 7.5 18.4 7.2 2.8 -0.2 3.1 -0.8 14.1 -29.2z m3 26.1 c10.4 -2.7 15 -6.8 18.2 -15.8 3.2 -9.4 2 -46.8 -1.6 -46.8 -0.4 0 -2.2 3.7 -3.9 8.3 -1.7 4.5 -6.1 15.9 -9.7 25.2 -3.7 9.4 -7.8 20 -9 23.8 -2.7 7.7 -2.7 7.7 6 5.3z m-35.2 -14.1 c1.3 -3.8 4.3 -11.5 6.7 -17 2.3 -5.5 6.2 -14.9 8.5 -21 5.1 -13.1 5.6 -12.7 -10.8 -9.5 -19.5 3.9 -22.7 6.1 -22.7 16 0 7.4 2.1 14.3 8.2 26.5 4.8 9.6 6.8 12.9 7.3 12.3 0.2 -0.2 1.4 -3.4 2.8 -7.3z"/>
  <path d="M145 244.9 c-0.9 -1.7 -0.6 -3.2 1.8 -8.2 1.8 -3.8 3.6 -10.1 4.6 -16 1.5 -9.4 4.4 -16.9 8.2 -21.4 1.2 -1.3 4.8 -2.9 9.7 -4.2 9.7 -2.6 10.3 -2.6 4.6 0.4 -10.3 5.4 -14.9 13.2 -17.3 29.7 -1.5 10.3 -3.8 16.8 -7.1 20.2 -2.2 2.1 -3.2 2 -4.5 -0.5z"/>
  <path d="M141.5 205.3 c-1.1 -0.3 -2.8 -1.1 -3.8 -1.8 -1.7 -1.2 -1.3 -1.4 3.3 -2.4 5.4 -1.2 8 -0.4 8 2.4 0 2.2 -3.1 2.9 -7.5 1.8z"/>
  <path d="M352.7 201.3 c-0.4 -0.3 -0.7 -1.5 -0.7 -2.5 0 -2.8 3.4 -1.9 3.8 1 0.3 2.1 -1.6 3.1 -3.1 1.5z"/>
  <path d="M335.2 192.1 c-2.6 -4.6 -2.8 -6.1 -0.7 -6.1 2.5 0 6.5 4.6 6.5 7.5 0 3.9 -3.2 3.2 -5.8 -1.4z m3.8 -2.1 c0 -1.7 -3.8 -3.2 -4.6 -1.8 -0.4 0.7 -0.4 1 0.1 0.6 0.4 -0.4 1.4 -0.1 2.2 0.7 1.7 1.7 2.3 1.9 2.3 0.5z"/>
  <path d="M111 192.1 c1.1 -1.7 3.8 -4.5 6 -6.4 4.6 -3.9 20.9 -12.5 29.6 -15.7 l6.2 -2.2 4.2 2.8 4.2 2.8 -4.8 2.3 c-2.7 1.2 -7.7 3.3 -11.2 4.7 -6.6 2.5 -16 7.9 -19.3 10.9 -1.7 1.6 -10.3 3.7 -15.2 3.7 -1.7 0 -1.7 -0.2 0.3 -2.9z"/>
  <path d="M195.5 176.2 c5.6 -4.8 11.5 -9.2 11.5 -8.7 0 2.7 -3.9 6.6 -7.9 8 -2.5 0.8 -4.1 1.2 -3.6 0.7z"/>
  <path d="M351.3 173.1 c-2.4 -0.4 -4.1 -1.9 -6.6 -5.4 -1.9 -2.7 -4.3 -5.4 -5.4 -6.2 -2 -1.4 -13.6 -6.3 -26.2 -11 l-7.3 -2.8 6.2 -2.7 6.1 -2.7 10.6 4.4 c12.6 5.2 15.6 6.9 20.5 12 3.1 3.2 9.8 13.4 9.8 14.8 0 0.6 -3.5 0.4 -7.7 -0.4z"/>
  <path d="M167.5 166.3 c-7.4 -1.9 -7.3 -2.1 1 -6.8 8.5 -4.9 9.4 -5.1 15.9 -3.3 4.4 1.2 4.4 1.2 2.3 2.8 -4.2 3.3 -13.4 8 -15.3 7.9 -1 -0.1 -2.8 -0.4 -3.9 -0.6z"/>
  <path d="M214 151 c0 -0.5 2.7 -4.1 6 -7.9 3.3 -3.9 6 -7.2 6 -7.6 0 -0.9 -9.8 4.4 -16.9 9.1 l-6.7 4.4 -5.7 -1.1 c-6.1 -1.3 -7.1 -2.4 -3.4 -3.8 1.3 -0.5 3.6 -2 5.3 -3.3 5.5 -4.5 23.9 -14.6 30.4 -16.8 3.6 -1.1 9.9 -2.6 14.1 -3.2 7 -1 8.2 -0.9 16.9 1.7 5.2 1.4 10.2 3.1 11.2 3.6 2.1 1.1 18.8 7.3 26.6 9.8 l5.2 1.7 -6.4 2.7 -6.5 2.6 -10.8 -3.9 c-5.9 -2.1 -13.7 -5.1 -17.3 -6.5 -12.2 -5.1 -22.9 -1.7 -36.4 11.5 -7.4 7.2 -11.6 9.7 -11.6 7z"/>
 </g>
</svg>