<svg xmlns="http://www.w3.org/2000/svg" width="300" height="300" viewBox="0 0 300 300">
  <path d="M134 190.25v-1.75h10v3.5h-10ZM120.75 183.648c-3.45-.796-4.5-1.597-5.3-4-.5-1.546-3.15-6.75-4.45-8.648-.95-1.352-1.45-2.7-3.102-8-2.046-6.648-4-9.8-6.449-10.5-2.148-.602-3.398-1.852-3.949-4.102-.25-.898-.8-2.898-1.25-4.398-.852-3.102-1.05-14-.25-15.45.648-1.3 4.102-2.55 6.95-2.55h2.402l.347 4.648c.2 2.5.7 6.653 1.102 9.102.648 3.8.949 4.7 2.097 5.602.75.648 1.602 1.148 1.903 1.148 1.3 0 2.75 2.7 4.449 8.25 1 3.3 2.102 6.45 2.45 7 .3.55.902 2 1.3 3.25.352 1.25.898 2.5 1.2 2.75.3.3 1.1 2.102 1.75 4 .652 1.95 1.6 4.102 2.152 4.852.5.699.898 1.75.898 2.347 0 .551.45 1.301 1 1.653.648.449 1 1.199 1 2.25 0 1.546-.102 1.648-1.602 1.597-.898-.05-3-.398-4.648-.8M110.602 154c-.551-1.602-1.403-3-2.153-3.45l-1.199-.8 1.148 1.75c.653.95 1.551 2.602 1.954 3.648 1.148 2.704 1.296 1.954.25-1.148m-7.25-8.852c-.653-1.949-1.051-4.898-1.204-9l-.296-6.046-1.25.546c-1.204.551-1.204.704-.954 4.602.301 4.7 1.852 9.898 3.403 11.55.597.65 1.148 1.2 1.199 1.2.05 0-.352-1.3-.898-2.852M174.5 182.8c0-1.85.602-2.3 3.05-2.3 1.302 0 1.45.148 1.45 1.7 0 1.85-.602 2.3-3.05 2.3-1.302 0-1.45-.148-1.45-1.7M138.75 176c-1.898-.55-3.648-1-3.8-1-.2 0-1.25-.898-2.4-2-1.35-1.3-2.05-2.45-2.05-3.25 0-.898-.8-2.102-2.5-3.75-1.898-1.898-2.5-2.8-2.5-4 0-.8-.148-1.5-.352-1.5-1.046 0-2.699-3.648-3.199-6.8-.8-5.7-1.05-6.7-1.5-7-.25-.15-.449-2.052-.449-4.2 0-7.2 1.602-11.648 4.398-12.3.75-.2 1.903-.65 2.602-1 1.398-.7 9.05-2.7 10.45-2.7.5 0 1.6-.352 2.35-.75.802-.398 2.348-.75 3.5-.75 1.098 0 2.2-.2 2.5-.45.5-.448 12.15-1.55 16.598-1.55H165v3.352l-3.352.296c-1.898.153-5.097.551-7.199.852l-3.8.602-1.899 5.097c-1 2.75-2.148 5.75-2.5 6.551-.352.852-1.2 2.898-1.852 4.648-.597 1.704-1.296 3.102-1.5 3.102-.25 0-.398.3-.398.648 0 .602-4.602 11.352-7.2 16.852l-1.3 2.75 1.898 1.8c2.051 1.95 6.704 3.95 9.102 3.95 1.398 0 1.5.148 1.5 1.75 0 1.75 0 1.75-2.102 1.7-1.199 0-3.699-.45-5.648-.95m-2.25-31.25c3.352-7.95 6.2-14.648 6.3-14.8.25-.4-6.902 1.25-9.8 2.3-2.648.95-6.25 3-7.55 4.3-.552.552-.95 1.65-.95 2.598 0 3.954 4.7 21.403 5.5 20.5.2-.199 3.102-6.898 6.5-14.898m0 0" style="stroke:none;fill-rule:nonzero;fill:#503119;fill-opacity:1"/>
  <path d="M150.398 176.648 148 176.45v-2.25c0-1.199.2-2.597.45-3.097.25-.454 1.198-2.602 2.05-4.75.852-2.153 2.398-5.75 3.45-8 1.05-2.25 2.3-5.352 2.75-6.852.5-1.5 1.3-3.648 1.85-4.75 5.45-11.7 8.95-20.55 8.95-22.55 0-1.4.148-1.598 1.898-1.9 5.102-.8 8.352.2 11 3.552.852 1.097 1.704 3.046 2.051 4.546C183.602 135.75 183 145.2 181 153c-.2.95-.7 3.352-1 5.25-.95 5.55-2.102 7.602-6.102 11.352-6.347 5.847-13.25 7.949-23.5 7.046m9.653-5.199c9.3-3 14-8.347 16.8-18.898 1.047-4.051 1.297-6 1.348-12.301.051-7.352 0-7.55-1.347-9.852-2.602-4.449-2.704-4.347-6.301 5.25-1.75 4.75-5.5 14-8.301 20.602-6.898 16.25-6.898 16.25-6.102 16.25.403 0 2.153-.45 3.903-1.05M252.102 171.648c.148-1.597.347-1.898 1.648-2.148.852-.2 2-.602 2.602-.898.597-.352 2-.602 3.097-.602 2 0 2.051.05 2.051 1.75s-.05 1.75-3.3 2.75c-1.802.55-3.95 1-4.802 1-1.398 0-1.449-.102-1.296-1.852M186 170.602c0-1.051.2-2.102.398-2.352.25-.3.852-1.8 1.352-3.352.898-2.75 1.05-2.898 2.602-2.898 1.5 0 1.648.148 1.648 1.55 0 .848-.602 3.2-1.3 5.25-1.302 3.598-1.348 3.7-3 3.7-1.65 0-1.7-.102-1.7-1.898M235 162.45c-.95-.302-2.602-.75-3.602-1-1.75-.45-1.898-.65-1.898-2.302v-1.796l2.898.398c1.551.2 3.954.398 5.301.45l2.5.05 1.2-3.25c.652-1.8 2.101-5.5 3.203-8.25 1.097-2.75 3.199-8.148 4.648-12 1.45-3.852 3.7-9.75 4.95-13.05 1.25-3.348 2.3-6.348 2.3-6.65 0-.6-5.55-.698-9.75-.152-2.398.352-2.45.403-2.852 2.301-.25 1.102-.648 2.25-.949 2.602-.25.3-1.148 2.648-1.949 5.148-.852 2.551-2.648 7.102-4.05 10.2-5.348 11.652-8.098 18.953-8 21.3l.1 2.2-2.75-.348c-3.1-.352-4.8-1.45-4.8-3.153 0-.597-.2-1.25-.5-1.398-.25-.148-.5-.648-.5-1.05 0-.45-.398-1.15-.95-1.598-1.402-1.25-4.698-8.153-6.152-12.852-1.148-3.602-2.097-10.852-1.699-12.55.2-.802.602-2.552.852-3.95.699-3.2 1.75-5.25 2.8-5.25.45 0 1.797-.45 2.95-1 1.148-.55 3.949-1.25 6.25-1.5 2.3-.3 5.097-.75 6.199-1s3.5-.5 5.352-.5c1.847 0 4.648-.352 6.25-.75 3.296-.852 15.648-1.05 15.648-.25 0 .3.75.5 1.7.5.902 0 1.948.352 2.3.75s1.05.75 1.5.75c.55 0 1.2.648 1.602 1.5.347.852.796 1.5.949 1.5.847 0 2.148 18.148 1.699 23.5-.25 3.398-1.5 7.898-3.45 12.55-.402.95-1.6 2.65-2.652 3.75-1.898 1.95-3.296 2.552-8.648 3.802-1.5.347-2.852.75-3 .898-.25.3-7.602 1.45-11.25 1.8-1.102.098-2.8-.05-3.75-.35m18.5-7.052c4.2-1.796 7.3-6 9.05-12.148.802-2.8.848-16.648.098-21l-.398-2.5-1.102 2.75c-3.296 8.5-10.699 27.75-11.847 30.898L248 157.102l1.602-.352c.898-.2 2.648-.8 3.898-1.352m-26.3-13.796c1.6-3.954 4.152-10.25 5.75-14 1.6-3.801 3.05-7.454 3.198-8.204.204-.699.454-1.648.653-2.046.199-.653-.5-.602-5.153.199-15.148 2.699-17.398 4.949-14.847 15.097 1.05 4.301 6.847 16.954 7.449 16.25.05-.097 1.398-3.398 2.95-7.296M272.5 124.852c0-3.551.45-5 2.5-8.204.602-.949.602-1.699-.148-5.648-.903-4.5-2.153-8-2.954-8-.199 0-.398-.8-.398-1.75 0-1.648.102-1.75 1.8-1.75.95 0 2.098.352 2.5.75 1.848 1.8 3.65 9.2 3.7 14.852 0 2.296-.3 3.296-1.45 5.148-.948 1.55-1.55 3.3-1.8 5.3l-.352 2.95H272.5ZM118.5 117.352v-1.653l5.648-1.398c3.051-.801 6.551-1.551 7.75-1.653l2.102-.25v1.704c0 1.699-.05 1.75-3.05 2.597-4.25 1.153-9.75 2.301-11.25 2.301-1.052 0-1.2-.25-1.2-1.648M185.5 117.5c-1.5-.5-4.102-1.5-5.75-2.2-1.648-.698-3.602-1.3-4.352-1.3-1.25 0-1.398-.2-1.398-1.75 0-1.602.102-1.75 1.5-1.75 2.352 0 6.5 1 10.352 2.55 4.097 1.65 5.75 1.75 10.449.65 4.199-.95 5.8-1.802 8.847-4.5 3.102-2.802 5.954-3.802 15.102-5.348 4.148-.704 8.3-1.454 9.25-1.602s3.648-.5 6-.8c2.352-.25 7.2-.802 10.75-1.2 3.602-.398 9.602-.75 13.398-.75h6.852v3.352l-6.352.296c-10.199.5-36.546 3.75-43.898 5.403-3.398.8-5.102 1.699-7.898 4.3-3 2.797-5.551 3.899-11.051 4.899-5.7.95-8.403.898-11.801-.25M131 52.25c0-1.648.102-1.75 1.75-1.75s1.75.102 1.75 1.75-.102 1.75-1.75 1.75-1.75-.102-1.75-1.75m0 0" style="stroke:none;fill-rule:nonzero;fill:#503119;fill-opacity:1"/>
  <path d="M101.2 271.5c-5.65-1-21.302-6.95-33.95-12.898-4.3-2-11.05-4.602-15.75-6.102-17.352-5.45-19-6.7-25.8-20-2.302-4.55-5.2-10.05-6.45-12.25-4.352-7.8-5.352-13.2-3.5-19.5.5-1.648 2.3-6.602 4.05-11 2.7-6.852 5.2-15.2 5.2-17.45 0-.448-1-.6-3.7-.6-3 .05-4-.15-5.1-1-2.598-1.9-3.4-3.5-3.598-7.15-.204-2.902 0-3.902 1.398-7.25 2.3-5.55 7.602-12.55 12.25-16.1 1.102-.9 3.25-2.098 4.75-2.75 2.75-1.098 5-2.75 5-3.552 0-.25 2.102-4.898 4.7-10.296 2.6-5.403 6.35-14.352 8.35-19.852C53.25 92 57.5 82.8 60.399 79.148c3.704-4.597 11.403-9.296 22-13.449 8.352-3.25 18.75-8.847 29.602-15.949 21.648-14.2 29.7-18.05 40.05-19 4.802-.45 9 .45 16.75 3.5 3.302 1.3 9.2 3.45 13.2 4.75 26.898 8.95 36.75 13.05 40.648 16.8 1 .95 3.102 3.848 4.653 6.348 5.449 8.852 6.25 9.903 11.398 15.301 5.653 5.95 6.903 8.051 9 15.25.7 2.5 1.5 4.7 1.75 4.95.2.203 4.852.152 10.551-.149 11.398-.648 15-.398 16.852 1.2 1.546 1.35 3.597 8.85 4 14.8.25 4.05.199 4.398-1.204 7.05-1.449 2.7-1.5 3.052-1.796 12-.5 13.7-2 21.098-5.602 27.302-.7 1.148-1.25 2.5-1.25 3.046 0 1.903 2.102 6.954 6.45 15.551 5.5 10.852 6.35 13.551 7.05 22.352.3 3.847.898 9.097 1.3 11.699 2.348 14.352-1.152 19.352-22.55 32.25-12.75 7.7-17.898 9.398-31.75 10.45-14.7 1.152-44.102 5.1-58.25 7.8-16 3.05-20.5 3.75-32.25 4.75-5.102.45-12.852 1.5-17.25 2.352-8.602 1.597-18.102 2.199-22.55 1.398m18-8.5c8.25-1.55 15.1-2.45 23.1-3 7.45-.45 18.098-2.05 26.95-3.95 7.8-1.698 21.852-4 26.5-4.3 2.5-.2 8.352-.898 13-1.55 12.7-1.802 15.3-2.098 23.25-2.65 4.7-.35 8.45-.85 10.75-1.55 5.2-1.602 13.898-6.3 25.75-13.898 6.352-4.102 10.5-9.5 10.5-13.704 0-1-.352-3.597-.75-5.75-.398-2.148-.95-6.949-1.25-10.648-.25-3.7-.602-7.2-.8-7.75-.15-.55-1.95-4.352-3.95-8.5-1.95-4.102-4.352-9.2-5.25-11.25-.95-2.05-1.852-3.95-2.05-4.148-.2-.25-1-.102-1.848.347-.852.45-2.102.801-2.801.801-.653 0-1.551.3-1.903.7-.847.8-5.699 2.05-11.296 2.85-5.903.802-17.903.348-22.204-.902-8.449-2.5-14.546-10.347-21.648-27.949-2.2-5.55-3.8-7.699-4.898-6.8-1.403 1.203-2.25 3.851-3.051 9.601-1.352 9.648-3.852 20-4.852 20-.25 0-.449.352-.449.75s-.2 1.148-.45 1.648c-.198.454-.85 1.75-1.35 2.852-1.2 2.5-6.302 8-8.25 8.852-.802.347-1.45.796-1.45.949 0 .148-1.75 1.097-3.898 2.148-8.102 3.75-20.051 5.852-33.551 5.75-9.352-.05-14.903-1-19.153-3.3-3.5-1.899-10-8.399-11.648-11.649-1.45-2.852-5-11.95-6.5-16.5-1.25-3.95-2.352-5.25-4.898-6-1.954-.5-4-.352-18.403 1.75-20.05 2.898-22.25 2.898-29.648-.2-5.653-2.35-7.801-2.8-11.051-2.35-1.602.25-2.5.698-3.05 1.55-1.25 1.898-3.15 9.5-3.95 16-1 7.45-2.648 13.7-5.75 21.45-1.3 3.35-2.898 7.8-3.5 10-1.352 4.902-1.05 6.448 2.75 13.55l2.7 5.05 5.3.598c5.852.704 6.25.602 9.398-2.296 1.551-1.454 1.704-2.403.602-3.602-1.102-1.2-1.75-5.45-1.75-11.102 0-6.449.25-6.898 3.852-6.898h2.796l-.347 2.148c-.153 1.153-.45 2.903-.602 3.903-.199 1.097 0 2.5.5 3.648l.801 1.903 2.648-2.704c2.704-2.699 5.653-4.449 8.75-5.148l1.602-.352v-4.597c0-5.602.8-8.602 3.852-14.153 1.699-3.199 2.5-5.398 3.398-9.949.7-3.199 1.5-6.148 1.8-6.5 1-1.199 3.802-.847 4.75.551.7 1.102.802 2.2.552 6.898-.352 6.5-.852 8.301-4.25 15.301-1.403 2.801-2.704 6.102-2.852 7.301-.55 3.602.8 7.148 4.398 11.5C81.801 217.102 82 217.398 82 220.3v2.7h-5.398l-4.653-4.852c-2.55-2.699-5.398-5.949-6.347-7.296l-1.704-2.352-2.5 1.352c-4.25 2.398-6.25 4.398-7.398 7.546-2.5 6.903-3.7 8.403-8.602 10.903-2.296 1.148-3 1.3-7.199 1.097-2.597-.046-4.699.051-4.699.301 0 1.051 3.398 6.653 4.95 8.153 2.448 2.398 7.402 4.546 17.8 7.898 5.352 1.7 11.148 3.95 14.5 5.648 5.55 2.801 13.352 6.153 13.648 5.852.102-.102-.398-1.25-1.097-2.648-.7-1.352-1.653-4-2.102-5.801-.449-1.852-1.597-4.602-2.597-6.2-2.903-4.75-3.602-6.25-3.602-7.953C75 233 75.05 233 77.3 233c1.95 0 2.7.3 4.552 1.8 3.046 2.5 5.347 6.2 6.699 10.7 1.5 5.2 2.949 7.898 5.949 11.148 5.75 6.301 9.352 8.051 15.7 7.602 2.152-.148 6.198-.7 9-1.25m19.948-72.852c-.648-.097-1.75-.097-2.5 0-.796.102-.25.204 1.102.204 1.398 0 2-.102 1.398-.204m15.954-7.199c9.796-1.597 14.949-3.597 20.449-7.898 3.449-2.75 5.3-5.102 7.148-9.153 2.051-4.546 3-8.347 4.551-18.898.648-4.55 1.5-9.05 1.95-10 1.652-4.05 4.85-6 9.8-6 6.05 0 8.5 2.3 12.3 11.5 3.9 9.602 4.9 11.7 7.45 15.55 5.602 8.4 13.05 11.098 25.602 9.25 6.5-.948 9.898-2.05 15.097-4.85 4.653-2.5 7-4.7 9.051-8.552 2.55-4.75 3.55-10.699 3.55-20.75 0-5 .2-8.648.45-8.648s.602-1.148.8-2.5c.2-1.398.95-3.5 1.75-4.7 1.348-2.198 1.4-2.25.75-5.902-.698-3.847-1.85-7-2.902-8.046-.949-.954-18.847-.75-27.398.296-11.648 1.454-14.55 1.852-22.25 3.204-9.148 1.546-12 2.546-15.102 5.347-1.296 1.2-3.097 2.5-3.949 2.95-2.648 1.351-8.097 2.351-13 2.351-4.25 0-5.25-.2-8.597-1.602-3.051-1.25-4.602-1.597-7.352-1.597-3.95 0-21.7 2.199-30 3.75-12.3 2.3-34.602 8.398-36.55 10-.9.75-.848 3.25.198 10.449l.852 5.75 2.148.7c2.801.85 3.653 2.25 5.903 9.55 5.847 19.102 9.949 25.2 18.949 28.25 5.3 1.75 8.5 1.8 18.352.2m-31.352-1.25c-2.602-1.898-3.602-3.3-4.75-6.75-.648-2.05-1.5-3.898-1.852-4.097-.347-.204-.648-.704-.648-1.051 0-.403-.55-1.95-1.25-3.5-.7-1.602-2.05-5.5-3.05-8.7-1.65-5.402-3.098-8.101-4.4-8.101-.3 0-1.152-.5-1.85-1.148-1.65-1.352-2.2-3.653-3-12.102-.348-3.55-.65-6.55-.75-6.648-.25-.403-3.098 1.449-3.4 2.148-.55 1.5-.3 6.5.45 9.25.45 1.5 1 3.5 1.25 4.398.55 2.25 1.8 3.5 3.95 4.102 2.448.648 4.402 3.8 6.5 10.398.902 2.852 1.55 5.25 1.448 5.403-.097.097-1-1.95-1.898-4.602-2.102-5.898-3.75-8.398-7.102-10.949-2.296-1.8-2.796-2.45-3.847-5.5-.903-2.55-1.25-5-1.45-9.05l-.203-5.598 2.653-1c1.5-.602 2.398-1.051 2.097-1.051-1.25-.102-4.699 1.597-5.148 2.5-.75 1.398-.602 9.398.25 12.449.45 1.5 1 3.5 1.25 4.398.55 2.25 1.8 3.5 3.95 4.102 2.448.7 4.402 3.852 6.448 10.5 1.653 5.3 2.153 6.648 3.102 8 1.3 1.898 3.95 7.102 4.45 8.648.75 2.25 1.85 3.204 4.35 3.801 3 .7 3.598.653 2.45-.25m-3.352-8.75c-.648-1.75-1.347-3.347-1.597-3.5-.403-.3-1.602-3.148-1.95-4.699-.101-.25-.402-.95-.703-1.55-.347-.552-1.398-3.7-2.398-7-1.648-5.4-3.148-8.2-4.398-8.2-.25 0-1.051-.45-1.852-1-1.7-1.2-1.95-2.2-3.25-13.75l-.7-6 .2 6.75c.25 9.852 1.148 12.2 5.602 14.75 1.699.95 1.898 1.398 5.199 11.398 3.148 9.454 6.199 16.801 6.75 16.25.097-.148-.301-1.699-.903-3.449m139.102-3c.648-.347.648-.398 0-.398-.398 0-1.3.3-2 .75l-1.25.75 1.25-.352c.7-.148 1.602-.5 2-.75m-237.852-4.847c.5-.5 2.051-3.653 3.551-7 4.5-10.102 6-11.602 12.5-12.704 5.051-.847 10.5.051 17.5 2.903L61 150.648l11.602-1.597c6.398-.852 13.75-1.903 16.296-2.352 4.403-.75 4.653-.898 4.403-1.898-.153-.551-.551-3.602-.903-6.653-.347-3.296-.796-5.648-1.097-5.648-3.352 0-44.551 6.55-50.301 8-9.102 2.25-12.852 4.8-18.3 12.602-4.552 6.5-5.552 9.5-3.9 11.796.9 1.352 1.802 1.403 2.848.204M57.5 129c13.75-2.148 15.45-2.398 22.75-3.25 10.398-1.25 14.2-2.102 22.102-4.95C120.3 114.353 140 109.75 158.5 107.75c4-.398 8.602-1 10.25-1.25 6.95-1.148 12.898-.3 18.2 2.602 2.5 1.347 3.1 1.449 5.948 1.199 4.153-.352 7.204-1.801 10.403-4.801 2.847-2.7 3.8-3.148 8.449-4.3 3.8-.9 24.75-4.2 26.7-4.2.85 0 1.652-.25 1.8-.5.2-.3-.3-2.398-1.05-4.648-1.2-3.704-1.7-4.454-4.7-7.403-5.398-5.347-8.648-9.449-12.05-15.25-1.75-3-4.052-6.3-5.098-7.347-3.204-3.204-9.204-5.653-36.852-15.102-5.95-2-13.3-4.7-16.45-5.95-5.55-2.35-5.652-2.35-8.448-1.75-6.801 1.4-8.903 2.65-15.454 9.302-5.097 5.148-6.347 6.148-7.597 6.148-2.45 0-3.403-3.148-1.801-6.2.55-1.05.602-1.35.102-1.152-.352.153-5.352 3.301-11.051 7.102C102.85 65.398 98.85 67.602 86.5 72.5 72.648 78 67.102 82.148 63.148 89.75c-1.949 3.8-5.648 12.852-5.648 13.8 0 1.9-7.55 20-11.102 26.598-.398.801-.347.903.454.653.5-.153 5.296-.95 10.648-1.801m218.2-8.898c.198-.301.198-.602.05-.602-.648 0-1.75 3.602-1.7 5.602.052 2 .098 1.898.65-1.102.35-1.8.75-3.55 1-3.898m2.3-4.75c-.05-4.301-2.45-13.352-3.55-13.352-.25 0-.15.648.25 1.398.948 1.801 3 12.403 2.6 13.403-.152.449-.05.597.2.449.3-.148.5-1.05.5-1.898m-82.2.898c5.598-1 7.9-2.05 11.348-5.148 1.5-1.352 3.25-2.653 3.852-2.852.602-.2.95-.45.852-.602-.454-.398-3.403 1.352-5.551 3.352-2.653 2.398-4.352 3.25-8.5 4.2-5 1.198-9.45 1-13.051-.45-3.45-1.45-4.148-1.55-2-.398 1.7.949 6.602 2.597 7.8 2.597.45.051 2.802-.3 5.25-.699M215 107c1-.3 1.05-.398.25-.398-.55 0-1.45.148-2 .398-1.25.55.05.55 1.75 0m8.898-1.5c8.102-1.25 26.602-3.352 34.352-3.95l6-.448-5.75.046c-3.148 0-8 .301-10.75.653-2.75.347-6.7.8-8.75.949s-4.3.398-5 .55c-.7.098-2.05.348-3 .5-6.75 1.052-14.3 2.348-14.45 2.5-.402.348 1 .2 7.348-.8m0 0" style="stroke:none;fill-rule:nonzero;fill:#4a3624;fill-opacity:1"/>
  <path d="M135.25 249.5c-1.352-.5-4.398-1.7-6.75-2.602l-4.25-1.699-.148-2.199c-.204-2.55.296-3 3.398-3s7.2 1.102 10.7 2.95c1.6.85 3.3 1.55 3.75 1.55 1.652 0 3.05 1.5 3.05 3.2 0 .85-.25 1.85-.602 2.198-.898.903-6.296.653-9.148-.398M107.05 243.7c-3.55-.95-7.652-4.052-9.35-7.098-.7-1.301-2.302-3.801-3.45-5.602-2.898-4.398-3.25-5.2-3.25-6.95 0-1.5.05-1.55 2.398-1.55 3.903 0 5.903 1.55 9 6.75 2.852 4.75 4.653 6.398 8.602 7.95 3.3 1.3 4 2.1 4 4.55 0 1.8-.2 2.2-1.102 2.45-1.75.448-3.898.3-6.847-.5M227.148 237.45c-.347-.348-.648-1.5-.648-2.552 0-1.699.25-2.097 2.398-3.648 4.204-3.148 7.954-4.648 14.301-5.75 9.801-1.7 15.403-5.5 19.301-13.102 1.2-2.296 2.398-4.296 2.7-4.5.85-.597 3.55-.449 4.198.204.903.898.704 5.046-.398 8.046-1.25 3.301-6.05 9.102-9.8 11.801-2.95 2.102-5.65 3.051-11.848 4.25-2.102.403-6.454 1.801-9.704 3.102-6.347 2.55-9.5 3.199-10.5 2.148M107.648 224.7c-.847-.45-2.847-2.098-4.398-3.75-2.75-2.9-2.8-3-2.648-5.552l.148-2.648 2.102-.148c1.648-.102 2.347.097 3.75 1.25.898.796 2.847 2.296 4.25 3.347 2.75 1.95 3.949 4.25 3.546 6.801-.148 1.102-.398 1.25-2.648 1.398-1.5.051-3.102-.199-4.102-.699M138.5 179.2c-9.2-2.5-14.398-10.098-18.75-27.65-1.95-7.8-2.398-15.1-1.05-18.198 1.75-4.25 7.85-7.204 21.05-10.102 11.25-2.5 18.852-3.45 28.25-3.5 7.602 0 8.398.102 10.352 1.102 2.398 1.296 4.097 3.347 5.75 6.949 1.046 2.25 1.148 3.097 1.097 11.199-.05 4.8-.347 10.2-.648 12-.852 4.75-3 11.898-4.403 14.648-4.648 9.25-16.75 14.403-33.648 14.301-2.95 0-6.45-.347-8-.75m23.25-4.95c5.05-1.7 7.102-2.898 10.602-6.148 4-3.75 4.75-5 5.847-9.801 1.2-5.102.95-6.653-.398-2.301-.602 2.05-1.7 4.898-2.403 6.25-1.75 3.352-5.949 7.25-9.898 9.102C160.45 173.75 153 175.3 153 174c0-.25 1.05-.5 2.3-.5 5.098 0 10.9-2.602 15.552-6.898 4.597-4.301 5.25-5.653 6.699-13.852.199-1.352.847-4.75 1.398-7.5l1-5-.199 4.3c-.148 2.348-.398 5.052-.55 6-.2.95-.15 1.552.05 1.348.602-.546 1.75-7.148 2.102-12.046.546-8.153-1.352-13.051-5.954-15.403-1.5-.75-2.449-.949-4.199-.648-1.699.25-2.097.449-1.699.949.25.3.398.7.25.852-.148.097-.8 1.648-1.45 3.449-1.1 2.949-6.1 14.597-8.25 19.199-.55 1.102-1.35 3.25-1.85 4.75-.45 1.5-1.7 4.602-2.75 6.852a175 175 0 0 0-3.45 8c-.852 2.148-1.8 4.296-2.05 4.75-.95 1.796-.552 2.347 1.948 2.5 4.153.296 7.301.046 9.852-.852m-24.5-1.102c-.8-.398-2.352-1.597-3.45-2.597-1.6-1.5-1.8-1.602-1.1-.45 1.1 1.7 4.1 3.797 5.55 3.848.3 0-.148-.347-1-.8m10.55-.347c.4-.403.7-1.153.7-1.653 0-.75 1.398-4.296 7.648-19.5.602-1.449 1.403-2.648 1.75-2.648.352 0 .602-.602.602-1.398 0-1.454 1.898-6.352 6.2-16.051 1.25-2.852 2.3-5.25 2.3-5.352 0-.398-5.5-.199-9.3.352-2.15.3-5.098.449-6.45.347-2.398-.148-2.352-.148 1.75-.796 2.352-.403 5.7-.903 7.5-1.153l3.25-.398-3.75.25c-10.25.648-12.3.847-12.7 1.25-.3.25-1.402.449-2.5.449-1.152 0-2.698.352-3.5.75-.75.398-1.85.75-2.35.75-1.4 0-9.052 2-10.45 2.7-.7.35-1.852.8-2.602 1-1.25.3-2.898 2.1-3.25 3.5-.046.3-.347 1.448-.597 2.55-.653 2.5-.7 7.102-.102 7.45.45.3.7 1.3 1.5 7 .5 3.152 2.153 6.8 3.2 6.8.203 0 .351.75.351 1.7 0 1.25.3 1.902 1.3 2.55 1.25.8 1.25.8.7-.25-.3-.602-1.148-2.55-1.8-4.398l-1.25-3.352 1.25 1.352c.8.796 1.3 1.949 1.3 2.796q-.002 1.5 1.2 2.25c1.3.903 1.448 2.403.3 2.954-.602.25-.55.347.148.347.5.051.801.25.602.5-.148.301.2.75.8 1.051.598.352.95.398.75.102-.152-.301-.152-.602.052-.704.25-.046.796-1 1.25-2 .5-1.046 1.097-1.898 1.398-1.898.8 0 .602 3.352-.3 4.25-1.098 1.102-.552 2.95 1.402 4.352C139.449 173 146.25 174.3 147.8 172.8m0 0" style="stroke:none;fill-rule:nonzero;fill:#4a3624;fill-opacity:1"/>
  <path d="M179.3 132.898c-.402-2.5-2.75-5.597-5.25-6.898-1.152-.602-1.448-.95-.902-1 2.801-.05 6 3.75 6.653 7.898.148 1.153.199 2.102.097 2.102-.148 0-.398-.95-.597-2.102M139.3 151.148c.45-1.046 1.052-2.546 1.4-3.398.3-.8.698-1.602.85-1.75.15-.148.802-1.602 1.4-3.25.652-1.648 1.448-3.648 1.8-4.5.602-1.398 1.398-3.7 1.5-4.25 0-.148.3-.7.602-1.25.296-.55.597-1.2.648-1.5.3-1.2.648-1.75 1.102-1.75.648 0 .148 4.95-.602 5.7-.25.25-.5.902-.5 1.402s-.352.898-.75.898c-.5 0-.75.55-.75 1.75 0 .95-.2 1.75-.5 1.75-.25 0-.5.7-.5 1.5 0 .852-.2 1.5-.5 1.5-.25 0-.5.55-.5 1.25s-.2 1.25-.5 1.25c-.25 0-.5.45-.5 1s-.352 1-.75 1c-.5 0-.75.5-.75 1.45 0 2.25-.5 3.05-1.8 3.05-1.2 0-1.2 0-.4-1.852M124.55 149.648c0-.597-.198-1.5-.35-2-.25-.847-.25-.847.3 0 .3.5.45 1.403.352 2-.204 1.102-.204 1.102-.301 0M123.05 138.45c-.05-2.2.348-3.15 2-4.348.7-.5.65-.25-.198 1.398-.551 1.148-1.153 2.8-1.352 3.648-.352 1.5-.398 1.454-.45-.699M127.2 132.75c2-1.5 7.948-3.3 17.902-5.398.296-.051.597.449.699 1.097.148.7.05 1.102-.153.903-.199-.204-.648.148-1 .75l-.597 1.148-.051-1.352c0-1.398-1.102-1.949-1.75-.898-.148.3-.852.5-1.5.5-1.55 0-9.2 1.898-10.45 2.602-.55.296-1.652.699-2.5.949-1.448.398-1.5.347-.6-.301M231.102 164.25C224.05 162.3 220.3 158.602 215.5 149c-6.3-12.602-8.05-23.25-4.898-29.898 1.25-2.653 3.5-4.25 8.398-5.852 6.898-2.25 29.55-5.75 37.5-5.75 10.852 0 13.2 4.7 13.2 26.25 0 10.602-.5 13.95-2.7 18.648-3.05 6.551-5.95 8.704-14.352 10.954-6.199 1.597-17.347 2.097-21.546.898m10.75-4.05c.148-.4-.301-.5-1.454-.25-1.699.35-6.25-.052-8.398-.7-.7-.2-1.102-.2-.898 0 .148.2 1.847.75 3.699 1.2 3.5.85 6.699.75 7.05-.25m3.097-.802c.25-.648.301-1.5.153-1.898-.153-.398-.051-.55.148-.352.25.204.75-.148 1.102-.75l.597-1.148.051 1.148c0 1.25.648 1.352 3.7.551 5.152-1.347 6.152-1.8 7.948-3.648 2-2.102 2.75-3.551 4.5-8.75 1.153-3.602 1.801-3.301.801.347-1.55 5.903-4.75 10.153-8.949 12.051-1.648.75-1.95 1.051-1.102 1.051 3 0 7.352-3.398 8.954-7.102 2.75-6.25 3.347-9.046 3.25-15.398-.153-10.25-.801-17.102-1.653-17.398-.25-.102-.449-.5-.449-.852 0-.398-.2-.8-.45-1-.3-.148-.35.3-.1 1.148.75 2.5 1.152 7.954.6 7.102-.3-.398-.55-1.602-.55-2.648 0-1.852-.898-3.352-1.95-3.352-.55 0-.75-.95-.6-2.8.05-.598-.25-1.348-.7-1.7-.95-.8-.648-1.602-9.102 21.25-1.199 3.3-3 7.852-3.949 10.148-3.949 9.25-5.699 15.301-4.148 14.301.25-.148.449 0 .449.25 0 1 1.05.551 1.45-.55m3.551.153c0-.25.95-.551 2.05-.75 1.15-.2 2-.45 1.848-.551-.097-.148-1.597.05-3.296.352-1.954.347-2.903.75-2.5 1 .847.5 1.898.5 1.898-.051m-9.95-1.051c.552 0 1.098-.398 1.302-.852.449-1.25 3.699-9.699 9.648-24.898 2.8-7.148 5.5-14.148 6-15.602l.95-2.597-1.848-.352c-1.903-.347-9.602.403-11.301 1.051-.801.352-.903.25-.7-.55.25-.9 0-.95-4.05-.802-2.352.102-5.75.5-7.551.903-1.8.398-4.5.75-6.05.847-1.552.102-3.802.653-5.052 1.25-1.199.602-2.597 1.102-3.046 1.102-.903 0-1.704 1.25-2.403 3.648l-.398 1.5 3.5-3.898-.852 1.7c-.5 1.05-.898 3.6-1.05 6.55-.297 5.148.101 7.2 2.75 13 2.5 5.648 3.351 7.148 4.203 7.352.847.25 1.898 2.949 1.898 4.898-.05.852-.148.8-.898-.352-.852-1.398-1.602-1.796-1.602-.949 0 .301.25.653.5.801.3.148.5.8.5 1.398 0 .653.398 1.5.898 1.903 1.102.949 4 1.648 3.153.8-.301-.3-.551-.75-.551-.953 0-.75 1.8-.347 4.75 1.102 1.648.852 3.352 1.5 3.852 1.5s.898.25.898.55c0 .302.352.4.8.25.45-.152 1.2-.3 1.75-.3m-19.1-13.852c-2.848-5.796-4.348-10-4.802-13.546-.148-1.454-.449-2.602-.648-2.602-.25 0-.3-.45-.148-1 .148-.55.046-1-.204-1-.296 0-.449.5-.398 1.148.05.602.148 1.102.2 1.102.05 0 .198 1.25.35 2.75.348 3.95 2.052 8.852 5.348 15.25 1.301 2.55 1.852 3.3 2.352 3 .2-.102-.75-2.398-2.05-5.102M247 113c0-.25-.7-.352-1.602-.148-2.296.398-2.398.648-.25.648 1.051 0 1.852-.2 1.852-.5m7.398-.352c-1.347-.097-3.449-.097-4.75 0-1.347.102-.25.153 2.352.153s3.7-.051 2.398-.153m0 0" style="stroke:none;fill-rule:nonzero;fill:#4a3624;fill-opacity:1"/>
  <path d="M264.45 134c-.2-4-.25-7.352-.15-7.45.598-.652.7 1 .598 7.5l-.148 7.2ZM235.45 133.898c.25-.648 1.152-2.75 1.948-4.699.801-2 1.903-4.898 2.352-6.5.898-3.097 2.2-5.699 2.852-5.699 1.199 0-.903 8.852-2.204 9.398-.199.102-.398.75-.398 1.403 0 .648-.2 1.199-.5 1.199-.25 0-.5.55-.5 1.25 0 .8-.3 1.25-.75 1.25-.5 0-.75.55-.75 1.75 0 1.55-.148 1.75-1.25 1.75-1.05 0-1.148-.148-.8-1.102M218.5 119.05c.398-.25 1.3-.6 2-.8 1.2-.352 1.2-.352.25.45-.55.402-1.45.75-2 .75-.8 0-.852-.052-.25-.4M226.25 117c.898-.398 11.852-2.5 13.25-2.5.3 0 .398.25.25.5-.148.3-1.148.5-2.148.5-1 .05-3.301.398-5.102.8-4.148 1-7.648 1.4-6.25.7M117.102 175.148c-1.051-1.5-4.102-7.398-4.102-7.949 0-.199.352-.05.75.301.398.352.75.8.75 1 0 .25.75 1.7 1.648 3.352 2.5 4.398 3 6.199.954 3.296M82.102 118.398c-.352-.347-.602-1.949-.602-3.699 0-2.597.3-3.648 1.75-6.398 1.352-2.551 1.95-4.602 2.8-9.653 1.302-7.75 2.348-10.699 5.2-14.597 2.852-3.852 6.95-6.7 15.75-10.903 6.2-2.949 7.8-4 11.102-7.046 3.5-3.204 4.097-3.602 5.898-3.602h2v2.148c0 3.301-2.102 7.051-5.45 9.653-1.55 1.199-6.25 4.05-10.5 6.347-12.8 6.801-14.698 9.301-16.85 22.153-1.4 8.05-3.348 13.449-5.598 15.25-1.403 1.05-4.551 1.3-5.5.347M79.148 89.898c-2.546-.546-3.25-1.648-3.046-4.546l.148-2.102h4.25c2.5 0 4.95.3 5.898.7 1.454.6 1.602.85 1.602 2.85 0 1.65-.25 2.302-1.102 2.9-1.25.902-4.449.948-7.75.198M224.55 87.3c-.35-.402-.55-1.8-.448-3.402l.148-2.648 2.102-.148c3-.204 4.25 1.148 4.046 4.296l-.148 2.352-2.55.148c-1.75.102-2.7-.097-3.15-.597M212.55 81.148c-1.698-2.398-2.05-3.296-2.05-5.25V73.5h2.7c4.152 0 6.8 2.7 6.8 6.95 0 3.198-.3 3.55-3 3.55-2.352 0-2.45-.05-4.45-2.852m0 0" style="stroke:none;fill-rule:nonzero;fill:#4a3624;fill-opacity:1"/>
  <path d="M102.2 265.102c-3-1.051-5.65-3.051-9.2-6.954-3-3.25-4.45-5.949-5.95-11.148-.6-2.05-1.85-4.898-2.8-6.3-1.898-2.95-5.852-6.348-7-6.098-.898.148-.45 1.148 2.852 6.5 1 1.597 2.148 4.347 2.597 6.199.95 3.75 3.7 9.55 5.852 12.25 1.8 2.3 1.8 2.648.097 1.75-.796-.352-4-1.7-7.148-2.95-3.2-1.203-8.45-3.601-11.8-5.25-3.7-1.851-9.4-4.101-14.9-5.851-14.1-4.5-17.402-6.3-20.198-10.898-1.704-2.801-4.25-8.903-3.852-9.25.102-.102 1.648.046 3.398.347 4.852.852 7.102.7 9.801-.648 4.75-2.45 6.403-4.45 8.301-10.2.45-1.453 1.398-3.3 2.102-4.101 1.148-1.398 9.046-6.5 10-6.5.296 0 1.296 1.2 2.25 2.648 3 4.403 11.296 12.852 12.699 12.852.949 0 1.199-.25 1.199-1.2 0-1.152-1.75-3.55-7.852-11.05-5.75-6.95-6.148-12.45-1.648-21.648 2.602-5.301 3.602-8.051 4.2-11.704.25-1.296.6-1.898 1.152-1.898.699 0 .75.5.5 3.25-.25 2.8-2.454 9.5-3.301 10.25-.153.148-.95 1.7-1.801 3.45-2 4.25-2.102 9.05-.25 12.8.648 1.398 1.602 2.8 2.102 3.148.5.352.898.852.898 1.153 0 .25.898 1.25 2 2.25s2 2 2 2.25c0 .199.55 1 1.25 1.75s1.25 1.597 1.25 1.898c0 .352.648.95 1.45 1.45C85.2 219.25 92.25 222 93.647 222c2.403 0 4.852 1.45 4.852 2.8 0 .95.25 1.2 1.2 1.2.948 0 1.652.8 3.55 4.148 2.3 3.954 2.55 4.25 5.7 5.75 1.85.903 3.55 1.602 3.85 1.602.302 0 1.25.8 2.098 1.8l1.602 1.802 3.852-.352c2.148-.148 5.949-.352 8.398-.398 4.25-.102 4.7 0 8.25 1.699 2.05 1 4.602 2.097 5.602 2.398 1.046.352 2 .852 2.148 1.102.55.8 7 .5 20.648-1.051 16.403-1.852 28.403-4 35.454-6.3 7-2.25 10.046-2.95 17.648-3.95 5.852-.8 10-2 10-2.852 0-.25.3-.398.7-.398.402 0 .8-.3.948-.7.602-1.5 6.551-3.8 12.352-4.85 5.648-1 11.352-3 12.148-4.302.204-.347.602-.648.801-.648.602 0 5.551-4.95 5.551-5.55 0-.25.55-.45 1.25-.45s1.25.2 1.25.398c0 1-3.148 4.704-5.602 6.602-4.046 3.25-6.796 4.398-13.25 5.55-6.597 1.15-8.75 1.95-13.097 4.9-3.45 2.35-3.852 2.85-3.051 3.8.5.602 1.102.5 4.148-.602 2-.699 4.801-1.796 6.25-2.449 1.454-.648 4.454-1.5 6.653-1.949 6.5-1.2 9.148-2.148 12.148-4.3 6.653-4.75 12.7-14.75 10.153-16.848-.852-.704-1.5-.204-2.551 1.796-1.051 2.102-1.801 2.051-1.801-.148 0-1.45.5-2.2 2.898-4.602 7.403-7.296 9.954-11.699 8.653-14.796-.852-2.051-1.301-5.352-.7-5.352.598 0 2 2.45 2.95 5.102.398 1.199.949 5.199 1.199 8.898.3 3.7.852 8.5 1.25 10.648 1.102 5.852 1 10.102-.45 13.102-1.3 2.8-5.198 6.7-9.3 9.352-11.852 7.597-20.55 12.296-25.75 13.898-2.3.7-6.05 1.2-10.75 1.55-7.95.552-10.55.848-23.25 2.65-4.648.652-10.5 1.35-13 1.55-4.648.3-18.7 2.602-26.5 4.3-8.852 1.9-19.5 3.5-26.95 3.95-8.152.55-15 1.45-23.3 3.05-7.8 1.5-15.102 1.7-18.3.552m40.75-16.801c.5-.551.35-.852-.552-1.5-.597-.45-1.5-.801-1.949-.801s-2.148-.7-3.75-1.55c-5.398-2.802-11.5-3.7-11.097-1.598.148.75 3.5 2.296 11.148 5.148 3.05 1.148 5.45 1.25 6.2.3m-29.9-5.801c.75 0 .5-1.3-.402-2.148-.5-.403-1.898-1.153-3.148-1.653-3.95-1.55-5.75-3.199-8.602-7.949-2.648-4.5-5.148-6.7-7.546-6.75-1.051 0-.801.602 2.398 5.5 1.148 1.8 2.75 4.3 3.45 5.602.75 1.347 2.5 3.25 3.948 4.398 2.551 1.898 7.352 3.648 8.75 3.2.403-.098.903-.2 1.153-.2m0 0" style="stroke:none;fill-rule:nonzero;fill:#83694e;fill-opacity:1"/>
  <path d="M140.75 235.602c-2.25-1.102-4.45-2.352-4.898-2.801-1-1-1.153-4.301-.25-5.2 1.449-1.453 7.546.149 15.046 4 1.852.899 1.903 1 1.75 3.297l-.148 2.352-3.75.148c-3.5.102-4.05 0-7.75-1.796M108.148 225.25c-.898-.398-1.648-.95-1.648-1.25 0-.25-.3-.5-.7-.5-.35 0-1.698-1.102-3-2.5-2.198-2.352-2.3-2.55-2.3-5.5v-3h2.5c1.898 0 2.5.2 2.5.75 0 .398.45.75 1 .75s1.25.45 1.602 1c.347.55.898 1 1.25 1 .347 0 .648.2.648.45s.45.55 1 .698c.602.153 1 .704 1 1.301 0 .7.3 1.051 1 1.051 1.148 0 1.648 1.45 1.398 4.3-.148 1.95-.148 1.95-2.398 2.052-1.25.097-3-.204-3.852-.602m4.5-1.55c.153-.15.051-.95-.25-1.75-.449-1.302-1.648-2.302-8.449-7.348-1.097-.852-1.949-.403-1.949.949 0 1.25 5 6.55 7.148 7.648 1.653.801 3 1 3.5.5m0 0" style="stroke:none;fill-rule:nonzero;fill:#83694e;fill-opacity:1"/>
  <path d="m31.55 223.3-4.198-.55-2.954-5.75c-4.597-8.898-4.5-11.7 1.102-25.8 3.102-7.75 4.75-14 5.75-21.45.8-6.5 2.7-14.102 3.95-16 1.75-2.7 9.698-2.352 17 .7 7.198 3.05 8.1 3.05 28.152.1 16.847-2.448 17.097-2.5 19.648-1.652 2.95.954 3.95 2.102 5.25 6.102 1.5 4.55 5.05 13.648 6.5 16.5 1.648 3.25 8.148 9.75 11.648 11.648 4.153 2.25 9.903 3.352 17.704 3.352 17.597 0 32.699-4.2 40.347-11.3 6.653-6.15 9.653-13.75 12.102-30.45 1.097-7.45 1.898-9.852 3.75-11.102 2.847-1.847 4.847.301 8.398 9.25 3.301 8.204 6.45 14.051 9.7 17.903 5.601 6.648 10 8.597 20.351 9.05 9.55.45 19.148-1.453 27.45-5.351 2.8-1.352 2.948-1.352 3.152-.45.148.552 1.75 4.098 3.5 7.848 4.5 9.551 4.347 9.102 3 9.102-.903 0-1.454-.7-2.75-3.25-.903-1.8-1.602-3.602-1.602-4.05 0-.4-.3-1.098-.7-1.5-.402-.348-.8-.95-.902-1.302-.148-.449-1.148-.097-3.199 1.153-7.8 4.8-14.449 7.449-20.199 8-5.398.5-15.7-.25-20.148-1.5-7.102-1.95-13.5-7.801-18.653-17-6.75-12.051-9.55-13.051-11.449-4.051-1.2 5.8-3.55 11.102-7.8 17.5-6.25 9.45-10.2 12.8-20.2 17.2-13.25 5.8-25.102 6.698-39.8 3-7.45-1.848-10.052-3.25-14.802-8-4.5-4.45-6-7.052-11.148-19.802l-2.602-6.347-2.046-.25c-12.204-1.551-15.051-1.5-17.551.347-.801.551-.852.903-.352 2.653.301 1.05.551 2.699.551 3.597 0 1.25-.2 1.602-1 1.602-.852 0-1-.352-1-1.95 0-1.1-.398-2.402-.898-3.05-.75-.95-.954-1-1.5-.352-.352.403-1.153 3.352-1.852 6.551-.898 4.551-1.7 6.75-3.398 9.95-3 5.5-3.852 8.601-3.852 14.101v4.55l-2.852.848c-4.398 1.403-7.148 3.653-10.847 9.051-.602.903-.75.801-2.102-1.449-1.597-2.75-2.199-7.602-1.3-10.25.5-1.398.453-1.5-.649-1.5-1.7 0-2.25 1.352-2.25 5.398 0 4.75.8 8.551 2.05 9.954.848.847 1 1.5.802 2.898-.352 2.148-.903 2.898-3.551 4.852-2.2 1.597-4.102 1.699-11.75.699m0 0" style="stroke:none;fill-rule:nonzero;fill:#83694e;fill-opacity:1"/>
  <path d="M142.898 185.648c-.5-.097-.898-.546-.898-.949 0-.55.8-.699 3.5-.699 2.648 0 3.5.148 3.5.7 0 1.1-3.5 1.652-6.102.948M138.398 185.148c-1.648-.398-1-1.648.852-1.648 1.398 0 1.75.2 1.75 1 0 1-.7 1.148-2.602.648M149.5 184.602c0-.704.898-1 5.398-1.75 6.403-1.051 10.75-1.954 11.102-2.352.7-.7 4.2-2 5.5-2 1.148 0 1.5-.2 1.5-1s.352-1 1.8-1c1.552 0 1.75.102 1.2.75-1.05 1.25-6.602 4.102-10.148 5.2-2.954.902-14.102 3.05-15.801 3.05-.301 0-.551-.398-.551-.898M132.25 183c-5.2-2.602-9-7.55-12.2-15.852L119 164.5h1.25c1 0 1.25.25 1.25 1.25 0 .7.25 1.25.5 1.25.3 0 .5.55.5 1.25s.2 1.25.398 1.25c.653 0 2.102 3.398 2.102 5 0 1.25.2 1.5 1.25 1.5 1.102 0 1.25.2 1.25 1.75 0 1.648.102 1.75 1.75 1.75 1.2 0 1.75.25 1.75.75 0 .45.45.75 1.2.75.698 0 1.55.352 2 .75.402.398 1.198.75 1.75.75.698 0 1.05.3 1.05 1 0 1.398-1.2 1.25-4.75-.5M123.2 181.25c-5.098-3.648-8.2-8.55-12.348-19.648-2.75-7.25-3.954-9.204-7.454-11.852-2.296-1.75-2.796-2.5-3.75-5.25-.597-1.8-1.199-4.3-1.398-5.602-.352-2.148-.25-2.398.602-2.398.796 0 1.046.648 1.648 3.852.352 2.148 1 4.199 1.352 4.546.347.352.648 1.102.648 1.653 0 .5.3.949.7.949.6 0 .6-.352 0-2.3-.348-1.25-.848-3.75-1-5.5-.302-2.75-.2-3.2.448-3.2.551 0 .903.602 1.102 1.898 1.102 6.704 1.898 8.25 5.45 10.25 1.902 1.102 1.948 1.204 5.5 11.852 3.85 11.55 6.198 16.5 9.448 19.852 1.102 1.199 1.903 2.25 1.801 2.398-.148.148-1.398-.55-2.75-1.5m-12.598-27.5c-.102-.95-.403-1.75-.653-1.75s-.449-.3-.449-.648c0-.301-.8-.852-1.75-1.153-1.398-.449-1.75-.398-1.75.102 0 .398.55.699 1.25.699.8 0 1.25.3 1.25.75 0 .398.25.75.5.75.3 0 .5.7.5 1.5 0 .898.25 1.5.648 1.5.454 0 .602-.55.454-1.75M140.5 179c0-1.05.5-1.2 2.398-.7 1.801.5 1.352 1.7-.648 1.7-1.398 0-1.75-.2-1.75-1M150.5 179.25c0-.7.648-.852 5.648-1.5 2.102-.3 2.352-.2 2.352.648 0 .801-.5 1-2.602 1.301-4.148.45-5.398.403-5.398-.449M161 177.352c0-.352 1.45-1.102 3.25-1.704l3.25-1.046v1.097c0 .903-.45 1.25-1.95 1.7-2.55.8-4.55.75-4.55-.047m0 0" style="stroke:none;fill-rule:nonzero;fill:#83694e;fill-opacity:1"/>
  <path d="M132.5 176.25c0-.398-.398-.75-.898-.75-1.454 0-3.102-2.102-3.102-3.898 0-1.352-.2-1.602-1.25-1.602-.8 0-1.25-.3-1.25-.8 0-.4-.352-1.098-.75-1.5-.398-.45-.75-1.2-.75-1.75 0-.552-.352-1.348-.75-1.75-.852-.848-1.05-4.2-.2-4.2.25 0 1.052 1.3 1.75 2.898 2.598 5.903 3.5 7.25 6.598 10.153 1.704 1.597 3.352 2.949 3.602 2.949.3 0 .5.25.5.5 0 .3-.8.5-1.75.5-1.2 0-1.75-.25-1.75-.75M177.602 174.45c.097-1.45.347-1.75 1.546-1.848 1.153-.153 1.352-.403 1.352-1.653 0-1.199.2-1.449 1.25-1.449.7 0 1.25.2 1.25.45 0 .6-3.352 4.6-4.602 5.448-.898.653-.949.602-.796-.949M143.2 175c-1.348-.2-3.598-.852-5-1.45-2.45-1.1-6.2-4.3-6.2-5.3 0-.3 2.25-5.602 5.05-11.8 4.552-10.098 9.9-23.25 11.4-28 .6-1.848.6-1.848 4.448-2.4 8.954-1.3 8.602-1.3 8.602-.25 0 .848-.648 1.052-5.352 1.7l-5.398.75-.95 2.75c-.55 1.5-1.152 2.852-1.402 2.898C148.2 134 148 134.5 148 135c0 1.852-5.8 16-6.55 16-.25 0-.45.45-.45 1 0 1.2-1.05 3.5-1.602 3.5-.199 0-.398.398-.398.95 0 1.5-3.102 8.05-3.8 8.05-.4 0-.7.5-.7 1.148 0 .602-.148 1.954-.3 3-.348 1.852-.348 1.852 1.448 1.852 1 0 2.102.3 2.454.648.75.75 6.148 2.352 8 2.352 1.046 0 1.347-.398 2.148-2.75.55-1.5 1.148-2.75 1.352-2.75.199 0 .398-.45.398-.95 0-1.35 2.05-6.55 2.55-6.55.25 0 .45-.45.45-.95 0-1.5.55-2.55 1.3-2.55.45 0 .7-.602.7-1.7 0-.948.352-2.05.75-2.5.398-.402.75-1.198.75-1.75 0-.6.25-1.05.5-1.05.3 0 .5-.398.5-.852 0-1.25 2.602-7.648 3.102-7.648.199 0 .398-.55.398-1.25 0-.8.3-1.25.75-1.25q.75 0 .75-1.5c0-1.602.95-4 1.602-4 .199 0 .398-.55.398-1.2 0-.698.3-1.55.648-1.902.403-.347.801-1.398 1-2.296l.352-1.602h-2.25c-2.45 0-3.2-1.148-1.102-1.7 2.102-.55 6.352-.35 6.352.348 0 .352-1.352 3.653-3.05 7.352-1.65 3.7-3.9 8.898-4.95 11.5s-3.3 8-5 12c-1.75 4-4.102 9.8-5.3 12.95-1.2 3.152-2.25 5.75-2.348 5.85-.454.45-3.352.552-5.653.2M153 174.102c0-.704 3.75-10 7.75-19.352 2.148-4.95 5.648-13.602 7.8-19.25 2.45-6.55 4.15-10.3 4.598-10.398 2.551-.5 6.102 3.796 6.653 8.046.3 2.153.25 2.352-.75 2.352-.7 0-1.051-.3-1.051-1 0-.55-.398-1.95-.852-3.102-1.148-2.847-3.648-5-3.648-3.148 0 .398-.2.75-.5.75-.25 0-.5.45-.5 1 0 1.25-3.55 10.7-4.102 10.898-.199.102-.398.75-.398 1.403 0 .648-.2 1.199-.5 1.199-.25 0-.5.55-.5 1.25s-.2 1.25-.5 1.25c-.25 0-.5.55-.5 1.25s-.2 1.25-.5 1.25c-.25 0-.5.55-.5 1.2 0 .698-.352 1.55-.75 2-.398.402-.75 1.05-.75 1.5 0 1.05-1.05 3.3-1.602 3.3-.199 0-.398.398-.398.95 0 1-2.8 8.1-3.398 8.55-.204.148-.653 1.25-1 2.5-.352 1.25-.75 2.648-.903 3.102-.3.75-.097.796 2.153.199 1.296-.352 3.5-1.153 4.847-1.7C164.551 169.5 166 169 166.5 169s1-.45 1.148-1c.204-.8.704-1 2.153-1h1.847l-1.097 1.2c-1.602 1.698-7.602 4.55-11.602 5.5-3.55.85-5.949 1.05-5.949.402M169 174.148c0-.25 1.148-1.148 2.5-2.046l2.5-1.602v1.5q0 1.5-.75 1.5c-.398 0-.75.25-.75.5 0 .3-.8.5-1.75.5s-1.75-.148-1.75-.352M230.148 168.898c-2.296-.5-3.046-1.898-1-1.898 2.903 0 4.852.648 4.852 1.55 0 1.052-.602 1.098-3.852.348M240.5 168.5c0-.8.352-1 1.75-1 2 0 2.45 1.2.648 1.7-1.898.5-2.398.35-2.398-.7M244.5 168.148c0-.796.602-1.046 3.5-1.546 4.55-.801 5.5-.75 5.5.097 0 .7-1.398 1.102-7.102 2.102-1.648.25-1.898.199-1.898-.653M19 167c0-.8.352-1 1.5-1s1.5-.25 1.5-.95c0-.55.3-1.3.648-1.652.403-.347.852-1.296 1.051-2.046.153-.75.653-1.352 1.051-1.352.5 0 .75-.55.75-1.75 0-.95.25-1.75.5-1.75.3 0 .5-.45.5-1 0-1.2 1.05-3.5 1.602-3.5.199 0 .398-.352.398-.75 0-.45.45-.75 1.25-.75.7 0 1.25.102 1.25.25s-.648 1.45-1.45 2.898c-.8 1.403-2.402 4.801-3.55 7.5C23.8 166.2 22.25 168 20.2 168c-.848 0-1.2-.3-1.2-1M183 166.25c0-.95.25-1.75.5-1.75.3 0 .5-.55.5-1.25 0-.898.25-1.25 1-1.25 1.25 0 1.25.8 0 3.7-1.148 2.75-2 2.948-2 .55M16.95 165.95c-1.052-2-.598-5.9 1-9.2.85-1.7 2-3.5 2.55-4 1-.898 1-.898 1 .898 0 .954-.2 1.852-.398 1.954-.204.097-1 1.5-1.75 3.199-1.102 2.5-1.25 3.449-1 5.597.296 2.75-.352 3.5-1.403 1.551M222.148 165c-1.398-1.102-2.898-2.55-3.347-3.25-.801-1.25-.801-1.25.597-1.25 1.551 0 3.602 1.8 3.602 3.148 0 .551.398.852 1.25.852 1 0 1.25.25 1.25 1.25 0 1.7-.45 1.602-3.352-.75M254.5 165.75c0-1.102.2-1.25 1.8-1.25 2.2 0 2.098.898-.198 1.852-1.551.648-1.602.597-1.602-.602m0 0" style="stroke:none;fill-rule:nonzero;fill:#83694e;fill-opacity:1"/>
  <path d="M172.5 164.398c0-1.699.148-1.898 1.25-1.898 1.55 0 1.602.55 0 2.352l-1.2 1.398ZM233 164c0-1.05.5-1.2 2.398-.7 1.801.5 1.352 1.7-.648 1.7-1.398 0-1.75-.2-1.75-1M242.5 164.25c0-.45.7-.852 1.898-1 9.454-1.648 15.551-4.05 18.051-7.2 1.602-2 4.551-7.8 4.551-8.902 0-.347.352-.648.75-.648.5 0 .75.55.75 1.75 0 .95-.2 1.75-.5 1.75-.25 0-.5.45-.5 1 0 1.602-1.102 3.5-2.102 3.5-.648 0-.898.398-.898 1.5 0 1.25-.2 1.5-1.25 1.5-1 0-1.25.25-1.25 1.25 0 .7-.25 1.25-.55 1.25-.302 0-.848.352-1.25.75-.45.398-1.302.75-2 .75-.65 0-1.2.25-1.2.5 0 .3-.8.5-1.75.5s-1.75.2-1.75.45c0 .448-7.75 2.05-9.852 2.05-.699 0-1.148-.3-1.148-.75M128.102 160.898c-1.75-4.25-2.653-7.398-4.051-13.898-1.301-5.75-1.301-6-.102-6 .7 0 1 .5 1.25 2.148.551 3.352 2.653 11.454 3.7 14.153l1 2.449.851-2.102c.45-1.199 1.05-2.148 1.3-2.148s.45-.398.45-.95c0-.5 2.25-6.152 4.95-12.6 2.75-6.4 4.948-11.75 4.85-11.802-.05-.046-2 .352-4.3.903-4.148.949-10.102 3.3-10.398 4.05-.102.2-.454.399-.801.399-.352 0-.95.55-1.301 1.25-.8 1.55-2.5 1.7-2.5.25 0-2.55 6.05-5.852 14-7.75 2.898-.7 5.95-1.45 6.852-1.7.898-.25 1.699-.35 1.796-.198.204.199-2.546 6.949-11.949 29-1.898 4.5-3.597 8.148-3.8 8.148-.149 0-1-1.648-1.797-3.602M118.75 163.55c-.148-.25-1.05-3.152-2.05-6.402s-2.302-6.847-2.95-8l-1.2-2.148H114c1.398 0 2 .75 2 2.55 0 .5.2.95.398.95.551 0 2.602 6.95 2.602 8.7 0 .698.25 1.3.5 1.3.3 0 .5.8.5 1.75 0 1.648-.602 2.3-1.25 1.3m0 0" style="stroke:none;fill-rule:nonzero;fill:#83694e;fill-opacity:1"/>
  <path d="M229 163.5c0-.25-.55-.5-1.25-.5-.898 0-1.25-.25-1.25-1 0-.8-.352-1-1.5-1-1.352 0-1.5-.148-1.5-1.5V158l2.55 1.75c1.4.95 3.4 2 4.5 2.3 2.5.75 2.598 1.95.2 1.95-.95 0-1.75-.2-1.75-.5M263 161.25c0-1.102.2-1.25 1.75-1.25 1.648 0 1.75-.102 1.75-1.75 0-.95.2-1.75.45-1.75s.6-.55.75-1.25c.198-.7.652-1.25 1.05-1.25s.75-.45.75-1 .25-2 .602-3.25c.449-1.648.847-2.25 1.546-2.25.852 0 .903.25.653 1.898-.551 3.204-3.602 8.801-6.051 11.051-2.602 2.352-3.25 2.551-3.25.801M174.648 160.148c.153-1.046.852-3.898 1.551-6.398.75-2.45 1.45-6.25 1.653-8.352.25-3.449.398-3.898 1.296-3.898.903 0 .954.25.602 4.102-.398 4.597-2.25 12.449-3.45 14.847-1.152 2.153-1.948 2-1.652-.3M180.648 159.398c.153-.648.704-2.949 1.25-5.148.551-2.2 1.153-4.852 1.352-5.852.3-2 1.75-2.699 1.75-.847 0 2.05-1.148 7.949-1.55 7.949-.25 0-.45.602-.45 1.398 0 2.403-.55 3.602-1.602 3.602-.796 0-.949-.25-.75-1.102M232.25 159.102c-2.648-.903-5.75-2.852-5.75-3.602 0-.898 5.5-14.55 7.398-18.3 2.454-4.9 7.403-17.25 8.301-20.802.5-2.046.903-2.699 1.75-2.796.653-.102 1.051.097 1.051.5 0 .949-2.102 7.097-2.5 7.398-.2.148-.5 1.102-.7 2.148-.198 1-.55 1.852-.75 1.852-.25 0-.55.898-.75 1.95-.152 1.1-.652 2.3-1.05 2.75-.398.402-.75 1.05-.75 1.448 0 1.301-.602 2.352-1.3 2.352-.45 0-.7.55-.7 1.5 0 .852-.75 3.05-1.648 4.898-.954 1.852-2.204 4.704-2.852 6.352s-1.3 3.102-1.5 3.25c-.5.45-1.398 4.648-1.148 5.352.148.347.546.648.949.648.398 0 .699.2.699.45s1.352.698 3 1.1c2.3.5 3 .848 3 1.552 0 1.148-1.45 1.148-4.75 0M239.648 158.148c.204-1.046.551-1.949.852-2.046.25-.102.5-.551.5-1 0-1.25 1.648-5.602 2.102-5.602.199 0 .398-.45.398-1 0-1 1-3.55 1.55-4 .15-.148.45-1.102.65-2.102.198-1.046.55-1.898.75-1.898.25 0 .55-.898.75-1.95.152-1.1.652-2.3 1.05-2.75.398-.402.75-1.198.75-1.75 0-.6.25-1.05.5-1.05.3 0 .5-.398.5-.852 0-1.296 1.602-5.648 2.102-5.648.199 0 .398-.45.398-.95 0-1.1 3-9.152 3.55-9.55.2-.148.45-.8.5-1.5.15-.852.552-1.3 1.348-1.398.602-.102 1.102-.051 1.102.046 0 .352-3.75 10.301-8 21.102-4.5 11.55-9.148 23.5-9.648 24.898-.204.454-.704.852-1.153.852-.699 0-.8-.352-.55-1.852M185.5 158.648c0-.5.398-3.449.852-6.5.75-4.75 1.046-5.648 1.75-5.648.5 0 .898.148.898.398 0 .5-1.45 9.551-1.8 11.25-.302 1.5-1.7 1.903-1.7.5M245 159.3c0-.152.352-1 .75-1.902.398-.898 2.852-7.398 5.45-14.398 5.198-13.8 10.5-27.398 10.948-27.8.602-.65 1.454 2.152 2.102 7.198.95 7.102.95 7.602-.2 7.602-.8 0-.948-.55-1.3-4.75-.3-4.05-.45-4.648-1.05-4.05-.4.402-.7 1.198-.7 1.75 0 .6-.2 1.05-.5 1.05-.25 0-.5.55-.5 1.25s-.2 1.25-.5 1.25c-.25 0-.5.55-.5 1.25s-.2 1.25-.5 1.25c-.25 0-.5.45-.5 1 0 1.05-1.5 5.102-2 5.5-.2.148-.5 1.102-.7 2.148-.198 1-.55 1.852-.8 1.852-.3 0-.5.45-.5.95 0 1-2.95 9.1-3.45 9.55-.198.148-.6 1.398-1 2.75-.35 1.398-.75 2.898-.902 3.352-.25.75-.046.796 1.653.296 1.097-.25 2.8-.949 3.8-1.449 1.047-.55 2.547-.949 3.399-.949 1.398 0 1.5-.148 1.5-1.75 0-1.55.148-1.75 1.25-1.75 1.7 0 1.55.648-.602 3.05-2.25 2.5-4.597 3.75-9 4.7-1.898.45-3.898.898-4.5 1-.648.148-1.148.148-1.148.05M214.05 153.898c-1.1-2.296-2.902-6.398-4-9.148-1.902-4.8-1.948-5-1-5.148 1.4-.25 1.5-.051 1.802 2.648.199 1.45.5 2.25.949 2.25.398 0 .699.5.699 1.25 0 .7.25 1.25.5 1.25.3 0 .5.8.5 1.75 0 1.102.25 1.75.648 1.75.903 0 2.852 4.148 2.852 6 0 2.5-.852 1.7-2.95-2.602M120.5 154.25c0-2 1.2-2.45 1.7-.602.5 1.852.35 2.352-.7 2.352-.8 0-1-.352-1-1.75M219 155.25c0-.398-.2-.75-.5-.75-.25 0-.5-.55-.5-1.25s-.3-1.25-.648-1.25c-.903 0-3.352-5.148-3.352-7q0-1.5-.75-1.5c-.45 0-.75-.45-.75-1.25 0-.7-.2-1.25-.5-1.25-.25 0-.5-.55-.5-1.25s-.2-1.25-.5-1.25c-.25 0-.5-.8-.5-1.75 0-2.8 1.148-2.102 2.45 1.55 1.5 4.25 5.652 12.7 7.6 15.5l1.5 2.2h-1.55q-1.5 0-1.5-.75M221.898 149.352c-1.296-2.25-3.097-5.903-4.097-8.102-1.7-3.852-1.7-4-.7-4.148 1.297-.25 1.899.648 1.899 2.796 0 .954.25 1.602.648 1.602.75 0 2.852 4.05 2.852 5.45 0 .5.398 1.05.898 1.152.75.199 1.25-.602 2.852-4.653 1.05-2.75 2.102-4.949 2.3-4.949.25 0 .45-.398.45-.852 0-1.25 2.602-7.648 3.102-7.648.199 0 .398-.398.398-.852 0-1.199 2.102-6.148 2.602-6.148.199 0 .398-.55.398-1.2 0-.6.25-1.85.55-2.75.302-.902.45-1.75.25-1.902-.402-.398-15 2.454-15.198 2.954-.102.199-.602.398-1.153.398-.5 0-.949.25-.949.5 0 .3-.398.5-.898.5-.602 0-1.102.7-1.551 2.3-.653 2.2-.653 3.098.25 9.848.25 1.954.199 2.352-.45 2.352-.75 0-1.152-1.25-2.101-7.148-.45-2.852.2-6.25 1.602-7.852.648-.8 2.449-1.898 3.949-2.45 2.3-.902 17.597-4.05 19.5-4.05.648 0-2.153 8.5-4.7 14.3-2.5 5.65-8.902 21.802-9.3 23.348-.153.75-.5 1.352-.7 1.352-.25 0-1.453-1.852-2.703-4.148M54.3 150.05C49.353 148 48.353 147 51.2 147c1 0 1.8.25 1.8.5 0 .3.55.5 1.25.5.8 0 1.25.3 1.25.75 0 .5.55.75 1.75.75 1.55 0 1.75.148 1.75 1.25 0 .7-.05 1.25-.102 1.25-.097-.05-2.148-.898-4.597-1.95M62.5 151c0-.75.352-1 1.398-1 1.204 0 22.903-3 27.704-3.8 1.597-.302 1.847-.5 1.648-1.4-.5-2.3-1.25-7.652-1.25-9.152q0-1.647.75-1.648c.398 0 .8.648.95 1.648.152.852.448 3.204.75 5.102.3 1.95.652 4.2.85 5.05l.302 1.552-5.204.847C84.7 149.15 64.102 152 63.148 152c-.347 0-.648-.45-.648-1M119.5 150.25c0-2 1.2-2.45 1.7-.602.5 1.852.35 2.352-.7 2.352-.8 0-1-.352-1-1.75M23 149c1.55-2.2 2-2.25 2-.3 0 1.652-.102 1.8-1.55 1.8h-1.5ZM31.5 148.55c0-1.198.2-1.55 1-1.55.55 0 1-.2 1-.45 0-1.152 7.7-1.902 12.7-1.25 1.85.25 2.3.552 2.3 1.302 0 .847-.25.898-2.352.597-5.5-.898-10.296-.199-13.25 1.903l-1.398.949Zm0 0" style="stroke:none;fill-rule:nonzero;fill:#83694e;fill-opacity:1"/>
  <path d="M261.5 147.3c0-1 .2-1.8.45-1.8s.6-1.8.8-4c.3-3.55.45-4 1.352-4 .949 0 1 .2.699 2.95-.653 5.902-3.301 11.35-3.301 6.85M108.898 145.898c-.5-.449-1-2.25-1.347-5.148-.301-2.45-.7-5.25-.852-6.102-.25-1.398-.148-1.648.653-1.648.847 0 1.046.602 1.597 4.898.75 5.954.95 6.602 1.852 6.602.398 0 .699.45.699 1 0 1.148-1.398 1.352-2.602.398M187.5 144.25c0-1.398.2-1.75 1-1.75 1.05 0 1.2.5.7 2.398-.5 1.801-1.7 1.352-1.7-.648M267.5 144.898c0-1.5.648-2.898 1.3-2.898.45 0 .7.602.7 1.75 0 1.398-.2 1.75-1 1.75-.55 0-1-.3-1-.602M271.5 143.25c0-1.898.148-2.25 1-2.25 1.05 0 1.3 1.148.7 3.398-.552 2.051-1.7 1.301-1.7-1.148M27 144.8c0-.5 3.398-2.8 5.148-3.55 1.852-.75 1.852-.75 1.852.5 0 1.102-.2 1.25-1.75 1.25-1.398 0-1.75.2-1.75 1s-.352 1-1.75 1c-.95 0-1.75-.102-1.75-.2M183.5 143.398c0-1.949.602-3.398 1.3-3.398.5 0 .7.648.7 2.25 0 1.898-.148 2.25-1 2.25-.7 0-1-.352-1-1.102M36.5 140.3c0-.448 1.25-1 3.648-1.5 4.852-1.1 28.301-4.948 40.102-6.55 5.25-.7 10.25-1.398 11.148-1.55 1.352-.25 1.602-.15 1.602.652 0 .847-.852 1.046-8.352 2.097C72.852 135.051 49.7 138.75 43.801 140c-5.801 1.2-7.301 1.25-7.301.3M268 139.648c0-1.699.602-3.148 1.3-3.148.5 0 .7.648.7 2 0 1.648-.148 2-1 2-.602 0-1-.352-1-.852M189 138.25c0-1.2.25-1.75.75-1.75.45 0 .75-.45.75-1.25s.3-1.25.75-1.25c.398 0 .75-.352.75-.75s.3-.75.7-.75c.402 0 .8-.25.902-.55.097-.302 1.25-.65 2.546-.802 3.051-.347 3.301.903.403 1.801-2.352.7-4.801 2.95-5.801 5.352-.898 2.199-1.75 2.148-1.75-.051M272 135c0-3.5.148-4.5.7-4.5.85 0 1.3 1.55 1.3 4.5s-.45 4.5-1.3 4.5c-.552 0-.7-1-.7-4.5M118 135.75c0-1.398.2-1.75.95-1.75.8 0 1-.398 1.152-1.852.097-1.546.347-1.949 1.296-2.046.602-.102 1.102-.5 1.102-.903 0-.449.55-.699 1.5-.699q1.5 0 1.5-.75c0-.5.55-.75 1.75-.75 2.398 0 2.2.852-.45 2-3.152 1.352-6.198 4.25-6.902 6.55-.699 2.5-1.898 2.598-1.898.2M183.75 134.148c-1.148-7.398-4.852-11.949-10.3-12.847-2.75-.45-2.7-1.801.05-1.801 1.102 0 2 .25 2 .5 0 .3.55.5 1.2.5 2.1 0 2.8.55 2.8 2.05 0 1.302.2 1.45 1.5 1.45q1.5 0 1.5.75c0 .398.2.75.45.75.75 0 2 3.8 2.35 7.2.302 2.85.2 3.3-.448 3.3-.551 0-.903-.602-1.102-1.852m0 0" style="stroke:none;fill-rule:nonzero;fill:#83694e;fill-opacity:1"/>
  <path d="M202.148 133.55C199.25 132.103 198.75 131 201 131c2.5 0 4 1 4 2.602 0 .75-.05 1.347-.102 1.347-.097-.05-1.296-.699-2.75-1.398M209.3 131.898c-.152-1.449-.3-4.046-.3-5.75 0-2.75.102-3.148.95-3.148.8 0 .902.398.902 3.398 0 1.852.148 4.403.347 5.75.301 2.102.25 2.352-.597 2.352-.801 0-1-.5-1.301-2.602M42.602 133.148C48.852 120.852 56 104.301 56 102.051c0-.95 3.7-10 5.648-13.801C65.602 80.648 71.148 76.5 85 71c12.352-4.898 16.352-7.102 33.2-18.2 9.152-6 19.902-12.3 21.05-12.3.2 0-.5.95-1.55 2.148-4.552 4.903-6.4 8.051-5.65 9.454.4.75.65.847 1.25.347.552-.449.7-.347.7.602 0 1.55-2.05 5.5-4.75 9.199-1.2 1.648-2.898 4.398-3.7 6.148-1.35 2.801-1.652 3.102-3 3.102-1.402 0-1.55.148-1.55 1.55 0 1.098-.25 1.598-1 1.802-.55.148-1 .449-1 .699s-.352.449-.75.449-.75.25-.75.5c0 .3-.352.5-.75.5s-.75.2-.75.398c0 .25-1.2.954-2.602 1.653-1.449.648-2.898 1.398-3.199 1.699-.3.25-2 1.2-3.75 2-1.75.852-3.25 1.648-3.347 1.898-.102.204-.5.352-.852.352s-.75.352-.95.75c-.152.398-.85.75-1.55.75-1 0-1.25.25-1.25 1.25 0 .648-.3 1.398-.648 1.602-1.403.898-3.301 6.597-4.551 14C91.699 112.602 89 119 86.648 119c-.347 0-.648.3-.699.648 0 .301-.199 1.653-.398 3-.2 1.301-.352 2.352-.301 2.352 1.2 0 11.05-2.148 12.352-2.7 12.796-5.402 41.75-12.698 56.648-14.3 3.05-.3 7.95-.898 10.898-1.3 6.903-.9 8.352-.9 8.352.05 0 .45-.7.8-1.852 1-1.046.2-2.449.398-3.148.55-.7.098-4.5.552-8.5.95-18.352 2-38.148 6.602-56.148 13.05-7.903 2.848-11.704 3.7-22.102 4.95-7.398.898-9.3 1.148-22.75 3.25-5.3.852-11.05 1.898-12.75 2.25-3.45.852-3.898.898-3.648.398m43.5-16.597c2.25-1.801 4.199-7.2 5.597-15.25 2.153-12.75 4.153-15.403 16.45-21.95 11.25-6 14.953-9.203 16.101-13.953.55-2.199-.398-1.75-4.648 2.204-3.301 3.046-4.903 4.097-11.102 7.046-8.8 4.204-12.898 7.051-15.75 10.903-2.852 3.898-3.898 6.847-5.2 14.597-.85 5.051-1.448 7.102-2.8 9.653-1.8 3.347-2.2 6.05-1.148 7.097.796.801 1.046.75 2.5-.347m-.704-28.352c2.352-1.648.5-3.097-4.5-3.55-2.296-.25-2.949-.149-3.199.5-.5 1.402.7 2.75 2.95 3.25 3.05.703 3.5.703 4.75-.2M106.2 130.648c-.5-2.597.55-4.199 3.448-5.25L112 124.5v1.25c0 1.05-.3 1.3-2 1.55l-2 .348v2.403c0 3.05-1.25 3.449-1.8.597M98 130.5c0-.55.05-1 .148-1 .051 0 1.301-.45 2.75-1l2.602-1v1.25c0 1-.3 1.25-1.75 1.55-.95.15-1.75.5-1.75.75s-.45.45-1 .45c-.648 0-1-.352-1-1M268.3 129.898c-.55-2.097-.35-2.898.7-2.898.852 0 1 .352 1 2 0 2.25-1.148 2.852-1.7.898M129.5 126.8c0-1.25 1.05-1.8 3.648-1.8.75 0 1.352-.2 1.352-.398 0-.801 19.7-4.551 24.148-4.602.852 0 1.352.25 1.352.7 0 .8-.852 1.05-7 1.8-5.352.7-17.148 3.25-20.75 4.5l-2.75.95ZM272 125.75c0-2.398 1-6.75 1.55-6.75.25 0 .45-.352.45-.75s.2-.75.45-.75c1 0 1-2.602-.052-8.102-1.25-6.597-1.046-6.398-6-6.398-2.148 0-2.898-.2-2.898-.7 0-.35.5-.8 1.148-1 1.551-.402 6-.35 6.653.098 1.199.75 2.199 3.653 3.25 9.25l1.097 5.801-1.597 2.45c-1.25 2-2.5 6.101-2.551 8.5 0 .05-.352.101-.75.101-.5 0-.75-.55-.75-1.75M116 123.8c0-.652 1.398-1.3 2.898-1.3.301 0 .602.45.602 1 0 .8-.352 1-1.75 1-1.148 0-1.75-.25-1.75-.7M267.8 123.398c-.5-1.898-.35-2.398.7-2.398.8 0 1 .352 1 1.75 0 2-1.2 2.45-1.7.648M120 122.8c0-.698.852-1 12.352-3.8 7.148-1.75 7.148-1.75 7.148-.602 0 .75-1.45 1.25-8.648 3-9.454 2.301-10.852 2.454-10.852 1.403M161 120.5c0-.852.352-1 2.25-1 2.45 0 3.2 1.148 1.148 1.7-2.25.6-3.398.35-3.398-.7M267.2 118.148c-.15-1.046-.848-2.847-1.45-4l-1.2-2.148H266c1.5 0 2 .75 2 3.05 0 .802.25 1.45.5 1.45.3 0 .5.8.5 1.75 0 2.45-1.352 2.352-1.8-.102M141 117.852c0-.903 2.25-1.454 10.5-2.602 6.602-.898 6.5-.898 6.5.148 0 .75-1 1-6.602 1.801-10.699 1.5-10.398 1.5-10.398.653M184.75 117.55c-7.5-2.948-8.25-3.3-8.25-4.25 0-1.198 1.75-.902 6.398 1.15 5.704 2.5 7.301 2.75 12.602 1.85 5.8-1 8.3-2.1 11.352-4.948 3.898-3.602 5.25-4.051 16.898-5.852 5.95-.898 27.602-3.5 29.102-3.5.347 0 .648.398.648.898 0 .801-.95 1-8.352 1.801C227.7 106.5 211 109.301 211 110.4c0 .3-.55.601-1.25.601-1 0-1.25.25-1.25 1.25 0 .898-.25 1.25-1 1.25-.55 0-1 .352-1 .75s-.25.75-.55.75c-.302 0-.848.3-1.25.7-1.098 1.1-7.45 2.448-12.7 2.652-3.852.148-5.25 0-7.25-.801M213 117c0-1.398.148-1.5 1.75-1.5 2.2 0 2.2.45 0 1.898L213 118.5ZM158.5 115.25c0-.75.148-.8 8.648-2 6.653-.95 6.352-.95 6.352.148 0 .801-.852 1.051-6.602 1.75-8.046 1.051-8.398 1.051-8.398.102M217 114.8c0-.902.45-1.25 1.95-1.698 5.05-1.551 6.3.148 1.3 1.75l-3.25 1.046ZM245.5 114.3c0-.8 1.5-1.3 3.898-1.3 1.25 0 1.602.2 1.602 1 0 .898-.352 1-2.75 1-2 0-2.75-.2-2.75-.7m0 0" style="stroke:none;fill-rule:nonzero;fill:#83694e;fill-opacity:1"/>
  <path d="M224 112.5c0-.8.352-1 1.75-1 2 0 2.45 1.2.648 1.7-1.898.5-2.398.35-2.398-.7M185.352 110.5c-1.5-.8-4.25-1.852-6.051-2.3-3.75-.95-4.551-2.2-1.403-2.2 2.051 0 8.102 1.852 8.102 2.5 0 .2 1 .648 2.25 1 1.648.45 2.25.898 2.25 1.55 0 1.4-1.898 1.2-5.148-.55M192.5 111.148c0-.796.45-1.046 2.25-1.296 3-.454 5-1.5 8.05-4.403 1.4-1.3 3.348-2.699 4.348-3.148 3-1.25 17.602-3.903 30.75-5.551 1.403-.2 2.602-.398 2.602-.5 0-.05-.352-1.102-.75-2.25s-.75-2.648-.75-3.3c0-.65-.2-1.2-.45-1.2s-.652-.45-.8-1c-.2-.602-1.45-2.05-2.8-3.352-1.348-1.25-2.45-2.699-2.45-3.199 0-.597-.352-.949-.898-.949-1.204 0-2.102-.95-2.102-2.3 0-.802-.352-1.2-1.102-1.302-.648-.097-1.347-.648-1.648-1.25-.25-.648-.648-1.148-.852-1.148-.25 0-.398-.352-.398-.75s-.2-.75-.5-.75c-.25 0-.5-.352-.5-.75s-.2-.75-.398-.75c-.551 0-1.602-2.3-1.602-3.5 0-.55-.352-1-.75-1-.45 0-.75-.45-.75-1.25s-.3-1.25-.75-1.25c-.398 0-.75-.398-.75-.898 0-.454-.5-1.102-1.102-1.352-.648-.3-1.347-1-1.648-1.648C216.5 60.5 216 60 215.648 60c-.949 0-4.148-1.648-4.148-2.102 0-.199-.45-.398-1-.398-.602 0-1.852-.398-2.898-.95-1-.5-3.75-1.55-6.102-2.3s-4.3-1.602-4.398-1.8c-.102-.25-.551-.45-.954-.45-1.199 0-27.949-9.25-32.699-11.3-4.847-2.052-7.05-2.098-12.199-.2-1.648.602-3.75 1.352-4.602 1.7-.898.3-1.648.85-1.648 1.152 0 .398-.7.648-1.852.648l-1.898-.05 1.75-1.552c3.148-2.75 10.5-5.347 15.148-5.398 1.102 0 4.153.95 7.5 2.3 3.051 1.25 10.403 3.95 16.352 5.95 27.648 9.45 33.648 11.898 36.852 15.102 1.046 1.046 3.347 4.347 5.097 7.347 3.403 5.801 6.653 9.903 12.051 15.25 3.25 3.2 3.45 3.45 5.2 8.903 1 3.097 1.8 5.75 1.8 5.847 0 .153-.75.352-1.602.5-.898.153-6.5.95-12.398 1.801-10.5 1.55-17.352 2.898-20.148 3.95-.801.3-2.602 1.652-4.051 3.05-3 2.852-5.903 4.3-9.653 4.8-2.449.302-2.648.25-2.648-.652M232.5 111.102c0-.801.8-1.051 5.2-1.75 6.35-1.051 7.3-1.051 7.3-.102 0 .45-.7.8-1.852 1-1.046.2-3.648.648-5.847 1.05-4.903.9-4.801.9-4.801-.198M262.148 110.398c-2.097-1.296-2.097-1.898.102-1.898 1.602 0 1.75.102 1.75 1.5 0 .852-.05 1.5-.102 1.45-.097 0-.898-.5-1.75-1.052M99.352 109.648c-.653-.648-.352-3.449.898-8.097 2.3-8.45 5.352-12.551 9.5-12.551H112v2.398c0 2-.3 2.801-1.95 4.954-1.85 2.449-4.05 7.5-4.85 10.898-.2.852-.552 1.8-.848 2.148-.5.602-4.454.852-5 .25M246 109c0-.8.352-1 1.75-1 2 0 2.45 1.2.648 1.7-1.898.5-2.398.35-2.398-.7M251 108.5c0-.8.352-1 1.75-1 2 0 2.45 1.2.648 1.7-1.898.5-2.398.35-2.398-.7M254.5 102.8c0-.85 1.55-1.3 4.398-1.3 1.75 0 2.102.148 2.102 1 0 .898-.352 1-3.25 1-2.45 0-3.25-.148-3.25-.7m0 0" style="stroke:none;fill-rule:nonzero;fill:#83694e;fill-opacity:1"/>
  <path d="M225.5 87c0-1.352.102-1.45.95-.95 1.1.75 2.55.25 2.55-.8 0-.852-1.75-2.75-2.55-2.75-.302 0-.65.45-.802 1-.449 1.75-1.648 1.2-1.648-.75V81h2.5c1.898 0 2.5.2 2.5.75 0 .398.3.75.7.75.85 0 1.3 1.102 1.3 3.25 0 2-1 2.75-3.7 2.75-1.652 0-1.8-.102-1.8-1.5M215 83.5c0-.648-.352-1-1-1-.55 0-1-.352-1-.75s-.25-.75-.5-.75c-.3 0-.7-.398-.852-.852-.199-.5-.648-1.199-1-1.546-.699-.704-.847-3.454-.347-4.801.199-.551.949-.801 2.648-.801 4.653 0 7.051 2.648 7.051 7.75 0 3.45-.25 3.75-3.3 3.75-1.348 0-1.7-.2-1.7-1m3.3-2.2c.552-2.35-2.6-6.3-5.1-6.3-1.75 0-1.5 1.3.85 4.648 2.2 3.102 3.7 3.704 4.25 1.653M135.398 50.148c.551-.796 1.602-1.949 2.301-2.597l1.301-1.2v1.75c0 2.047-1.25 3.399-3.2 3.399h-1.35Zm0 0" style="stroke:none;fill-rule:nonzero;fill:#83694e;fill-opacity:1"/>
  <path d="M143.25 247.05c-.148-.25-1.102-.75-2.148-1.1-1-.302-3.5-1.4-5.551-2.348-4.051-1.954-3.852-1.954-15.153-1.352l-5.398.3-1.602-1.698c-.898-.954-2.398-2-3.347-2.301-3.903-1.301-5.95-2.95-8.102-6.7-3.398-5.8-5.75-7.902-9.05-8.152-1.098-.05-4.25-1.097-7-2.25-4.598-1.898-5.149-2.3-7.047-4.898C77.75 215 75.5 212.3 73.898 210.5c-6.75-7.55-7.398-13.602-2.398-23.5 2.898-5.75 3.95-9.352 4.102-14.3.046-2.75-.153-3.95-.801-4.95-1.153-1.75-.5-3.352 1.75-4.5 2.949-1.55 7.25-1.55 19.8.05l2.047.25 2.602 6.348c5.148 12.75 6.648 15.352 11.148 19.801 4.75 4.75 7.352 6.153 14.75 8 14 3.5 23.801 2.7 36.852-3 10-4.398 13.95-7.75 20.2-17.199 4.25-6.398 6.6-11.7 7.8-17.5.898-4.3 1.75-5.852 3.5-6.3 3.45-.848 6 1.5 10.852 10.1 4.046 7.2 5.75 9.25 10.949 13.15 5.699 4.3 10.648 5.6 21.699 5.6 5.3 0 6.5-.152 9.75-1.35 4.95-1.75 10.95-4.802 15.3-7.7l3.598-2.398 1.551 3.296c1.5 3.25 1.5 3.352.5 3.5-.847.153-1 .403-.699 1.5.148.75.45 3.903.602 7.051.296 6.5-.204 9.5-2.403 14.301-1.847 3.852-2.949 9.148-2.05 9.7.8.448-1.75 5.652-3.848 7.85-4.75 5-9.051 7.302-16.051 8.45-6.8 1.148-9.102 2-13.648 5.148l-4.051 2.75-7.5 1.102c-9 1.352-10.45 1.7-17.45 3.95-7.05 2.3-19.05 4.448-35.453 6.3-13.296 1.5-23.097 1.898-23.648 1.05m7.648-12.152c.204-.949-1.898-2.097-8.796-4.898-3.704-1.5-4.204-1.602-4.903-.95-1.25 1.302-.25 2.348 4.45 4.7 3.75 1.898 4.953 2.25 6.8 2.148 1.7-.097 2.352-.398 2.45-1m-38-11.546c.301-1.454-1.046-3-5.347-6.301-4.653-3.5-5.551-3.75-5.551-1.45 0 1.297.55 2.149 3 4.547 4.148 4 7.5 5.352 7.898 3.204m0 0" style="stroke:none;fill-rule:nonzero;fill:#a18c6d;fill-opacity:1"/>
  <path d="M265.5 208.648c0-.949.602-2 1.95-3.25 1.05-1.046 2.152-1.898 2.448-1.898.301 0 .602-.5.704-1.102.097-.648.648-1.347 1.296-1.648.602-.25 1.102-.75 1.102-1.102 0-.296.45-1.347 1-2.25 1.398-2.398 1.648-7.898.352-7.898-.352 0-1.25-1.25-2-2.75-1.352-2.8-1.801-5.75-.852-5.75.602 0 6 10.75 6 12 0 2.352-1.75 6.25-4.102 9.102-3.347 4.097-5.398 6.25-6.75 7.148-1.097.75-1.148.7-1.148-.602M140.5 174.25c-2.75-.852-4.5-1.8-4.5-2.352 0-.648 2.352-.449 5.5.5 2.2.602 3 1.102 3 1.75 0 1-.898 1.051-4 .102M147 174c0-.55.25-1 .5-1 .3 0 .5-.55.5-1.25 0-1 .25-1.25 1.25-1.25h1.2l-.848 2.25c-.852 2.398-2.602 3.2-2.602 1.25M133.7 170.398c-1.802-2-1.802-2.25.5-7.25 1.198-2.699 3.198-7.148 4.402-9.847 2.296-5.2 3.398-6.5 3.398-3.903 0 2-.45 3.102-1.3 3.102-.45 0-.7.55-.7 1.45 0 1.948-.45 3.05-1.3 3.05-.45 0-.7.602-.7 1.75 0 1.2-.25 1.75-.75 1.75q-.75 0-.75 1.5c0 1.648-1.45 5-2.148 5-.25 0-.204.3.097.7.352.402.551 1.448.45 2.3l-.149 1.602ZM149.5 168.3c0-1.6.148-1.8 1.25-1.8 1.2 0 1.25.05.602 1.602-.954 2.296-1.852 2.398-1.852.199M18.398 167.45c-1.449-.802-1.046-1.45.903-1.45 1.398 0 1.75.148 1.597.852-.199 1.046-1.296 1.347-2.5.597M151 164.3c0-1.25.2-1.8.75-1.8.5 0 .75-.55.75-1.75s.25-1.75.75-1.75.75-.5.75-1.7c0-.948.352-2.05.75-2.5.398-.402.75-1.198.75-1.75 0-.55.352-1.3.75-1.75.398-.402.75-1.198.75-1.75 0-.6.25-1.05.5-1.05.3 0 .5-.55.5-1.25s.25-1.25.5-1.25c.3 0 .5-.55.5-1.25 0-.8.3-1.25.75-1.25.5 0 .75-.55.75-1.75 0-.95.25-1.75.5-1.75.3 0 .5-.45.5-.95 0-1.5.55-2.55 1.3-2.55.45 0 .7-.55.7-1.45 0-1.948.45-3.05 1.3-3.05.45 0 .7-.602.7-1.75 0-1.55.148-1.75 1.25-1.75 1.25 0 1.25.05.55 1.648-.35.852-2.3 5.454-4.3 10.102-2 4.7-5.25 12.3-7.2 16.95-2 4.698-3.902 8.6-4.198 8.698-.403.102-.602-.449-.602-1.597M233.148 159.25c-2.25-.648-6.648-3-6.648-3.602 0-.75 1.55-3.648 1.95-3.648.3 0 .55 1 .55 2.25 0 2.148.05 2.25 1.5 2.25.852 0 1.5.2 1.5.45s1.25.6 2.75.8c2.25.25 2.75.5 2.75 1.3 0 1.15-.75 1.15-4.352.2M240.5 156.3c0-1.6.148-1.8 1.25-1.8 1.2 0 1.25.05.602 1.602-.954 2.296-1.852 2.398-1.852.199m0 0" style="stroke:none;fill-rule:nonzero;fill:#a18c6d;fill-opacity:1"/>
  <path d="M242 152.3c0-1 .25-1.8.5-1.8.3 0 .5-.55.5-1.25s.25-1.25.5-1.25c.3 0 .5-.55.5-1.25s.2-1.25.45-1.25.55-.898.75-2c.152-1.102.55-2 .8-2 .3 0 .5-.55.5-1.25 0-1 .25-1.25 1.25-1.25h1.2l-1.15 3.148c-4.35 11.454-5.8 14-5.8 10.153M228.95 149.148c2.75-7 3.402-8.347 3.948-8.546.403-.102.602.398.602 1.597 0 1-.2 1.801-.5 1.801-.25 0-.5.55-.5 1.25s-.2 1.25-.5 1.25c-.25 0-.5.55-.5 1.25s-.2 1.25-.5 1.25c-.25 0-.5.55-.5 1.25 0 1-.25 1.25-1.25 1.25H228ZM142.648 144.398c.954-2.296 1.852-2.398 1.852-.199 0 1.602-.148 1.801-1.25 1.801-1.2 0-1.25-.05-.602-1.602M144.55 139.398c1.25-3.148 1.4-3.398 2-3.398.25 0 .45.8.45 1.75s-.2 1.75-.5 1.75c-.25 0-.5.55-.5 1.25 0 1-.25 1.25-1.25 1.25h-1.25ZM272 136.25c0-1.852 1.2-2.5 1.602-.852.296 1.352-.102 2.602-.903 2.602-.449 0-.699-.55-.699-1.75M248.5 135.75c0-.95.25-1.75.5-1.75.3 0 .5-.55.5-1.25 0-1 .25-1.25 1.25-1.25H252l-1.05 2.602c-1.25 3.148-1.4 3.398-2 3.398-.25 0-.45-.8-.45-1.75M235.3 134.648c.45-1.046 1.65-3.898 2.7-6.347 1.898-4.7 3-5.95 3-3.45 0 2.149-.55 3.649-1.3 3.649-.45 0-.7.602-.7 1.75 0 1.2-.25 1.75-.75 1.75s-.75.5-.75 1.45c0 2.25-.5 3.05-1.8 3.05-1.2 0-1.2 0-.4-1.852M147.55 131.398c.848-2.25 1.598-4.25 1.7-4.449.148-.148 1.398-.449 2.852-.648 1.449-.2 3.398-.45 4.296-.602 1.352-.25 1.602-.148 1.602.7 0 .8-.45 1-3.05 1.3-4.15.5-4.25.551-4.95 3.102-.352 1.199-.852 2.199-1.05 2.199-.25 0-.45.55-.45 1.25 0 1-.25 1.25-1.2 1.25h-1.25Zm0 0" style="stroke:none;fill-rule:nonzero;fill:#a18c6d;fill-opacity:1"/>
  <path d="M251 129.3c0-1 .2-1.8.45-1.8s.55-.898.75-2c.152-1.102.55-2 .8-2 .3 0 .5-.55.5-1.25s.25-1.25.5-1.25c.3 0 .5-.55.5-1.25 0-1 .25-1.25 1.25-1.25 1.25 0 1.25 0 .5 1.898-.398 1-1.5 3.75-2.398 6.051-1.801 4.653-2.852 5.7-2.852 2.852M158.5 126.3c0-.35.5-.8 1.148-1 2.051-.55 2.852-.35 2.852.7 0 .852-.352 1-2 1-1.352 0-2-.2-2-.7M83.7 123.398c.55-4.699.85-5.898 1.55-5.898 2.25 0 5-6.5 6.55-15.648 2.2-13.102 4.098-15.75 15.5-21.801 11.5-6.153 14.65-8.602 16.95-13.551.7-1.5 2.25-4.102 3.5-5.75 1.2-1.648 2.648-3.898 3.2-5 .55-1.102 3.652-4.75 6.902-8.102 6.597-6.796 9-8.296 16.25-9.898 4.449-.95 5.449-.8 11.097 1.602 2.153.898 10.153 3.796 17.75 6.398 21.903 7.55 25.7 8.95 25.95 9.648.351 1.102-2.5.653-7.7-1.097-2.699-.95-11.8-4.102-20.199-7-8.398-2.903-15.3-5.5-15.398-5.801-.102-.25-.704-.5-1.352-.5s-1.5-.3-1.852-.648c-1.25-1.25-4.25-1.454-8.648-.5-2.352.449-4.25 1.046-4.25 1.25 0 .199-.648.398-1.5.398q-1.5 0-1.5.75c0 .45-.352.898-.8 1.102-.802.296-4.25 3.75-4 4 .05.046 1.35-.352 2.85-.903 2.348-.949 3.4-1.05 8.2-.8 3.05.152 6.75.652 8.25 1.101 7.352 2.25 15.95 6.75 21.648 11.398 5.102 4.153 11.801 6.852 21.5 8.602 6.75 1.25 12 3.25 14.352 5.55.7.65 2.2 3 3.25 5.2l1.95 4.05 2.85-.35c2.552-.302 2.9-.2 3.65.85.902 1.302 1.1 4.45.3 4.45-.25 0-.5.45-.5.95 0 .652-.398 1.05-1.25 1.152-1.102.148-.898.449 2.75 4.199l4 4.05 2.398-.25 2.454-.203-.903-2.949c-.5-1.597-1.25-3.597-1.699-4.398-.398-.852-.75-2.2-.75-3.102 0-1.347.102-1.5.8-.898 1.2 1 2.15 3.148 3.65 8.199l1.402 4.648-3.051.301c-5.051.551-19.2 2.801-24.45 3.852-6.351 1.3-7.953 2.05-11.05 4.898-3.2 3.051-4.801 3.852-9 4.602-4.2.699-6.602.398-9.95-1.25-6.101-3.051-9.05-3.352-18.703-2.102-2.949.403-7.847 1-10.898 1.301-14.898 1.602-43.852 8.898-56.648 14.3-2.153.9-11.5 2.7-14 2.7h-1.75Zm19.152-15.5c.296-.347.648-1.296.847-2.148.801-3.398 3-8.45 4.852-10.898 2-2.653 2.5-4.352 1.199-4.352-1.2 0-3.95 2.75-5.398 5.398-1.403 2.602-4 11.454-3.551 12.153.398.648 1.5.55 2.05-.153M228.8 86.301c.949-.7.949-.75-.102-2.153-.597-.75-1.55-1.449-2.148-1.546-.852-.153-1.051.097-1.051 1.199 0 1.25 1.2 3.199 2 3.199.148 0 .75-.3 1.3-.7m-11.102-3.602c1-.398 1.051-2.75.102-4.597-1-1.903-2.352-3.051-4.153-3.403-1.898-.398-2.546.852-1.347 2.75C213.3 79 216.5 83 216.75 83c.102 0 .5-.148.95-.3M272 124.898c0-.648.148-2 .3-3 .25-1.546.552-1.898 1.45-1.898 1.05 0 1.05 0 .352 3-.75 3-2.102 4.2-2.102 1.898M241.75 118.398c1.45-4.148 1.8-4.648 2.95-4.796 1.05-.153 1.3.046 1.3.847 0 .602-.3 1.051-.648 1.051-.352 0-.954 1.102-1.301 2.5-.352 1.398-.852 2.5-1.102 2.5s-.449.55-.449 1.25c0 1-.25 1.25-1.2 1.25h-1.198Zm0 0" style="stroke:none;fill-rule:nonzero;fill:#a18c6d;fill-opacity:1"/>
  <path d="M186.5 118c0-.25-.648-.5-1.5-.5q-1.5 0-1.5-.75c0-.5-.5-.75-1.7-.75-.948 0-2.05-.352-2.5-.75-.402-.398-1.402-.75-2.25-.75-1.25 0-1.55-.2-1.55-1.05 0-.95.2-1.052 1.7-.802.948.153 3.5 1.051 5.652 2 2.148.954 4.648 1.903 5.546 2.051 2.204.5 2.153 1.801-.148 1.801-.95 0-1.75-.2-1.75-.5M192.5 117.8c0-.698 1.352-1.1 6.648-2.05 1.602-.3 1.852-.25 1.852.602 0 .796-.55 1.097-3.2 1.546-4.152.801-5.3.75-5.3-.097M256 116.648c0-2.398.55-3.648 1.55-3.648 1.15 0 1.2.95.25 3.25-.902 2.102-1.8 2.3-1.8.398M163 114.8c0-.652 1.398-1.3 2.898-1.3.301 0 .602.45.602 1 0 .8-.352 1-1.75 1-1.148 0-1.75-.25-1.75-.7M202.5 115.102c0-.204.602-.75 1.398-1.204.75-.449 2.454-1.847 3.75-3.097 2.954-2.801 4.75-3.352 15.602-5 13.602-2.051 13.25-2.051 13.25-.95 0 .797-1.102 1.047-9.852 2.297-5.398.75-11.097 1.852-12.699 2.352-1.597.55-3.398 1-3.949 1-.7 0-1 .352-1 1.05 0 1.2-1.102 2.45-2.2 2.45-.448 0-.8.352-.8.75 0 .5-.55.75-1.75.75-.95 0-1.75-.2-1.75-.398M167 114.352c0-.801.8-1.051 5.148-1.653 2.153-.3 2.352-.25 2.352.75 0 .75-.3 1.051-1.102 1.051-.648 0-2.347.148-3.75.3-2.199.302-2.648.2-2.648-.448M248 114.3c0-.75 1.5-1.3 3.648-1.3 1 0 1.352.25 1.352 1 0 .852-.352 1-2.5 1-1.8 0-2.5-.2-2.5-.7M274.352 110.102C273 103.75 272.8 102 273.449 102c.852 0 1.852 2.7 2.75 7.45 1 5.152 1 5.05-.05 5.05-.7 0-1.098-.898-1.797-4.398M237 104.8c0-.35.5-.8 1.148-1 2.051-.55 2.852-.35 2.852.7 0 .852-.352 1-2 1-1.352 0-2-.2-2-.7M242 104.3c0-.652 1.398-1.3 2.898-1.3.301 0 .602.45.602 1 0 .8-.352 1-1.75 1-1.148 0-1.75-.25-1.75-.7M246 103.8c0-.35.5-.8 1.148-1 2.051-.55 2.852-.35 2.852.7 0 .852-.352 1-2 1-1.352 0-2-.2-2-.7M250.5 103.3c0-.698 1.45-1.3 3.398-1.3.75 0 1.102.3 1.102 1 0 .852-.352 1-2.25 1-1.602 0-2.25-.2-2.25-.7M258 102.8c0-.698 1.45-1.3 3.398-1.3.75 0 1.102.3 1.102 1 0 .852-.352 1-2.25 1-1.602 0-2.25-.2-2.25-.7M228.852 79.148c-.204-.148-.352-.949-.352-1.75 0-1.148-.2-1.398-1.25-1.398-.8 0-1.25-.3-1.25-.75 0-.398-.2-.75-.5-.75-.25 0-.5-.352-.5-.75s-.2-.75-.5-.75c-.25 0-.5-.55-.5-1.25s-.3-1.25-.648-1.25c-.801 0-1.852-2.05-1.852-3.5 0-.55-.352-1-.75-1a.77.77 0 0 1-.75-.75c0-.398-.2-.75-.5-.75-.25 0-.5-.8-.5-1.852 0-1.699.05-1.75.898-.949.551.45 2.153 2.95 3.653 5.602 1.5 2.597 3.55 5.8 4.55 7.097 1 1.301 2.348 2.954 2.899 3.75l1.05 1.352h-1.448c-.801 0-1.602-.148-1.75-.352M215 59.25c0-1.55.55-1.602 2.352 0l1.398 1.2-1.852.05c-1.699 0-1.898-.148-1.898-1.25M210.602 58.05c-.403-.198-.602-.902-.5-1.448l.148-1.051 2.148.949c1.153.5 2.102 1.2 2.102 1.5 0 .602-2.95.648-3.898.05m0 0" style="stroke:none;fill-rule:nonzero;fill:#a18c6d;fill-opacity:1"/>
  <path d="M123.2 181.102c-5-3.653-8.598-9.403-12.45-19.954-2.3-6.347-4.102-9.199-7.05-11.296-1.25-.852-2.7-2.403-3.2-3.403-1.398-2.648-2.55-9.25-2.398-13.199.148-3.75.449-4.148 4-5l1.398-.352v5.153c0 5.597 1 11.347 2.3 13.3.4.7 1.75 1.649 2.95 2.2 1.398.597 2.3 1.398 2.648 2.3.25.797 1.801 5.399 3.352 10.297 3.25 9.954 5.7 15.301 8.75 18.903 1.148 1.347 1.95 2.449 1.852 2.449-.102 0-1.102-.648-2.153-1.398M153 174.3c0-.402 3.5-9.198 6-15.05 3.7-8.602 9.55-23.148 11.75-29.102 1-2.847 2.148-5.148 2.5-5.148 1.352 0 4.05 2.398 5.148 4.602 2.954 5.898 1.352 23.199-2.949 32.25-1.847 3.847-5.5 7.25-10.199 9.398-4.102 1.898-12.25 3.95-12.25 3.05M128.102 160.398c-2.5-6.148-5.102-16.949-5.102-21.296 0-3.25 1.148-4.602 5.648-6.852 3.25-1.55 16.153-5.102 16.704-4.55.097.1-2.653 6.902-6.153 15.1-3.449 8.25-6.898 16.348-7.648 18.052-.7 1.75-1.45 3.148-1.653 3.148-.148 0-1-1.648-1.796-3.602M245.5 158.852c0-.653 11.7-31.551 14.45-38.301.85-2.051 1.55-4 1.55-4.352 0-1.05.898-.847 1.5.352.352.55.898 3.898 1.3 7.347 1.95 17.653-.698 28.153-8.05 32.204-2.852 1.546-10.75 3.597-10.75 2.75M223.5 151.95C221.05 148 216 137 215.3 134c-1-4.2-1.05-10.102-.1-11.95 1.5-2.8 4.5-3.948 15.948-6 4.454-.8 8.153-1.402 8.25-1.3.352.352-3.046 9.398-7.699 20.5-2.597 6.352-5.3 13.05-5.949 14.95l-1.148 3.448Zm0 0" style="stroke:none;fill-rule:nonzero;fill:#ec7647;fill-opacity:1"/>
  <path d="M137.05 184.7c-4.25-1.15-8.402-3.598-10.85-6.45-3.4-4-6-10.05-10.2-23.602-1.852-6-2.8-7.398-5.55-8.199-2.4-.75-1.95.95-4.2-15.949-.55-4.2 1.8-5.3 21.75-10.25 14.602-3.602 17.602-4.148 34.75-6.25l12.45-1.5 6.3 2.95c7.398 3.55 10 4.25 14.148 3.948 3.954-.347 7.102-1.847 10.852-5.199 5.25-4.699 7.8-5.55 21.75-7.199 4.95-.55 10.602-1.25 12.5-1.5 9.602-1.3 28.55-1.95 30.95-1 1.6.602 2.3 2.898 2.652 9.05.199 3.5.097 5.098-.403 6-.5.9-.648 4.302-.699 13.95-.05 12.102-.102 12.95-1.3 16.75-1.5 4.898-4.2 9.2-7.052 11.3-6.097 4.5-15 7.25-25.398 7.75-15.05.802-21.148-4.25-29.05-23.902-2.75-6.796-3.302-7.847-5.15-9.796-2.1-2.25-3.85-3.102-6.3-3.102-4.148 0-7.398 2.648-8.75 7.148-.352 1.153-1.148 5.602-1.75 9.852-2.102 14.648-4.3 20.3-9.75 25.398-3.8 3.602-10.5 7.051-16 8.301-10.102 2.301-20.45 2.903-25.7 1.5m23.802-7.9c11.648-3.198 17.046-8.35 20.347-19.3 1.95-6.7 2.45-10.2 2.5-18.5.051-6.898-.05-8-1-10.05-1.648-3.598-4.347-6.25-7.3-7.25-6.95-2.302-34 1.5-47 6.6-6.75 2.65-8.899 5.348-8.899 11.098 0 3.75 1.648 11.75 3.852 18.352 3.949 12.05 7.796 16.898 15.597 19.648 3 1.051 3.903 1.102 10.301.903 5.45-.153 8.05-.5 11.602-1.5m86.597-14.05c5.5-1.05 10.75-2.898 12.852-4.5 2.25-1.75 4.949-5.8 6.199-9.45 1.7-4.8 2.25-12.8 1.55-22.152-.75-9.847-1.402-12.296-3.948-14.796-2.954-2.852-5.551-3.25-15.403-2.204-8.449.903-22.648 3.352-27.199 4.653-4.3 1.25-7.398 3.05-8.7 5.097-3.448 5.25-2.948 11.954 1.75 23 5.4 12.801 10.15 18.25 17.95 20.403 3.148.847 10.148.847 14.95-.051M18.602 167.5c-2.403-1-2.801-5.75-.852-9.898 1.95-4.153 6.148-9.903 9.398-12.852 3.5-3.2 7.25-4.7 16.102-6.45 6.352-1.25 26.95-4.55 39.5-6.3 4.148-.55 8.25-1.148 9.148-1.352l1.602-.25v2.653c0 2.398 1.102 10.449 1.8 13.25.25.898 0 1.097-1.652 1.347-12 1.75-27.398 3.903-30.347 4.153-3.602.3-3.852.25-9.45-2-6.652-2.7-10.55-3.551-14.3-3.102-6.25.75-8.852 3.2-12.602 12.051-2.5 5.852-4.199 8.75-5.148 8.75-.403 0-1 .102-1.403.2-.347.152-1.148.05-1.796-.2m0 0" style="stroke:none;fill-rule:nonzero;fill:#72a995;fill-opacity:1"/>
  <path d="M262.05 215.95c.348-.65.802-3.598 1-6.5.25-4.052.65-6.052 1.7-8.5 2.648-6.302 2.898-7.25 3.102-11.7.199-3.852 0-5.352-1.25-10.25-1.403-5.25-1.454-5.8-.75-6.602 1.046-1.199 1.597-1.148 2.097.25.25.602 2.403 5.153 4.801 10.102s4.398 9.602 4.352 10.3c-.102 4.15-1.852 7.098-7.801 13.348-2.102 2.204-4.352 5.153-5.25 6.954-.852 1.699-1.801 3.25-2.102 3.398-.347.25-.3-.05.102-.8M142.398 174.648c-1.796-.449-1-1.648 1.102-1.648 1.648 0 2 .148 2 1 0 1-1 1.2-3.102.648M147.5 173.3c0-1 .2-1.8.45-1.8s.55-.898.75-2c.152-1.102.5-2 .75-2s.55-.898.75-2c.152-1.102.55-2 .8-2 .3 0 .5-.55.5-1.2 0-.698.352-1.55.75-2 .398-.402.75-1.05.75-1.448 0-1.301.602-2.352 1.3-2.352.45 0 .7-.602.7-1.75 0-.95.25-1.75.5-1.75.3 0 .5-.55.5-1.2 0-.698.352-1.55.75-2 .398-.402.75-1.198.75-1.75 0-.6.25-1.05.5-1.05.3 0 .5-.55.5-1.25s.25-1.25.5-1.25c.3 0 .5-.55.5-1.2 0-.698.352-1.55.75-2 .398-.402.75-1.198.75-1.75 0-.6.3-1.05.75-1.05.5 0 .75-.5.75-1.602 0-2.148.602-3.046 1.898-2.796.954.148.852.546-1.75 6.648-8.148 19.3-10.296 24.45-12 28.95-2.046 5.35-3.148 6.6-3.148 3.6M137.2 172.8c-1.4-.652-3.052-1.902-3.65-2.75l-1.1-1.55h1.448c1.454 0 3.102 1.3 3.102 2.398 0 .352.7.602 1.5.602 1.25 0 1.5.2 1.5 1.25 0 .7-.05 1.25-.102 1.25-.097 0-1.296-.55-2.699-1.2M134.95 161.898c.25-.648 2.25-5.199 4.448-10.148 3.852-8.75 9.602-23.2 9.602-24.2 0-.6.8-.8 5.5-1.55 4.352-.648 4.5-.648 4.5.45 0 .75-.55 1-3.102 1.25-5.796.652-5.898.698-5.898 2.6 0 .95-.2 1.7-.5 1.7-.25 0-.5.55-.5 1.25s-.2 1.25-.45 1.25-.55.898-.75 2c-.152 1.102-.55 2-.8 2-.3 0-.5.55-.5 1.25s-.2 1.25-.45 1.25-.55.898-.75 2c-.198 1.3-.55 2-1.05 2q-.75 0-.75 1.5c0 1.852-.95 4-1.852 4-.398 0-.648.55-.648 1.45 0 1.948-.45 3.05-1.3 3.05-.45 0-.7.602-.7 1.7 0 .948-.352 2.05-.75 2.5-.398.402-.75 1.05-.75 1.448 0 1.5-.648 2.352-1.8 2.352-1 0-1.098-.148-.75-1.102M233.75 159.3c-2.852-.698-5.3-1.902-6.2-3-.6-.698-.448-.8 1.15-.8 1.152 0 1.8.25 1.8.648 0 .403 1.352.903 3.75 1.301 3.102.551 3.75.852 3.75 1.602 0 1.097-.648 1.148-4.25.25M239 159.25c0-.8 1.05-3.352 1.55-3.75.15-.148.45-1.102.65-2.102.198-1.046.55-1.898.8-1.898.3 0 .5-.55.5-1.25s.25-1.25.5-1.25c.3 0 .5-.55.5-1.25s.25-1.25.5-1.25c.3 0 .5-.55.5-1.25 0-1 .25-1.25 1.25-1.25 1.25 0 1.25 0 .5 1.852-.45 1.046-1.852 4.648-3.102 8-1.796 4.75-2.546 6.148-3.25 6.148-.5 0-.898-.352-.898-.75M227.7 152.648c.402-1.046 1.6-4.199 2.75-7.046 3.698-9.25 5.55-12.102 5.55-8.602 0 1.55-1.898 6-2.602 6-.199 0-.398.55-.398 1.25s-.2 1.25-.5 1.25c-.25 0-.5.55-.5 1.25s-.2 1.25-.5 1.25c-.25 0-.5.55-.5 1.25s-.2 1.25-.45 1.25-.55.898-.75 2c-.25 1.7-.5 2-1.55 2-1.2 0-1.2-.05-.55-1.852m0 0" style="stroke:none;fill-rule:nonzero;fill:#bea97b;fill-opacity:1"/>
  <path d="M246 141.75c0-.95.2-1.75.45-1.75s.55-.898.75-1.95c.152-1.1.652-2.3 1.05-2.75.398-.402.75-1.198.75-1.75 0-.6.2-1.05.45-1.05s.55-.898.75-2c.152-1.102.5-2 .75-2s.55-.898.75-2c.152-1.102.55-2 .8-2 .3 0 .5-.55.5-1.25s.25-1.25.5-1.25c.3 0 .5-.55.5-1.25s.2-1.25.398-1.25c.25 0 .75-1.45 1.102-3.25.602-2.898.8-3.25 1.898-3.25 1.051 0 1.153.148.852 1.352-.352 1.398-8.602 23.046-10.3 27.046-1.098 2.551-1.95 2.704-1.95.352M272.602 134.898c-.301-1.75-.704-4.347-.903-5.75-.3-2.5-.25-2.648.75-2.648s1.051.2 1.051 5.75c0 3.148-.05 5.75-.148 5.75-.102 0-.454-1.398-.75-3.102M235.95 133.398c1.402-3.648 3.05-6.898 3.5-6.898.85 0 .652 3.352-.2 4.2-.398.402-.75 1.05-.75 1.448 0 1.5-.648 2.352-1.8 2.352-1 0-1.098-.148-.75-1.102M165 131.25c0-1.2.25-1.75.75-1.75s.75-.5.75-1.45c0-2.25.5-3.05 1.8-3.05.65 0 1.2.102 1.2.2 0 .698-3.648 7.8-4 7.8-.3 0-.5-.8-.5-1.75M159.5 126.3c0-.698 1.45-1.3 3.398-1.3.75 0 1.102.3 1.102 1 0 .852-.352 1-2.25 1-1.602 0-2.25-.2-2.25-.7M240.3 122.648c.75-1.898 1.7-4.546 2.15-6 .8-2.648 1.402-3.148 3.948-3.148.75 0 1.102.3 1.102 1 0 .75-.352 1-1.45 1-1.25 0-1.448.2-1.75 2-.152 1.102-.55 2-.8 2-.3 0-.5.55-.5 1.25s-.2 1.25-.45 1.25-.55.898-.75 2c-.25 1.7-.5 2-1.55 2H239ZM271.852 122.95c-.204-1.75-.051-3.15.5-4.5.898-2.25.699-6.75-.454-10.2-.5-1.55-1-2.05-2.25-2.45-2.347-.652-2.148-1.8.352-1.8 1.95 0 2 .05 2 1.75 0 1.398.2 1.75 1 1.75.55 0 1-.352 1-.75s.3-.75.7-.75c.698 0 1.1 1.398 2.1 7.148.302 1.653.2 1.852-.75 1.852-.6 0-1.05.3-1.05.75 0 .398.45.75 1 .75 1.3 0 1.25.25-.45 2.95-.8 1.25-1.6 3.152-1.75 4.198-.5 2.75-1.6 2.352-1.948-.699M191.75 121.102c-3-.301-7-1.75-11.75-4.102-2.648-1.3-5.8-2.7-7-3l-2.25-.648 1.5-.454c2.3-.699 6.3-.046 9.95 1.602 1.8.8 4.198 1.75 5.3 2.05 1.3.4 2 .9 2 1.45 0 .898 2.102 1.5 5.148 1.5 1.352 0 2.051 1.45.75 1.55-.347 0-1 .052-1.398.15-.398.05-1.398 0-2.25-.098M196.5 120.102c0-.903.398-1.102 2.5-1.403 1.398-.199 2.5-.5 2.5-.75s.648-.449 1.45-.449c1.152 0 1.5-.25 1.652-1.102.097-.949.5-1.148 2.148-1.296l2-.102-1.898 1.7c-2.301 2.05-5.551 3.652-8.301 4.1-1.852.302-2.051.2-2.051-.698M193 117.8c0-.448.95-.902 2.5-1.25 3.352-.698 3.5-.698 3.5.4 0 .698-.5 1-1.852 1.25-3 .448-4.148.35-4.148-.4m0 0" style="stroke:none;fill-rule:nonzero;fill:#bea97b;fill-opacity:1"/>
  <path d="M199.5 116.352c0-.403.8-.903 1.75-1.204 1.648-.546 1.75-.5 1.75.653 0 1.05-.25 1.199-1.75 1.199-1.102 0-1.75-.25-1.75-.648M250 114.3c0-.8 1.5-1.3 3.898-1.3 1.25 0 1.602.2 1.602 1 0 .898-.352 1-2.75 1-2 0-2.75-.2-2.75-.7M206.7 111.75c2.948-2.852 3.8-3.3 3.8-2 0 .55.398.648 1.648.398 2.102-.398 2.352-.648.704-.648-2.204 0-1.602-1.3.847-1.95 2.5-.6 18.852-3.152 19.051-2.948.102.097.3.847.45 1.699.3 1.347.198 1.597-.802 1.898-1.898.5-2.296.352-2.546-.8l-.204-1.149-.398 1.102c-.398 1.199-.898 1.347-6.75 2.097-5 .7-8.25 1.7-11.102 3.5-2.199 1.403-2.398 1.45-2.398.551 0-.55-.352-1-.75-1s-.75.45-.75 1c0 .8-.352 1-1.852 1h-1.847ZM233.8 106.45c-.35-1.9-.402-1.848 1.552-2.25 1.398-.25 1.546-.15 1.847 1.35.352 1.9.403 1.848-1.55 2.25-1.399.25-1.547.15-1.848-1.35M238 105.852c0-1.403.25-1.801 1.148-2.051 1.903-.5 2.75-.352 3 .597.204.704.25.75.301.051.051-.8 1.403-1.449 3.2-1.449.5 0 .851.398.851 1 0 .55-.2 1-.5 1-.25 0-.5.3-.5.7 0 .75-.898 1-5.102 1.6l-2.398.302ZM247 104.8c0-1.3.25-1.75 1.148-2 2.352-.6 2.852-.402 2.852 1.4 0 1.3-.25 1.75-1.102 2-2.398.6-2.898.402-2.898-1.4M252.3 104.398c-.152-.847-.198-1.648-.1-1.75.1-.148 1.152-.347 2.25-.5 1.85-.25 2.05-.148 2.05.801 0 .801.3 1.051 1.25 1.051 1.55 0 1.648 1.25.148 1.7-.648.152-2.097.3-3.199.3-1.949 0-2.097-.102-2.398-1.602M272.5 103c0-2.148 1.3-1.8 2.148.648.25.653.051.852-.898.852-1.05 0-1.25-.25-1.25-1.5M259.5 102.8c0-.8 1.5-1.3 4.148-1.3 1.5 0 1.852.2 1.852 1 0 .898-.352 1-3 1-2.2 0-3-.2-3-.7M229.45 93.852c-3.9-4.153-4.65-5.301-7.65-11.602-1.85-3.852-3.902-7.602-4.6-8.3-2.2-2.302-7.65-4.4-14.552-5.7-9.699-1.75-16.398-4.45-21.5-8.602C175.45 55 166.7 50.398 159.5 48.301c-1.5-.45-4.55-.95-6.75-1.102l-4.05-.347-7.598 3.046-7.602 3 1.45-1.847c2.948-3.7 10.1-10.102 12.448-11.102 1.25-.55 4.102-1.398 6.204-1.898 4.597-1.102 6.546-.852 11.648 1.449 1.95.852 8.7 3.352 15 5.5 36.45 12.45 37.95 13.2 42 20.3 4 7.052 6.3 10.2 10.95 15.098 2.85 2.954 5.6 6.25 6.152 7.352 1.046 2.102 3.398 9.7 3.097 10-.097.05-2.097.25-4.449.398l-4.25.301Zm-.302-7.903c.852-1.347-.847-3.55-2.546-3.347-1.75.199-2.051 1.949-.602 3.398 1.2 1.2 2.398 1.148 3.148-.05m0 0" style="stroke:none;fill-rule:nonzero;fill:#bea97b;fill-opacity:1"/>
  <path d="M142.25 174.5c-3.3-.7-5.898-2-7.898-3.898-2.153-2.102-2.25-2.852-.801-5.704 3.847-7.546 14.25-32.5 15.199-36.5.25-1.046.75-1.449 1.95-1.648 5.402-.898 8.652-1.3 13.448-1.55l5.352-.348-2.5 5.699c-1.398 3.148-4.25 9.75-6.352 14.699-2.046 4.95-4.449 10.602-5.296 12.5-.852 1.95-2.704 6.55-4.153 10.25l-2.55 6.75-2.2.102c-1.199.046-3.097-.153-4.199-.352M233.5 159.102c-3.352-.903-6.5-2.704-6.5-3.801 0-1 3.852-10.602 7.5-18.551 3.8-8.398 8.5-20.398 8.5-21.852 0-.5.148-.898.398-.898.204 0 3.301-.25 6.852-.5 3.602-.25 6.898-.352 7.352-.2 1.097.348 1.097.4-10.852 30.95-1.8 4.7-3.898 10.102-4.648 12-1.352 3.5-1.403 3.5-3.352 3.602-1.102.046-3.45-.25-5.25-.75M190.25 120.75c-.25-.102-1.102-.3-1.852-.45-1.199-.25-1.398-.6-1.398-1.948v-1.602l3.3.148c3.7.204 9.95-1 12.848-2.5 1.051-.5 3.102-2.046 4.602-3.398 2.852-2.602 4.102-3.102 10.898-4.3 5.25-.9 5.352-.9 5.352.3 0 .55-.2 1-.5 1-.25 0-.5.352-.5.75 0 .5-.5.75-1.352.75-1.648 0-5.648 1.05-8.148 2.102-.95.398-3.2 2.046-5 3.597-3.75 3.301-5.3 4.2-8.75 5.102-2.25.597-8.2.898-9.5.449m0 0" style="stroke:none;fill-rule:nonzero;fill:#f1cc60;fill-opacity:1"/>
  <path d="M272.75 119.55c-.148-.5-.05-1.5.25-2.25.25-.75.5-2.6.5-4.1s.2-2.7.45-2.7c.198 0 .3-.55.152-1.25-.153-.75-.551-1.25-1.102-1.25-.5 0-1.25-.602-1.75-1.3l-.852-1.302-13.796.102c-17 .148-16.102.2-16.102-.898 0-.801.75-1 6-1.551 7.5-.75 19.148-1.551 23.602-1.551 3.25 0 3.398.05 4.148 1.55.852 1.552 2.75 10.5 2.75 12.7 0 1.648-2 4.75-3.102 4.75-.449 0-.949-.398-1.148-.95M226.5 106.3c0-.35.5-.8 1.148-1 2.051-.55 2.852-.35 2.852.7 0 .852-.352 1-2 1-1.352 0-2-.2-2-.7M231.102 105.648c.097-.597.699-.949 1.796-1.046 1.352-.153 1.602 0 1.602.847 0 .852-.3 1.051-1.8 1.051-1.4 0-1.75-.148-1.598-.852m0 0" style="stroke:none;fill-rule:nonzero;fill:#f1cc60;fill-opacity:1"/>
  <path d="M153.75 160.5c.45-1.5 1.7-4 2-4 .2 0-1.75 4.602-2.148 5-.102.148-.051-.3.148-1M228.398 156.852c-1.449-1.204-1.796-2.551-.847-3.153.398-.199.449 0 .199.75s.05 1.352 1.102 2.301c1.75 1.55 1.398 1.602-.454.102M143.852 141.602c.148-.602.449-1.25.699-1.403.699-.398.55.5-.301 1.602-.648.898-.7.898-.398-.2M162.2 140.25c.5-1.102 1.1-2.2 1.35-2.5.302-.25.098.45-.448 1.648-1.25 2.75-1.954 3.454-.903.852M272.352 132c-1.102-7.45-1.102-10.352.199-13.55.898-2.4.949-2.95.449-6-.352-1.9-1-4.2-1.5-5.15-1-2-.95-2.1.5-1.198.8.5 1.148.5 1.75-.153 1.148-1.148.05-3.449-1.648-3.449-.704 0-1.102-.148-.903-.352 1.352-1.347 3.5.801 4.051 4 .148.852.5 2.352.75 3.25.3 1.204.25 1.801-.3 2.301-.4.403-.7 1.602-.7 2.653 0 1.046-.2 2.199-.45 2.597-.55.852-.152 2.153.5 1.75.65-.398.552.153-.402 1.95-.699 1.25-.949 3.25-1.148 9.351l-.25 7.75ZM249.75 135.05c.352-1.6 2.602-6.55 3-6.55.2 0-2.75 7.648-3.102 8-.148.148-.097-.5.102-1.45M166.8 130c.2-.7.65-1.8 1.052-2.5l.699-1.25-.352 1.25c-.199.7-.648 1.8-1.05 2.5l-.7 1.25ZM254.5 123c0-.398.25-1.102.5-1.5.45-.648.5-.648.5 0 0 .398-.25 1.102-.5 1.5-.45.648-.5.648-.5 0M188.05 120.2c-1.448-.4-4.5-1.65-6.75-2.75-2.198-1.15-5.402-2.598-7.05-3.25l-3-1.15 3.648-.05c3.153 0 4.204.25 8.5 2.102 2.653 1.148 5.551 2.25 6.352 2.449l1.5.347-1.398.051c-1.653.051-1.352 1.051.347 1.051.602 0 1.301.148 1.45.352.8.796 6.5.898 9.203.199 1.097-.301 2.898-1.153 3.949-1.852 1.05-.75 1.597-.949 1.199-.5-2.648 3.2-11.602 4.7-17.95 3M256.05 119.852c-.1-.852 1.65-6.352 2-6.352.2 0 0 1.2-.5 2.648-1.25 3.602-1.448 4.153-1.5 3.704M207.648 115.7c.454-.552.852-1.2.852-1.45 0-.2-.398-.102-.852.3-.847.598-.847.598-.097-.25.449-.448 1.199-.902 1.648-1 .5-.05 1.051-.402 1.301-.75.2-.402.602-.6.898-.5.25.098-.648 1.2-2.097 2.45-1.403 1.2-2.153 1.75-1.653 1.2M243 114.602c0-.301 1.398-.653 3.148-.801 8.051-.7 10.301-.75 10.551-.352.153.2-2.347.551-5.597.75-3.204.2-6.352.5-6.954.653-.648.148-1.148.046-1.148-.25M207.95 110.8c.85-1 4.05-2.85 4.05-2.35 0 .25-.648.698-1.5 1.05-.8.352-1.5.8-1.5 1s-.352.55-.8.7c-.7.25-.75.198-.25-.4M213.95 111.05c.402-.25.5-.698.25-1.1-.302-.552-.2-.552.5 0 .652.55.698.8.198 1.1-.347.25-.847.45-1.148.45-.25 0-.2-.2.2-.45M218 109.648c0-.25.602-.5 1.352-.546.75-.051 1.597-.352 1.898-.704.352-.398.3-.449-.102-.199-.347.2-.648.102-.648-.148 0-.301-.95-.551-2.102-.602-1.847-.05-2-.097-.847-.449.75-.2 2.3-.5 3.5-.648 1.199-.153 3.898-.551 5.949-.852 5.898-.852 7-1 11-1.5 2.05-.2 3.852-.352 4.05-.2.15.098 1-.05 1.9-.3.85-.25 1.55-.25 1.55 0 0 .398 7.05.898 17.7 1.25 3.55.148 6.55.352 6.698.5.153.148-3 .25-6.949.25s-10.347.352-14.199.75c-8.648.898-27.5 3.148-29.352 3.55-.796.15-1.398.098-1.398-.152M252.648 102.648c.75-.097 1.852-.097 2.5 0 .602.102 0 .204-1.398.204-1.352 0-1.898-.102-1.102-.204M262.05 101.95c2.098-.2 4.9-.2 6.25 0 1.9.35 1.098.448-3.8.402-6 0-6.102 0-2.45-.403m0 0" style="stroke:none;fill-rule:nonzero;fill:#e7ce6f;fill-opacity:1"/>
</svg>
